<?xml version="1.0" standalone="no"?>
<!DOCTYPE svg PUBLIC "-//W3C//DTD SVG 1.1//EN" "http://www.w3.org/Graphics/SVG/1.1/DTD/svg11.dtd" >
<svg xmlns="http://www.w3.org/2000/svg">
<metadata>
This is a custom SVG webfont generated by Font Squirrel.
Copyright   : Copyright c 2011 Barry Schwartz
</metadata>
<defs>
<font id="FanwoodTextItalic" horiz-adv-x="360" >
<font-face units-per-em="1000" ascent="690" descent="-310" />
<missing-glyph horiz-adv-x="200" />
<glyph unicode="fi" horiz-adv-x="508" d="M-128 -240q0 15 18 29.5t34 14.5q13 0 38.5 -12t42.5 -12q9 0 16 6t13 18.5t10 24t8 31t5.5 30l4.5 31.5t4 25l23.5 160.5t21.5 160.5t8 68q0 6 -1 7.5t-6 1.5h-70q-7 0 -8.5 1t-1.5 6q0 8 2 16q1 8 10 8h71q8 0 9 9q9 97 42 158q43 75 112 114q48 28 101 28 q25 0 50.5 -13t25.5 -26q0 -15 -20 -29.5t-37 -14.5q-14 0 -44 18.5t-46 18.5q-25 0 -47.5 -26.5t-35.5 -67.5q-17 -52 -33 -166q0 -3 5 -3h82q52 0 87.5 5.5t47.5 5.5q23 0 23 -25q0 -27 -32.5 -151t-32.5 -135q0 -17 10 -17q7 0 26.5 16t35.5 32t17 16q3 0 9 -6t6 -9 q0 -12 -64.5 -64t-89.5 -52q-27 0 -27 21q0 25 35.5 146t35.5 152q0 10 -3 22t-7 12h-161q-5 0 -7 -8q-2 -11 -13 -91l-23.5 -164.5l-20.5 -134.5q-3 -17 -11 -45t-31 -71.5t-53 -65.5q-2 -1 -8.5 -6l-10 -7.5t-10.5 -7t-11.5 -7t-11.5 -6t-13 -5t-13.5 -3t-14.5 -1.5 q-24 0 -47.5 13t-23.5 26z" />
<glyph unicode="fl" horiz-adv-x="534" d="M-128 -240q0 15 18 29.5t34 14.5q13 0 38.5 -12t42.5 -12q9 0 16 6t13 18.5t10 24t8 31t5.5 30l4.5 31.5t4 25l23.5 160.5t21.5 160.5t8 68q0 9 -7 9h-70q-11 0 -11 5q0 7 3 19q1 7 10 7h70q9 0 10 9q2 21 11 65q14 62 38 101.5t68 76.5q63 54 130 54q29 0 52 -17 q5 -4 8 -4q2 0 8 3q39 19 40 19q13 0 13 -12t-50 -304.5t-50 -297.5q0 -18 11 -18q15 0 57 42t43 42q4 0 11.5 -6t7.5 -10q0 -6 -28.5 -37t-72.5 -62.5t-75 -31.5q-32 0 -32 41q0 5 7 45.5l21 120l24 140.5q2 10 -7 10h-162q-8 0 -9 -8q-2 -13 -13 -91.5l-23.5 -163.5 t-20.5 -135q-3 -17 -11 -45t-31 -71.5t-53 -65.5q-2 -1 -8.5 -6l-10 -7.5t-10.5 -7t-11.5 -7t-11.5 -6t-13 -5t-13.5 -3t-14.5 -1.5q-24 0 -47.5 13t-23.5 26zM192 381q-1 -4 0.5 -5t6.5 -1h165q6 0 8 1.5t3 9.5q29 193 34 233q-11 -6 -26 -6q-13 0 -43 16q-18 9 -23 9 q-13 0 -35 -15q-30 -21 -51 -73.5t-28 -91.5t-11 -77z" />
<glyph unicode="ff" horiz-adv-x="531" d="M-128 -240q0 15 18 29.5t34 14.5q13 0 38.5 -12t42.5 -12q9 0 16 6t13 18.5t10 24t8 31t5.5 30l4.5 31.5t4 25l23.5 160.5t21.5 160.5t8 68q0 7 -1.5 8t-6.5 1h-69q-10 0 -10 6q0 7 3 19q1 6 9 6h73q6 0 7 9q6 53 24 103q26 71 87.5 129t142.5 58q32 0 61 -13t39 -28 l2 -3q25 20 36 26q48 28 92 28q25 0 50.5 -13t25.5 -26q0 -15 -20 -29.5t-37 -14.5q-14 0 -39.5 18.5t-41.5 18.5q-74 0 -106 -253q-2 -10 5 -10h81q8 0 8 -4q-1 -7 -4 -23q-2 -4 -6 -4h-80q-8 0 -9 -8l-48 -320q-9 -56 -34.5 -117t-65.5 -97q-49 -44 -93 -44q-24 0 -46 10 t-22 22q0 14 17.5 28t32.5 14q12 0 37 -7.5t41 -7.5q8 0 15 4.5t13 14t10.5 18t9 24.5t7 26t5.5 28.5t4 26.5t3.5 25.5t2.5 19.5l19.5 146.5t16.5 132t6 53.5q0 8 -7 8h-161q-9 0 -10 -8q-2 -13 -13 -91.5l-23.5 -163.5t-20.5 -135q-3 -17 -11 -45t-31 -71.5t-53 -65.5 q-2 -1 -8.5 -6l-10 -7.5t-10.5 -7t-11.5 -7t-11.5 -6t-13 -5t-13.5 -3t-14.5 -1.5q-24 0 -47.5 13t-23.5 26zM192 382q0 -7 5 -7h168q5 0 6 9q9 97 42 158q18 33 36 55q-6 -3 -13 -3q-17 0 -39 18q-38 29 -58 29q-41 0 -74.5 -36.5t-47.5 -86.5q-23 -86 -25 -136z" />
<glyph unicode="ffi" horiz-adv-x="755" d="M-128 -240q0 15 18 29.5t34 14.5q13 0 38.5 -12t42.5 -12q9 0 16 6t13 18.5t10 24t8 31t5.5 30l4.5 31.5t4 25l23.5 160.5t21.5 160.5t8 68q0 9 -6 9h-71q-10 0 -10 7q1 12 2 16q1 8 10 8h73q6 0 7 9q6 53 24 103q26 71 87.5 129t142.5 58q32 0 61 -13t39 -28l4 -8 q16 15 43 31q50 28 101 28q25 0 50.5 -13t25.5 -26q0 -15 -20 -29.5t-37 -14.5q-13 0 -43 18.5t-47 18.5q-25 0 -47.5 -26.5t-35.5 -67.5q-17 -55 -33 -164q-1 -5 5 -5h82q52 0 87.5 5.5t47.5 5.5q23 0 23 -25q0 -27 -32.5 -151t-32.5 -135q0 -17 10 -17q7 0 26.5 16 t35.5 32t17 16q3 0 9 -6t6 -9q0 -12 -64.5 -64t-89.5 -52q-27 0 -27 21q0 25 35.5 146t35.5 152q0 10 -3 22t-7 12h-158q-9 0 -10 -8l-48 -320q-9 -56 -34.5 -117t-65.5 -97q-49 -44 -93 -44q-24 0 -46 10t-22 22q0 14 17.5 28t32.5 14q12 0 37 -7.5t41 -7.5q8 0 15 4.5 t13 14t10.5 18t9 24.5t7 26t5.5 28.5t4 26.5t3.5 25.5t2.5 19.5l19.5 146.5t16.5 132t6 53.5v2v4t-1.5 1.5t-4.5 0.5h-163q-8 0 -9 -8q-2 -13 -13 -91.5l-23.5 -163.5t-20.5 -135q-3 -17 -11 -45t-31 -71.5t-53 -65.5q-2 -1 -8.5 -6l-10 -7.5t-10.5 -7t-11.5 -7t-11.5 -6 t-13 -5t-13.5 -3t-14.5 -1.5q-24 0 -47.5 13t-23.5 26zM192 385q0 -10 8 -10h163q7 0 8 9q9 109 46 165q17 26 38 49q-12 -4 -19 -4q-17 0 -39 18q-38 29 -58 29q-41 0 -74.5 -36.5t-47.5 -86.5q-21 -74 -25 -133z" />
<glyph unicode="ffl" horiz-adv-x="781" d="M-128 -240q0 15 18 29.5t34 14.5q13 0 38.5 -12t42.5 -12q9 0 16 6t13 18.5t10 24t8 31t5.5 30l4.5 31.5t4 25l23.5 160.5t21.5 160.5t8 68q0 9 -6 9h-71q-10 0 -10 7q0 2 2 16q1 8 10 8h72q7 0 8 9q6 53 24 103q26 71 87.5 129t142.5 58q40 0 76 -21q24 -14 28 -31l6 5 q63 54 130 54q29 0 52 -17q7 -4 8 -4l8 3q39 19 40 19q13 0 13 -12q0 -13 -50 -306t-50 -296q0 -18 11 -18q16 0 58 42l42 42q4 0 11.5 -6t7.5 -10q0 -6 -28.5 -37t-72.5 -62.5t-75 -31.5q-32 0 -32 41q0 5 7 46.5l21 120.5l25 142q1 7 -5 7h-165q-8 0 -9 -8l-48 -320 q-9 -56 -34.5 -117t-65.5 -97q-49 -44 -93 -44q-24 0 -46 10t-22 22q0 14 17.5 28t32.5 14q12 0 37 -7.5t41 -7.5q8 0 15 4.5t13 14t10.5 18t9 24.5t7 26t5.5 28.5t4 26.5t3.5 25.5t2.5 19.5l19.5 146.5t16.5 132t6 53.5q0 8 -6 8h-162q-9 0 -10 -8q-2 -13 -13 -91.5 l-23.5 -163.5t-20.5 -135q-3 -17 -11 -45t-31 -71.5t-53 -65.5q-2 -1 -8.5 -6l-10 -7.5t-10.5 -7t-11.5 -7t-11.5 -6t-13 -5t-13.5 -3t-14.5 -1.5q-24 0 -47.5 13t-23.5 26zM192 384q0 -9 8 -9h164q6 0 7 9q2 21 11 65q20 90 71 145q-7 -2 -11 -2q-21 0 -45 20 q-38 29 -58 29q-41 0 -74.5 -36.5t-47.5 -86.5q-21 -75 -25 -134zM440 384q0 -9 4 -9h166q8 0 9 1.5t3 9.5q20 126 34 233q-10 -6 -26 -6q-13 0 -43 16q-18 9 -23 9q-13 0 -35 -15q-29 -21 -50 -72t-28 -90t-11 -77z" />
<glyph unicode="fj" horiz-adv-x="508" d="M-128 -240q0 15 18 29.5t34 14.5q13 0 38.5 -12t42.5 -12q9 0 16 6t13 18.5t10 24t8 31t5.5 30l4.5 31.5t4 25l23.5 160.5t21.5 160.5t8 68q0 6 -1 7.5t-6 1.5h-70q-7 0 -8.5 1t-1.5 6q0 8 2 16q1 8 10 8h71q8 0 9 9q9 97 42 158q43 75 112 114q48 28 101 28 q25 0 50.5 -13t25.5 -26q0 -15 -20 -29.5t-37 -14.5q-14 0 -44 18.5t-46 18.5q-25 0 -47.5 -26.5t-35.5 -67.5q-17 -52 -33 -166q0 -3 5 -3h82q52 0 87.5 5.5t47.5 5.5q16 0 21 -12q3 -6 3 -15q0 -21 -13 -103.5l-27.5 -167t-15.5 -91.5q-16 -94 -37 -136q-21 -39 -54 -64 q-50 -39 -89 -39q-25 0 -41.5 11.5t-16.5 25.5q0 17 11 28t27 11q20 0 40 -12.5t35 -12.5q17 0 25.5 19.5t18.5 70.5q18 90 41.5 240t23.5 171q0 10 -3 22t-7 12h-161q-5 0 -7 -8q-2 -11 -13 -91l-23.5 -164.5l-20.5 -134.5q-3 -17 -11 -45t-31 -71.5t-53 -65.5 q-2 -1 -8.5 -6l-10 -7.5t-10.5 -7t-11.5 -7t-11.5 -6t-13 -5t-13.5 -3t-14.5 -1.5q-24 0 -47.5 13t-23.5 26z" />
<glyph unicode="ffj" horiz-adv-x="755" d="M-128 -240q0 15 18 29.5t34 14.5q13 0 38.5 -12t42.5 -12q9 0 16 6t13 18.5t10 24t8 31t5.5 30l4.5 31.5t4 25l23.5 160.5t21.5 160.5t8 68q0 9 -6 9h-71q-10 0 -10 7q1 12 2 16q1 8 10 8h73q6 0 7 9q6 53 24 103q26 71 87.5 129t142.5 58q32 0 61 -13t39 -28l4 -8 q16 15 43 31q50 28 101 28q25 0 50.5 -13t25.5 -26q0 -15 -20 -29.5t-37 -14.5q-13 0 -43 18.5t-47 18.5q-25 0 -47.5 -26.5t-35.5 -67.5q-17 -55 -33 -164q-1 -5 5 -5h82q52 0 87.5 5.5t47.5 5.5q16 0 21 -12q3 -6 3 -15q0 -21 -13 -103.5l-27.5 -167t-15.5 -91.5 q-16 -94 -37 -136q-21 -39 -54 -64q-54 -39 -89 -39q-25 0 -41.5 11.5t-16.5 25.5q0 17 11 28t27 11q20 0 40 -12.5t35 -12.5q17 0 25 19.5t19 70.5q18 91 41.5 240.5t23.5 170.5q0 10 -3 22t-7 12h-158q-9 0 -10 -8l-48 -320q-9 -56 -34.5 -117t-65.5 -97q-49 -44 -93 -44 q-24 0 -46 10t-22 22q0 14 17.5 28t32.5 14q12 0 37 -7.5t41 -7.5q8 0 15 4.5t13 14t10.5 18t9 24.5t7 26t5.5 28.5t4 26.5t3.5 25.5t2.5 19.5l19.5 146.5t16.5 132t6 53.5v2v4t-1.5 1.5t-4.5 0.5h-163q-8 0 -9 -8q-2 -13 -13 -91.5l-23.5 -163.5t-20.5 -135q-3 -17 -11 -45 t-31 -71.5t-53 -65.5q-2 -1 -8.5 -6l-10 -7.5t-10.5 -7t-11.5 -7t-11.5 -6t-13 -5t-13.5 -3t-14.5 -1.5q-24 0 -47.5 13t-23.5 26zM192 385q0 -10 8 -10h163q7 0 8 9q9 109 46 165q17 26 38 49q-12 -4 -19 -4q-17 0 -39 18q-38 29 -58 29q-41 0 -74.5 -36.5t-47.5 -86.5 q-21 -74 -25 -133z" />
<glyph unicode="fb" horiz-adv-x="732" d="M-128 -240q0 15 18 29.5t34 14.5q13 0 38.5 -12t42.5 -12q9 0 16 6t13 18.5t10 24t8 31t5.5 30l4.5 31.5t4 25l23.5 160.5t21.5 160.5t8 68q0 9 -7 9h-70q-11 0 -11 5q0 7 3 19q1 7 10 7h70q9 0 10 9q2 21 11 65q14 62 38 101.5t68 76.5q63 54 130 54q29 0 52 -17l8 -5 l1 1q1 0 3 1l4 2q6 3 16 8.5l17.5 9.5t10.5 4q15 0 15 -13q0 -7 -17.5 -118l-22.5 -141q-4 -25 -13.5 -71.5l-19.5 -98t-13 -64.5q54 85 79 119q38 52 65.5 72.5t72.5 20.5q42 0 66 -24q15 -15 15 -44q0 -73 -28.5 -138.5t-70 -106.5t-85 -65t-77.5 -24q-21 0 -41.5 7 t-33 14t-13.5 7q-3 0 -19 -8q-20 -8 -28 -8q-13 0 -13 11t14 25q4 6 7 18q23 121 52 303.5t35 260.5q-11 -6 -26 -6q-13 0 -43 16q-18 9 -23 9q-13 0 -35 -15q-30 -21 -51 -73.5t-28 -91.5t-11 -77q-1 -4 0.5 -5t6.5 -1h80q8 0 8 -5q0 -7 -2 -15q-1 -7 -3 -9t-7 -2h-78 q-8 0 -9 -8q-2 -13 -13 -91.5l-23.5 -163.5t-20.5 -135q-3 -17 -11 -45t-31 -71.5t-53 -65.5q-2 -1 -8.5 -6l-10 -7.5t-10.5 -7t-11.5 -7t-11.5 -6t-13 -5t-13.5 -3t-14.5 -1.5q-24 0 -47.5 13t-23.5 26zM394 80q0 -24 16.5 -40.5t48.5 -16.5q40 0 82.5 50.5t68 111 t25.5 97.5q0 22 -9.5 39t-29.5 17q-40 0 -81 -58q-121 -168 -121 -200z" />
<glyph unicode="fh" horiz-adv-x="766" d="M-128 -240q0 15 18 29.5t34 14.5q13 0 38.5 -12t42.5 -12q9 0 16 6t13 18.5t10 24t8 31t5.5 30l4.5 31.5t4 25l23.5 160.5t21.5 160.5t8 68q0 9 -7 9h-70q-11 0 -11 5q0 7 3 19q1 7 10 7h70q9 0 10 9q2 21 11 65q14 62 38 101.5t68 76.5q63 54 130 54q29 0 52 -17 q7 -4 8 -4t8 3q6 3 16 8.5l17.5 9.5t10.5 4q15 0 15 -13q0 -78 -88 -524q50 103 105 169q57 69 126 69q27 0 44.5 -13t17.5 -38q0 -38 -33.5 -148.5t-33.5 -119.5q0 -19 18 -19q14 0 54 44l41 43q4 0 9.5 -4.5t5.5 -8.5t-14 -23t-35.5 -42t-51.5 -41.5t-57 -18.5 q-19 0 -31.5 11.5t-12.5 29.5q0 16 36.5 129t36.5 140q0 36 -31 36t-64.5 -40t-73.5 -106q-47 -80 -54 -107l-21 -84q-3 -11 -60 -11q-11 0 -11 11l16 78q17 78 42 229t41 310q-18 -10 -36 -10q-13 0 -43 16q-18 9 -23 9q-13 0 -35 -15q-30 -21 -51 -73.5t-28 -91.5t-11 -77 q-1 -4 0.5 -5t6.5 -1h80q8 0 8 -5q0 -7 -2 -15q-1 -7 -3 -9t-7 -2h-78q-8 0 -9 -8q-2 -13 -13 -91.5l-23.5 -163.5t-20.5 -135q-3 -17 -11 -45t-31 -71.5t-53 -65.5q-2 -1 -8.5 -6l-10 -7.5t-10.5 -7t-11.5 -7t-11.5 -6t-13 -5t-13.5 -3t-14.5 -1.5q-24 0 -47.5 13t-23.5 26 z" />
<glyph unicode="fk" horiz-adv-x="731" d="M-128 -240q0 15 18 29.5t34 14.5q13 0 38.5 -12t42.5 -12q9 0 16 6t13 18.5t10 24t8 31t5.5 30l4.5 31.5t4 25l23.5 160.5t21.5 160.5t8 68q0 9 -7 9h-70q-11 0 -11 5q0 7 3 19q1 7 10 7h70q9 0 10 9q2 21 11 65q14 62 38 101.5t68 76.5q63 54 130 54q29 0 52 -17 q7 -4 8 -4t8 3q6 3 16 8.5l17.5 9.5t10.5 4q15 0 15 -17q0 -13 -93 -470q36 65 63 100q33 44 67 65t84 21q62 0 62 -40q0 -43 -33 -80t-68 -54t-66 -24q-2 0 -7.5 -1t-6.5 -1q9 -4 21 -15q47 -45 73 -77q16 -20 24 -28.5t22 -16t30 -7.5q31 0 31 24q0 3 -1 9.5t-1 10.5 q0 15 11 15q9 0 16.5 -11.5t7.5 -34.5q0 -25 -39.5 -41.5t-74.5 -16.5q-23 0 -45 21q-11 10 -23.5 25t-29 37.5t-24.5 32.5l-23.5 28l-20.5 24.5t-7 11.5q0 6 18 24q3 3 12 3q16 0 27 5q37 17 70 53t33 68q0 18 -28 18q-27 0 -61 -32q-11 -11 -24.5 -28.5t-21 -28.5l-28 -42 l-25.5 -39q-17 -27 -24 -57q-16 -66 -21 -97q-7 -24 -13 -25q-1 0 -11 -1.5t-22 -3t-17 -1.5q-8 0 -8 6q0 8 20.5 105t48 246.5t39.5 270.5q-10 -6 -28 -6q-13 0 -43 16q-18 9 -23 9q-13 0 -35 -15q-30 -21 -51 -73.5t-28 -91.5t-11 -77q-1 -4 0.5 -5t6.5 -1h80q8 0 8 -5 q0 -7 -2 -15q-1 -7 -3 -9t-7 -2h-78q-8 0 -9 -8q-2 -13 -13 -91.5l-23.5 -163.5t-20.5 -135q-3 -17 -11 -45t-31 -71.5t-53 -65.5q-2 -1 -8.5 -6l-10 -7.5t-10.5 -7t-11.5 -7t-11.5 -6t-13 -5t-13.5 -3t-14.5 -1.5q-24 0 -47.5 13t-23.5 26z" />
<glyph unicode="ffb" horiz-adv-x="979" d="M-128 -240q0 15 18 29.5t34 14.5q13 0 38.5 -12t42.5 -12q9 0 16 6t13 18.5t10 24t8 31t5.5 30l4.5 31.5t4 25l23.5 160.5t21.5 160.5t8 68q0 9 -6 9h-71q-10 0 -10 7q0 2 2 16q1 8 10 8h72q7 0 8 9q6 53 24 103q26 71 87.5 129t142.5 58q40 0 76 -21q24 -14 28 -31l6 5 q63 54 130 54q29 0 52 -17q7 -4 8 -4l8 3q11 5 21.5 11l15 8.5t7.5 2.5q15 0 15 -13q0 -7 -17.5 -118l-22.5 -141q-4 -25 -13.5 -71.5l-19.5 -98t-13 -64.5q54 85 79 119q38 52 65.5 72.5t72.5 20.5q42 0 66 -24q15 -15 15 -44q0 -73 -28.5 -138.5t-70 -106.5t-85 -65 t-77.5 -24q-21 0 -41.5 7t-33 14t-13.5 7q-3 0 -19 -8q-20 -8 -28 -8q-13 0 -13 11t14 25q4 6 7 18q23 121 52 303.5t35 260.5q-10 -6 -26 -6q-13 0 -43 16q-18 9 -23 9q-13 0 -35 -15q-29 -21 -50 -72t-28 -90t-11 -77q0 -9 7 -9h79q8 0 8 -5q0 -7 -2 -15q-1 -7 -3 -9 t-7 -2h-78q-8 0 -9 -8l-48 -320q-9 -56 -34.5 -117t-65.5 -97q-49 -44 -93 -44q-24 0 -46 10t-22 22q0 14 17.5 28t32.5 14q12 0 37 -7.5t41 -7.5q8 0 15 4.5t13 14t10.5 18t9 24.5t7 26t5.5 28.5t4 26.5t3.5 25.5t2.5 19.5l19.5 146.5t16.5 132t6 53.5q0 8 -6 8h-162 q-9 0 -10 -8q-2 -13 -13 -91.5l-23.5 -163.5t-20.5 -135q-3 -17 -11 -45t-31 -71.5t-53 -65.5q-2 -1 -8.5 -6l-10 -7.5t-10.5 -7t-11.5 -7t-11.5 -6t-13 -5t-13.5 -3t-14.5 -1.5q-24 0 -47.5 13t-23.5 26zM192 384q0 -9 8 -9h164q6 0 7 9q2 21 11 65q20 90 71 145 q-7 -2 -11 -2q-21 0 -45 20q-38 29 -58 29q-41 0 -74.5 -36.5t-47.5 -86.5q-21 -75 -25 -134zM641 80q0 -24 16.5 -40.5t48.5 -16.5q40 0 82.5 50.5t68 111t25.5 97.5q0 22 -9.5 39t-29.5 17q-40 0 -81 -58q-121 -168 -121 -200z" />
<glyph unicode="ffh" horiz-adv-x="1013" d="M-128 -240q0 15 18 29.5t34 14.5q13 0 38.5 -12t42.5 -12q9 0 16 6t13 18.5t10 24t8 31t5.5 30l4.5 31.5t4 25l23.5 160.5t21.5 160.5t8 68q0 9 -6 9h-71q-10 0 -10 7q0 2 2 16q1 8 10 8h72q7 0 8 9q6 53 24 103q26 71 87.5 129t142.5 58q40 0 76 -21q24 -14 28 -31l6 5 q63 54 130 54q29 0 52 -17q7 -4 8 -4l8 3q6 3 16 8.5l17.5 9.5t10.5 4q15 0 15 -13q0 -78 -88 -524q50 103 105 169q57 69 126 69q27 0 44.5 -13t17.5 -38q0 -38 -33.5 -148.5t-33.5 -119.5q0 -19 18 -19q14 0 55 44l40 43q4 0 9.5 -4.5t5.5 -8.5t-14 -23t-35.5 -42 t-51.5 -41.5t-57 -18.5q-19 0 -31.5 11.5t-12.5 29.5q0 16 36.5 129t36.5 140q0 36 -31 36t-64.5 -40t-73.5 -106q-47 -80 -54 -107l-21 -84q-3 -11 -60 -11q-11 0 -11 11l17 78q16 78 41 229t41 310q-16 -10 -36 -10q-13 0 -43 16q-18 9 -23 9q-13 0 -35 -15 q-29 -21 -50 -72t-28 -90t-11 -77q0 -9 7 -9h79q8 0 8 -5q0 -7 -2 -15q-1 -7 -3 -9t-7 -2h-78q-8 0 -9 -8l-48 -320q-9 -56 -34.5 -117t-65.5 -97q-49 -44 -93 -44q-24 0 -46 10t-22 22q0 14 17.5 28t32.5 14q12 0 37 -7.5t41 -7.5q8 0 15 4.5t13 14t10.5 18t9 24.5t7 26 t5.5 28.5t4 26.5t3.5 25.5t2.5 19.5l19.5 146.5t16.5 132t6 53.5q0 8 -6 8h-162q-9 0 -10 -8q-2 -13 -13 -91.5l-23.5 -163.5t-20.5 -135q-3 -17 -11 -45t-31 -71.5t-53 -65.5q-2 -1 -8.5 -6l-10 -7.5t-10.5 -7t-11.5 -7t-11.5 -6t-13 -5t-13.5 -3t-14.5 -1.5 q-24 0 -47.5 13t-23.5 26zM192 384q0 -9 8 -9h164q6 0 7 9q2 21 11 65q20 90 71 145q-7 -2 -11 -2q-21 0 -45 20q-38 29 -58 29q-41 0 -74.5 -36.5t-47.5 -86.5q-21 -75 -25 -134z" />
<glyph unicode="ffk" horiz-adv-x="978" d="M-128 -240q0 15 18 29.5t34 14.5q13 0 38.5 -12t42.5 -12q9 0 16 6t13 18.5t10 24t8 31t5.5 30l4.5 31.5t4 25l23.5 160.5t21.5 160.5t8 68q0 9 -6 9h-71q-10 0 -10 7q0 2 2 16q1 8 10 8h72q7 0 8 9q6 53 24 103q26 71 87.5 129t142.5 58q40 0 76 -21q24 -14 28 -31l6 5 q63 54 130 54q29 0 52 -17q7 -4 8 -4l8 3q6 3 16 8.5l17.5 9.5t10.5 4q15 0 15 -17q0 -13 -93 -470q36 65 63 100q33 44 67 65t84 21q62 0 62 -40q0 -43 -33 -80t-68 -54t-66 -24q-2 0 -7.5 -1t-6.5 -1q9 -4 21 -15q47 -45 73 -77q16 -20 24 -28.5t22 -16t30 -7.5 q31 0 31 24q0 3 -1 9.5t-1 10.5q0 15 11 15q9 0 16.5 -11.5t7.5 -34.5q0 -25 -39.5 -41.5t-74.5 -16.5q-23 0 -45 21q-11 10 -23.5 25t-29 37.5t-24.5 32.5l-23.5 28l-20.5 24.5t-7 11.5q0 6 18 24q3 3 12 3q16 0 27 5q37 17 70 53t33 68q0 18 -28 18q-27 0 -61 -32 q-11 -11 -24.5 -28.5t-21 -28.5l-28 -42l-25.5 -39q-17 -27 -24 -57q-16 -66 -21 -97q-7 -24 -13 -25q-1 0 -11 -1.5t-22 -3t-17 -1.5q-8 0 -8 6q0 8 20.5 105t48 246.5t39.5 270.5q-16 -6 -28 -6q-13 0 -43 16q-18 9 -23 9q-13 0 -35 -15q-29 -21 -50 -72t-28 -90t-11 -77 q0 -9 7 -9h79q8 0 8 -5q0 -7 -2 -15q-1 -7 -3 -9t-7 -2h-78q-8 0 -9 -8l-48 -320q-9 -56 -34.5 -117t-65.5 -97q-49 -44 -93 -44q-24 0 -46 10t-22 22q0 14 17.5 28t32.5 14q12 0 37 -7.5t41 -7.5q8 0 15 4.5t13 14t10.5 18t9 24.5t7 26t5.5 28.5t4 26.5t3.5 25.5t2.5 19.5 l19.5 146.5t16.5 132t6 53.5q0 8 -6 8h-162q-9 0 -10 -8q-2 -13 -13 -91.5l-23.5 -163.5t-20.5 -135q-3 -17 -11 -45t-31 -71.5t-53 -65.5q-2 -1 -8.5 -6l-10 -7.5t-10.5 -7t-11.5 -7t-11.5 -6t-13 -5t-13.5 -3t-14.5 -1.5q-24 0 -47.5 13t-23.5 26zM192 384q0 -9 8 -9h164 q6 0 7 9q2 21 11 65q20 90 71 145q-7 -2 -11 -2q-21 0 -45 20q-38 29 -58 29q-41 0 -74.5 -36.5t-47.5 -86.5q-21 -75 -25 -134z" />
<glyph unicode="f&#x125;" horiz-adv-x="766" d="M447 730q0 2 6 8l91 92q12 12 22 12h20q12 0 19 -12l53 -92q3 -4 3 -8t-9 -4h-10q-4 0 -11 7l-63 52q-1 1 -4 0l-85 -53q-10 -6 -13 -6h-13q-6 0 -6 4zM-128 -240q0 15 18 29.5t34 14.5q13 0 38.5 -12t42.5 -12q9 0 16 6t13 18.5t10 24t8 31t5.5 30l4.5 31.5t4 25 l23.5 160.5t21.5 160.5t8 68q0 9 -7 9h-70q-11 0 -11 5q0 7 3 19q1 7 10 7h70q9 0 10 9q2 21 11 65q14 62 38 101.5t68 76.5q63 54 130 54q29 0 52 -17q7 -4 8 -4t8 3q6 3 16 8.5l17.5 9.5t10.5 4q15 0 15 -13q0 -78 -88 -524q50 103 105 169q57 69 126 69q27 0 44.5 -13 t17.5 -38q0 -38 -33.5 -148.5t-33.5 -119.5q0 -19 18 -19q14 0 54 44l41 43q4 0 9.5 -4.5t5.5 -8.5t-14 -23t-35.5 -42t-51.5 -41.5t-57 -18.5q-19 0 -31.5 11.5t-12.5 29.5q0 16 36.5 129t36.5 140q0 36 -31 36t-64.5 -40t-73.5 -106q-47 -80 -54 -107l-21 -84 q-3 -11 -60 -11q-11 0 -11 11l16 78q17 78 42 229t41 310q-18 -10 -36 -10q-13 0 -43 16q-18 9 -23 9q-13 0 -35 -15q-30 -21 -51 -73.5t-28 -91.5t-11 -77q-1 -4 0.5 -5t6.5 -1h80q8 0 8 -5q0 -7 -2 -15q-1 -7 -3 -9t-7 -2h-78q-8 0 -9 -8q-2 -13 -13 -91.5l-23.5 -163.5 t-20.5 -135q-3 -17 -11 -45t-31 -71.5t-53 -65.5q-2 -1 -8.5 -6l-10 -7.5t-10.5 -7t-11.5 -7t-11.5 -6t-13 -5t-13.5 -3t-14.5 -1.5q-24 0 -47.5 13t-23.5 26z" />
<glyph unicode="ff&#x125;" horiz-adv-x="1013" d="M694 730q0 2 6 8l91 92q12 12 22 12h20q12 0 19 -12l53 -92q3 -4 3 -8t-9 -4h-10q-4 0 -11 7l-63 52q-1 1 -4 0l-85 -53q-10 -6 -13 -6h-13q-6 0 -6 4zM-128 -240q0 15 18 29.5t34 14.5q13 0 38.5 -12t42.5 -12q9 0 16 6t13 18.5t10 24t8 31t5.5 30l4.5 31.5t4 25 l23.5 160.5t21.5 160.5t8 68q0 9 -6 9h-71q-10 0 -10 7q0 2 2 16q1 8 10 8h72q7 0 8 9q6 53 24 103q26 71 87.5 129t142.5 58q40 0 76 -21q24 -14 28 -31l6 5q63 54 130 54q29 0 52 -17q7 -4 8 -4l8 3q6 3 16 8.5l17.5 9.5t10.5 4q15 0 15 -13q0 -78 -88 -524 q50 103 105 169q57 69 126 69q27 0 44.5 -13t17.5 -38q0 -38 -33.5 -148.5t-33.5 -119.5q0 -19 18 -19q14 0 55 44l40 43q4 0 9.5 -4.5t5.5 -8.5t-14 -23t-35.5 -42t-51.5 -41.5t-57 -18.5q-19 0 -31.5 11.5t-12.5 29.5q0 16 36.5 129t36.5 140q0 36 -31 36t-64.5 -40 t-73.5 -106q-47 -80 -54 -107l-21 -84q-3 -11 -60 -11q-11 0 -11 11l17 78q16 78 41 229t41 310q-16 -10 -36 -10q-13 0 -43 16q-18 9 -23 9q-13 0 -35 -15q-29 -21 -50 -72t-28 -90t-11 -77q0 -9 7 -9h79q8 0 8 -5q0 -7 -2 -15q-1 -7 -3 -9t-7 -2h-78q-8 0 -9 -8l-48 -320 q-9 -56 -34.5 -117t-65.5 -97q-49 -44 -93 -44q-24 0 -46 10t-22 22q0 14 17.5 28t32.5 14q12 0 37 -7.5t41 -7.5q8 0 15 4.5t13 14t10.5 18t9 24.5t7 26t5.5 28.5t4 26.5t3.5 25.5t2.5 19.5l19.5 146.5t16.5 132t6 53.5q0 8 -6 8h-162q-9 0 -10 -8q-2 -13 -13 -91.5 l-23.5 -163.5t-20.5 -135q-3 -17 -11 -45t-31 -71.5t-53 -65.5q-2 -1 -8.5 -6l-10 -7.5t-10.5 -7t-11.5 -7t-11.5 -6t-13 -5t-13.5 -3t-14.5 -1.5q-24 0 -47.5 13t-23.5 26zM192 384q0 -9 8 -9h164q6 0 7 9q2 21 11 65q20 90 71 145q-7 -2 -11 -2q-21 0 -45 20 q-38 29 -58 29q-41 0 -74.5 -36.5t-47.5 -86.5q-21 -75 -25 -134z" />
<glyph unicode="f&#xfe;" horiz-adv-x="701" d="M-128 -240q0 15 18 29.5t34 14.5q13 0 38.5 -12t42.5 -12q9 0 16 6t13 18.5t10 24t8 31t5.5 30l4.5 31.5t4 25l23.5 160.5t21.5 160.5t8 68q0 9 -7 9h-70q-11 0 -11 5q0 7 3 19q1 7 10 7h70q9 0 10 9q2 21 11 65q14 62 38 101.5t68 76.5q63 54 130 54q29 0 52 -17 q8 -5 16 -1l44 22q15 0 15 -13q0 -77 -88 -510q38 89 88 165q36 58 102 58q46 0 62.5 -25t16.5 -69q0 -111 -75 -206t-153 -95q-11 0 -32 3.5t-24 3.5q-9 0 -10 -5l-32 -209q-3 -20 11 -21q11 -1 28 -3t23 -2q26 -3 26 -14q0 -27 -13 -27q-5 0 -65.5 7.5t-118.5 7.5 q-20 0 -20 11q0 19 4 23t18 4q3 0 9 -0.5t8 -0.5q14 0 18 20q26 137 43 243l35 208q50 281 60 383q-27 -9 -36 -9q-13 0 -43 16q-18 9 -23 9q-13 0 -35 -15q-30 -21 -51 -73.5t-28 -91.5t-11 -77q-1 -4 0.5 -5t6.5 -1h80q8 0 8 -5q0 -7 -2 -15q-1 -7 -3 -9t-7 -2h-78 q-8 0 -9 -8q-2 -13 -13 -91.5l-23.5 -163.5t-20.5 -135q-3 -17 -11 -45t-31 -71.5t-53 -65.5q-2 -1 -8.5 -6l-10 -7.5t-10.5 -7t-11.5 -7t-11.5 -6t-13 -5t-13.5 -3t-14.5 -1.5q-24 0 -47.5 13t-23.5 26zM399 51q0 -29 61 -29q49 0 100 88t51 168q0 61 -41 61 q-14 0 -28 -9.5t-27.5 -29t-22 -33.5t-22 -40.5l-16.5 -32.5q-55 -105 -55 -143z" />
<glyph unicode="ff&#xfe;" horiz-adv-x="948" d="M-128 -240q0 15 18 29.5t34 14.5q13 0 38.5 -12t42.5 -12q9 0 16 6t13 18.5t10 24t8 31t5.5 30l4.5 31.5t4 25l23.5 160.5t21.5 160.5t8 68q0 9 -6 9h-71q-10 0 -10 7q0 2 2 16q1 8 10 8h72q7 0 8 9q6 53 24 103q26 71 87.5 129t142.5 58q40 0 76 -21q24 -14 28 -31l6 5 q63 54 130 54q29 0 52 -17q7 -4 8 -4l8 3q6 3 16 8.5l17.5 9.5t10.5 4q15 0 15 -13q0 -77 -88 -510q38 89 88 165q36 58 102 58q46 0 62.5 -25t16.5 -69q0 -111 -75 -206t-153 -95q-11 0 -32 3.5t-24 3.5q-9 0 -10 -5l-32 -209q-3 -20 11 -21q11 -1 28 -3t23 -2 q26 -3 26 -14q0 -27 -13 -27q-5 0 -65.5 7.5t-118.5 7.5q-20 0 -20 11q0 19 4 23t18 4q3 0 9 -0.5t8 -0.5q14 0 18 20q26 137 43 243l35 208q49 280 60 384q-16 -10 -36 -10q-13 0 -43 16q-18 9 -23 9q-13 0 -35 -15q-29 -21 -50 -72t-28 -90t-11 -77q0 -9 7 -9h79q8 0 8 -5 q0 -7 -2 -15q-1 -7 -3 -9t-7 -2h-78q-8 0 -9 -8l-48 -320q-9 -56 -34.5 -117t-65.5 -97q-49 -44 -93 -44q-24 0 -46 10t-22 22q0 14 17.5 28t32.5 14q12 0 37 -7.5t41 -7.5q8 0 15 4.5t13 14t10.5 18t9 24.5t7 26t5.5 28.5t4 26.5t3.5 25.5t2.5 19.5l19.5 146.5t16.5 132 t6 53.5q0 8 -6 8h-162q-9 0 -10 -8q-2 -13 -13 -91.5l-23.5 -163.5t-20.5 -135q-3 -17 -11 -45t-31 -71.5t-53 -65.5q-2 -1 -8.5 -6l-10 -7.5t-10.5 -7t-11.5 -7t-11.5 -6t-13 -5t-13.5 -3t-14.5 -1.5q-24 0 -47.5 13t-23.5 26zM192 384q0 -9 8 -9h164q6 0 7 9q2 21 11 65 q20 90 71 145q-7 -2 -11 -2q-21 0 -45 20q-38 29 -58 29q-41 0 -74.5 -36.5t-47.5 -86.5q-21 -75 -25 -134zM646 51q0 -29 61 -29q49 0 100 88t51 168q0 61 -41 61q-14 0 -28 -9.5t-27.5 -29t-22 -33.5t-22 -40.5l-16.5 -32.5q-55 -105 -55 -143z" />
<glyph unicode=" "  horiz-adv-x="200" />
<glyph unicode="&#x09;" horiz-adv-x="200" />
<glyph unicode="&#xa0;" horiz-adv-x="200" />
<glyph unicode="!" horiz-adv-x="220" d="M62 38q0 20 16.5 37.5t32.5 17.5q15 0 31 -17t16 -33q0 -25 -15.5 -39.5t-27.5 -14.5q-21 0 -37 17t-16 32zM99 150q0 23 20 183q27 211 34 302q1 25 32 25h5q28 0 28 -20q0 -3 -2 -13q-33 -148 -86 -477q-1 -7 -11 -7h-8q-12 0 -12 7z" />
<glyph unicode="&#x22;" horiz-adv-x="261" d="M27 511q0 1 2 32.5l4.5 68.5t3.5 47q4 32 35 32q32 0 32 -28q0 -5 -2 -15l-12.5 -43l-17.5 -57.5t-10 -32.5q-1 -2 -2 -5.5t-1.5 -5t-1.5 -4t-2 -3l-3 -1.5t-4.5 -1.5t-5.5 -0.5q-15 0 -15 17zM157 511q0 1 2 32.5l4.5 68.5t3.5 47q4 32 35 32q32 0 32 -28q0 -5 -2 -15 l-12.5 -43l-17.5 -57.5t-10 -32.5q-1 -2 -2 -5.5t-1.5 -5t-1.5 -4t-2 -3l-3 -1.5t-4.5 -1.5t-5.5 -0.5q-15 0 -15 17z" />
<glyph unicode="#" horiz-adv-x="442" d="M27 169v4q0 16 14 16h69q8 0 9 7v3q10 76 14 112q1 9 -6 9h-90q-10 0 -10 16v6q0 14 10 14h95q6 0 8.5 1t2.5 2t1 7l20 141q2 17 3 19q4 8 11 8q4 1 13 1q22 0 22 -14q0 -1 -24 -155q-1 -7 -0.5 -8.5t6.5 -1.5h82h3q6 2 6 5q1 3 1 5q24 154 25 160q4 9 17 9q27 0 27 -13 q0 -4 -5 -36.5l-11 -72t-7 -49.5q-1 -5 0 -6.5t5 -1.5h59q11 0 14.5 -3.5t3.5 -15.5q0 -17 -16 -17h-65q-7 0 -8.5 -1.5t-2.5 -7.5l-17 -113q-1 -4 -0.5 -6t1.5 -2.5t6 -0.5h88q9 0 11.5 -4t2.5 -16q0 -10 -3.5 -13.5t-13.5 -3.5h-91q-7 0 -8 -7l-20 -143q-1 -6 -2.5 -9 t-7 -4.5t-16.5 -1.5q-20 0 -20 11q0 12 21 146q1 5 0.5 6.5t-6.5 1.5h-84q-6 0 -7 -1t-2 -7q-20 -145 -21 -147q-6 -10 -25 -10q-21 0 -21 16q0 3 4.5 31.5t9.5 63.5t7 46q1 6 -0.5 7t-8.5 1h-58q-15 0 -15 17zM162 199q-1 -6 0 -7t8 -1h82q6 0 7.5 1t2.5 7q16 108 17 111 q2 8 1 10t-8 2h-81q-10 0 -11 -8t-18 -115z" />
<glyph unicode="$" horiz-adv-x="500" d="M47 128q0 10 13 19.5t23 9.5q4 0 9 -9.5t12.5 -27t13.5 -28.5q23 -41 50 -56q16 -7 24 -8q4 -1 5.5 0.5t2.5 7.5l32 234q2 11 1 14.5t-7 7.5q-35 22 -52.5 34t-42 35t-35.5 49.5t-11 59.5q0 75 55 117.5t128 42.5q9 0 10 7l5 36q1 12 9 12h14q7 0 6 -12l-5 -37 q-1 -8 3 -9q61 -10 96 -54t35 -77q0 -13 -6 -20.5t-15 -7.5q-11 0 -21 9.5t-12 21.5q-2 7 -4 22t-4.5 25.5t-6.5 15.5q-26 34 -61 40q-9 2 -9 -2l-32 -245q-2 -14 2 -17t14 -9q32 -21 49 -33.5t40 -35.5t33.5 -51.5t10.5 -63.5q0 -68 -53 -107.5t-135 -39.5q-7 0 -9 -12 l-14 -123q-1 -8 -9 -8h-19q-7 0 -5 11l18 121q1 4 1 9q0 4 -1.5 5.5t-7.5 2.5q-3 1 -5 1q-59 12 -96 51.5t-37 71.5zM144 485q0 -35 26 -70t61 -54q10 -5 11 7l31 233q0 4 -4 4q-48 -2 -86.5 -35.5t-38.5 -84.5zM230 28q0 -5 2.5 -5.5t12.5 -0.5q49 2 80.5 35t31.5 88 q0 37 -26.5 71t-65.5 53q-4 2 -5 -3q-30 -231 -30 -238z" />
<glyph unicode="%" horiz-adv-x="657" d="M47 362q0 63 53 133.5t127 70.5q41 0 73 -32q23 -23 56 -23q44 0 91 28q13 8 26.5 19t21.5 18.5l22.5 22t18.5 17.5l4 5q5 5 9 9.5t5 4.5q5 0 13 -5.5t8 -9.5t-7 -14l-232 -343l-201 -300q-4 -7 -22 -7q-21 0 -21 11q0 1 4 9q0 1 79.5 114.5l170 245t112.5 170.5 q7 11 -3 6q-51 -24 -99 -24q-13 0 -20 1q-12 -8 -12 -11v-14q0 -17 -1 -25q-6 -73 -58 -132.5t-115 -59.5q-48 0 -75.5 33t-27.5 82zM102 336q0 -29 13 -48.5t38 -19.5q50 0 93 57.5t43 135.5q0 67 -49 67q-44 0 -91 -63t-47 -129zM333 103q0 72 56.5 139t127.5 67 q43 0 68 -30.5t25 -81.5q0 -79 -54 -144t-120 -65q-48 0 -75.5 33t-27.5 82zM388 78q0 -68 51 -68q49 0 92.5 57.5t43.5 134.5q0 68 -50 68q-43 0 -90 -63t-47 -129z" />
<glyph unicode="&#x26;" horiz-adv-x="693" d="M32 201q0 38 14 71t30 50.5t32.5 31t16.5 14.5l-9 10q-8 9 -15.5 19.5t-14 32t-6.5 46.5q0 70 44.5 120t121.5 50q41 0 79 -16q39 -16 39 -44q0 -32 -22 -54q-3 -3 -6.5 -4t-6.5 0.5t-4.5 3t-4.5 5.5l-3 4q-39 42 -95 42q-42 0 -73.5 -33t-31.5 -76q0 -35 17 -61t39 -26 q13 0 29.5 2.5t25.5 2.5q22 0 22 -15q0 -18 -23.5 -32t-40.5 -14q-12 0 -40 14q-3 0 -8 -3t-13.5 -11t-15.5 -18.5t-12 -29t-5 -41.5q0 -84 58 -135t144 -51q27 0 53.5 6t54 21.5t48.5 38.5t34.5 60t13.5 83q0 18 -3 39t-7 22q-76 28 -113 28q-28 0 -45 -14t-17 -40 q0 -20 11 -31.5t22.5 -15t31.5 -7.5q4 -1 6 -1q18 -3 18 -12q0 -10 -11 -18t-23 -8t-26 4q-29 9 -43 31.5t-14 40.5q0 59 40.5 92.5t96.5 33.5q22 0 89 -23.5t106 -23.5q24 0 38.5 15t14.5 38q0 60 -81 60q-14 0 -14 10q0 17 13 27.5t27 10.5q41 0 61 -29.5t20 -62.5 q0 -38 -17 -67q-15 -25 -45 -40t-54 -15t-38 3q-9 2 -9 -4q0 -3 0.5 -14.5t0.5 -16.5q0 -33 -9 -69.5t-30 -76t-52 -70.5t-79.5 -51.5t-107.5 -20.5q-104 0 -164 60t-60 152z" />
<glyph unicode="'" horiz-adv-x="131" d="M27 511q0 1 2 32.5l4.5 68.5t3.5 47q4 32 35 32q32 0 32 -28q0 -5 -2 -15l-12.5 -43l-17.5 -57.5t-10 -32.5q-1 -2 -2 -5.5t-1.5 -5t-1.5 -4t-2 -3l-3 -1.5t-4.5 -1.5t-5.5 -0.5q-15 0 -15 17z" />
<glyph unicode="(" horiz-adv-x="279" d="M37 285q0 74 19 143t45 114.5t54 81t46.5 52t21.5 16.5q6 0 12.5 -5t6.5 -11q0 -1 -14.5 -18t-35.5 -48.5t-42 -73.5t-35.5 -105.5t-14.5 -133.5q0 -79 14 -150t34.5 -116.5t41 -79.5t34.5 -53.5t14 -23.5q0 -17 -19 -17q-5 0 -24.5 22t-46 63t-51.5 92t-42.5 118.5 t-17.5 132.5z" />
<glyph unicode=")" horiz-adv-x="279" d="M37 -127q0 1 14.5 18t35.5 48.5t42 73.5t35.5 105.5t14.5 133.5q0 79 -14 150t-34.5 116.5t-41 79.5t-34.5 53.5t-14 23.5q0 17 19 17q5 0 24.5 -22t46 -63t51.5 -92t42.5 -118.5t17.5 -132.5q0 -74 -19 -143t-45 -114.5t-54 -81t-46.5 -52t-21.5 -16.5q-6 0 -12.5 5 t-6.5 11z" />
<glyph unicode="*" horiz-adv-x="391" d="M27 447q0 24 25 34q11 5 50 18.5t51 18.5q13 5 15.5 8t0.5 5t-13 10l-42.5 27t-45.5 33q-14 16 -14 31q0 12 8 21t23 9q19 0 33 -16q8 -8 19 -25l24.5 -39.5l17.5 -29.5q7 -11 7.5 -11t5.5 10q4 9 12.5 34t16 45t13.5 28q13 20 34 20q13 0 21.5 -10t8.5 -21 q0 -14 -10 -28q-9 -13 -39.5 -40t-38.5 -35q-11 -12 -8.5 -14t14.5 -3q8 -1 56 -2t61 -5q31 -10 31 -34q0 -15 -10.5 -23.5t-24.5 -8.5q-10 0 -29 8.5t-46.5 23t-38.5 19.5q-14 6 -14.5 6t0.5 -14q3 -11 10.5 -35.5l13 -44t5.5 -30.5q0 -17 -8 -29.5t-25 -12.5t-26.5 13 t-9.5 28q0 9 3 26t7.5 39.5t6.5 34.5q2 10 2 16q0 14 -13 1l-3 -3l-36 -37.5t-42 -38.5t-26 -7t-23.5 8t-9.5 22z" />
<glyph unicode="+" horiz-adv-x="527" d="M28 212q0 12 3.5 17.5t17.5 5.5h170q9 0 13 2t5 5t1 9v176q0 12 5.5 15t18.5 3q9 0 13.5 -1t9 -6.5t4.5 -15.5v-163q0 -24 14 -24h177q9 0 13 -3.5t5 -8t1 -12.5q0 -15 -4 -20.5t-20 -5.5h-172q-7 0 -10 -1.5t-3.5 -3.5t-0.5 -10v-175q0 -20 -23 -20q-17 0 -22.5 3.5 t-5.5 17.5v174q0 11 -3.5 13t-17.5 2h-169q-9 0 -13.5 3.5t-5.5 8.5t-1 15z" />
<glyph unicode="," horiz-adv-x="195" d="M4 -126q0 1 6 6l17.5 14.5l20.5 17.5q47 47 47 77q0 15 -14 33q-6 7 -16.5 18l-17 18t-6.5 10q0 8 22 19.5t35 11.5q15 0 37.5 -24.5t22.5 -58.5q0 -29 -32 -70.5t-64 -69t-38 -27.5t-13 9.5t-7 15.5z" />
<glyph unicode="-" horiz-adv-x="268" d="M27 201q0 13 6.5 27.5t14.5 15.5q7 1 92.5 4t91.5 3q4 0 4 -8q0 -39 -10 -40q-112 -8 -192 -8q-7 0 -7 6z" />
<glyph unicode="." horiz-adv-x="210" d="M57 38q0 20 16.5 37.5t32.5 17.5q15 0 31 -17t16 -33q0 -25 -15.5 -39.5t-27.5 -14.5q-21 0 -37 17t-16 32z" />
<glyph unicode="/" horiz-adv-x="406" d="M5 -224q0 8 21 62l317 850q4 13 8.5 16t23.5 3q25 0 25 -11q0 -10 -15 -48l-314 -851q-10 -28 -16 -31q-5 -2 -21 -2q-29 0 -29 12z" />
<glyph unicode="0" horiz-adv-x="500" d="M59 164q0 88 58.5 146.5t146.5 58.5q80 0 129 -49t49 -122q0 -86 -59 -146t-143 -60q-77 0 -129 47t-52 125zM110 156q0 -60 33.5 -93t87.5 -33q61 0 109 50.5t48 126.5q0 58 -35 92t-89 34q-62 0 -108 -56.5t-46 -120.5z" />
<glyph unicode="1" horiz-adv-x="500" d="M127 12q0 9 2.5 12.5t12.5 3.5h42h2q5 0 5 4q1 3 1 6q9 46 21.5 122t20.5 129t8 55q1 6 0.5 8.5t-5.5 2.5h-55q-12 0 -12 16q0 17 12 17q9 0 45.5 -1t49.5 -1t48 1t44 1q8 0 10 -3.5t2 -13.5q0 -9 -2.5 -12.5t-12.5 -3.5h-41q-8 0 -9 -6q-1 -2 -1 -4q-40 -263 -46 -308 q-1 -5 1 -7t9 -2h53q12 0 12 -16q0 -17 -12 -17q-7 0 -41 1t-57 1q-20 0 -56 -1t-39 -1q-12 0 -12 17z" />
<glyph unicode="2" horiz-adv-x="500" d="M51 11q0 9 13 19q14 13 70 51.5t86 64.5q72 64 72 120q0 39 -21.5 64.5t-59.5 25.5q-29 0 -57.5 -20t-45.5 -40.5t-18 -20.5q-5 0 -13 6.5t-8 12.5t22.5 30t64.5 48.5t83 24.5q62 0 95 -31t33 -86q0 -31 -20.5 -62.5t-58 -60.5t-61.5 -45t-58 -36q-18 -10 -24 -15h249 q3 0 17 24.5t16 24.5q4 0 13.5 -4t9.5 -6q0 -3 -7.5 -18l-18.5 -38t-17 -39q-3 -8 -12 -8h-326q-18 0 -18 14z" />
<glyph unicode="3" horiz-adv-x="500" d="M53 -146q0 15 38 15q25 0 36 -12q36 -43 78 -43q53 0 97 47t44 104q0 108 -138 108q-12 0 -34 -1l-22 -2q-19 0 -19 14q0 12 4 16t17 8q170 48 170 164q0 38 -21.5 61t-58.5 23q-29 0 -54.5 -9t-40.5 -18t-17 -9q-3 0 -8.5 8t-5.5 12q0 6 22.5 18t57.5 22t65 10 q56 0 90.5 -28.5t34.5 -80.5q0 -83 -116 -148q-3 -1 -4 -2q74 -16 107 -47q43 -39 43 -105q0 -80 -69 -138t-154 -58q-45 0 -79.5 14t-48.5 30t-14 27z" />
<glyph unicode="4" horiz-adv-x="500" d="M43 8q0 23 44 80q5 7 18 20t17 18q34 41 163 174q18 20 56.5 57.5t48.5 37.5q14 0 14 -17q0 -6 -1 -10l-50 -296q-2 -8 -1 -11.5t9 -3.5h87q10 0 10 -13v-34q0 -8 -3 -10.5t-12 -2.5h-99q-6 0 -7 -3v-2q-3 -26 -9 -72l-10.5 -78.5t-4.5 -33.5q-1 -9 -4.5 -11t-12.5 -4 q-42 -8 -44 -8q-17 0 -17 18q0 2 6 34l15.5 82l13.5 71q1 5 -0.5 6t-7.5 1h-198q-21 0 -21 11zM108 64q0 -7 19 -7h147q8 0 11 2.5t5 14.5l35 217q1 6 -1 6t-6 -4l-197 -210q-13 -13 -13 -19z" />
<glyph unicode="5" horiz-adv-x="500" d="M55 -199q0 13 10 13q42 3 79 14t71.5 31t54.5 55t20 81q0 37 -26.5 70t-58.5 51.5t-58.5 36t-26.5 27.5q0 7 11 37l28.5 76.5t27.5 79.5q3 8 16 8q4 0 84 -7.5t86 -7.5h8q12 0 15 6q13 26 14 26q24 0 24 -11q0 -2 -25 -69q-7 -17 -13 -19q-4 -2 -10 -2t-28.5 3t-62 9 t-71.5 10q-21 2 -25 -5q-11 -22 -22.5 -54t-11.5 -37q0 -2 20 -12.5t48.5 -28t56.5 -41t48 -58.5t20 -74q0 -67 -49 -120t-114.5 -78.5t-128.5 -25.5q-11 0 -11 16z" />
<glyph unicode="6" horiz-adv-x="500" d="M52 187q0 108 56 206t139 170q55 47 113 77t76 30q13 0 13 -22q0 -4 -10 -9q-81 -32 -129 -79q-91 -88 -134 -172q-14 -30 -14 -32q72 11 89 11q80 0 127.5 -46t47.5 -130q0 -90 -59.5 -144.5t-144.5 -54.5q-71 0 -120.5 44t-49.5 151zM119 173q0 -52 27 -99t87 -47 q52 0 85 50.5t33 119.5q0 143 -117 143q-18 0 -47.5 -7t-33.5 -13q-34 -46 -34 -147z" />
<glyph unicode="7" horiz-adv-x="500" d="M62 286q0 4 6 20.5t14 43.5t13 54q3 23 15 23q20 0 20 -12q0 -3 -1 -9t-1 -9q7 -1 48 -1h268q16 0 16 -12q0 -8 -41.5 -78l-100.5 -167l-73 -121q-81 -139 -109 -214q-6 -17 -15 -17q-12 0 -23 6.5t-11 16.5q0 29 56 124t144 227t102 155q5 8 5 11q0 5 -11 5h-193 q-72 0 -82 -7l-13 -40q-5 -11 -13 -11q-20 0 -20 12z" />
<glyph unicode="8" horiz-adv-x="500" d="M67 130q0 33 12.5 63.5t33 53.5t38.5 39t36.5 29t19.5 14l-11.5 11l-20 19.5t-22.5 26.5t-22.5 33.5t-16 38t-6.5 42.5q0 72 49 118t126 46q63 0 101.5 -36t38.5 -101q0 -34 -19.5 -69t-41 -55t-45.5 -39t-25 -20l12 -11.5l22 -21.5t25.5 -30t25.5 -37.5t18.5 -43.5 t7.5 -50q0 -68 -53.5 -112t-131.5 -44q-69 0 -110 34.5t-41 101.5zM127 145q0 -54 30 -87t70 -33q47 0 79 34.5t32 80.5q0 48 -46.5 105t-66.5 67q-10 -3 -31.5 -23t-44 -60.5t-22.5 -83.5zM167 534q0 -34 24.5 -76t48 -67t31.5 -29q9 3 31 23.5t44 60.5t22 79q0 48 -27 79 t-72 31q-47 0 -74.5 -31t-27.5 -70z" />
<glyph unicode="9" horiz-adv-x="500" d="M39 -185q0 5 34 16q114 40 234 185q13 16 18 28q-3 -1 -12 -4.5t-12 -4.5q-41 -13 -75 -13q-64 0 -102.5 46.5t-38.5 123.5q0 90 63 147.5t148 57.5q71 0 111.5 -53.5t40.5 -140.5q0 -78 -39.5 -152t-101.5 -126q-49 -42 -112 -75t-99.5 -45.5t-44.5 -12.5q-12 0 -12 23z M150 173q0 -54 25.5 -86t77.5 -32q43 0 73 13q24 10 41 62t17 110q0 60 -24.5 92.5t-64.5 32.5q-64 0 -104.5 -60t-40.5 -132z" />
<glyph unicode=":" horiz-adv-x="209" d="M57 38q0 20 16.5 37.5t32.5 17.5q15 0 31 -17t16 -33q0 -25 -15.5 -39.5t-27.5 -14.5q-21 0 -37 17t-16 32zM86 313q0 20 16.5 37.5t32.5 17.5q15 0 31 -17t16 -33q0 -25 -15.5 -39.5t-27.5 -14.5q-21 0 -37 17t-16 32z" />
<glyph unicode=";" horiz-adv-x="195" d="M4 -126q0 1 6 6l17.5 14.5l20.5 17.5q47 47 47 77q0 15 -14 33q-6 7 -16.5 18l-17 18t-6.5 10q0 8 22 19.5t35 11.5q15 0 37.5 -24.5t22.5 -58.5q0 -29 -32 -70.5t-64 -69t-38 -27.5t-13 9.5t-7 15.5zM77 313q0 20 16.5 37.5t32.5 17.5q15 0 31 -17t16 -33 q0 -25 -15.5 -39.5t-27.5 -14.5q-21 0 -37 17t-16 32z" />
<glyph unicode="&#x3c;" horiz-adv-x="527" d="M38 211q0 17 17 23l413 150q22 0 22 -28q0 -12 -18 -19l-315 -111q-34 -12 -40 -18q1 -1 40 -15l320 -112q13 -4 13 -16q0 -9 -7 -18t-20 -9q-4 0 -409 147q-16 5 -16 26z" />
<glyph unicode="=" horiz-adv-x="527" d="M28 134q0 12 3.5 18t17.5 6h431q9 0 13 -3.5t5 -8t1 -12.5q0 -15 -4 -21t-20 -6h-427q-14 0 -17 6t-3 21zM28 290q0 12 3.5 17.5t17.5 5.5h431q9 0 13 -3.5t5 -8t1 -12.5q0 -15 -4 -20.5t-20 -5.5h-427q-14 0 -17 6t-3 21z" />
<glyph unicode="&#x3e;" horiz-adv-x="527" d="M38 65q0 13 12 16l321 112q37 13 40 15q-5 5 -40 18l-316 111q-17 6 -17 19q0 28 21 28q1 0 413 -150q18 -7 18 -23q0 -20 -17 -26q-405 -147 -409 -147q-13 0 -19.5 9t-6.5 18z" />
<glyph unicode="?" horiz-adv-x="374" d="M77 38q0 20 16.5 37.5t32.5 17.5q15 0 31 -17t16 -33q0 -25 -15.5 -39.5t-27.5 -14.5q-21 0 -37 17t-16 32zM81 206q0 45 66 111l42.5 41l45.5 44t36.5 39t29 40.5t9.5 33.5q0 20 -11 39.5t-25 28.5q-23 14 -87 14q-13 0 -45 -1.5t-35 -1.5q-15 0 -15 32v10q0 11 4.5 14 t16.5 5q30 5 64 5q62 0 92 -19q33 -22 53 -61t20 -79q0 -10 -1 -19t-1.5 -15.5t-3 -14t-3.5 -12t-5 -11t-5 -9t-7 -9.5t-7 -8.5t-8.5 -9.5t-8.5 -10q-16 -18 -105 -107l-14 -13.5l-18 -17.5t-16 -17.5t-13.5 -19.5t-4.5 -16q0 -15 14 -34l14 -19q0 -3 -6.5 -9.5t-10.5 -6.5 q-5 0 -16.5 11.5t-23 32t-11.5 39.5z" />
<glyph unicode="@" horiz-adv-x="795" d="M47 187q0 84 36.5 160t95.5 129t135 84t154 31q76 0 136.5 -22.5t102 -80t41.5 -144.5q0 -92 -55 -161t-130.5 -100.5t-153.5 -31.5q-38 0 -38 25q0 16 4 38q-61 -61 -113 -61q-30 0 -45.5 25.5t-15.5 60.5q0 26 19.5 69t52 85.5t81.5 73.5t100 31q6 0 13.5 -1.5t12 -3 t5.5 -1.5q2 1 12 14q14 17 30 17q28 0 28 -16q0 -7 -3 -15q-110 -237 -110 -277q0 -15 2.5 -21.5t14.5 -6.5q42 0 92 24.5t94 68.5q67 67 67 157q0 110 -65.5 165t-175.5 55q-156 0 -270 -108t-114 -268q0 -117 79.5 -189.5t189.5 -72.5q96 0 168 32t140 95q10 10 15 10 q7 0 12.5 -8t5.5 -12q0 -5 -6 -11q-63 -68 -151 -104.5t-187 -36.5q-126 0 -216 81t-90 222zM274 147q0 -17 11 -30t28 -13q42 0 93 106t51 140q0 9 -9 15t-20 6q-40 0 -97 -74.5t-57 -149.5z" />
<glyph unicode="A" horiz-adv-x="688" d="M17 15q0 10 4 12.5t17 2.5h32q8 9 77.5 129l153 261t117.5 192q4 6 22 25t28 37q8 16 18 16q14 0 16 -21q104 -619 114 -639h41q9 0 11.5 -3.5t2.5 -12.5q0 -12 -2.5 -16t-11.5 -4q-6 0 -39.5 1.5t-50.5 1.5q-16 0 -58.5 -1.5t-53.5 -1.5q-10 0 -13 4t-3 17q0 10 4 12.5 t17 2.5h56v8q0 24 -13.5 120.5l-14.5 103.5q-2 12 -3 14t-8 2h-193q-9 0 -12 -1.5t-8 -11.5q-116 -217 -121 -235h66q9 0 11.5 -3.5t2.5 -12.5q0 -12 -2.5 -16t-11.5 -4t-43 1.5t-59 1.5q-17 0 -43.5 -1.5t-30.5 -1.5q-10 0 -13 4t-3 17zM287 311q0 -3 15 -3h167q10 0 10 2 q0 10 -21 136.5t-23 126.5l-31 -55l-68.5 -119.5t-41.5 -73.5q-7 -12 -7 -14z" />
<glyph unicode="B" horiz-adv-x="571" d="M17 15q0 10 4 12.5t17 2.5h40l4 25l9.5 62.5l13 87.5l15 102l15 105t13 96t9 75.5t3.5 44.5v5h-68q-10 0 -13 3t-3 15q0 17 12 17l52 -2q52 -1 73 -1q16 0 60.5 1.5t49.5 1.5q201 0 201 -152q0 -35 -15.5 -64.5t-35.5 -47.5t-49 -33t-46 -21.5t-36 -11.5q19 -3 37 -6.5 t47.5 -16t50 -30t36.5 -49t16 -71.5q0 -171 -292 -171q-11 0 -47.5 1.5t-52.5 1.5t-54 -1.5t-49 -1.5q-10 0 -13.5 4t-3.5 17zM169 48q0 -9 5 -10.5t26 -3.5q14 -1 45 -1q91 0 143.5 36.5t52.5 111.5q0 70 -49.5 104.5t-129.5 34.5h-31q-18 0 -21 -1.5t-5 -8.5 q-2 -11 -19 -133t-17 -129zM210 352q0 -5 10 -5h16q9 0 21 -0.5t20.5 -0.5h9.5q20 0 54 17q98 50 98 138q0 60 -40 96.5t-108 36.5h-16q-15 0 -20 -5t-9 -24q-10 -61 -35 -241q-1 -5 -1 -12z" />
<glyph unicode="C" horiz-adv-x="686" d="M32 291q0 162 109 272.5t257 110.5q61 0 117.5 -24t92.5 -60q11 38 14 38q9 0 20.5 -3.5t11.5 -10.5q0 -3 -7.5 -41l-17 -85t-10.5 -54q-2 -7 -16 -7q-10 0 -18 4.5t-8 9.5q0 2 11 46.5t12 50.5q-6 10 -32.5 32t-76 46t-94.5 24q-74 0 -137 -55.5t-97.5 -136 t-34.5 -160.5q0 -122 68.5 -193.5t170.5 -71.5q46 0 90 16.5t66 33t25 24.5q10 29 25 84q5 16 27 11q19 -4 19 -14q0 -7 -33 -117q-6 -19 -83 -48.5t-143 -29.5q-64 0 -120.5 16.5t-104 51t-75.5 96.5t-28 144z" />
<glyph unicode="D" horiz-adv-x="742" d="M16 10q0 12 4.5 15t15.5 3h41q7 24 41 264t46 333l-2 8l-69 -2q-16 0 -16 15q0 7 1 10.5t4.5 6t10.5 2.5q1 0 24 -0.5t51.5 -0.5h43.5q33 0 75.5 1t56.5 1q166 0 263.5 -80.5t97.5 -250.5q0 -162 -104.5 -252t-259.5 -90q-32 0 -108 2t-106 2q-16 0 -55 -2t-42 -2 q-9 0 -11.5 3.5t-2.5 13.5zM174 46q0 -12 5 -15q4 -3 57 -3q70 0 127.5 14t95.5 36t67 53t44.5 61t25 64.5t12.5 59.5t3 49q0 122 -73.5 194.5t-221.5 72.5q-60 0 -60 -4l-48 -321.5t-34 -260.5z" />
<glyph unicode="E" horiz-adv-x="579" d="M17 15q0 10 4 12.5t17 2.5h40q0 2 10.5 68.5l21.5 139l23 155.5t20 147.5t8 85.5l-1 7h-58q-10 0 -14 3t-4 15q0 17 13 17l47 -2q48 -1 69 -1q28 0 108.5 1.5t100.5 1.5q91 0 92 10q0 15 16 15q20 0 20 -14q0 -5 -4 -42.5t-5 -84.5q0 -7 -4 -9t-15 -2q-18 0 -18 13 q0 3 6 75q-42 6 -258 6q-10 -28 -40 -266q-1 -5 -1 -10q9 -4 12 -4h164q42 0 44 11l11 55q1 7 19 7q16 0 16 -9q0 -4 -2.5 -17.5t-7 -34.5l-7.5 -36q-14 -73 -15 -90q-1 -8 -16 -8h-4q-16 0 -16 8q0 3 6 36t6 34q0 11 -47 11h-151q-11 0 -13 -1t-4 -7q-3 -14 -19.5 -129 t-19.5 -146q0 -6 4 -6q14 0 164.5 3.5t154.5 3.5q3 3 9 19.5t13.5 40.5t12.5 35q4 11 17 11q7 0 13.5 -4t6.5 -10t-5.5 -22l-17 -47.5t-19.5 -55.5q-4 -13 -20 -13q-11 0 -179 1.5t-184 1.5t-54 -1.5t-49 -1.5q-10 0 -13.5 4t-3.5 17z" />
<glyph unicode="F" horiz-adv-x="541" d="M17 15q0 10 3.5 12.5t15.5 2.5h42q0 2 10.5 68.5l21.5 139l23 155.5t20 147.5t8 85.5l-1 7h-54q-22 0 -22 18q0 17 15 17l47 -2q46 -1 67 -1q28 0 108.5 1.5t100.5 1.5q65 0 66 9v1q2 15 16 15q13 0 16.5 -2t3.5 -12q0 -2 -2 -19t-4 -46.5t-3 -59.5q0 -8 -3.5 -10.5 t-15.5 -2.5q-5 0 -8.5 1t-5 1.5t-2.5 4t-1 4.5v6q0 11 5 71q-36 6 -232 6q-4 -12 -40 -267q-1 -4 -1 -9q9 -4 12 -4h156q42 0 44 11l8 43q1 9 19 9q16 0 16 -9q0 -2 -14 -78q-3 -14 -5.5 -30.5t-4.5 -31t-2 -17.5q-1 -9 -16 -9q-6 0 -9.5 0.5t-7 2.5t-3.5 7q1 4 3.5 19 t4 26.5t1.5 12.5q0 11 -47 11h-143q-11 0 -13 -1t-4 -7q-2 -13 -18.5 -130t-20.5 -148q-1 -6 5 -6h67q8 0 10 -3t2 -13q0 -9 -0.5 -12.5t-3 -5.5t-8.5 -2q-11 0 -48.5 1.5t-53.5 1.5t-55 -1.5t-50 -1.5q-10 0 -12.5 4t-2.5 17z" />
<glyph unicode="G" horiz-adv-x="721" d="M32 266q0 166 113 289t266 123q116 0 216 -60q1 5 2 12.5t2 12t4.5 8.5t9.5 4t11 -0.5t9.5 -3.5t3.5 -8q-13 -84 -23 -175q-2 -17 -18 -17q-22 0 -22 15q0 1 0.5 2.5t0.5 2.5q1 2 8 46t8 52q-11 13 -85.5 45.5t-122.5 32.5q-77 0 -143.5 -57t-102.5 -142t-36 -172 q0 -121 66 -193t163 -72q44 0 82 12t57 25t21 23q15 55 18 135q0 11 -6 11h-87q-9 0 -9 15q0 21 10 21q15 0 64.5 -1.5t67.5 -1.5q17 0 51 1.5t54 1.5q9 0 9 -17q0 -19 -9 -19h-57q0 -1 -18 -143q-1 -12 -45.5 -36t-118 -45.5t-138.5 -21.5q-28 0 -59.5 6.5t-71.5 26 t-71 50.5t-52.5 86t-21.5 126z" />
<glyph unicode="H" horiz-adv-x="795" d="M17 13q0 10 3.5 13.5t15.5 3.5h53q10 24 49 293.5t39 299.5q0 13 -6 13h-65q-11 0 -11 18q0 12 3.5 15t14.5 3q6 0 49.5 -1.5t60.5 -1.5q16 0 53 1.5t48 1.5q10 0 13.5 -4t3.5 -17q0 -10 -4 -12.5t-17 -2.5h-49q-9 -19 -45 -267q-2 -7 -0.5 -11.5t9.5 -4.5h338q10 0 11 9 q30 219 30 261q0 9 -1 11t-5 2h-63q-13 0 -13 18q0 12 4.5 15t15.5 3q6 0 49 -1.5t60 -1.5q16 0 52.5 1.5t47.5 1.5q10 0 13.5 -4t3.5 -17q0 -10 -4 -12.5t-17 -2.5h-49q-11 -21 -46.5 -299t-35.5 -297q0 -10 5 -10h57q9 0 11.5 -3.5t2.5 -12.5q0 -12 -2.5 -16t-11.5 -4 q-11 0 -54.5 1.5t-59.5 1.5t-50 -1.5t-45 -1.5q-10 0 -13.5 4t-3.5 17q0 10 4 12.5t17 2.5h51q5 16 43 284q1 6 -0.5 7.5t-7.5 1.5h-338q-9 0 -11 -1.5t-3 -11.5q-32 -235 -32 -270q0 -10 5 -10h59q9 0 11.5 -3.5t2.5 -12.5q0 -12 -2.5 -16t-11.5 -4q-11 0 -54 1.5t-59 1.5 t-54.5 -1.5t-49.5 -1.5q-10 0 -12.5 4t-2.5 15z" />
<glyph unicode="I" horiz-adv-x="377" d="M17 15q0 10 4 12.5t17 2.5h58q9 27 48.5 292t39.5 301q0 13 -6 13h-67q-14 0 -14 18q0 12 4.5 15t15.5 3q6 0 53 -1.5t64 -1.5q16 0 57 1.5t52 1.5q10 0 13.5 -4t3.5 -17q0 -10 -4 -12.5t-17 -2.5h-56q-11 -23 -48.5 -287t-37.5 -309q0 -10 5 -10h66q9 0 11.5 -3.5 t2.5 -12.5q0 -12 -2.5 -16t-11.5 -4q-11 0 -58 1.5t-63 1.5t-59 -1.5t-54 -1.5q-10 0 -13.5 4t-3.5 17z" />
<glyph unicode="J" horiz-adv-x="365" d="M-61 -188q0 24 29 45.5t41 21.5q9 0 25.5 -10.5t26.5 -10.5q21 0 29.5 33t14.5 91q1 9 1 13q11 106 30.5 260.5l33.5 257t14 108.5q0 15 -7 15h-70q-11 0 -16 3t-5 15t5 15t16 3q6 0 57 -1.5t68 -1.5q16 0 52 1.5t47 1.5q10 0 13.5 -4t3.5 -17q0 -10 -4 -12.5t-17 -2.5 h-49q-9 -19 -72 -506q-1 -4 -4 -28.5t-4.5 -32t-5 -30.5t-7 -33.5t-9 -31.5t-12 -34l-15 -30t-19.5 -31.5t-24 -28.5q-19 -20 -32 -31.5t-35 -22.5t-44 -11q-20 0 -38 7.5t-18 19.5z" />
<glyph unicode="K" horiz-adv-x="656" d="M17 13q0 10 4 13.5t17 3.5h31q10 25 51.5 294.5t41.5 298.5q0 13 -6 13h-57q-15 0 -15 18q0 12 5 15t17 3q6 0 45.5 -1.5t56.5 -1.5q16 0 49 1.5t44 1.5q10 0 12.5 -4t2.5 -17q0 -10 -3.5 -12.5t-15.5 -2.5h-37q-10 -8 -31.5 -131t-23.5 -147q-2 -17 10 -17h49 q7 0 91.5 108l130.5 171q8 12 8 13q0 3 -11 3h-23q-11 0 -15.5 3t-4.5 15t4 15t14 3q5 0 30.5 -1.5t42.5 -1.5q23 0 48.5 1.5t31.5 1.5q10 0 13.5 -4t3.5 -17q0 -10 -4 -12.5t-17 -2.5h-56q-80 -107 -218 -260q-3 -3 -8 -9q-7 -7 -7 -8q0 -3 7 -10q24 -22 56.5 -60.5 t56.5 -70.5l65 -89l61 -83q11 -16 33 -16h30q8 0 10 -3t2 -13q0 -9 -0.5 -12.5t-3 -5.5t-8.5 -2q-7 0 -45.5 1.5t-70.5 1.5q-16 0 -42.5 -1.5t-37.5 -1.5q-10 0 -12.5 4t-2.5 17q0 10 4 12.5t17 2.5h8q17 0 17 4q0 3 -11 18q-188 265 -195 265h-49q-8 0 -9 -7 q-4 -33 -14.5 -101.5t-16.5 -112.5t-6 -58q0 -2 1 -5v-3h67q9 0 11.5 -3.5t2.5 -12.5q0 -12 -2.5 -16t-11.5 -4q-11 0 -54 1.5t-59 1.5t-44.5 -1.5t-39.5 -1.5q-10 0 -12.5 4t-2.5 15z" />
<glyph unicode="L" horiz-adv-x="586" d="M17 15q0 10 4 12.5t16 2.5h50q6 37 41 306.5t35 289.5v10h-59q-11 0 -14 3.5t-3 14.5q0 12 3.5 15t15.5 3q4 0 40 -1.5t62 -1.5q27 0 64.5 1.5t45.5 1.5q13 0 16.5 -3.5t3.5 -14.5q0 -10 -4.5 -14t-16.5 -4h-59q-7 -47 -42 -311t-35 -272q0 -19 18 -19q227 0 287 6 q11 1 13 3t7 18l26 79q3 10 13 9q24 -3 24 -14q0 -2 -5 -18.5l-15 -48.5t-18 -61q-4 -13 -18 -13q-11 0 -187.5 1.5t-192.5 1.5t-52.5 -1.5t-47.5 -1.5q-10 0 -13 4t-3 17z" />
<glyph unicode="M" horiz-adv-x="883" d="M17 15q0 10 4 12.5t17 2.5h46l46 208.5l60.5 272t25.5 120.5t-22 5h-46q-9 0 -11.5 3.5t-2.5 12.5q0 12 2.5 16t11.5 4q6 0 50 -1.5t55 -1.5q13 0 29 1.5t18 1.5q20 0 23 -15l101 -509q4 -18 8 -18t12 18q168 351 252 505q9 16 24 16h44q16 0 45 1.5t40 1.5q10 0 13.5 -4 t3.5 -17q0 -10 -4 -12.5t-17 -2.5h-43q-9 -73 -36 -319.5t-28 -286.5h74q9 0 12.5 -3t3.5 -13q0 -12 -2.5 -16t-11.5 -4q-11 0 -58.5 1.5t-63.5 1.5q-18 0 -56 -1.5t-40 -1.5q-10 0 -13.5 4t-3.5 17q0 10 4 12.5t17 2.5h38q20 26 76 576q-172 -328 -245 -483 q-9 -20 -19.5 -33.5t-27 -30.5t-29.5 -34q-11 -13 -18 -13q-15 0 -19 24q-16 104 -108 568q-30 -115 -53 -228q-59 -280 -63 -346h62q9 0 11.5 -3.5t2.5 -12.5q0 -12 -2.5 -16t-11.5 -4q-2 0 -36 1.5t-52 1.5q-17 0 -42 -1.5t-30 -1.5q-10 0 -13.5 4t-3.5 17z" />
<glyph unicode="N" horiz-adv-x="824" d="M17 15q0 10 4 12.5t17 2.5h47q22 135 89 511q11 55 11 73q0 2 -5 11q-4 7 -7 9t-14 2h-60q-8 0 -10 3t-2 13q0 9 0.5 12.5t3 5.5t8.5 2t54.5 -1.5t59.5 -1.5q13 0 28 1.5t17 1.5q14 0 23 -14l328 -499q8 -11 13 -11q9 24 39.5 230.5t30.5 248.5v9h-75q-9 0 -11.5 3.5 t-2.5 12.5q0 12 2.5 16t11.5 4q6 0 37 -1.5t52 -1.5q24 0 52 1.5t32 1.5q10 0 13.5 -4t3.5 -17q0 -10 -4 -12.5t-17 -2.5h-40q-11 -34 -79 -464q-9 -59 -17 -170q-1 -15 -4.5 -20.5t-13.5 -5.5q-4 0 -7.5 2t-7 6t-5.5 7t-6 9.5t-5 8.5q-55 89 -117 180l-256 374 q-12 15 -14 11q-1 -2 -2 -8l-6 -38l-13.5 -85.5l-16.5 -111.5l-16.5 -118.5t-12.5 -103t-5 -67.5q0 -5 1 -10v-2h84q9 0 11.5 -3.5t2.5 -12.5q0 -12 -2.5 -16t-11.5 -4q-11 0 -50.5 1.5t-55.5 1.5q-18 0 -52 -1.5t-35 -1.5q-10 0 -13.5 4t-3.5 17z" />
<glyph unicode="O" horiz-adv-x="734" d="M32 280q0 87 33 163t86 126t120 78.5t136 28.5q136 0 215.5 -90t79.5 -238q0 -153 -107.5 -263t-260.5 -110q-131 0 -216.5 76t-85.5 229zM130 286q0 -54 13 -102.5t38.5 -89.5t69.5 -65t100 -24q73 0 133.5 59.5t90.5 142.5t30 166q0 44 -11 89t-33 86.5t-61.5 67.5 t-89.5 26q-106 0 -193 -111.5t-87 -244.5z" />
<glyph unicode="P" horiz-adv-x="570" d="M17 15q0 10 4 12.5t17 2.5h40q83 581 83 596l-1 7h-56q-11 0 -15.5 3t-4.5 15q0 17 13 17l45 -2q45 -1 66 -1q16 0 63 2.5t54 2.5q100 0 156.5 -48.5t56.5 -125.5q0 -55 -21.5 -95t-59 -61.5t-78.5 -31t-88 -9.5q-16 0 -44.5 1t-31.5 1q-14 0 -15 -7q-7 -27 -33 -258 q-1 -6 5 -6h67q8 0 10 -3t2 -13q0 -9 -0.5 -12.5t-3 -5.5t-8.5 -2q-11 0 -48.5 1.5t-53.5 1.5t-54 -1.5t-49 -1.5q-10 0 -13.5 4t-3.5 17zM205 335q0 -9 28 -9q92 0 157 40.5t65 123.5q0 73 -41.5 111.5t-122.5 38.5q-35 0 -42 -3q-17 -100 -42 -283q-2 -18 -2 -19z" />
<glyph unicode="Q" horiz-adv-x="717" d="M13 -107q0 44 104 44q14 0 38 -2.5t33 -2.5q12 0 22 4q40 18 102 50q8 4 8 4.5t-8 2.5q-29 4 -56 10.5t-71 28t-75 52.5t-54.5 89t-23.5 132q0 91 47 176.5t132.5 141t186.5 55.5q129 0 208 -86.5t79 -216.5q0 -134 -70.5 -229t-175.5 -133q-13 -5 -27 -9t-25.5 -8.5 t-28.5 -12.5q-52 -25 -91 -46q-17 -9 -17 -11t22 -8q266 -72 353 -72q30 0 53 3t34.5 5.5t12.5 2.5q6 0 6 -14q0 -3 -29 -13.5t-71.5 -20.5t-70.5 -10q-85 0 -184.5 21.5t-166.5 43.5t-74 22q-13 0 -36 -9q-35 -13 -50 -13q-36 0 -36 29zM124 290q0 -133 72 -201.5 t172 -68.5q19 0 55 27.5t74.5 74t66.5 122t28 156.5q0 113 -56.5 178t-150.5 65q-88 0 -174.5 -105.5t-86.5 -247.5z" />
<glyph unicode="R" horiz-adv-x="625" d="M17 13q0 10 4 13.5t17 3.5h38q19 108 46.5 303t35.5 277q1 8 1 23h-65q-10 0 -14 3t-4 15q0 17 16 17q1 0 16 -1t40.5 -1.5t54.5 -0.5q15 0 69.5 3.5t72.5 3.5q87 0 146 -46t59 -119q0 -136 -184 -182q-4 -1 -5 -1l13 -4.5l22 -7.5t24 -9q115 -46 115 -167q0 -6 -1.5 -44 t-1.5 -54v-5l1 -3h45q12 0 16 -3.5t4 -14.5q0 -18 -8 -18q-2 0 -30.5 1t-64 1.5t-54.5 0.5q-8 0 -6 16q16 94 16 157q0 47 -37.5 84.5t-95.5 49.5q-24 5 -70 5h-29q-20 0 -23 -21q-26 -182 -29 -252q0 -6 5 -6h53q9 0 12.5 -3t3.5 -13q0 -12 -2.5 -16t-11.5 -4 q-11 0 -42.5 1.5t-47.5 1.5t-54 -1.5t-49 -1.5t-14 3.5t-3 15.5zM207 350q0 -11 15 -11h7q20 0 43.5 -1.5t26.5 -1.5q52 0 106 49.5t54 112.5q0 142 -168 142q-38 0 -47 -3l-36 -275q-1 -6 -1 -12z" />
<glyph unicode="S" horiz-adv-x="505" d="M37 67q0 5 11 68.5t13 67.5q1 2 9 2q27 0 27 -10q0 -2 -8.5 -47t-8.5 -47q0 -9 27.5 -28t73 -36.5t84.5 -17.5q55 0 91 34t36 86q0 41 -31.5 71t-76.5 51t-90 45t-76.5 66t-31.5 101q0 88 58.5 143.5t149.5 55.5q66 0 137 -55q1 4 3 15t3 14q4 13 15 12q1 0 5.5 -0.5 t7 -1t5.5 -3t3 -5.5q0 -7 -32 -170q-2 -12 -13 -12q-23 0 -23 14l7 31q8 31 8 39q-2 7 -17 25.5t-49 39t-71 20.5q-56 0 -88.5 -35.5t-32.5 -93.5q0 -44 31 -74.5t75 -49.5t88.5 -41t75.5 -63.5t31 -102.5q0 -59 -34 -104t-82 -66t-97 -21q-55 0 -107 16.5t-79 35.5t-27 31z " />
<glyph unicode="T" horiz-adv-x="681" d="M17 546q0 2 5.5 17.5l16.5 47l21 62.5q2 8 5.5 11.5t7 4t11.5 0.5q14 0 14 -15v-4q14 -6 103 -6h326q99 0 101 8q1 9 4 13t13 4q11 0 15 -2.5t4 -11.5q0 -8 -1.5 -23.5t-3.5 -45t-4 -63.5q0 -11 -22 -11q-10 0 -12 3t-2 12q0 2 3 37.5t3 41.5q-9 4 -104 4h-106 q-7 0 -10 -17l-27 -187.5l-37 -261.5t-17 -123q0 -11 5 -11h64q9 0 11.5 -3.5t2.5 -12.5q0 -12 -2.5 -16t-11.5 -4q-11 0 -57.5 1.5t-62.5 1.5q-17 0 -62 -1.5t-51 -1.5q-10 0 -12.5 4t-2.5 17q0 10 3.5 12.5t15.5 2.5h55q10 18 52.5 297.5t42.5 294.5q0 8 -3 8h-137 q-89 0 -92 -9l-24 -70q-4 -11 -7.5 -15t-11.5 -4q-22 0 -22 14z" />
<glyph unicode="U" horiz-adv-x="759" d="M57 649q0 12 4 15t15 3q6 0 41.5 -1.5t52.5 -1.5q16 0 53.5 1.5t48.5 1.5q10 0 12.5 -4t2.5 -17q0 -10 -3.5 -12.5t-15.5 -2.5h-33q-10 -20 -41.5 -212.5t-31.5 -242.5q0 -36 15 -63t34 -40t44.5 -20.5t39.5 -8.5t27 -1q41 0 87 16t76 35q27 20 38 58q12 47 32 163 q40 235 48 316h-66q-11 0 -16 3t-5 15t5 15t16 3q6 0 47.5 -1.5t58.5 -1.5t48 1.5t34 1.5q10 0 13.5 -4t3.5 -17q0 -10 -4 -12.5t-17 -2.5h-30q-1 -6 -21 -116q-62 -378 -95 -490q-7 -27 -22 -27q-18 0 -19 14q-7 64 -10 64q-2 0 -44 -24q-113 -62 -212 -62q-83 0 -139 43.5 t-56 117.5q0 47 33 249.5t33 228.5v2h-63q-10 0 -14.5 3t-4.5 15z" />
<glyph unicode="V" horiz-adv-x="666" d="M17 649q0 12 5 15t16 3q6 0 40.5 -1.5t51.5 -1.5q16 0 55 1.5t50 1.5q10 0 13.5 -4t3.5 -17q0 -10 -4 -12.5t-17 -2.5h-55q-1 0 -1 -2q0 -21 31 -239.5t44 -287.5q2 -12 4 -12t9 12q60 94 164 292l118 225l4 10q0 2 -7 2h-67q-11 0 -16 3t-5 15t4.5 15t15.5 3 q1 0 34 -1.5t65 -1.5q8 0 31 1.5t27 1.5q11 0 14.5 -4t3.5 -17q0 -10 -4.5 -12.5t-17.5 -2.5q-15 0 -17 -0.5t-4 -5.5l-314 -538q-4 -7 -22 -28.5t-32 -43.5q-23 -35 -40 -35q-10 0 -13.5 11.5t-9.5 52.5q-18 135 -53.5 351.5t-44.5 235.5h-39q-11 0 -16 3t-5 15z" />
<glyph unicode="W" horiz-adv-x="1010" d="M17 649q0 12 5 15t16 3q6 0 40.5 -1.5t51.5 -1.5q16 0 52 1.5t47 1.5q10 0 13.5 -4t3.5 -17q0 -10 -4 -12.5t-17 -2.5h-53q-1 0 -1 -2q0 -19 27 -219.5t41 -288.5q5 -27 7 -27t18 27q56 92 199 359q4 8 3 22q-14 121 -17 129h-42q-11 0 -16 3t-5 15t5 15t16 3 q6 0 37 -1.5t48 -1.5q13 0 59 1.5t68 1.5q11 0 14.5 -4t3.5 -17q0 -10 -4.5 -12.5t-17.5 -2.5h-72q-1 -3 -1 -16q0 -5 12 -109l27.5 -230t22.5 -175q3 -18 6 -18q2 0 11 17q83 146 266 519l4 10q0 2 -7 2h-64q-11 0 -16 3t-5 15t4.5 15t15.5 3q1 0 32.5 -1.5t63.5 -1.5 q8 0 32 1.5t28 1.5q11 0 14.5 -4t3.5 -17q0 -10 -4.5 -12.5t-17.5 -2.5h-11q-11 0 -14 -2.5t-10 -16.5q-154 -299 -194 -369l-88 -156q-4 -7 -22 -29.5t-32 -43.5q-23 -34 -40 -34q-10 0 -13.5 11.5t-9.5 52.5q-40 264 -59 374q-1 7 -2 7t-7 -10l-183 -328q-4 -7 -22 -29 t-32 -44q-23 -34 -38 -34q-10 0 -13.5 11.5t-9.5 52.5q-18 130 -52.5 348t-42.5 239h-38q-11 0 -16 3t-5 15z" />
<glyph unicode="X" horiz-adv-x="661" d="M17 12q0 12 4.5 15t14.5 3h26q6 3 40.5 47l94 121l102.5 129q7 8 3 18l-125 254q-14 30 -19 32h-43q-11 0 -16 3t-5 15t5 15t16 3q6 0 42 -1.5t53 -1.5q16 0 53.5 1.5t48.5 1.5q10 0 13.5 -4t3.5 -17q0 -10 -4 -12.5t-17 -2.5h-50q0 -1 1.5 -4.5t2.5 -6.5q4 -12 36 -86 t59 -128q7 -13 8 -13t11 13q155 218 155 224v1h-46q-13 0 -17 2.5t-4 12.5q0 13 3.5 17t13.5 4q11 0 31.5 -1.5t36.5 -1.5q17 0 43.5 1.5t32.5 1.5q11 0 15 -3.5t4 -14.5q0 -12 -4.5 -15t-14.5 -3h-28q-8 -6 -61.5 -72.5l-102.5 -130.5l-49 -63q-4 -5 0 -13 q13 -23 57.5 -107.5l78.5 -147t41 -67.5h47q11 0 16 -3t5 -15t-5 -15t-16 -3q-6 0 -44.5 1.5t-55.5 1.5q-16 0 -60.5 -1.5t-55.5 -1.5q-10 0 -13.5 4t-3.5 17q0 10 4 12.5t17 2.5h47h5h4l1 1l-1 1q0 2 -1 4t-2 5q-3 8 -123 258q-3 6 -4 6q-2 0 -8 -8q-36 -46 -110 -150 t-75 -116q2 -1 10 -1h41q13 0 17 -2.5t4 -12.5q0 -13 -3.5 -17t-13.5 -4q-4 0 -36 1.5t-49 1.5t-38.5 -1.5t-24.5 -1.5q-11 0 -15 3.5t-4 14.5z" />
<glyph unicode="Y" horiz-adv-x="613" d="M17 654q0 12 5 15t16 3q6 0 45 -1.5t56 -1.5q16 0 47 1.5t42 1.5q10 0 13 -4t3 -17q0 -10 -3.5 -12.5t-16.5 -2.5h-40q0 -1 1 -4.5t2 -6.5q13 -44 103 -265q3 -6 5 -7.5t5 2t7 9.5q1 1 1 2l35.5 52.5l46 68l42.5 64.5t34.5 56.5t12.5 28.5h-50q-13 0 -17 2.5t-4 12.5 q0 13 3.5 17t13.5 4q11 0 36.5 -1.5t41.5 -1.5q17 0 44 1.5t33 1.5q10 0 13 -3t3 -15t-3 -15t-13 -3h-38q-12 -12 -97 -129t-124 -176q-5 -9 -8 -22l-34 -205q-10 -62 -10 -71q0 -3 1 -3h64q9 0 11.5 -3.5t2.5 -12.5q0 -12 -2.5 -16t-11.5 -4q-11 0 -50 1.5t-55 1.5 t-50.5 -1.5t-45.5 -1.5q-10 0 -12.5 4t-2.5 15q0 10 3.5 13.5t15.5 3.5h44q4 5 42 231q5 27 5 40q0 3 -67 157l-78 178h-45q-11 0 -16 3t-5 15z" />
<glyph unicode="Z" horiz-adv-x="599" d="M32 15q0 6 92 136.5l201.5 282.5t129.5 182q4 4 4 7t-9 3h-265q-40 0 -41 -8l-5.5 -28l-6 -32t-2.5 -15q-3 -12 -11 -13h-5q-24 0 -24 10q0 3 4.5 25t10.5 55.5t9 59.5q0 9 17 9q19 0 19 -8v-9q0 -8 54 -8h348q20 0 20 -18q0 -7 -188 -277q-221 -320 -223 -327q0 -7 8 -7 l307 3q12 0 16 13q5 13 23 91q2 8 16 8q23 0 23 -13q0 -3 -6.5 -28.5l-15 -57.5l-11.5 -44q-4 -13 -25 -13q-57 0 -229.5 1.5t-223.5 1.5q-11 0 -11 18z" />
<glyph unicode="[" horiz-adv-x="296" d="M77 -129v807q0 9 3 12t12 3h153q9 0 11.5 -2.5t2.5 -9.5v-14q0 -10 -2.5 -13t-11.5 -3h-107q-8 0 -9 -1t-1 -8v-735q0 -7 1 -8t9 -1h107q9 0 11.5 -3t2.5 -13v-12q0 -14 -14 -14h-152q-11 0 -13.5 2t-2.5 13z" />
<glyph unicode="\" horiz-adv-x="406" d="M6 696q0 11 25 11q19 0 23.5 -3t8.5 -16l317 -850q21 -54 21 -62q0 -12 -29 -12q-19 0 -23.5 4.5t-13.5 28.5l-314 851q-15 38 -15 48z" />
<glyph unicode="]" horiz-adv-x="296" d="M37 -118q0 10 2.5 13t11.5 3h107q8 0 9 1t1 8v735q0 7 -1 8t-9 1h-107q-9 0 -11.5 3t-2.5 13v12q0 14 14 14h152q10 0 13 -2.5t3 -11.5v-807q0 -7 -0.5 -9.5t-3.5 -4.5t-9 -2h-155q-9 0 -11.5 2.5t-2.5 9.5v14z" />
<glyph unicode="^" horiz-adv-x="402" d="M47 309l148 324l1 1q3 1 7 1t7 -1l1 -1l148 -324q-13 -4 -30 -4q-11 0 -27 3h-1l-100 227l-96 -227h-2q-18 -3 -28 -3q-16 0 -28 4z" />
<glyph unicode="_" horiz-adv-x="410" d="M22 -41q0 19 17 19h335q14 0 14 -14v-14q0 -23 -14 -23h-338q-9 0 -11.5 4t-2.5 16v12z" />
<glyph unicode="`" horiz-adv-x="400" d="M125 575q0 34 37 34q24 0 29 -26l26 -126l1 -3v-3q0 -5 -7 -5h-15q-6 0 -10 8l-57 107q-4 7 -4 14z" />
<glyph unicode="a" horiz-adv-x="433" d="M22 59q0 46 15 101t42 107.5t73 87.5t100 35q10 0 28.5 -9t27.5 -22l19 -26q3 0 13 41q3 13 47 13q16 0 16 -8q0 -5 -40.5 -148t-40.5 -168q0 -17 11 -17q7 0 34 28t30 28q5 0 9.5 -5.5t4.5 -11.5q0 -4 -22.5 -28t-55 -47.5t-52.5 -23.5q-30 0 -30 27q0 33 48 187 q-55 -92 -111 -150q-24 -25 -33.5 -34t-28 -19t-36.5 -10q-32 0 -50 20.5t-18 51.5zM95 96q0 -50 25 -50q28 0 80.5 60t95.5 131q15 25 15 52q0 24 -28.5 39.5t-55.5 15.5q-32 0 -64 -45.5t-50 -103t-18 -99.5z" />
<glyph unicode="b" horiz-adv-x="453" d="M22 12q0 11 14 25q4 6 7 18q29 157 58 348.5t29 219.5q0 6 -4 6q-3 0 -42.5 -11.5t-43.5 -11.5q-8 0 -8 30q0 9 7 11q155 38 165 38q15 0 15 -13q0 -7 -17.5 -118l-22.5 -141q-4 -25 -13.5 -71.5l-19.5 -98t-13 -64.5q54 85 79 119q38 52 65.5 72.5t72.5 20.5 q42 0 66 -24q15 -15 15 -44q0 -73 -28.5 -138.5t-70 -106.5t-85 -65t-77.5 -24q-21 0 -41.5 7t-33 14t-13.5 7q-3 0 -19 -8q-20 -8 -28 -8q-13 0 -13 11zM115 80q0 -24 16.5 -40.5t48.5 -16.5q40 0 82.5 50.5t68 111t25.5 97.5q0 22 -9.5 39t-29.5 17q-40 0 -81 -58 q-121 -168 -121 -200z" />
<glyph unicode="c" horiz-adv-x="402" d="M22 128q0 116 72 191t152 75q59 0 88 -32q23 -25 23 -58q0 -22 -13 -37t-33 -15q-25 0 -25 40q0 4 0.5 12t0.5 12q0 19 -11 32t-33 13q-27 0 -55 -18t-48 -48q-47 -69 -47 -151q0 -12 1 -21t6.5 -25.5t15 -27t30.5 -19t50 -8.5q38 0 76.5 19.5t61.5 39.5l24 19 q3 0 9 -6.5t6 -10.5q0 -7 -30.5 -34t-83 -54.5t-97.5 -27.5q-75 0 -107.5 41t-32.5 99z" />
<glyph unicode="d" horiz-adv-x="473" d="M22 74q0 35 14.5 84.5t40 101t69 87t94.5 35.5q14 0 26.5 -1.5t22 -4.5t15.5 -5.5t12 -6t7 -3.5q5 -2 7 -3t4.5 -1t4 2.5t2.5 7.5q6 31 15 91l15.5 107t6.5 48q2 8 0 11.5t-5 2.5t-4 -1l-81 -21q-7 0 -7 11q0 8 1 13q1 12 10 15l76.5 18.5l56 14.5t21.5 5q14 0 14 -18 q0 -4 -50 -289t-50 -315q0 -12 10 -12q12 0 34 18.5t39.5 37t18.5 18.5q4 0 9 -4.5t5 -7.5q0 -5 -22 -33t-62.5 -57.5t-77.5 -29.5q-13 0 -21.5 10.5t-8.5 27.5q0 34 36 188q-43 -73 -79 -120q-20 -27 -30.5 -39.5t-29 -30.5t-37.5 -25.5t-42 -7.5q-10 0 -20 2t-25.5 9 t-25 25t-9.5 45zM94 102q0 -28 10 -40.5t33 -12.5q42 0 136 139q53 77 53 116q0 12 -28 31t-58 19q-39 0 -74.5 -48.5t-53.5 -106t-18 -97.5z" />
<glyph unicode="e" horiz-adv-x="390" d="M22 105q0 115 74 202t174 87q39 0 67.5 -15.5t28.5 -53.5q0 -44 -36 -79t-89 -55q-65 -24 -142 -24q-5 0 -5 -43q0 -86 93 -86q41 0 80.5 22t63 43.5t26.5 21.5q6 0 11 -6t5 -11q0 -6 -29 -33t-84 -55t-109 -28q-56 0 -92.5 28.5t-36.5 84.5zM109 200q0 -4 7 -4 q73 0 126 36t53 94q0 17 -13 27.5t-34 10.5q-80 0 -125 -120q-14 -35 -14 -44z" />
<glyph unicode="f" horiz-adv-x="284" d="M-128 -240q0 15 18 29.5t34 14.5q13 0 38.5 -12t42.5 -12q9 0 16 6t13 18.5t10 24t8 31t5.5 30l4.5 31.5t4 25l23.5 160.5t21.5 160.5t8 68q0 9 -11 9h-71q-5 0 -5 9q0 22 8 22h75q8 0 9 9q9 97 42 158q47 83 102 114q48 28 93 28q25 0 50.5 -13t25.5 -26 q0 -15 -20 -29.5t-37 -14.5q-14 0 -39.5 18.5t-41.5 18.5q-73 0 -107 -260q0 -3 5 -3h87q3 0 3 -3q0 -6 -3 -17t-5 -11h-82q-8 0 -9 -8q-2 -11 -13 -91l-23.5 -164.5l-20.5 -134.5q-3 -17 -11 -45t-31 -71.5t-53 -65.5q-2 -1 -8.5 -6l-10 -7.5t-10.5 -7t-11.5 -7t-11.5 -6 t-13 -5t-13.5 -3t-14.5 -1.5q-24 0 -47.5 13t-23.5 26z" />
<glyph unicode="g" horiz-adv-x="426" d="M-9 -157q0 40 30.5 69t62.5 43q10 4 2 8q-35 16 -35 40q0 8 18.5 37t28.5 33l54 20q7 2 1 4q-2 1 -3 1q-93 35 -93 132q0 72 52.5 122t127.5 50q55 0 95 -40q4 -4 7 1q4 7 12 26t10 23q5 11 24 11q30 0 30 -14q0 -12 -11 -33t-23 -38t-12 -18q0 -4 3 -12q7 -18 7 -41 q0 -74 -54 -123q-26 -24 -52 -35.5t-75 -24.5q-91 -25 -91 -44q0 -4 3 -7.5t9 -7t13 -6t18.5 -5.5t21 -5t24 -4.5t25 -4l27 -4t26.5 -4.5q65 -10 99.5 -30.5t34.5 -67.5q0 -52 -35 -86.5t-87.5 -48t-120.5 -13.5q-45 0 -81 7t-64.5 30t-28.5 60zM39 -151q0 -20 17.5 -34.5 t45 -21t53 -9.5t49.5 -3q62 0 99.5 22t37.5 64q0 30 -25.5 43.5t-76.5 22.5q-98 17 -106 17q-7 0 -31 -11q-63 -32 -63 -90zM126 229q0 -59 23.5 -85t47.5 -26q38 0 76 47t38 114q0 36 -21.5 65t-53.5 29q-48 0 -79 -47.5t-31 -96.5z" />
<glyph unicode="h" horiz-adv-x="468" d="M22 6l17 80q17 79 41.5 229t39.5 304q2 15 -4 15q-10 0 -46 -13t-38 -13q-6 0 -6 13q0 19 9 23q30 11 83.5 22.5t72.5 11.5q9 0 9 -18q-6 -111 -88 -512q50 103 105 169q57 69 126 69q27 0 44.5 -13t17.5 -38q0 -38 -33.5 -148.5t-33.5 -119.5q0 -19 18 -19q14 0 54 44 l41 43q4 0 9.5 -4.5t5.5 -8.5t-14 -23t-35.5 -42t-51.5 -41.5t-57 -18.5q-19 0 -31.5 11.5t-12.5 29.5q0 16 36.5 129t36.5 140q0 36 -31 36t-64.5 -40t-73.5 -106q-47 -80 -54 -107l-21 -84q-3 -11 -60 -11q-11 0 -11 11z" />
<glyph unicode="i" horiz-adv-x="270" d="M22 282q0 10 64.5 57t89.5 47q23 0 23 -25q0 -27 -32.5 -151t-32.5 -135q0 -17 10 -17t43.5 32t35.5 32q4 0 9.5 -5.5t5.5 -9.5q0 -14 -65.5 -65t-88.5 -51q-27 0 -27 21q0 25 35.5 146t35.5 152q0 15 -9 15q-14 0 -46.5 -29.5t-35.5 -29.5q-5 0 -10 5.5t-5 10.5z M125 549q0 21 12 35t32 14q22 0 34.5 -16t12.5 -35q0 -21 -12.5 -35t-31.5 -14q-22 0 -34.5 16t-12.5 35z" />
<glyph unicode="j" horiz-adv-x="297" d="M-72 -221q0 17 11 28t27 11q20 0 40 -12.5t35 -12.5q16 0 26 26t21 80q19 93 43 242t24 169q0 15 -9 15q-13 0 -54.5 -44.5t-44.5 -44.5q-4 0 -9.5 4.5t-5.5 9.5q0 6 30 38.5t72.5 65t68.5 32.5q9 0 16.5 -7t7.5 -20q0 -32 -55 -362q-24 -161 -97 -216q-54 -39 -89 -39 q-25 0 -41.5 11.5t-16.5 25.5zM154 579q0 21 12 35t32 14q22 0 34.5 -16t12.5 -35q0 -21 -12.5 -35t-31.5 -14q-22 0 -34.5 16t-12.5 35z" />
<glyph unicode="k" horiz-adv-x="450" d="M22 -3q0 8 21 107t48.5 249.5t38.5 269.5q0 6 -6 6q-5 0 -41 -10t-37 -10q-6 0 -6 9q0 24 9 26l72 18q77 20 82 20q14 0 14 -14q0 -13 -93 -470q36 65 63 100q33 44 67 65t84 21q62 0 62 -40q0 -43 -33 -80t-68 -54t-66 -24q-2 0 -7.5 -1t-6.5 -1q9 -4 21 -15 q47 -45 73 -77q16 -20 24 -28.5t22 -16t30 -7.5q31 0 31 24q0 3 -1 9.5t-1 10.5q0 15 11 15q9 0 16.5 -11.5t7.5 -34.5q0 -25 -39.5 -41.5t-74.5 -16.5q-23 0 -45 21q-11 10 -23.5 25t-29 37.5t-24.5 32.5l-23.5 28l-20.5 24.5t-7 11.5q0 6 18 24q3 3 12 3q16 0 27 5 q37 17 70 53t33 68q0 18 -28 18q-27 0 -61 -32q-11 -11 -24.5 -28.5t-21 -28.5l-28 -42l-25.5 -39q-17 -27 -24 -57q-16 -66 -21 -97q-7 -24 -13 -25q-1 0 -11 -1.5t-22 -3t-17 -1.5q-8 0 -8 6z" />
<glyph unicode="l" horiz-adv-x="272" d="M52 28q0 6 18 106.5l42 243.5t35 234q2 8 -1 11.5t-11 1.5q-73 -19 -74 -19q-7 0 -7 10q0 8 1 13q1 13 12 16l77 18.5l55.5 14t20.5 4.5q10 0 10 -10q0 -12 -50 -305.5t-50 -298.5q0 -18 11 -18t35.5 21t44 42t20.5 21q3 0 11 -6.5t8 -9.5q0 -6 -28.5 -37t-72.5 -62.5 t-75 -31.5q-32 0 -32 41z" />
<glyph unicode="m" horiz-adv-x="739" d="M12 255q0 13 69.5 67t103.5 54q21 0 21 -22q0 -20 -3.5 -48.5t-7 -49.5l-10.5 -60l-10 -56q110 242 218 242q18 0 27.5 -15t9.5 -35q0 -70 -47 -220l34.5 64t42 68.5t51 69.5t54 47.5t58.5 20.5q54 0 54 -37q0 -28 -36.5 -141.5t-36.5 -130.5q0 -21 15 -21q10 0 51 41.5 t43 41.5q3 0 9 -6t6 -9q0 -6 -29 -36.5t-70.5 -60.5t-67.5 -30q-16 0 -27 9.5t-11 22.5q0 19 39 138t39 151q0 19 -18 19t-52 -38t-70 -94q-67 -102 -90 -187q-4 -12 -17 -14q-24 -3 -42 -3q-11 0 -11 10q0 1 29 111t29 178q0 34 -18 34q-16 0 -35 -24q-62 -74 -107 -166 q-17 -34 -41 -118q-6 -19 -13 -22q-36 -14 -50 -14q-10 0 -8 14q12 51 28.5 151.5t16.5 144.5q0 14 -11 14q-14 0 -52.5 -37.5t-41.5 -37.5q-15 0 -15 20z" />
<glyph unicode="n" horiz-adv-x="515" d="M12 287q0 4 30.5 28.5t74 49t70.5 24.5q9 0 16.5 -6t7.5 -18q0 -13 -2.5 -31.5t-5 -33.5t-9 -40.5t-9.5 -38.5t-11.5 -43t-10.5 -39q70 121 128.5 185.5t113.5 64.5q54 0 54 -47q0 -30 -38.5 -146t-38.5 -126q0 -17 16 -17q12 0 34 19t39 38l17 19q2 0 8.5 -6.5t6.5 -9.5 q0 -6 -24 -33t-64.5 -54.5t-74.5 -27.5q-16 0 -25.5 12.5t-9.5 31.5q0 29 40 136t40 137q0 26 -19 26q-24 0 -77 -66.5t-99 -140.5q-22 -35 -44 -111q0 -1 -1 -5t-2.5 -7t-3 -7t-4.5 -6.5t-7 -2.5q-40 -4 -48 -4q-10 0 -8 14q60 249 60 311q0 15 -10 15t-32 -16t-40.5 -32 t-19.5 -16q-5 0 -11.5 6t-6.5 14z" />
<glyph unicode="o" horiz-adv-x="419" d="M22 138q0 111 66.5 186.5t167.5 75.5q38 0 67 -16t44.5 -41.5t22.5 -52t7 -52.5q0 -95 -69 -172t-163 -77q-68 0 -105.5 43.5t-37.5 105.5zM90 146q0 -127 77 -127q44 0 83 46.5t58.5 105.5t19.5 107q0 35 -18.5 64t-64.5 29q-55 0 -105 -78t-50 -147z" />
<glyph unicode="p" horiz-adv-x="486" d="M7 224q0 1 10.5 18.5t30.5 43.5t43 51t53 43t57 18q20 0 20 -34q0 -45 -28 -207q37 88 90 170q36 58 102 58q46 0 62.5 -25t16.5 -69q0 -111 -75 -206t-153 -95q-11 0 -32 3.5t-24 3.5q-9 0 -10 -5l-32 -210q-4 -19 11 -20q11 -1 28 -3t23 -2q26 -3 26 -14q0 -27 -13 -27 q-5 0 -65.5 7.5t-118.5 7.5q-7 0 -10.5 0.5t-6.5 3.5t-3 9q1 18 4 21.5t18 3.5q3 0 9 -0.5t8 -0.5q14 0 18 20q47 272 62.5 371t15.5 145q0 15 -9 15q-18 0 -63 -56t-46 -56q-3 0 -11 6.5t-8 10.5zM184 51q0 -29 61 -29q49 0 100 88t51 168q0 61 -41 61q-14 0 -28 -9.5 t-27.5 -29t-22 -33.5t-22 -40.5l-16.5 -32.5q-55 -105 -55 -143z" />
<glyph unicode="q" horiz-adv-x="455" d="M22 74q0 37 17.5 88t48 101.5t80.5 85.5t106 35q42 0 87 -20l7 -3.5t4 -2.5h2q5 0 16 7q23 13 32 13q11 0 11 -13q0 -4 -27 -62q-3 -7 -7 -25l-37.5 -215.5l-38 -212.5t-14.5 -86q0 -8 11 -8q20 0 55 -2q12 -1 12 -16q0 -9 -0.5 -13t-5 -8t-13.5 -4q-1 0 -13.5 0.5 t-32.5 1.5t-39 1q-14 0 -34 -2l-35.5 -3.5t-17.5 -1.5q-5 0 -8 0.5t-5.5 4.5t-2.5 10q1 13 5.5 17.5t17.5 6.5q23 3 25 6q1 2 5 18q2 11 16 70.5t29 136l44 235.5q-44 -80 -73 -118q-38 -50 -71 -78t-69 -28q-9 0 -20.5 2.5t-28 10t-27.5 26t-11 45.5zM92 99q0 -26 13 -41 t31 -15q42 0 140 145q63 92 63 130q0 11 -18 25.5t-47 14.5q-59 0 -120.5 -98t-61.5 -161z" />
<glyph unicode="r" horiz-adv-x="341" d="M21 291q0 11 51.5 54.5t82.5 43.5q21 0 21 -23q0 -20 -25 -167q40 108 58 140q31 57 75 57q19 0 34.5 -10.5t15.5 -28.5q0 -40 -25 -40q-13 0 -29.5 9t-25.5 9q-12 0 -22 -16q-24 -37 -57 -124q-2 -6 -11 -38q-9 -36 -19.5 -86.5l-13.5 -64.5q-3 -13 -55 -13q-13 0 -13 7 q0 2 12 64t24 133t12 96q0 35 -10 35q-14 0 -41 -26t-28 -26q-2 0 -6.5 5t-4.5 10z" />
<glyph unicode="s" horiz-adv-x="336" d="M17 61q0 12 9.5 20t17.5 8q5 0 9 -0.5t8 -2.5l6 -3t6 -4t5 -4l5.5 -5.5l5.5 -5.5l10.5 -11t10 -10l8.5 -7.5t8.5 -6.5t8.5 -3.5t11 -1.5q29 0 48.5 19.5t19.5 50.5q0 19 -22.5 42t-49.5 42t-49.5 47.5t-22.5 57.5q0 49 40 84t94 35q31 0 53 -8.5t31 -21t12.5 -21.5 t3.5 -16q0 -20 -21 -20q-30 0 -51 37q-14 25 -29 25q-26 0 -46 -14t-20 -46q0 -25 15 -45.5t36 -36l42.5 -32t36.5 -41t15 -55.5q0 -46 -40 -80.5t-94 -34.5q-46 0 -88.5 22t-42.5 47z" />
<glyph unicode="t" horiz-adv-x="284" d="M32 346q0 1 0.5 9t0.5 10q0 10 11 10h61q6 0 7 4q1 1 1 2q10 58 16 100q1 7 3 10.5t6 6t12 3.5q6 1 21 1h7q24 0 24 -8q0 -2 -5.5 -26l-11.5 -51t-7 -35q-2 -7 7 -7h76q11 0 9 -11q-3 -25 -13 -25h-78q-7 0 -8 -8q-41 -220 -41 -246q0 -18 16 -18q10 0 36.5 23t49.5 46 l23 23q2 0 9.5 -6.5t7.5 -9.5q0 -5 -32 -40.5t-77.5 -71.5t-73.5 -36q-38 0 -38 37q0 10 26.5 153.5t26.5 145.5q-2 8 -6 8h-55q-11 0 -11 7z" />
<glyph unicode="u" horiz-adv-x="521" d="M12 256q0 2 7 12.5t20 27.5l26 33q16 19 27.5 30.5t32.5 23t43 11.5q23 0 40.5 -10t17.5 -29q0 -14 -32 -133.5t-32 -144.5q0 -20 25 -20q32 0 86 77q70 101 100 198q7 22 12 54q2 6 7 7q26 6 52 6q9 0 9 -12q0 -6 -27.5 -146.5t-27.5 -151.5q0 -22 16 -22q10 0 30 23 t36 45.5t17 22.5q2 0 7.5 -3.5t5.5 -5.5q0 -7 -22.5 -43t-58.5 -72.5t-64 -36.5q-15 0 -25.5 8.5t-10.5 21.5q0 17 8.5 58.5t20.5 94.5t17 80q-34 -70 -60 -109q-105 -159 -176 -159q-58 0 -58 45q0 12 30.5 126.5t30.5 151.5q0 26 -17 26q-11 0 -34 -24.5t-41.5 -49.5 t-19.5 -25q-4 0 -11 5t-7 9z" />
<glyph unicode="v" horiz-adv-x="443" d="M7 299q0 13 45.5 54.5t71.5 41.5q25 0 43 -10q25 -14 33 -22.5t8 -25.5q0 -39 -12.5 -131t-12.5 -106q0 -10 13 -21.5t18 -11.5q13 0 21 10q2 2 31 41l47 66t35.5 68t18.5 79q0 37 -22 37q-11 0 -24.5 -2t-23.5 -4.5t-11 -2.5q-9 0 -9 19q0 8 39 17t62 9q20 0 31.5 -9 t11.5 -34q0 -45 -26 -100.5t-54 -94.5t-76 -100q-11 -13 -16 -20q-10 -12 -22 -33q-13 -21 -27 -21q-16 0 -43 22q-23 18 -31.5 33.5t-8.5 49.5q0 18 10 103t10 119q0 14 -9 20q-12 8 -22 8q-14 0 -32 -16t-31.5 -32t-15.5 -16q-6 0 -13 5.5t-7 10.5z" />
<glyph unicode="w" horiz-adv-x="681" d="M7 302q0 12 51 49.5t76 37.5q8 0 24 -7t23 -12q21 -14 26.5 -24t5.5 -24q0 -30 -6.5 -85t-12.5 -98t-6 -44q0 -11 12 -24.5t19 -13.5q8 0 20 17l47 68t50 71q12 15 22.5 46t10.5 44q0 11 -19 30q-6 6 -13.5 11.5t-11 8.5t-3.5 6q0 11 15 25t26 14q18 0 46 -24t28 -40 t-15 -118t-15 -121q0 -15 12.5 -27.5t22.5 -12.5q7 0 28 24q57 66 88 111q43 63 44 139q0 30 -18 30q-14 0 -33 -3t-32 -6t-14 -3q-9 0 -9 21q0 2 24.5 9.5t55.5 13.5t46 6q37 0 37 -42q0 -58 -49 -141t-117 -152l-48 -50q-11 -11 -18 -11q-36 0 -60.5 24t-24.5 56 q0 11 26 138q-78 -121 -117 -170q-3 -5 -13 -19l-13 -18q-12 -16 -23 -16q-14 0 -43 23q-22 17 -29 29.5t-7 37.5q0 14 11 85t11 127q0 11 -15 27t-26 16q-14 0 -33 -14.5t-32.5 -28.5t-14.5 -14q-7 0 -12 6.5t-5 11.5z" />
<glyph unicode="x" horiz-adv-x="458" d="M12 23q0 34 26 92q4 7 11 7q17 0 17 -11q0 -1 -5 -17.5t-5 -28.5q0 -19 18 -19q20 0 63.5 47t73.5 88q5 6 1 18q-51 146 -97 146q-13 0 -30.5 -14.5t-30 -29t-13.5 -14.5q-5 0 -10 6t-5 11q0 6 15.5 26t46 40.5t60.5 20.5q23 0 38.5 -7t28.5 -26.5t20 -35t21 -52.5 q5 -14 8 -21q2 -5 7 3q2 3 21 33.5t28 42.5t27 33t34.5 29.5t34.5 8.5q13 0 20.5 -13t7.5 -30q0 -10 -1.5 -20.5t-3.5 -21.5t-3 -16q0 -4 -10 -4q-13 0 -13 5l1 5v13v15q0 22 -14 22q-30 0 -119 -132q-4 -5 -1 -17q17 -52 41 -101t44 -49q16 0 38 33l22 33q4 0 12.5 -3.5 t8.5 -6.5q0 -21 -40 -69t-75 -48q-9 0 -17 2.5t-15 8.5t-12.5 11.5t-11.5 16.5t-10 19t-9 23t-8.5 24t-9.5 26.5t-9 27.5q-2 5 -7 0l-42 -55q-41 -54 -71 -79t-60 -25q-37 0 -37 29z" />
<glyph unicode="y" horiz-adv-x="422" d="M-16 -262q0 15 9 25.5t16.5 14t27.5 9t24 7.5q30 11 51 47q37 69 48 105t11 71q0 32 -1 63.5t-3.5 69t-7.5 69t-12 58.5t-18 42t-24 15q-17 0 -36 -15.5t-31 -31t-13 -15.5q-3 0 -11 4t-8 8q0 5 17 28.5t49 48t63 24.5t50 -21t28 -65t12.5 -91t6.5 -121q1 -22 1 -33 l27 50l31.5 58.5t26 54.5t22.5 60q12 37 17 100q2 20 14 20t25.5 -7.5t13.5 -20.5q0 -5 -2 -17q-12 -77 -148 -312l-29 -49l-10 -19q-82 -157 -101 -190q-11 -21 -41 -39q-58 -35 -75 -35q-9 0 -14.5 10t-5.5 20z" />
<glyph unicode="z" horiz-adv-x="414" d="M22 2q0 7 4 14.5t8 12.5t11.5 12t8.5 9l235 262l2 4h-2q-6 -1 -9 -1q-24 0 -76 16t-67 16t-30 -12.5t-24.5 -24.5t-11.5 -12q-4 0 -10.5 4.5t-6.5 7.5q0 4 14 25t39.5 42.5t50.5 21.5q24 0 85 -22t81 -22q6 0 21 18.5t29 18.5q7 0 12.5 -5.5t5.5 -13.5q0 -17 -30 -35 l-30 -19l-220 -244q-3 -6 8 -7q42 -2 120 -8t97 -6q8 0 10 2.5t2 12.5l-1 15v15q0 7 14 7h5q7 0 7 -6q1 -13 3 -35t3.5 -36t1.5 -17q0 -17 -34 -17h-12q-23 0 -125.5 8t-145.5 8q-1 0 -10.5 -12t-18.5 -12q-14 0 -14 15z" />
<glyph unicode="{" horiz-adv-x="307" d="M37 274q0 8 5.5 11.5t14.5 4.5t18.5 7t18.5 17t14.5 37t5.5 65v80q0 35 0.5 53t3 43.5t8 37.5t15.5 26.5t25 20.5t37 10.5t52 4.5q9 0 12 -3t3 -13q0 -16 -17 -16q-42 0 -61.5 -18t-19.5 -71v-149q0 -73 -10 -102t-50 -42q-8 -3 -8 -4.5t8 -3.5q40 -13 50 -42t10 -102 v-149q0 -53 19.5 -71t61.5 -18q17 0 17 -16q0 -10 -3 -13t-12 -3q-30 0 -52 4.5t-37 10.5t-25 20.5t-15.5 26.5t-8 37.5t-3 43.5t-0.5 53v80q0 39 -5.5 65t-14.5 37t-18.5 17t-18.5 7t-14.5 4.5t-5.5 11.5z" />
<glyph unicode="|" horiz-adv-x="247" d="M97 -187v933q0 19 21 19h7q11 0 15.5 -1t7 -5.5t2.5 -13.5v-932q0 -9 -0.5 -13t-4 -8t-10.5 -4h-21q-12 0 -14.5 4.5t-2.5 20.5z" />
<glyph unicode="}" horiz-adv-x="307" d="M37 -128q0 16 17 16q42 0 61.5 18t19.5 71v149q0 73 10 102t50 42l9 4l-9 4q-40 13 -50 42t-10 102v149q0 53 -19.5 71t-61.5 18q-17 0 -17 16q0 10 3.5 13t11.5 3q30 0 52 -4.5t37 -10.5t25 -20.5t15.5 -26.5t8 -37.5t3 -43.5t0.5 -53v-80q0 -39 5.5 -65t14.5 -37 t18.5 -17t18.5 -7t14.5 -4.5t5.5 -11.5t-5.5 -11.5t-14.5 -4.5t-18.5 -7t-18.5 -17t-14.5 -37t-5.5 -65v-80q0 -35 -0.5 -53t-3 -43.5t-8 -37.5t-15.5 -26.5t-25 -20.5t-37 -10.5t-52 -4.5q-8 0 -11.5 3t-3.5 13z" />
<glyph unicode="~" horiz-adv-x="793" d="M42 117q0 6 4 18q6 23 17 46.5t32 52.5t55.5 47t77.5 18q49 0 103 -22.5t93.5 -49.5t87 -49.5t85.5 -22.5q25 0 47 15.5t36 40.5t21.5 42.5t12.5 34.5q3 12 19 9q13 -4 13 -10q0 -4 -1 -7q-7 -28 -19.5 -55t-34 -55t-55 -45.5t-74.5 -17.5q-50 0 -105.5 21.5t-95.5 47.5 t-89 47.5t-88 21.5q-77 0 -109 -124q-4 -16 -10 -16q-3 0 -11 2q-12 3 -12 10z" />
<glyph unicode="&#xa1;" horiz-adv-x="220" d="M2 9q0 3 2 13q33 148 86 477q1 7 11 7h8q12 0 12 -7q0 -23 -20 -183q-27 -211 -34 -302q-1 -25 -32 -25h-5q-28 0 -28 20zM62 606q0 25 15.5 39.5t27.5 14.5q21 0 37 -17t16 -32q0 -20 -16.5 -37.5t-32.5 -17.5q-15 0 -31 17t-16 33z" />
<glyph unicode="&#xa2;" horiz-adv-x="407" d="M39 153q0 105 58 171t134 76q8 1 9 12q2 15 5 32.5t4.5 28t2.5 15.5q0 8 5 8h6q16 0 16 -5l-3 -15q-2 -16 -5.5 -36.5l-5.5 -31.5q-2 -7 5 -8q2 -1 3 -1q41 -8 70 -33t29 -58q0 -17 -12 -27q-18 -14 -31 -14q-14 0 -18 13l-4.5 22.5t-5.5 23.5t-6.5 17t-12 16t-17.5 8 q-4 1 -5.5 -0.5t-2.5 -7.5l-51 -311q-1 -7 5 -9q10 -2 23 -2q28 0 54.5 7.5t42 15t18.5 7.5q10 0 9 -11q-1 -6 -19 -21.5t-56.5 -31.5t-80.5 -16q-7 0 -9 -6q-3 -15 -6 -36t-5 -32.5t-4.5 -23.5t-4 -17t-3.5 -5h-6q-13 0 -13 4q0 1 2.5 15t7 41.5t8.5 54.5q1 6 0 6.5t-8 2.5 q-58 11 -90 54t-32 108zM107 182q0 -95 67 -131l4 -2q2 0 2 3l51 308q2 8 -3 8h-2q-1 -1 -2 -1q-51 -12 -84 -66.5t-33 -118.5z" />
<glyph unicode="&#xa3;" horiz-adv-x="489" d="M17 -16q0 7 2.5 12t7.5 9t9 6.5t12 4.5t11.5 3t11.5 2t9 1q23 4 36 90q12 82 13 120q0 9 -1 11t-6 2h-73q-7 0 -7 12q0 18 7 18h75q7 0 8 0.5t1 5.5q0 1 1 20t4.5 51.5t8.5 69.5q10 73 42.5 131.5t84.5 84.5q38 18 81 18q47 0 79 -28t32 -82q0 -65 -28 -65q-27 0 -27 41 q0 8 3 27.5t3 29.5q0 15 -21 31t-50 16q-84 0 -113 -108q-19 -70 -35 -236q0 -7 5 -7h112q10 0 10 -15t-11 -15h-110q-8 0 -9 -1t-4 -13q-19 -93 -61 -177l-6 -14q0 -2 2 -2q3 0 15 5q22 9 55 9q29 0 101 -11.5t84 -11.5q54 0 54 34q0 10 -14 27t-16 22q-1 1 -1 4 q0 13 30 13q16 0 24.5 -16t8.5 -35q0 -47 -38 -71t-87 -24q-32 0 -130 14t-102 14q-6 0 -31.5 -24t-42.5 -24q-19 0 -19 21z" />
<glyph unicode="&#xa4;" horiz-adv-x="494" d="M22 8q0 11 18 29l59 60q-34 48 -34 107t33 105l-58 60q-18 18 -18 29q0 12 8 19.5t19 7.5q13 0 30 -17l60 -60q46 34 105 34q60 0 106 -34l60 60q17 17 29 17t20 -8t8 -19t-18 -29l-60 -61q36 -51 36 -106q0 -56 -36 -104l60 -61q18 -18 18 -29q0 -12 -8.5 -20t-19.5 -8 t-29 18l-60 60q-48 -35 -106 -35q-60 0 -105 34l-60 -59q-17 -17 -30 -17q-12 0 -19.5 8t-7.5 19zM122 202q0 -51 36 -87t86 -36t86.5 36.5t36.5 87.5t-36.5 88.5t-86.5 37.5q-51 0 -86.5 -38t-35.5 -89z" />
<glyph unicode="&#xa5;" horiz-adv-x="613" d="M17 654q0 12 5 15t16 3q6 0 45 -1.5t56 -1.5q16 0 47 1.5t42 1.5q10 0 13 -4t3 -17q0 -10 -3.5 -12.5t-16.5 -2.5h-40q0 -1 1 -4.5t2 -6.5q13 -44 103 -265q3 -6 5 -7.5t5 2t7 9.5q1 1 1 2l35.5 52.5l46 68l42.5 64.5t34.5 56.5t12.5 28.5h-50q-13 0 -17 2.5t-4 12.5 q0 13 3.5 17t13.5 4q11 0 36.5 -1.5t41.5 -1.5q17 0 44 1.5t33 1.5q10 0 13 -3t3 -15t-3 -15t-13 -3h-38q-10 -10 -77.5 -102l-115.5 -162h128q5 0 5 -15t-5 -15h-149l-7 -11q-5 -9 -8 -22l-10 -59h154q5 0 5 -15t-5 -15h-159l-19 -116q-10 -62 -10 -71q0 -3 1 -3h64 q9 0 11.5 -3.5t2.5 -12.5q0 -12 -2.5 -16t-11.5 -4q-11 0 -50 1.5t-55 1.5t-50.5 -1.5t-45.5 -1.5q-10 0 -12.5 4t-2.5 15q0 10 3.5 13.5t15.5 3.5h44q5 5 35 190h-143q-6 0 -6 16q0 14 6 14h148l2 11q5 27 5 40l-17 41h-119q-5 0 -5 16q0 14 5 14h106l-115 264h-45 q-11 0 -16 3t-5 15z" />
<glyph unicode="&#xa6;" horiz-adv-x="247" d="M97 -187v376q0 17 14 17h25q14 0 14 -17v-376q0 -9 -0.5 -13t-4 -8t-10.5 -4h-21q-12 0 -14.5 4.5t-2.5 20.5zM97 379v367q0 19 21 19h7q11 0 15.5 -1t7 -5.5t2.5 -13.5v-366q0 -13 -4 -17.5t-13 -4.5h-18q-11 0 -14.5 4t-3.5 18z" />
<glyph unicode="&#xa7;" horiz-adv-x="381" d="M37 310q0 68 70 120q6 4 -2 14q-45 62 -45 112q0 54 35 89t93 35q43 0 80 -11.5t37 -36.5q0 -31 -40 -31q-24 0 -57 16.5t-59 16.5q-48 0 -48 -40q0 -23 25 -62t60.5 -85l71.5 -96.5t61 -109t25 -109.5q0 -16 -4 -29.5t-14 -24.5t-15.5 -16.5t-19 -15t-14.5 -10.5 q-8 -7 -8 -10q0 -2 6 -13q42 -76 42 -115q0 -57 -40 -92t-109 -35q-106 0 -106 47q0 11 9.5 18.5t21.5 7.5q8 0 44 -13q34 -12 71 -12q69 0 69 49q0 24 -37.5 78.5t-82.5 110.5t-82.5 127.5t-37.5 125.5zM82 357q0 -77 165 -303q6 -8 8 -8q3 0 12 8q31 29 31 48 q0 17 -7 40.5t-21 50.5t-27.5 50.5t-33.5 53l-31.5 46l-29 40.5t-19.5 26q-5 6 -6.5 6.5t-7.5 -4.5q-33 -25 -33 -54z" />
<glyph unicode="&#xa8;" horiz-adv-x="400" d="M86 535q0 21 12 35t32 14q22 0 34.5 -16t12.5 -35q0 -21 -12.5 -35t-31.5 -14q-22 0 -34.5 16t-12.5 35zM226 535q0 21 12 35t32 14q22 0 34.5 -16t12.5 -35q0 -21 -12.5 -35t-31.5 -14q-22 0 -34.5 16t-12.5 35z" />
<glyph unicode="&#xa9;" horiz-adv-x="843" d="M51 189q0 157 106.5 266t262.5 109q157 0 263 -108.5t106 -266.5q0 -157 -106.5 -266t-262.5 -109t-262.5 109t-106.5 266zM91 189q0 -140 95 -238.5t234 -98.5t234 98.5t95 238.5t-95 238.5t-234 98.5t-234 -98.5t-95 -238.5zM193 201q0 100 66 161.5t166 61.5 q14 0 27.5 -1.5t24 -4.5t21.5 -7t18 -7t15 -8l12 -7.5t9.5 -6.5t6.5 -5q6 -5 6 1v19q0 9 18 9q15 0 15 -9q0 -2 -0.5 -27t-1 -55t-0.5 -45q0 -12 -13 -12q-21 0 -21 8q0 1 1.5 28t1.5 30t-7 11t-20.5 18.5t-30.5 20.5t-40.5 17t-46.5 7q-68 0 -112 -56.5t-44 -142.5 q0 -80 51 -136.5t124 -56.5q43 0 76 12.5t48.5 25t16.5 12.5q3 0 9 -9.5t6 -12.5q0 -7 -18.5 -21t-61.5 -28.5t-94 -14.5q-96 0 -162 60t-66 171z" />
<glyph unicode="&#xaa;" horiz-adv-x="379" d="M27 399q0 38 12.5 84t35.5 89.5t61.5 72.5t84.5 29q10 0 24 -7t22 -19l8 -11t6 -9q10 22 10 31q3 13 37 13q17 0 17 -9q0 -4 -33.5 -122.5t-33.5 -138.5q0 -13 8 -13q5 0 27.5 23.5t25.5 23.5q5 0 9 -5t4 -11q0 -9 -42 -46t-67 -37q-11 0 -18.5 6.5t-7.5 17.5 q0 30 36 143q-41 -67 -87 -113q-39 -39 -56 -47q-13 -6 -27 -6q-27 0 -41.5 17.5t-14.5 43.5zM88 430q0 -41 20 -41q25 0 66.5 48.5t79.5 109.5q12 19 12 42q0 19 -21.5 31.5t-43.5 12.5q-43 0 -78 -72.5t-35 -130.5z" />
<glyph unicode="&#xab;" horiz-adv-x="408" d="M47 193q0 4 6.5 11t24 22.5t25.5 23.5l36 34.5l32.5 32t13.5 11.5t9.5 -7t7.5 -8q0 -4 -31.5 -59.5t-31.5 -60.5t31.5 -60t31.5 -60q0 -3 -7.5 -9t-9.5 -6t-13.5 11.5l-32.5 32l-36 34.5q-6 6 -16 15l-16 14.5l-12 11.5t-9 10t-3 6zM197 193q0 4 6.5 11t24 22.5 t25.5 23.5l36 34.5l32.5 32t13.5 11.5t9.5 -7t7.5 -8q0 -4 -31.5 -59.5t-31.5 -60.5t31.5 -60t31.5 -60q0 -3 -7.5 -9t-9.5 -6t-13.5 11.5l-32.5 32l-36 34.5q-6 6 -16 15l-16 14.5l-12 11.5t-9 10t-3 6z" />
<glyph unicode="&#xac;" horiz-adv-x="527" d="M28 215q0 20 22 20h427q14 0 18.5 -4.5t4.5 -17.5v-158q0 -18 -19 -18q-11 0 -17 1t-10.5 6.5t-4.5 15.5v111q0 14 -23 14h-376q-14 0 -18 6.5t-4 23.5z" />
<glyph unicode="&#xad;" horiz-adv-x="268" d="M27 201q0 13 6.5 27.5t14.5 15.5q7 1 92.5 4t91.5 3q4 0 4 -8q0 -39 -10 -40q-112 -8 -192 -8q-7 0 -7 6z" />
<glyph unicode="&#xae;" horiz-adv-x="536" d="M22 470q0 105 70.5 177.5t175.5 72.5t175.5 -72t70.5 -178q0 -105 -70.5 -177.5t-175.5 -72.5t-175.5 72.5t-70.5 177.5zM53 470q0 -92 62 -156.5t153 -64.5t153 64.5t62 156.5t-62 156.5t-153 64.5t-153 -64.5t-62 -156.5zM139 628q0 8 3 10t9 2q3 0 24.5 -0.5 t28.5 -0.5t34.5 1.5t32.5 1.5q104 0 104 -83q0 -46 -59 -77q72 -25 75 -108l2 -23v-2h22q8 0 8 -15q0 -9 -11 -9l-62 1q-10 0 -10 10v27q0 47 -11 73t-50 31q-15 2 -52 2h-2q0 -86 4 -120h26q8 0 8 -10q0 -14 -8 -14q-5 0 -25 0.5t-27 0.5t-26 -0.5t-20 -0.5q-10 0 -10 14 q0 10 12 10h18q2 20 2 55v60q0 131 -4 152l-24 -1q-12 0 -12 13zM225 490h2q12 0 33.5 -0.5t28.5 -0.5q37 19 37 64q0 30 -23.5 48.5t-55.5 18.5q-3 0 -10 -0.5t-11 -0.5q-1 -5 -1 -20v-109z" />
<glyph unicode="&#xaf;" horiz-adv-x="400" d="M97 515q0 8 2 24q1 11 12 11h181q11 0 11 -9q0 -8 -2 -24q-1 -11 -11 -11h-181q-12 0 -12 9z" />
<glyph unicode="&#xb0;" horiz-adv-x="256" d="M37 535q0 37 26.5 64t64.5 27t64.5 -27t26.5 -64t-26.5 -64t-64.5 -27t-64.5 27t-26.5 64zM74 535q0 -23 16 -38.5t38 -15.5t38 15.5t16 38.5t-16 38.5t-38 15.5t-38 -15.5t-16 -38.5z" />
<glyph unicode="&#xb1;" horiz-adv-x="527" d="M28 90q0 16 3.5 23t17.5 7h429q12 0 16.5 -5t4.5 -18t-4.5 -20t-19.5 -7h-427q-20 0 -20 20zM28 324q0 25 21 25h181q6 0 7 1.5t1 5.5v139q0 18 19 18q18 0 24.5 -4t6.5 -16v-136q0 -8 9 -8h183q19 0 19 -18t-4 -25.5t-20 -7.5h-178q-9 0 -9 -14v-132q0 -17 -19 -17 q-17 0 -24 3t-7 14v132v7.5t-1 4t-4 2.5h-8h-177q-9 0 -13.5 4t-5.5 8.5t-1 13.5z" />
<glyph unicode="&#xb2;" d="M38 357q0 8 26.5 44t32.5 41q153 139 153 204q0 29 -18.5 48.5t-52.5 19.5q-23 0 -44 -10t-32 -22.5l-20.5 -22.5t-12.5 -10q-5 0 -11.5 5t-6.5 11q0 9 19.5 31.5t55.5 44.5t72 22q50 0 81 -31.5t31 -79.5q0 -52 -52 -110q-21 -23 -45.5 -43.5t-49.5 -39l-29 -21.5 q-1 -1 -34 -38h174l7 20t10.5 28.5t6.5 11.5q23 0 23 -5q0 -2 -5.5 -20.5t-13.5 -43t-11 -37.5q-1 -7 -12 -7h-228q-14 0 -14 10z" />
<glyph unicode="&#xb3;" d="M46 377q0 8 11.5 14.5t21.5 6.5q17 0 37 -15.5t33 -15.5q37 0 61 25.5t24 65.5q0 73 -83 73q-5 0 -17.5 -1t-17.5 -1q-10 0 -10 16q0 17 7 18q29 2 52 11q68 27 68 91q0 29 -15.5 45.5t-39.5 16.5q-26 0 -52 -17t-27 -17q-5 0 -10.5 4.5t-4.5 10.5q1 12 34.5 33.5 t69.5 21.5q50 0 78 -27.5t28 -63.5q0 -72 -107 -112q108 -22 108 -98q0 -58 -47 -91t-107 -33q-26 0 -60.5 13.5t-34.5 25.5z" />
<glyph unicode="&#xb4;" horiz-adv-x="400" d="M169 451q0 1 3 7l61 123q13 26 35 26q15 0 24.5 -6.5t9.5 -17.5q0 -16 -10 -27l-91 -103q-5 -7 -10 -7h-15q-7 0 -7 5z" />
<glyph unicode="&#xb5;" horiz-adv-x="509" d="M22 -136q0 42 8.5 85.5t26 106t25.5 100.5q18 80 28.5 123t18 66t11.5 28.5t10 5.5q42 0 42 -20q0 -8 -9.5 -41.5t-22.5 -87t-19 -102.5q-3 -36 -3 -43q0 -44 26 -44q44 0 101.5 93t98.5 196q18 47 23 49q1 1 3 1q14 0 28.5 -4.5t14.5 -13.5q0 -3 -25 -134.5t-25 -157.5 q0 -10 7 -16.5t15 -6.5q19 0 36 33.5t25 33.5q11 0 11 -16q0 -34 -37.5 -76t-85.5 -42q-37 0 -37 67q0 24 8 80t8 57q0 3 -2 0q-22 -37 -54 -84q-1 -2 -15.5 -23l-19.5 -28t-20 -23.5t-25.5 -23.5t-27 -13.5t-33.5 -6.5q-30 0 -46 52q-4 13 -7 0q-15 -66 -15 -113 q0 -18 12 -46t12 -31q0 -8 -8 -19t-25 -11q-15 0 -26 13t-11 37z" />
<glyph unicode="&#xb6;" horiz-adv-x="492" d="M37 417q0 60 24 106.5t61.5 72t76 38.5t74.5 13q9 0 12 -3t3 -11v-471q0 -11 -8 -11q-30 0 -68.5 14.5t-79 43.5t-68 83.5t-27.5 124.5zM277 -205q0 11 11 11h60q6 0 7 0.5t1 4.5v833q0 9 2.5 11t9.5 2h76q11 0 11 -14v-14q0 -7 -1.5 -9.5t-9.5 -2.5h-50q-4 0 -4.5 -1 t-0.5 -6v-834q0 -8 -1.5 -9t-11.5 -1h-88q-11 0 -11 11v18z" />
<glyph unicode="&#xb7;" horiz-adv-x="125" d="M22 340q0 21 12 35t32 14q22 0 34.5 -16t12.5 -35q0 -21 -12.5 -35t-31.5 -14q-22 0 -34.5 16t-12.5 35z" />
<glyph unicode="&#xb8;" horiz-adv-x="400" d="M106 -190q0 13 11 13q2 0 9.5 -3.5t20 -7t26.5 -3.5q66 0 66 46q0 17 -10.5 29.5t-33.5 12.5q-11 0 -23 -3t-13 -3q-2 0 -6 2.5t-4 3.5t10.5 21l25 46.5l19.5 35.5h26q-33 -60 -36 -66q10 2 25 2q36 0 58 -20t22 -47q0 -39 -33 -64t-82 -25q-22 0 -41 6t-28 12.5t-9 11.5 z" />
<glyph unicode="&#xb9;" d="M75 360q0 18 14 18h55q38 256 45 345q-6 -1 -19.5 -3.5t-24.5 -5t-13 -2.5q-10 0 -10 12v8q0 10 11 12q12 1 41 6l53 9t26 4q10 0 10 -11q0 -4 -3.5 -25l-9.5 -57t-9 -58l-35 -234h55q11 0 11 -19q0 -14 -11 -14q-4 0 -37.5 1t-44.5 1t-47.5 -1t-43.5 -1q-13 0 -13 15z " />
<glyph unicode="&#xba;" horiz-adv-x="377" d="M27 464q0 93 55.5 155.5t139.5 62.5q61 0 89.5 -43t28.5 -92q0 -79 -57.5 -143.5t-135.5 -64.5q-57 0 -88.5 36.5t-31.5 88.5zM86 471q0 -19 1.5 -32t6.5 -32.5t19 -29.5t35 -10q53 0 92.5 74t39.5 139q0 28 -15 51.5t-52 23.5q-45 0 -86 -63.5t-41 -120.5z" />
<glyph unicode="&#xbb;" horiz-adv-x="408" d="M56 73q0 4 31.5 59.5t31.5 60.5t-31.5 60t-31.5 60q0 3 7.5 9t9.5 6t13.5 -11.5l32.5 -32l36 -34.5q6 -6 16 -15l16 -14.5l12 -11.5t9 -10t3 -6q0 -4 -6.5 -11t-24 -22.5t-25.5 -23.5l-36 -34.5l-32.5 -32t-13.5 -11.5t-9.5 7t-7.5 8zM206 73q0 4 31.5 59.5t31.5 60.5 t-31.5 60t-31.5 60q0 3 7.5 9t9.5 6t13.5 -11.5l32.5 -32l36 -34.5q6 -6 16 -15l16 -14.5l12 -11.5t9 -10t3 -6q0 -4 -6.5 -11t-24 -22.5t-25.5 -23.5l-36 -34.5l-32.5 -32t-13.5 -11.5t-9.5 7t-7.5 8z" />
<glyph unicode="&#xbc;" horiz-adv-x="794" d="M455 141q0 16 18 40q18 25 78.5 88.5t82.5 90.5q6 8 15.5 14t10.5 7q36 36 42 36q10 0 10 -17q0 -11 -12.5 -102t-17.5 -118q0 -4 6 -4h37q9 0 9 -11v-23q0 -10 -12 -10h-44q-6 0 -7 -6q-18 -123 -18 -127q-1 -8 -9 -8v-1h-1q-20 -4 -42 -4q-10 0 -7 14l23 126 q1 3 -1 4.5t-6 1.5h-139q-16 0 -16 9zM502 176h117q7 0 9 11q18 95 21 150q-60 -60 -138 -150q-5 -5 -9 -11zM205 -10l6 12l409 658q1 1 2 3l1.5 3t2.5 2t4 1.5t6 1t9 0.5q23 0 23 -6l-4 -8l-410 -660q-6 -10 -9.5 -11.5t-16.5 -1.5q-23 0 -23 6zM75 260q0 18 14 18h55 q38 256 45 345q-6 -1 -19.5 -3.5t-24.5 -5t-13 -2.5q-10 0 -10 12v8q0 10 11 12q12 1 41 6l53 9t26 4q10 0 10 -11q0 -4 -3.5 -25l-9.5 -57t-9 -58l-35 -234h55q11 0 11 -19q0 -14 -11 -14q-4 0 -37.5 1t-44.5 1t-47.5 -1t-43.5 -1q-13 0 -13 15z" />
<glyph unicode="&#xbd;" horiz-adv-x="844" d="M522 7q0 8 26.5 44t32.5 41q153 139 153 204q0 29 -18.5 48.5t-52.5 19.5q-23 0 -44 -10t-32 -22.5l-20.5 -22.5t-12.5 -10q-5 0 -11.5 5t-6.5 11q0 9 19.5 31.5t55.5 44.5t72 22q50 0 81 -31.5t31 -79.5q0 -52 -52 -110q-21 -23 -45.5 -43.5t-49.5 -39l-29 -21.5 q-1 -1 -34 -38h174l7 20t10.5 28.5t6.5 11.5q23 0 23 -5q0 -2 -5.5 -20.5t-13.5 -43t-11 -37.5q-1 -7 -12 -7h-228q-14 0 -14 10zM205 -10l6 12l409 658q1 1 2 3l1.5 3t2.5 2t4 1.5t6 1t9 0.5q23 0 23 -6l-4 -8l-410 -660q-6 -10 -9.5 -11.5t-16.5 -1.5q-23 0 -23 6zM75 260 q0 18 14 18h55q38 256 45 345q-6 -1 -19.5 -3.5t-24.5 -5t-13 -2.5q-10 0 -10 12v8q0 10 11 12q12 1 41 6l53 9t26 4q10 0 10 -11q0 -4 -3.5 -25l-9.5 -57t-9 -58l-35 -234h55q11 0 11 -19q0 -14 -11 -14q-4 0 -37.5 1t-44.5 1t-47.5 -1t-43.5 -1q-13 0 -13 15z" />
<glyph unicode="&#xbe;" horiz-adv-x="794" d="M455 141q0 16 18 40q18 25 78.5 88.5t82.5 90.5q6 8 15.5 14t10.5 7q36 36 42 36q10 0 10 -17q0 -11 -12.5 -102t-17.5 -118q0 -4 6 -4h37q9 0 9 -11v-23q0 -10 -12 -10h-44q-6 0 -7 -6q-18 -123 -18 -127q-1 -8 -9 -8v-1h-1q-20 -4 -42 -4q-10 0 -7 14l23 126 q1 3 -1 4.5t-6 1.5h-139q-16 0 -16 9zM502 176h117q7 0 9 11q18 95 21 150q-60 -60 -138 -150q-5 -5 -9 -11zM205 -10l6 12l409 658q1 1 2 3l1.5 3t2.5 2t4 1.5t6 1t9 0.5q23 0 23 -6l-4 -8l-410 -660q-6 -10 -9.5 -11.5t-16.5 -1.5q-23 0 -23 6zM46 277q0 8 11.5 14.5 t21.5 6.5q17 0 37 -15.5t33 -15.5q37 0 61 25.5t24 65.5q0 73 -83 73q-5 0 -17.5 -1t-17.5 -1q-10 0 -10 16q0 17 7 18q29 2 52 11q68 27 68 91q0 29 -15.5 45.5t-39.5 16.5q-26 0 -52 -17t-27 -17q-5 0 -10.5 4.5t-4.5 10.5q1 12 34.5 33.5t69.5 21.5q50 0 78 -27.5 t28 -63.5q0 -72 -107 -112q108 -22 108 -98q0 -58 -47 -91t-107 -33q-26 0 -60.5 13.5t-34.5 25.5z" />
<glyph unicode="&#xbf;" horiz-adv-x="374" d="M32 148q0 10 1 19t1.5 15.5t3 14t3.5 12t5 11t5 9t7 9.5t7 8.5t8.5 9.5t8.5 10q16 18 105 107l14 13.5l18 17.5t16 17.5t13.5 19.5t4.5 16q0 15 -14 34l-14 19q0 3 6.5 9.5t10.5 6.5q5 0 16.5 -11.5t23 -32t11.5 -39.5q0 -45 -66 -111l-42.5 -41l-45.5 -44t-36.5 -39 t-29 -40.5t-9.5 -33.5q0 -20 11 -39.5t25 -28.5q23 -14 87 -14q13 0 45 1.5t35 1.5q15 0 15 -32v-10q0 -11 -4.5 -14t-16.5 -5q-30 -5 -64 -5q-62 0 -92 19q-33 22 -53 61t-20 79zM201 606q0 25 15.5 39.5t27.5 14.5q21 0 37 -17t16 -32q0 -20 -16.5 -37.5t-32.5 -17.5 q-15 0 -31 17t-16 33z" />
<glyph unicode="&#xc0;" horiz-adv-x="688" d="M399 818q0 32 32 32q19 0 33 -27l40 -85q1 -2 1 -6q0 -6 -7 -6h-18q-2 0 -9 7l-61 60q-11 11 -11 25zM17 15q0 10 4 12.5t17 2.5h32q8 9 77.5 129l153 261t117.5 192q4 6 22 25t28 37q8 16 18 16q14 0 16 -21q104 -619 114 -639h41q9 0 11.5 -3.5t2.5 -12.5 q0 -12 -2.5 -16t-11.5 -4q-6 0 -39.5 1.5t-50.5 1.5q-16 0 -58.5 -1.5t-53.5 -1.5q-10 0 -13 4t-3 17q0 10 4 12.5t17 2.5h56v8q0 24 -13.5 120.5l-14.5 103.5q-2 12 -3 14t-8 2h-193q-9 0 -12 -1.5t-8 -11.5q-116 -217 -121 -235h66q9 0 11.5 -3.5t2.5 -12.5 q0 -12 -2.5 -16t-11.5 -4t-43 1.5t-59 1.5q-17 0 -43.5 -1.5t-30.5 -1.5q-10 0 -13 4t-3 17zM287 311q0 -3 15 -3h167q10 0 10 2q0 10 -21 136.5t-23 126.5l-31 -55l-68.5 -119.5t-41.5 -73.5q-7 -12 -7 -14z" />
<glyph unicode="&#xc1;" horiz-adv-x="688" d="M479 731q0 4 3 7l67 86q20 26 40 26q29 0 29 -24q0 -20 -19 -33l-83 -60q-10 -7 -11 -7h-19q-7 0 -7 5zM17 15q0 10 4 12.5t17 2.5h32q8 9 77.5 129l153 261t117.5 192q4 6 22 25t28 37q8 16 18 16q14 0 16 -21q104 -619 114 -639h41q9 0 11.5 -3.5t2.5 -12.5 q0 -12 -2.5 -16t-11.5 -4q-6 0 -39.5 1.5t-50.5 1.5q-16 0 -58.5 -1.5t-53.5 -1.5q-10 0 -13 4t-3 17q0 10 4 12.5t17 2.5h56v8q0 24 -13.5 120.5l-14.5 103.5q-2 12 -3 14t-8 2h-193q-9 0 -12 -1.5t-8 -11.5q-116 -217 -121 -235h66q9 0 11.5 -3.5t2.5 -12.5 q0 -12 -2.5 -16t-11.5 -4t-43 1.5t-59 1.5q-17 0 -43.5 -1.5t-30.5 -1.5q-10 0 -13 4t-3 17zM287 311q0 -3 15 -3h167q10 0 10 2q0 10 -21 136.5t-23 126.5l-31 -55l-68.5 -119.5t-41.5 -73.5q-7 -12 -7 -14z" />
<glyph unicode="&#xc2;" horiz-adv-x="688" d="M384 730q0 2 6 8l91 92q12 12 22 12h20q12 0 19 -12l53 -92q3 -4 3 -8t-9 -4h-10q-4 0 -11 7l-63 52q-1 1 -4 0l-85 -53q-10 -6 -13 -6h-13q-6 0 -6 4zM17 15q0 10 4 12.5t17 2.5h32q8 9 77.5 129l153 261t117.5 192q4 6 22 25t28 37q8 16 18 16q14 0 16 -21 q104 -619 114 -639h41q9 0 11.5 -3.5t2.5 -12.5q0 -12 -2.5 -16t-11.5 -4q-6 0 -39.5 1.5t-50.5 1.5q-16 0 -58.5 -1.5t-53.5 -1.5q-10 0 -13 4t-3 17q0 10 4 12.5t17 2.5h56v8q0 24 -13.5 120.5l-14.5 103.5q-2 12 -3 14t-8 2h-193q-9 0 -12 -1.5t-8 -11.5 q-116 -217 -121 -235h66q9 0 11.5 -3.5t2.5 -12.5q0 -12 -2.5 -16t-11.5 -4t-43 1.5t-59 1.5q-17 0 -43.5 -1.5t-30.5 -1.5q-10 0 -13 4t-3 17zM287 311q0 -3 15 -3h167q10 0 10 2q0 10 -21 136.5t-23 126.5l-31 -55l-68.5 -119.5t-41.5 -73.5q-7 -12 -7 -14z" />
<glyph unicode="&#xc3;" horiz-adv-x="688" d="M390 744q0 9 11 27q15 25 33.5 39.5t32.5 14.5q17 0 43.5 -18t36.5 -18q21 0 37 31l2 4q2 5 9 5h13q1 0 1 -2q0 -7 -10 -30q-30 -57 -70 -57q-19 0 -42.5 17.5t-37.5 17.5q-20 0 -35 -27q-3 -8 -10 -8h-11q-3 0 -3 4zM17 15q0 10 4 12.5t17 2.5h32q8 9 77.5 129l153 261 t117.5 192q4 6 22 25t28 37q8 16 18 16q14 0 16 -21q104 -619 114 -639h41q9 0 11.5 -3.5t2.5 -12.5q0 -12 -2.5 -16t-11.5 -4q-6 0 -39.5 1.5t-50.5 1.5q-16 0 -58.5 -1.5t-53.5 -1.5q-10 0 -13 4t-3 17q0 10 4 12.5t17 2.5h56v8q0 24 -13.5 120.5l-14.5 103.5q-2 12 -3 14 t-8 2h-193q-9 0 -12 -1.5t-8 -11.5q-116 -217 -121 -235h66q9 0 11.5 -3.5t2.5 -12.5q0 -12 -2.5 -16t-11.5 -4t-43 1.5t-59 1.5q-17 0 -43.5 -1.5t-30.5 -1.5q-10 0 -13 4t-3 17zM287 311q0 -3 15 -3h167q10 0 10 2q0 10 -21 136.5t-23 126.5l-31 -55l-68.5 -119.5 t-41.5 -73.5q-7 -12 -7 -14z" />
<glyph unicode="&#xc4;" horiz-adv-x="688" d="M387 785q0 21 12 35t32 14q22 0 34.5 -16t12.5 -35q0 -21 -12.5 -35t-31.5 -14q-22 0 -34.5 16t-12.5 35zM527 785q0 21 12 35t32 14q22 0 34.5 -16t12.5 -35q0 -21 -12.5 -35t-31.5 -14q-22 0 -34.5 16t-12.5 35zM17 15q0 10 4 12.5t17 2.5h32q8 9 77.5 129l153 261 t117.5 192q4 6 22 25t28 37q8 16 18 16q14 0 16 -21q104 -619 114 -639h41q9 0 11.5 -3.5t2.5 -12.5q0 -12 -2.5 -16t-11.5 -4q-6 0 -39.5 1.5t-50.5 1.5q-16 0 -58.5 -1.5t-53.5 -1.5q-10 0 -13 4t-3 17q0 10 4 12.5t17 2.5h56v8q0 24 -13.5 120.5l-14.5 103.5q-2 12 -3 14 t-8 2h-193q-9 0 -12 -1.5t-8 -11.5q-116 -217 -121 -235h66q9 0 11.5 -3.5t2.5 -12.5q0 -12 -2.5 -16t-11.5 -4t-43 1.5t-59 1.5q-17 0 -43.5 -1.5t-30.5 -1.5q-10 0 -13 4t-3 17zM287 311q0 -3 15 -3h167q10 0 10 2q0 10 -21 136.5t-23 126.5l-31 -55l-68.5 -119.5 t-41.5 -73.5q-7 -12 -7 -14z" />
<glyph unicode="&#xc5;" horiz-adv-x="688" d="M430 781q0 29 21 50t50 21t50 -21t21 -50t-21 -50t-50 -21t-50 21t-21 50zM464 781q0 -16 10.5 -26.5t26.5 -10.5t26.5 10.5t10.5 26.5t-10.5 26.5t-26.5 10.5t-26.5 -10.5t-10.5 -26.5zM17 15q0 10 4 12.5t17 2.5h32q8 9 77.5 129l153 261t117.5 192q4 6 22 25t28 37 q8 16 18 16q14 0 16 -21q104 -619 114 -639h41q9 0 11.5 -3.5t2.5 -12.5q0 -12 -2.5 -16t-11.5 -4q-6 0 -39.5 1.5t-50.5 1.5q-16 0 -58.5 -1.5t-53.5 -1.5q-10 0 -13 4t-3 17q0 10 4 12.5t17 2.5h56v8q0 24 -13.5 120.5l-14.5 103.5q-2 12 -3 14t-8 2h-193q-9 0 -12 -1.5 t-8 -11.5q-116 -217 -121 -235h66q9 0 11.5 -3.5t2.5 -12.5q0 -12 -2.5 -16t-11.5 -4t-43 1.5t-59 1.5q-17 0 -43.5 -1.5t-30.5 -1.5q-10 0 -13 4t-3 17zM287 311q0 -3 15 -3h167q10 0 10 2q0 10 -21 136.5t-23 126.5l-31 -55l-68.5 -119.5t-41.5 -73.5q-7 -12 -7 -14z" />
<glyph unicode="&#xc6;" horiz-adv-x="968" d="M-13 15q0 10 4 12.5t17 2.5h32q6 0 102 122l216.5 278.5t158.5 202.5h-62q-22 0 -22 18q0 17 15 17l66 -2q67 -1 88 -1q28 0 108.5 1.5t100.5 1.5q91 0 92 10q0 15 16 15q20 0 20 -14q0 -5 -4 -42.5t-5 -84.5q0 -7 -4 -9t-15 -2q-18 0 -18 13q0 3 6 75q-42 6 -258 6 q-10 -28 -40 -266q-1 -5 -1 -10q9 -4 12 -4h164q42 0 44 11l11 55q1 7 19 7q16 0 16 -9q0 -4 -2.5 -17.5t-7 -34.5l-7.5 -36q-14 -73 -15 -90q-1 -8 -16 -8h-4q-16 0 -16 8q0 3 6 36t6 34q0 11 -47 11h-151q-11 0 -13.5 -1t-3.5 -7q-3 -14 -19.5 -129t-19.5 -146q0 -6 4 -6 q14 0 164.5 3.5t154.5 3.5q3 3 9 19.5t13.5 40.5t12.5 35q4 11 17 11q7 0 13.5 -4t6.5 -10t-5.5 -22l-17 -47.5t-19.5 -55.5q-4 -13 -20 -13q-11 0 -179 1.5t-184 1.5t-54 -1.5t-49 -1.5q-10 0 -13.5 4t-3.5 17q0 10 4 12.5t17 2.5h40l42 268h-198q-11 0 -21 -14 q-163 -236 -171 -254h65q9 0 11.5 -3.5t2.5 -12.5q0 -12 -2.5 -16t-11.5 -4q-11 0 -51 1.5t-56 1.5t-39 -1.5t-34 -1.5q-10 0 -13.5 4t-3.5 17zM332 340q-8 -12 5 -12h176l20 142q20 144 20 154q0 7 -9 -4z" />
<glyph unicode="&#xc7;" horiz-adv-x="686" d="M32 291q0 162 109 272.5t257 110.5q61 0 117.5 -24t92.5 -60q11 38 14 38q9 0 20.5 -3.5t11.5 -10.5q0 -3 -7.5 -41l-17 -85t-10.5 -54q-2 -7 -16 -7q-10 0 -18 4.5t-8 9.5q0 2 11 46.5t12 50.5q-6 10 -32.5 32t-76 46t-94.5 24q-74 0 -137 -55.5t-97.5 -136 t-34.5 -160.5q0 -122 68.5 -193.5t170.5 -71.5q46 0 90 16.5t66 33t25 24.5q10 29 25 84q5 16 27 11q19 -4 19 -14q0 -7 -33 -117q-6 -18 -78 -46.5t-138 -31.5q-25 -45 -27 -49q10 2 25 2q36 0 58 -20t22 -47q0 -39 -33 -64t-82 -25q-22 0 -41 6t-28 12.5t-9 11.5 q0 13 11 13q2 0 9.5 -3.5t20 -7t26.5 -3.5q66 0 66 46q0 17 -10.5 29.5t-33.5 12.5q-11 0 -23 -3t-13 -3q-2 0 -6 2.5t-4 3.5t7.5 15l20 36.5t18.5 34.5q-62 2 -116 19.5t-99 52.5t-71 95.5t-26 140.5z" />
<glyph unicode="&#xc8;" horiz-adv-x="579" d="M250 818q0 32 32 32q20 0 33 -27l40 -85q1 -2 1 -6q0 -6 -7 -6h-18q-2 0 -9 7l-61 60q-11 11 -11 25zM17 15q0 10 4 12.5t17 2.5h40q0 2 10.5 68.5l21.5 139l23 155.5t20 147.5t8 85.5l-1 7h-58q-10 0 -14 3t-4 15q0 17 13 17l47 -2q48 -1 69 -1q28 0 108.5 1.5 t100.5 1.5q91 0 92 10q0 15 16 15q20 0 20 -14q0 -5 -4 -42.5t-5 -84.5q0 -7 -4 -9t-15 -2q-18 0 -18 13q0 3 6 75q-42 6 -258 6q-10 -28 -40 -266q-1 -5 -1 -10q9 -4 12 -4h164q42 0 44 11l11 55q1 7 19 7q16 0 16 -9q0 -4 -2.5 -17.5t-7 -34.5l-7.5 -36q-14 -73 -15 -90 q-1 -8 -16 -8h-4q-16 0 -16 8q0 3 6 36t6 34q0 11 -47 11h-151q-11 0 -13 -1t-4 -7q-3 -14 -19.5 -129t-19.5 -146q0 -6 4 -6q14 0 164.5 3.5t154.5 3.5q3 3 9 19.5t13.5 40.5t12.5 35q4 11 17 11q7 0 13.5 -4t6.5 -10t-5.5 -22l-17 -47.5t-19.5 -55.5q-4 -13 -20 -13 q-11 0 -179 1.5t-184 1.5t-54 -1.5t-49 -1.5q-10 0 -13.5 4t-3.5 17z" />
<glyph unicode="&#xc9;" horiz-adv-x="579" d="M330 731q0 4 3 7l67 86q20 26 40 26q29 0 29 -24q0 -20 -19 -33l-83 -60l-11 -7h-19q-7 0 -7 5zM17 15q0 10 4 12.5t17 2.5h40q0 2 10.5 68.5l21.5 139l23 155.5t20 147.5t8 85.5l-1 7h-58q-10 0 -14 3t-4 15q0 17 13 17l47 -2q48 -1 69 -1q28 0 108.5 1.5t100.5 1.5 q91 0 92 10q0 15 16 15q20 0 20 -14q0 -5 -4 -42.5t-5 -84.5q0 -7 -4 -9t-15 -2q-18 0 -18 13q0 3 6 75q-42 6 -258 6q-10 -28 -40 -266q-1 -5 -1 -10q9 -4 12 -4h164q42 0 44 11l11 55q1 7 19 7q16 0 16 -9q0 -4 -2.5 -17.5t-7 -34.5l-7.5 -36q-14 -73 -15 -90 q-1 -8 -16 -8h-4q-16 0 -16 8q0 3 6 36t6 34q0 11 -47 11h-151q-11 0 -13 -1t-4 -7q-3 -14 -19.5 -129t-19.5 -146q0 -6 4 -6q14 0 164.5 3.5t154.5 3.5q3 3 9 19.5t13.5 40.5t12.5 35q4 11 17 11q7 0 13.5 -4t6.5 -10t-5.5 -22l-17 -47.5t-19.5 -55.5q-4 -13 -20 -13 q-11 0 -179 1.5t-184 1.5t-54 -1.5t-49 -1.5q-10 0 -13.5 4t-3.5 17z" />
<glyph unicode="&#xca;" horiz-adv-x="579" d="M235 730q0 2 6 8l91 92q12 12 22 12h20q12 0 19 -12l53 -92q3 -4 3 -8t-9 -4h-10q-4 0 -11 7l-63 52q-1 1 -4 0l-85 -53q-10 -6 -13 -6h-13q-6 0 -6 4zM17 15q0 10 4 12.5t17 2.5h40q0 2 10.5 68.5l21.5 139l23 155.5t20 147.5t8 85.5l-1 7h-58q-10 0 -14 3t-4 15 q0 17 13 17l47 -2q48 -1 69 -1q28 0 108.5 1.5t100.5 1.5q91 0 92 10q0 15 16 15q20 0 20 -14q0 -5 -4 -42.5t-5 -84.5q0 -7 -4 -9t-15 -2q-18 0 -18 13q0 3 6 75q-42 6 -258 6q-10 -28 -40 -266q-1 -5 -1 -10q9 -4 12 -4h164q42 0 44 11l11 55q1 7 19 7q16 0 16 -9 q0 -4 -2.5 -17.5t-7 -34.5l-7.5 -36q-14 -73 -15 -90q-1 -8 -16 -8h-4q-16 0 -16 8q0 3 6 36t6 34q0 11 -47 11h-151q-11 0 -13 -1t-4 -7q-3 -14 -19.5 -129t-19.5 -146q0 -6 4 -6q14 0 164.5 3.5t154.5 3.5q3 3 9 19.5t13.5 40.5t12.5 35q4 11 17 11q7 0 13.5 -4t6.5 -10 t-5.5 -22l-17 -47.5t-19.5 -55.5q-4 -13 -20 -13q-11 0 -179 1.5t-184 1.5t-54 -1.5t-49 -1.5q-10 0 -13.5 4t-3.5 17z" />
<glyph unicode="&#xcb;" horiz-adv-x="579" d="M238 785q0 21 12 35t32 14q22 0 34.5 -16t12.5 -35q0 -21 -12.5 -35t-31.5 -14q-22 0 -34.5 16t-12.5 35zM378 785q0 21 12 35t32 14q22 0 34.5 -16t12.5 -35q0 -21 -12.5 -35t-31.5 -14q-22 0 -34.5 16t-12.5 35zM17 15q0 10 4 12.5t17 2.5h40q0 2 10.5 68.5l21.5 139 l23 155.5t20 147.5t8 85.5l-1 7h-58q-10 0 -14 3t-4 15q0 17 13 17l47 -2q48 -1 69 -1q28 0 108.5 1.5t100.5 1.5q91 0 92 10q0 15 16 15q20 0 20 -14q0 -5 -4 -42.5t-5 -84.5q0 -7 -4 -9t-15 -2q-18 0 -18 13q0 3 6 75q-42 6 -258 6q-10 -28 -40 -266q-1 -5 -1 -10 q9 -4 12 -4h164q42 0 44 11l11 55q1 7 19 7q16 0 16 -9q0 -4 -2.5 -17.5t-7 -34.5l-7.5 -36q-14 -73 -15 -90q-1 -8 -16 -8h-4q-16 0 -16 8q0 3 6 36t6 34q0 11 -47 11h-151q-11 0 -13 -1t-4 -7q-3 -14 -19.5 -129t-19.5 -146q0 -6 4 -6q14 0 164.5 3.5t154.5 3.5 q3 3 9 19.5t13.5 40.5t12.5 35q4 11 17 11q7 0 13.5 -4t6.5 -10t-5.5 -22l-17 -47.5t-19.5 -55.5q-4 -13 -20 -13q-11 0 -179 1.5t-184 1.5t-54 -1.5t-49 -1.5q-10 0 -13.5 4t-3.5 17z" />
<glyph unicode="&#xcc;" horiz-adv-x="377" d="M148 818q0 32 32 32q20 0 33 -27l40 -85q1 -2 1 -6q0 -6 -7 -6h-18q-2 0 -9 7l-61 60q-11 11 -11 25zM17 15q0 10 4 12.5t17 2.5h58q9 27 48.5 292t39.5 301q0 13 -6 13h-67q-14 0 -14 18q0 12 4.5 15t15.5 3q6 0 53 -1.5t64 -1.5q16 0 57 1.5t52 1.5q10 0 13.5 -4 t3.5 -17q0 -10 -4 -12.5t-17 -2.5h-56q-11 -23 -48.5 -287t-37.5 -309q0 -10 5 -10h66q9 0 11.5 -3.5t2.5 -12.5q0 -12 -2.5 -16t-11.5 -4q-11 0 -58 1.5t-63 1.5t-59 -1.5t-54 -1.5q-10 0 -13.5 4t-3.5 17z" />
<glyph unicode="&#xcd;" horiz-adv-x="377" d="M228 731q0 4 3 7l67 86q20 26 40 26q29 0 29 -24q0 -20 -19 -33l-83 -60l-11 -7h-19q-7 0 -7 5zM17 15q0 10 4 12.5t17 2.5h58q9 27 48.5 292t39.5 301q0 13 -6 13h-67q-14 0 -14 18q0 12 4.5 15t15.5 3q6 0 53 -1.5t64 -1.5q16 0 57 1.5t52 1.5q10 0 13.5 -4t3.5 -17 q0 -10 -4 -12.5t-17 -2.5h-56q-11 -23 -48.5 -287t-37.5 -309q0 -10 5 -10h66q9 0 11.5 -3.5t2.5 -12.5q0 -12 -2.5 -16t-11.5 -4q-11 0 -58 1.5t-63 1.5t-59 -1.5t-54 -1.5q-10 0 -13.5 4t-3.5 17z" />
<glyph unicode="&#xce;" horiz-adv-x="377" d="M133 730q0 2 6 8l91 92q12 12 22 12h20q12 0 19 -12l53 -92q3 -4 3 -8t-9 -4h-10q-4 0 -11 7l-63 52q-1 1 -4 0l-85 -53q-10 -6 -13 -6h-13q-6 0 -6 4zM17 15q0 10 4 12.5t17 2.5h58q9 27 48.5 292t39.5 301q0 13 -6 13h-67q-14 0 -14 18q0 12 4.5 15t15.5 3q6 0 53 -1.5 t64 -1.5q16 0 57 1.5t52 1.5q10 0 13.5 -4t3.5 -17q0 -10 -4 -12.5t-17 -2.5h-56q-11 -23 -48.5 -287t-37.5 -309q0 -10 5 -10h66q9 0 11.5 -3.5t2.5 -12.5q0 -12 -2.5 -16t-11.5 -4q-11 0 -58 1.5t-63 1.5t-59 -1.5t-54 -1.5q-10 0 -13.5 4t-3.5 17z" />
<glyph unicode="&#xcf;" horiz-adv-x="377" d="M136 785q0 21 12 35t32 14q22 0 34.5 -16t12.5 -35q0 -21 -12.5 -35t-31.5 -14q-22 0 -34.5 16t-12.5 35zM276 785q0 21 12 35t32 14q22 0 34.5 -16t12.5 -35q0 -21 -12.5 -35t-31.5 -14q-22 0 -34.5 16t-12.5 35zM17 15q0 10 4 12.5t17 2.5h58q9 27 48.5 292t39.5 301 q0 13 -6 13h-67q-14 0 -14 18q0 12 4.5 15t15.5 3q6 0 53 -1.5t64 -1.5q16 0 57 1.5t52 1.5q10 0 13.5 -4t3.5 -17q0 -10 -4 -12.5t-17 -2.5h-56q-11 -23 -48.5 -287t-37.5 -309q0 -10 5 -10h66q9 0 11.5 -3.5t2.5 -12.5q0 -12 -2.5 -16t-11.5 -4q-11 0 -58 1.5t-63 1.5 t-59 -1.5t-54 -1.5q-10 0 -13.5 4t-3.5 17z" />
<glyph unicode="&#xd0;" horiz-adv-x="742" d="M16 10q0 12 4.5 15t15.5 3h41q9 26 45 281q1 7 -0.5 8t-7.5 1h-65q-5 0 -5 13v6q0 11 5 11h68q7 0 8.5 1t2.5 8q1 5 10.5 73.5l17.5 131t8 70.5v1l-71 -2q-16 0 -16 15q0 7 1 10.5t4.5 6t10.5 2.5q1 0 24 -0.5t51.5 -0.5h43.5q33 0 75.5 1t56.5 1q166 0 263.5 -80.5 t97.5 -250.5q0 -162 -104.5 -252t-259.5 -90q-32 0 -108 2t-106 2q-16 0 -55 -2t-42 -2q-9 0 -11.5 3.5t-2.5 13.5zM174 46q0 -12 5 -15q4 -3 57 -3q70 0 127.5 14t95.5 36t67 53t44.5 61t25 64.5t12.5 59.5t3 49q0 122 -73.5 194.5t-221.5 72.5q-59 0 -60 -4 q-1 -2 -11 -68.5l-20 -134t-10 -68.5q-1 -9 7 -9h196q4 0 4 -15t-4 -15h-200q-9 0 -10 -10q-34 -234 -34 -262z" />
<glyph unicode="&#xd1;" horiz-adv-x="824" d="M363 744q0 9 11 27q15 25 33.5 39.5t32.5 14.5q17 0 43.5 -18t36.5 -18q22 0 37 31l2 4q2 5 9 5h13q1 0 1 -2q0 -7 -10 -30q-30 -57 -70 -57q-19 0 -42.5 17.5t-37.5 17.5q-20 0 -35 -27q-3 -8 -10 -8h-11q-3 0 -3 4zM17 15q0 10 4 12.5t17 2.5h47q22 135 89 511 q11 55 11 73q0 2 -5 11q-4 7 -7 9t-14 2h-60q-8 0 -10 3t-2 13q0 9 0.5 12.5t3 5.5t8.5 2t54.5 -1.5t59.5 -1.5q13 0 28 1.5t17 1.5q14 0 23 -14l328 -499q8 -11 13 -11q9 24 39.5 230.5t30.5 248.5v9h-75q-9 0 -11.5 3.5t-2.5 12.5q0 12 2.5 16t11.5 4q6 0 37 -1.5t52 -1.5 q24 0 52 1.5t32 1.5q10 0 13.5 -4t3.5 -17q0 -10 -4 -12.5t-17 -2.5h-40q-11 -34 -79 -464q-9 -59 -17 -170q-1 -15 -4.5 -20.5t-13.5 -5.5q-4 0 -7.5 2t-7 6t-5.5 7t-6 9.5t-5 8.5q-55 89 -117 180l-256 374q-12 15 -14 11q-1 -2 -2 -8l-6 -38l-13.5 -85.5l-16.5 -111.5 l-16.5 -118.5t-12.5 -103t-5 -67.5q0 -5 1 -10v-2h84q9 0 11.5 -3.5t2.5 -12.5q0 -12 -2.5 -16t-11.5 -4q-11 0 -50.5 1.5t-55.5 1.5q-18 0 -52 -1.5t-35 -1.5q-10 0 -13.5 4t-3.5 17z" />
<glyph unicode="&#xd2;" horiz-adv-x="734" d="M337 818q0 32 32 32q19 0 33 -27l40 -85q1 -2 1 -6q0 -6 -7 -6h-18q-2 0 -9 7l-61 60q-11 11 -11 25zM32 280q0 87 33 163t86 126t120 78.5t136 28.5q136 0 215.5 -90t79.5 -238q0 -153 -107.5 -263t-260.5 -110q-131 0 -216.5 76t-85.5 229zM130 286q0 -54 13 -102.5 t38.5 -89.5t69.5 -65t100 -24q73 0 133.5 59.5t90.5 142.5t30 166q0 44 -11 89t-33 86.5t-61.5 67.5t-89.5 26q-106 0 -193 -111.5t-87 -244.5z" />
<glyph unicode="&#xd3;" horiz-adv-x="734" d="M417 731q0 4 3 7l67 86q20 26 40 26q29 0 29 -24q0 -20 -19 -33l-83 -60q-10 -7 -11 -7h-19q-7 0 -7 5zM32 280q0 87 33 163t86 126t120 78.5t136 28.5q136 0 215.5 -90t79.5 -238q0 -153 -107.5 -263t-260.5 -110q-131 0 -216.5 76t-85.5 229zM130 286q0 -54 13 -102.5 t38.5 -89.5t69.5 -65t100 -24q73 0 133.5 59.5t90.5 142.5t30 166q0 44 -11 89t-33 86.5t-61.5 67.5t-89.5 26q-106 0 -193 -111.5t-87 -244.5z" />
<glyph unicode="&#xd4;" horiz-adv-x="734" d="M322 730q0 2 6 8l91 92q12 12 22 12h20q12 0 19 -12l53 -92q3 -4 3 -8t-9 -4h-10q-4 0 -11 7l-63 52q-1 1 -4 0l-85 -53q-10 -6 -13 -6h-13q-6 0 -6 4zM32 280q0 87 33 163t86 126t120 78.5t136 28.5q136 0 215.5 -90t79.5 -238q0 -153 -107.5 -263t-260.5 -110 q-131 0 -216.5 76t-85.5 229zM130 286q0 -54 13 -102.5t38.5 -89.5t69.5 -65t100 -24q73 0 133.5 59.5t90.5 142.5t30 166q0 44 -11 89t-33 86.5t-61.5 67.5t-89.5 26q-106 0 -193 -111.5t-87 -244.5z" />
<glyph unicode="&#xd5;" horiz-adv-x="734" d="M328 744q0 9 11 27q15 25 33.5 39.5t32.5 14.5q17 0 43.5 -18t36.5 -18q21 0 37 31l2 4q2 5 9 5h13q1 0 1 -2q0 -7 -10 -30q-30 -57 -70 -57q-19 0 -42.5 17.5t-37.5 17.5q-20 0 -35 -27q-3 -8 -10 -8h-11q-3 0 -3 4zM32 280q0 87 33 163t86 126t120 78.5t136 28.5 q136 0 215.5 -90t79.5 -238q0 -153 -107.5 -263t-260.5 -110q-131 0 -216.5 76t-85.5 229zM130 286q0 -54 13 -102.5t38.5 -89.5t69.5 -65t100 -24q73 0 133.5 59.5t90.5 142.5t30 166q0 44 -11 89t-33 86.5t-61.5 67.5t-89.5 26q-106 0 -193 -111.5t-87 -244.5z" />
<glyph unicode="&#xd6;" horiz-adv-x="734" d="M325 785q0 21 12 35t32 14q22 0 34.5 -16t12.5 -35q0 -21 -12.5 -35t-31.5 -14q-22 0 -34.5 16t-12.5 35zM465 785q0 21 12 35t32 14q22 0 34.5 -16t12.5 -35q0 -21 -12.5 -35t-31.5 -14q-22 0 -34.5 16t-12.5 35zM32 280q0 87 33 163t86 126t120 78.5t136 28.5 q136 0 215.5 -90t79.5 -238q0 -153 -107.5 -263t-260.5 -110q-131 0 -216.5 76t-85.5 229zM130 286q0 -54 13 -102.5t38.5 -89.5t69.5 -65t100 -24q73 0 133.5 59.5t90.5 142.5t30 166q0 44 -11 89t-33 86.5t-61.5 67.5t-89.5 26q-106 0 -193 -111.5t-87 -244.5z" />
<glyph unicode="&#xd7;" horiz-adv-x="527" d="M85 358q0 7 11.5 18t19.5 11q7 0 16 -9l116 -115q16 -17 26 -7l125 125q7 7 14 7t17.5 -11t10.5 -19q0 -6 -10 -16l-121 -121q-7 -8 -7 -11t7 -10l124 -124q7 -7 7 -14t-11 -18.5t-18 -11.5t-15 8l-123 124q-9 7 -12.5 6t-12.5 -10l-120 -120q-8 -8 -14 -8q-7 0 -18 11 t-11 18q0 6 9 15l120 121q13 13 2 24l-124 124q-8 8 -8 13z" />
<glyph unicode="&#xd8;" horiz-adv-x="734" d="M32 280q0 87 33 163t86 126t120 78.5t136 28.5q65 0 124 -24q6 -3 9 3l40 69q2 2 5 2q5 0 12 -5q13 -6 9 -13l-39 -65q-3 -7 1 -11q64 -42 99 -115t35 -169q0 -153 -107.5 -263t-260.5 -110q-68 0 -127 21q-11 4 -14 -2l-29 -49q-3 -3 -5 -3q-6 0 -15 6t-7 10l26 45 q3 5 3.5 7t-0.5 4t-6 5q-128 80 -128 261zM130 286q0 -131 65 -209q7 -8 12 1q2 4 149.5 259.5t149.5 258.5q4 7 4 10q0 4 -7 8q-39 28 -93 28q-106 0 -193 -111.5t-87 -244.5zM230 43q51 -38 121 -38q73 0 133.5 59.5t90.5 142.5t30 166q0 55 -17 111.5t-50 96.5 q-4 4 -8 -3l-300 -519q-6 -11 0 -16z" />
<glyph unicode="&#xd9;" horiz-adv-x="759" d="M325 818q0 32 32 32q19 0 33 -27l40 -85q1 -2 1 -6q0 -6 -7 -6h-18q-2 0 -9 7l-61 60q-11 11 -11 25zM57 649q0 12 4 15t15 3q6 0 41.5 -1.5t52.5 -1.5q16 0 53.5 1.5t48.5 1.5q10 0 12.5 -4t2.5 -17q0 -10 -3.5 -12.5t-15.5 -2.5h-33q-10 -20 -41.5 -212.5t-31.5 -242.5 q0 -36 15 -63t34 -40t44.5 -20.5t39.5 -8.5t27 -1q41 0 87 16t76 35q27 20 38 58q12 47 32 163q40 235 48 316h-66q-11 0 -16 3t-5 15t5 15t16 3q6 0 47.5 -1.5t58.5 -1.5t48 1.5t34 1.5q10 0 13.5 -4t3.5 -17q0 -10 -4 -12.5t-17 -2.5h-30q-1 -6 -21 -116 q-62 -378 -95 -490q-7 -27 -22 -27q-18 0 -19 14q-7 64 -10 64q-2 0 -44 -24q-113 -62 -212 -62q-83 0 -139 43.5t-56 117.5q0 47 33 249.5t33 228.5v2h-63q-10 0 -14.5 3t-4.5 15z" />
<glyph unicode="&#xda;" horiz-adv-x="759" d="M405 731q0 4 3 7l67 86q20 26 40 26q29 0 29 -24q0 -20 -19 -33l-83 -60q-10 -7 -11 -7h-19q-7 0 -7 5zM57 649q0 12 4 15t15 3q6 0 41.5 -1.5t52.5 -1.5q16 0 53.5 1.5t48.5 1.5q10 0 12.5 -4t2.5 -17q0 -10 -3.5 -12.5t-15.5 -2.5h-33q-10 -20 -41.5 -212.5 t-31.5 -242.5q0 -36 15 -63t34 -40t44.5 -20.5t39.5 -8.5t27 -1q41 0 87 16t76 35q27 20 38 58q12 47 32 163q40 235 48 316h-66q-11 0 -16 3t-5 15t5 15t16 3q6 0 47.5 -1.5t58.5 -1.5t48 1.5t34 1.5q10 0 13.5 -4t3.5 -17q0 -10 -4 -12.5t-17 -2.5h-30q-1 -6 -21 -116 q-62 -378 -95 -490q-7 -27 -22 -27q-18 0 -19 14q-7 64 -10 64q-2 0 -44 -24q-113 -62 -212 -62q-83 0 -139 43.5t-56 117.5q0 47 33 249.5t33 228.5v2h-63q-10 0 -14.5 3t-4.5 15z" />
<glyph unicode="&#xdb;" horiz-adv-x="759" d="M310 730q0 2 6 8l91 92q12 12 22 12h20q12 0 19 -12l53 -92q3 -4 3 -8t-9 -4h-10q-4 0 -11 7l-63 52q-1 1 -4 0l-85 -53q-10 -6 -13 -6h-13q-6 0 -6 4zM57 649q0 12 4 15t15 3q6 0 41.5 -1.5t52.5 -1.5q16 0 53.5 1.5t48.5 1.5q10 0 12.5 -4t2.5 -17q0 -10 -3.5 -12.5 t-15.5 -2.5h-33q-10 -20 -41.5 -212.5t-31.5 -242.5q0 -36 15 -63t34 -40t44.5 -20.5t39.5 -8.5t27 -1q41 0 87 16t76 35q27 20 38 58q12 47 32 163q40 235 48 316h-66q-11 0 -16 3t-5 15t5 15t16 3q6 0 47.5 -1.5t58.5 -1.5t48 1.5t34 1.5q10 0 13.5 -4t3.5 -17 q0 -10 -4 -12.5t-17 -2.5h-30q-1 -6 -21 -116q-62 -378 -95 -490q-7 -27 -22 -27q-18 0 -19 14q-7 64 -10 64q-2 0 -44 -24q-113 -62 -212 -62q-83 0 -139 43.5t-56 117.5q0 47 33 249.5t33 228.5v2h-63q-10 0 -14.5 3t-4.5 15z" />
<glyph unicode="&#xdc;" horiz-adv-x="759" d="M313 785q0 21 12 35t32 14q22 0 34.5 -16t12.5 -35q0 -21 -12.5 -35t-31.5 -14q-22 0 -34.5 16t-12.5 35zM453 785q0 21 12 35t32 14q22 0 34.5 -16t12.5 -35q0 -21 -12.5 -35t-31.5 -14q-22 0 -34.5 16t-12.5 35zM57 649q0 12 4 15t15 3q6 0 41.5 -1.5t52.5 -1.5 q16 0 53.5 1.5t48.5 1.5q10 0 12.5 -4t2.5 -17q0 -10 -3.5 -12.5t-15.5 -2.5h-33q-10 -20 -41.5 -212.5t-31.5 -242.5q0 -36 15 -63t34 -40t44.5 -20.5t39.5 -8.5t27 -1q41 0 87 16t76 35q27 20 38 58q12 47 32 163q40 235 48 316h-66q-11 0 -16 3t-5 15t5 15t16 3 q6 0 47.5 -1.5t58.5 -1.5t48 1.5t34 1.5q10 0 13.5 -4t3.5 -17q0 -10 -4 -12.5t-17 -2.5h-30q-1 -6 -21 -116q-62 -378 -95 -490q-7 -27 -22 -27q-18 0 -19 14q-7 64 -10 64q-2 0 -44 -24q-113 -62 -212 -62q-83 0 -139 43.5t-56 117.5q0 47 33 249.5t33 228.5v2h-63 q-10 0 -14.5 3t-4.5 15z" />
<glyph unicode="&#xdd;" horiz-adv-x="613" d="M319 731q0 4 3 7l67 86q20 26 40 26q29 0 29 -24q0 -20 -19 -33l-83 -60q-10 -7 -11 -7h-19q-7 0 -7 5zM17 654q0 12 5 15t16 3q6 0 45 -1.5t56 -1.5q16 0 47 1.5t42 1.5q10 0 13 -4t3 -17q0 -10 -3.5 -12.5t-16.5 -2.5h-40q0 -1 1 -4.5t2 -6.5q13 -44 103 -265 q3 -6 5 -7.5t5 2t7 9.5q1 1 1 2l35.5 52.5l46 68l42.5 64.5t34.5 56.5t12.5 28.5h-50q-13 0 -17 2.5t-4 12.5q0 13 3.5 17t13.5 4q11 0 36.5 -1.5t41.5 -1.5q17 0 44 1.5t33 1.5q10 0 13 -3t3 -15t-3 -15t-13 -3h-38q-12 -12 -97 -129t-124 -176q-5 -9 -8 -22l-34 -205 q-10 -62 -10 -71q0 -3 1 -3h64q9 0 11.5 -3.5t2.5 -12.5q0 -12 -2.5 -16t-11.5 -4q-11 0 -50 1.5t-55 1.5t-50.5 -1.5t-45.5 -1.5q-10 0 -12.5 4t-2.5 15q0 10 3.5 13.5t15.5 3.5h44q4 5 42 231q5 27 5 40q0 3 -67 157l-78 178h-45q-11 0 -16 3t-5 15z" />
<glyph unicode="&#xde;" horiz-adv-x="566" d="M11 15q0 10 3.5 12.5t16.5 2.5h59q9 27 48.5 292t39.5 301q0 13 -6 13h-68q-13 0 -13 18q0 12 3.5 15t14.5 3q6 0 54 -1.5t65 -1.5q16 0 58 1.5t53 1.5q10 0 12.5 -4t2.5 -17q0 -10 -3.5 -12.5t-15.5 -2.5h-58q-2 -3 -20 -104q-1 -4 -1 -8t4 -4q1 0 9 1t23 2t34 1 q100 0 156.5 -48.5t56.5 -125.5q0 -55 -21.5 -95t-59 -61.5t-78.5 -31t-88 -9.5q-16 0 -44.5 1t-31.5 1q-9 0 -12 -2t-4 -12q-15 -90 -15 -109v-2h77q9 0 11.5 -3.5t2.5 -12.5q0 -12 -2.5 -16t-11.5 -4q-11 0 -58 1.5t-63 1.5t-59.5 -1.5t-54.5 -1.5q-10 0 -13 4t-3 17z M207 192q0 -8 5 -10t22 -2q92 0 157 40.5t65 123.5q0 73 -41.5 111.5t-122.5 38.5q-18 0 -28 -1h-8.5t-4 -2t-2.5 -3.5t-1 -8.5l-12 -81q-29 -188 -29 -206z" />
<glyph unicode="&#xdf;" horiz-adv-x="488" d="M-128 -240q0 15 18 29.5t34 14.5q13 0 38.5 -12t42.5 -12q9 0 16 6t13 18.5t10 24t8 31t5.5 30l4.5 31.5t4 25q19 121 31 211t23 186.5l16 137.5q11 87 55 143.5t123 56.5q57 0 89.5 -35t32.5 -90q0 -39 -13.5 -72.5t-35.5 -55.5t-41.5 -35t-38.5 -21q-8 -3 -8 -4t3 -2 q133 -47 133 -168q0 -90 -44 -150.5t-114 -60.5q-40 0 -66.5 20.5t-26.5 55.5t41 49q10 3 16.5 0t6.5 -11q0 -4 -2.5 -19.5t-2.5 -22.5q0 -48 37 -48q38 0 60 65.5t22 136.5q0 37 -9 63.5t-18.5 40t-30 22.5t-29 10.5t-29.5 4.5q-8 0 -8 10q0 16 10 17q44 4 84 55t40 133 q0 37 -18 61.5t-52 24.5q-25 0 -42.5 -14t-27.5 -41t-14.5 -48t-8.5 -52q-1 -5 -1 -8q-7 -44 -32 -235t-45 -311q-3 -17 -11 -45t-31 -71.5t-53 -65.5q-2 -1 -8.5 -6l-10 -7.5t-10.5 -7t-11.5 -7t-11.5 -6t-13 -5t-13.5 -3t-14.5 -1.5q-24 0 -47.5 13t-23.5 26z" />
<glyph unicode="&#xe0;" horiz-adv-x="433" d="M209 575q0 34 37 34q24 0 29 -26l26 -126l1 -3v-3q0 -5 -7 -5h-15q-6 0 -10 8l-57 107q-4 7 -4 14zM22 59q0 46 15 101t42 107.5t73 87.5t100 35q10 0 28.5 -9t27.5 -22l19 -26q3 0 13 41q3 13 47 13q16 0 16 -8q0 -5 -40.5 -148t-40.5 -168q0 -17 11 -17q7 0 34 28 t30 28q5 0 9.5 -5.5t4.5 -11.5q0 -4 -22.5 -28t-55 -47.5t-52.5 -23.5q-30 0 -30 27q0 33 48 187q-55 -92 -111 -150q-24 -25 -33.5 -34t-28 -19t-36.5 -10q-32 0 -50 20.5t-18 51.5zM95 96q0 -50 25 -50q28 0 80.5 60t95.5 131q15 25 15 52q0 24 -28.5 39.5t-55.5 15.5 q-32 0 -64 -45.5t-50 -103t-18 -99.5z" />
<glyph unicode="&#xe1;" horiz-adv-x="433" d="M253 451q0 1 3 7l61 123q13 26 35 26q15 0 24.5 -6.5t9.5 -17.5q0 -16 -10 -27l-91 -103q-5 -7 -10 -7h-15q-7 0 -7 5zM22 59q0 46 15 101t42 107.5t73 87.5t100 35q10 0 28.5 -9t27.5 -22l19 -26q3 0 13 41q3 13 47 13q16 0 16 -8q0 -5 -40.5 -148t-40.5 -168 q0 -17 11 -17q7 0 34 28t30 28q5 0 9.5 -5.5t4.5 -11.5q0 -4 -22.5 -28t-55 -47.5t-52.5 -23.5q-30 0 -30 27q0 33 48 187q-55 -92 -111 -150q-24 -25 -33.5 -34t-28 -19t-36.5 -10q-32 0 -50 20.5t-18 51.5zM95 96q0 -50 25 -50q28 0 80.5 60t95.5 131q15 25 15 52 q0 24 -28.5 39.5t-55.5 15.5q-32 0 -64 -45.5t-50 -103t-18 -99.5z" />
<glyph unicode="&#xe2;" horiz-adv-x="433" d="M170 461l6 9l91 104q8 10 11 11.5t11 1.5h20q8 0 11 -2t8 -12l53 -103q4 -8 4 -9q0 -4 -10 -4h-12q-2 0 -9 7l-60 59q-4 4 -11 0l-81 -59q-9 -7 -11 -7h-15q-6 0 -6 4zM22 59q0 46 15 101t42 107.5t73 87.5t100 35q10 0 28.5 -9t27.5 -22l19 -26q3 0 13 41q3 13 47 13 q16 0 16 -8q0 -5 -40.5 -148t-40.5 -168q0 -17 11 -17q7 0 34 28t30 28q5 0 9.5 -5.5t4.5 -11.5q0 -4 -22.5 -28t-55 -47.5t-52.5 -23.5q-30 0 -30 27q0 33 48 187q-55 -92 -111 -150q-24 -25 -33.5 -34t-28 -19t-36.5 -10q-32 0 -50 20.5t-18 51.5zM95 96q0 -50 25 -50 q28 0 80.5 60t95.5 131q15 25 15 52q0 24 -28.5 39.5t-55.5 15.5q-32 0 -64 -45.5t-50 -103t-18 -99.5z" />
<glyph unicode="&#xe3;" horiz-adv-x="433" d="M173 494q0 9 11 27q15 25 33.5 39.5t32.5 14.5q17 0 43.5 -18t36.5 -18q22 0 37 31l2 4q2 5 9 5h13q1 0 1 -2q0 -7 -10 -30q-30 -57 -70 -57q-19 0 -42.5 17.5t-37.5 17.5q-20 0 -35 -27q-3 -8 -10 -8h-11q-3 0 -3 4zM22 59q0 46 15 101t42 107.5t73 87.5t100 35 q10 0 28.5 -9t27.5 -22l19 -26q3 0 13 41q3 13 47 13q16 0 16 -8q0 -5 -40.5 -148t-40.5 -168q0 -17 11 -17q7 0 34 28t30 28q5 0 9.5 -5.5t4.5 -11.5q0 -4 -22.5 -28t-55 -47.5t-52.5 -23.5q-30 0 -30 27q0 33 48 187q-55 -92 -111 -150q-24 -25 -33.5 -34t-28 -19 t-36.5 -10q-32 0 -50 20.5t-18 51.5zM95 96q0 -50 25 -50q28 0 80.5 60t95.5 131q15 25 15 52q0 24 -28.5 39.5t-55.5 15.5q-32 0 -64 -45.5t-50 -103t-18 -99.5z" />
<glyph unicode="&#xe4;" horiz-adv-x="433" d="M170 535q0 21 12 35t32 14q22 0 34.5 -16t12.5 -35q0 -21 -12.5 -35t-31.5 -14q-22 0 -34.5 16t-12.5 35zM310 535q0 21 12 35t32 14q22 0 34.5 -16t12.5 -35q0 -21 -12.5 -35t-31.5 -14q-22 0 -34.5 16t-12.5 35zM22 59q0 46 15 101t42 107.5t73 87.5t100 35 q10 0 28.5 -9t27.5 -22l19 -26q3 0 13 41q3 13 47 13q16 0 16 -8q0 -5 -40.5 -148t-40.5 -168q0 -17 11 -17q7 0 34 28t30 28q5 0 9.5 -5.5t4.5 -11.5q0 -4 -22.5 -28t-55 -47.5t-52.5 -23.5q-30 0 -30 27q0 33 48 187q-55 -92 -111 -150q-24 -25 -33.5 -34t-28 -19 t-36.5 -10q-32 0 -50 20.5t-18 51.5zM95 96q0 -50 25 -50q28 0 80.5 60t95.5 131q15 25 15 52q0 24 -28.5 39.5t-55.5 15.5q-32 0 -64 -45.5t-50 -103t-18 -99.5z" />
<glyph unicode="&#xe5;" horiz-adv-x="433" d="M213 531q0 29 21 50t50 21t50 -21t21 -50t-21 -50t-50 -21t-50 21t-21 50zM247 531q0 -16 10.5 -26.5t26.5 -10.5t26.5 10.5t10.5 26.5t-10.5 26.5t-26.5 10.5t-26.5 -10.5t-10.5 -26.5zM22 59q0 46 15 101t42 107.5t73 87.5t100 35q10 0 28.5 -9t27.5 -22l19 -26 q3 0 13 41q3 13 47 13q16 0 16 -8q0 -5 -40.5 -148t-40.5 -168q0 -17 11 -17q7 0 34 28t30 28q5 0 9.5 -5.5t4.5 -11.5q0 -4 -22.5 -28t-55 -47.5t-52.5 -23.5q-30 0 -30 27q0 33 48 187q-55 -92 -111 -150q-24 -25 -33.5 -34t-28 -19t-36.5 -10q-32 0 -50 20.5t-18 51.5z M95 96q0 -50 25 -50q28 0 80.5 60t95.5 131q15 25 15 52q0 24 -28.5 39.5t-55.5 15.5q-32 0 -64 -45.5t-50 -103t-18 -99.5z" />
<glyph unicode="&#xe6;" horiz-adv-x="636" d="M22 59q0 46 15 101t42 107.5t73 87.5t100 35q36 0 58 -31q3 -4 6.5 -11t6 -11t4.5 -4q2 4 5 13.5l6 18.5l2 9q3 8 39 13q24 3 24 -8q0 -1 -1 -4.5t-2 -9t-2 -8.5q56 37 118 37q39 0 67.5 -15.5t28.5 -53.5q0 -44 -36 -79t-89 -55q-65 -24 -142 -24q-5 0 -5 -43 q0 -86 93 -86q41 0 80.5 22t63 43.5t26.5 21.5q6 0 11 -6t5 -11q0 -6 -29 -33t-84 -55t-109 -28q-56 0 -92.5 28.5t-36.5 84.5q0 33 4 53q-45 -67 -84 -108q-24 -25 -33.5 -34t-28 -19t-36.5 -10q-32 0 -50 20.5t-18 51.5zM97 96q0 -50 23 -50q24 0 80 62.5t96 128.5 q15 25 15 52q0 24 -26.5 39.5t-52.5 15.5q-30 0 -62.5 -45.5t-52.5 -103.5t-20 -99zM355 200q0 -4 7 -4q73 0 126 36t53 94q0 17 -13 27.5t-34 10.5q-80 0 -125 -120q-14 -35 -14 -44z" />
<glyph unicode="&#xe7;" horiz-adv-x="402" d="M22 128q0 116 72 191t152 75q59 0 88 -32q23 -25 23 -58q0 -22 -13 -37t-33 -15q-25 0 -25 40q0 4 0.5 12t0.5 12q0 19 -11 32t-33 13q-27 0 -55 -18t-48 -48q-47 -69 -47 -151q0 -12 1 -21t6.5 -25.5t15 -27t30.5 -19t50 -8.5q38 0 76.5 19.5t61.5 39.5l24 19 q3 0 9 -6.5t6 -10.5q0 -7 -30.5 -34t-83 -54.5t-97.5 -27.5h-1q-20 -36 -29 -54q10 2 25 2q36 0 58 -20t22 -47q0 -39 -33 -64t-82 -25q-22 0 -41 6t-28 12.5t-9 11.5q0 13 11 13q2 0 9.5 -3.5t20 -7t26.5 -3.5q66 0 66 46q0 17 -10.5 29.5t-33.5 12.5q-11 0 -23 -3t-13 -3 q-2 0 -6 2.5t-4 3.5q0 3 49 92q-61 8 -87.5 47t-26.5 92z" />
<glyph unicode="&#xe8;" horiz-adv-x="390" d="M208 575q0 34 37 34q24 0 29 -26l26 -126v-3q1 -2 1 -3q0 -5 -7 -5h-15q-6 0 -10 8l-57 107q-4 7 -4 14zM22 105q0 115 74 202t174 87q39 0 67.5 -15.5t28.5 -53.5q0 -44 -36 -79t-89 -55q-65 -24 -142 -24q-5 0 -5 -43q0 -86 93 -86q41 0 80.5 22t63 43.5t26.5 21.5 q6 0 11 -6t5 -11q0 -6 -29 -33t-84 -55t-109 -28q-56 0 -92.5 28.5t-36.5 84.5zM109 200q0 -4 7 -4q73 0 126 36t53 94q0 17 -13 27.5t-34 10.5q-80 0 -125 -120q-14 -35 -14 -44z" />
<glyph unicode="&#xe9;" horiz-adv-x="390" d="M252 451q0 1 3 7l61 123q13 26 35 26q15 0 24.5 -6.5t9.5 -17.5q0 -16 -10 -27l-91 -103q-5 -7 -10 -7h-15q-7 0 -7 5zM22 105q0 115 74 202t174 87q39 0 67.5 -15.5t28.5 -53.5q0 -44 -36 -79t-89 -55q-65 -24 -142 -24q-5 0 -5 -43q0 -86 93 -86q41 0 80.5 22t63 43.5 t26.5 21.5q6 0 11 -6t5 -11q0 -6 -29 -33t-84 -55t-109 -28q-56 0 -92.5 28.5t-36.5 84.5zM109 200q0 -4 7 -4q73 0 126 36t53 94q0 17 -13 27.5t-34 10.5q-80 0 -125 -120q-14 -35 -14 -44z" />
<glyph unicode="&#xea;" horiz-adv-x="390" d="M169 461l6 9l91 104q8 10 11 11.5t11 1.5h20q8 0 11 -2t8 -12l53 -103q4 -8 4 -9q0 -4 -10 -4h-12q-2 0 -9 7l-60 59q-4 4 -11 0l-81 -59q-9 -7 -11 -7h-15q-6 0 -6 4zM22 105q0 115 74 202t174 87q39 0 67.5 -15.5t28.5 -53.5q0 -44 -36 -79t-89 -55q-65 -24 -142 -24 q-5 0 -5 -43q0 -86 93 -86q41 0 80.5 22t63 43.5t26.5 21.5q6 0 11 -6t5 -11q0 -6 -29 -33t-84 -55t-109 -28q-56 0 -92.5 28.5t-36.5 84.5zM109 200q0 -4 7 -4q73 0 126 36t53 94q0 17 -13 27.5t-34 10.5q-80 0 -125 -120q-14 -35 -14 -44z" />
<glyph unicode="&#xeb;" horiz-adv-x="390" d="M169 535q0 21 12 35t32 14q22 0 34.5 -16t12.5 -35q0 -21 -12.5 -35t-31.5 -14q-22 0 -34.5 16t-12.5 35zM309 535q0 21 12 35t32 14q22 0 34.5 -16t12.5 -35q0 -21 -12.5 -35t-31.5 -14q-22 0 -34.5 16t-12.5 35zM22 105q0 115 74 202t174 87q39 0 67.5 -15.5 t28.5 -53.5q0 -44 -36 -79t-89 -55q-65 -24 -142 -24q-5 0 -5 -43q0 -86 93 -86q41 0 80.5 22t63 43.5t26.5 21.5q6 0 11 -6t5 -11q0 -6 -29 -33t-84 -55t-109 -28q-56 0 -92.5 28.5t-36.5 84.5zM109 200q0 -4 7 -4q73 0 126 36t53 94q0 17 -13 27.5t-34 10.5 q-80 0 -125 -120q-14 -35 -14 -44z" />
<glyph unicode="&#xec;" horiz-adv-x="270" d="M111 575q0 34 37 34q24 0 29 -26l26 -126l1 -3v-3q0 -5 -7 -5h-15q-6 0 -10 8l-57 107q-4 7 -4 14zM22 282q0 10 64.5 57t89.5 47q23 0 23 -25q0 -27 -32.5 -151t-32.5 -135q0 -17 10 -17t43.5 32t35.5 32q4 0 9.5 -5.5t5.5 -9.5q0 -14 -65.5 -65t-88.5 -51q-27 0 -27 21 q0 25 35.5 146t35.5 152q0 15 -9 15q-14 0 -46.5 -29.5t-35.5 -29.5q-5 0 -10 5.5t-5 10.5z" />
<glyph unicode="&#xed;" horiz-adv-x="270" d="M155 451q0 1 3 7l61 123q13 26 35 26q15 0 24.5 -6.5t9.5 -17.5q0 -16 -10 -27l-91 -103q-5 -7 -10 -7h-15q-7 0 -7 5zM22 282q0 10 64.5 57t89.5 47q23 0 23 -25q0 -27 -32.5 -151t-32.5 -135q0 -17 10 -17t43.5 32t35.5 32q4 0 9.5 -5.5t5.5 -9.5q0 -14 -65.5 -65 t-88.5 -51q-27 0 -27 21q0 25 35.5 146t35.5 152q0 15 -9 15q-14 0 -46.5 -29.5t-35.5 -29.5q-5 0 -10 5.5t-5 10.5z" />
<glyph unicode="&#xee;" horiz-adv-x="270" d="M72 461l6 9l91 104q8 10 11 11.5t11 1.5h20q8 0 11 -2t8 -12l53 -103q4 -8 4 -9q0 -4 -10 -4h-12q-2 0 -9 7l-60 59q-4 4 -11 0l-81 -59q-9 -7 -11 -7h-15q-6 0 -6 4zM22 282q0 10 64.5 57t89.5 47q23 0 23 -25q0 -27 -32.5 -151t-32.5 -135q0 -17 10 -17t43.5 32 t35.5 32q4 0 9.5 -5.5t5.5 -9.5q0 -14 -65.5 -65t-88.5 -51q-27 0 -27 21q0 25 35.5 146t35.5 152q0 15 -9 15q-14 0 -46.5 -29.5t-35.5 -29.5q-5 0 -10 5.5t-5 10.5z" />
<glyph unicode="&#xef;" horiz-adv-x="270" d="M79 535q0 21 12 35t32 14q22 0 34.5 -16t12.5 -35q0 -21 -12.5 -35t-31.5 -14q-22 0 -34.5 16t-12.5 35zM205 535q0 21 12 35t32 14q22 0 34.5 -16t12.5 -35q0 -21 -12.5 -35t-31.5 -14q-22 0 -34.5 16t-12.5 35zM22 282q0 10 64.5 57t89.5 47q23 0 23 -25 q0 -27 -32.5 -151t-32.5 -135q0 -17 10 -17t43.5 32t35.5 32q4 0 9.5 -5.5t5.5 -9.5q0 -14 -65.5 -65t-88.5 -51q-27 0 -27 21q0 25 35.5 146t35.5 152q0 15 -9 15q-14 0 -46.5 -29.5t-35.5 -29.5q-5 0 -10 5.5t-5 10.5z" />
<glyph unicode="&#xf0;" horiz-adv-x="411" d="M22 138q0 111 65.5 185.5t166.5 74.5q26 0 57 -14q-14 65 -50 128q-4 7 -12 4q-105 -29 -108 -29t-9.5 11.5t-6.5 15.5q0 1 110 30q5 1 5.5 2t-1.5 3q-1 2 -2 3q-40 61 -88 107q-13 13 2 13l44 1q15 0 98 -109q3 -4 9 -2q99 26 101 26q3 0 9 -11t6 -15q0 -1 -19.5 -6 l-47 -12t-32.5 -8l-2 -1q-4 -1 -2 -4q1 -1 1 -2q73 -125 73 -264q0 -117 -64 -196.5t-162 -79.5q-66 0 -103.5 43.5t-37.5 105.5zM90 146q0 -24 1.5 -39.5t7.5 -39t23 -36t43 -12.5q44 0 81.5 47t56 105.5t18.5 106.5q0 93 -78 93q-55 0 -104 -77.5t-49 -147.5z" />
<glyph unicode="&#xf1;" horiz-adv-x="515" d="M241 494q0 9 11 27q15 25 33.5 39.5t32.5 14.5q17 0 43.5 -18t36.5 -18q22 0 37 31l2 4q2 5 9 5h13q1 0 1 -2q0 -7 -10 -30q-30 -57 -70 -57q-19 0 -42.5 17.5t-37.5 17.5q-20 0 -35 -27q-3 -8 -10 -8h-11q-3 0 -3 4zM12 287q0 4 30.5 28.5t74 49t70.5 24.5q9 0 16.5 -6 t7.5 -18q0 -13 -2.5 -31.5t-5 -33.5t-9 -40.5t-9.5 -38.5t-11.5 -43t-10.5 -39q70 121 128.5 185.5t113.5 64.5q54 0 54 -47q0 -30 -38.5 -146t-38.5 -126q0 -17 16 -17q12 0 34 19t39 38l17 19q2 0 8.5 -6.5t6.5 -9.5q0 -6 -24 -33t-64.5 -54.5t-74.5 -27.5 q-16 0 -25.5 12.5t-9.5 31.5q0 29 40 136t40 137q0 26 -19 26q-24 0 -77 -66.5t-99 -140.5q-22 -35 -44 -111q0 -1 -1 -5t-2.5 -7t-3 -7t-4.5 -6.5t-7 -2.5q-40 -4 -48 -4q-10 0 -8 14q60 249 60 311q0 15 -10 15t-32 -16t-40.5 -32t-19.5 -16q-5 0 -11.5 6t-6.5 14z" />
<glyph unicode="&#xf2;" horiz-adv-x="419" d="M215 575q0 34 37 34q24 0 29 -26l26 -126l1 -3v-3q0 -5 -7 -5h-15q-6 0 -10 8l-57 107q-4 7 -4 14zM22 138q0 111 66.5 186.5t167.5 75.5q38 0 67 -16t44.5 -41.5t22.5 -52t7 -52.5q0 -95 -69 -172t-163 -77q-68 0 -105.5 43.5t-37.5 105.5zM90 146q0 -127 77 -127 q44 0 83 46.5t58.5 105.5t19.5 107q0 35 -18.5 64t-64.5 29q-55 0 -105 -78t-50 -147z" />
<glyph unicode="&#xf3;" horiz-adv-x="419" d="M259 451q0 1 3 7l61 123q13 26 35 26q15 0 24.5 -6.5t9.5 -17.5q0 -16 -10 -27l-91 -103q-5 -7 -10 -7h-15q-7 0 -7 5zM22 138q0 111 66.5 186.5t167.5 75.5q38 0 67 -16t44.5 -41.5t22.5 -52t7 -52.5q0 -95 -69 -172t-163 -77q-68 0 -105.5 43.5t-37.5 105.5zM90 146 q0 -127 77 -127q44 0 83 46.5t58.5 105.5t19.5 107q0 35 -18.5 64t-64.5 29q-55 0 -105 -78t-50 -147z" />
<glyph unicode="&#xf4;" horiz-adv-x="419" d="M176 461l6 9l91 104q8 10 11 11.5t11 1.5h20q8 0 11 -2t8 -12l53 -103q4 -8 4 -9q0 -4 -10 -4h-12q-2 0 -9 7l-60 59q-4 4 -11 0l-81 -59q-9 -7 -11 -7h-15q-6 0 -6 4zM22 138q0 111 66.5 186.5t167.5 75.5q38 0 67 -16t44.5 -41.5t22.5 -52t7 -52.5q0 -95 -69 -172 t-163 -77q-68 0 -105.5 43.5t-37.5 105.5zM90 146q0 -127 77 -127q44 0 83 46.5t58.5 105.5t19.5 107q0 35 -18.5 64t-64.5 29q-55 0 -105 -78t-50 -147z" />
<glyph unicode="&#xf5;" horiz-adv-x="419" d="M179 494q0 9 11 27q15 25 33.5 39.5t32.5 14.5q17 0 43.5 -18t36.5 -18q22 0 37 31l2 4q2 5 9 5h13q1 0 1 -2q0 -7 -10 -30q-30 -57 -70 -57q-19 0 -42.5 17.5t-37.5 17.5q-20 0 -35 -27q-3 -8 -10 -8h-11q-3 0 -3 4zM22 138q0 111 66.5 186.5t167.5 75.5q38 0 67 -16 t44.5 -41.5t22.5 -52t7 -52.5q0 -95 -69 -172t-163 -77q-68 0 -105.5 43.5t-37.5 105.5zM90 146q0 -127 77 -127q44 0 83 46.5t58.5 105.5t19.5 107q0 35 -18.5 64t-64.5 29q-55 0 -105 -78t-50 -147z" />
<glyph unicode="&#xf6;" horiz-adv-x="419" d="M176 535q0 21 12 35t32 14q22 0 34.5 -16t12.5 -35q0 -21 -12.5 -35t-31.5 -14q-22 0 -34.5 16t-12.5 35zM316 535q0 21 12 35t32 14q22 0 34.5 -16t12.5 -35q0 -21 -12.5 -35t-31.5 -14q-22 0 -34.5 16t-12.5 35zM22 138q0 111 66.5 186.5t167.5 75.5q38 0 67 -16 t44.5 -41.5t22.5 -52t7 -52.5q0 -95 -69 -172t-163 -77q-68 0 -105.5 43.5t-37.5 105.5zM90 146q0 -127 77 -127q44 0 83 46.5t58.5 105.5t19.5 107q0 35 -18.5 64t-64.5 29q-55 0 -105 -78t-50 -147z" />
<glyph unicode="&#xf7;" horiz-adv-x="527" d="M28 212q0 12 3.5 17.5t17.5 5.5h431q9 0 13 -3.5t5 -8t1 -12.5q0 -15 -4 -20.5t-20 -5.5h-427q-14 0 -17 6t-3 21zM209 320q0 18 13.5 31t31.5 13t30.5 -12.5t12.5 -30.5t-13 -31t-31 -13t-31 12.5t-13 30.5zM214 101q0 18 13 30.5t31 12.5t31 -13t13 -31t-12.5 -30.5 t-30.5 -12.5t-31.5 13t-13.5 31z" />
<glyph unicode="&#xf8;" horiz-adv-x="419" d="M22 138q0 111 66.5 186.5t167.5 75.5q15 0 35 -4q10 -3 16 8l28 50q5 8 21 -3q10 -6 7 -11l-27 -46q-5 -10 -5.5 -10.5t6.5 -8.5q30 -24 45 -62t15 -75q0 -95 -69 -172t-163 -77q-28 0 -49 7q-5 2 -6.5 2t-3 -1.5t-3.5 -5.5l-31 -54q-3 -3 -5 -3q-5 0 -13 5.5t-8 9.5 q0 3 2 5l28 49q4 8 4 8.5t-5 6.5q-53 42 -53 120zM90 146q0 -50 11 -79q2 -7 3.5 -8.5t3 -0.5t4.5 7l166 290q4 6 3.5 8t-7.5 4q-16 4 -29 4q-55 0 -105 -78t-50 -147zM132 42q-5 -7 -4.5 -10t8.5 -7q14 -6 31 -6q44 0 83 46.5t58.5 105.5t19.5 107q0 35 -14 59q-5 10 -11 0 z" />
<glyph unicode="&#xf9;" horiz-adv-x="521" d="M243 575q0 34 37 34q24 0 29 -26l26 -126l1 -3v-3q0 -5 -7 -5h-15q-6 0 -10 8l-57 107q-4 7 -4 14zM12 256q0 2 7 12.5t20 27.5l26 33q16 19 27.5 30.5t32.5 23t43 11.5q23 0 40.5 -10t17.5 -29q0 -14 -32 -133.5t-32 -144.5q0 -20 25 -20q32 0 86 77q70 101 100 198 q7 22 12 54q2 6 7 7q26 6 52 6q9 0 9 -12q0 -6 -27.5 -146.5t-27.5 -151.5q0 -22 16 -22q10 0 30 23t36 45.5t17 22.5q2 0 7.5 -3.5t5.5 -5.5q0 -7 -22.5 -43t-58.5 -72.5t-64 -36.5q-15 0 -25.5 8.5t-10.5 21.5q0 17 8.5 58.5t20.5 94.5t17 80q-34 -70 -60 -109 q-105 -159 -176 -159q-58 0 -58 45q0 12 30.5 126.5t30.5 151.5q0 26 -17 26q-11 0 -34 -24.5t-41.5 -49.5t-19.5 -25q-4 0 -11 5t-7 9z" />
<glyph unicode="&#xfa;" horiz-adv-x="521" d="M287 451q0 1 3 7l61 123q13 26 35 26q15 0 24.5 -6.5t9.5 -17.5q0 -16 -10 -27l-91 -103q-5 -7 -10 -7h-15q-7 0 -7 5zM12 256q0 2 7 12.5t20 27.5l26 33q16 19 27.5 30.5t32.5 23t43 11.5q23 0 40.5 -10t17.5 -29q0 -14 -32 -133.5t-32 -144.5q0 -20 25 -20q32 0 86 77 q70 101 100 198q7 22 12 54q2 6 7 7q26 6 52 6q9 0 9 -12q0 -6 -27.5 -146.5t-27.5 -151.5q0 -22 16 -22q10 0 30 23t36 45.5t17 22.5q2 0 7.5 -3.5t5.5 -5.5q0 -7 -22.5 -43t-58.5 -72.5t-64 -36.5q-15 0 -25.5 8.5t-10.5 21.5q0 17 8.5 58.5t20.5 94.5t17 80 q-34 -70 -60 -109q-105 -159 -176 -159q-58 0 -58 45q0 12 30.5 126.5t30.5 151.5q0 26 -17 26q-11 0 -34 -24.5t-41.5 -49.5t-19.5 -25q-4 0 -11 5t-7 9z" />
<glyph unicode="&#xfb;" horiz-adv-x="521" d="M204 461l6 9l91 104q8 10 11 11.5t11 1.5h20q8 0 11 -2t8 -12l53 -103q4 -8 4 -9q0 -4 -10 -4h-12q-2 0 -9 7l-60 59q-4 4 -11 0l-81 -59q-9 -7 -11 -7h-15q-6 0 -6 4zM12 256q0 2 7 12.5t20 27.5l26 33q16 19 27.5 30.5t32.5 23t43 11.5q23 0 40.5 -10t17.5 -29 q0 -14 -32 -133.5t-32 -144.5q0 -20 25 -20q32 0 86 77q70 101 100 198q7 22 12 54q2 6 7 7q26 6 52 6q9 0 9 -12q0 -6 -27.5 -146.5t-27.5 -151.5q0 -22 16 -22q10 0 30 23t36 45.5t17 22.5q2 0 7.5 -3.5t5.5 -5.5q0 -7 -22.5 -43t-58.5 -72.5t-64 -36.5q-15 0 -25.5 8.5 t-10.5 21.5q0 17 8.5 58.5t20.5 94.5t17 80q-34 -70 -60 -109q-105 -159 -176 -159q-58 0 -58 45q0 12 30.5 126.5t30.5 151.5q0 26 -17 26q-11 0 -34 -24.5t-41.5 -49.5t-19.5 -25q-4 0 -11 5t-7 9z" />
<glyph unicode="&#xfc;" horiz-adv-x="521" d="M204 535q0 21 12 35t32 14q22 0 34.5 -16t12.5 -35q0 -21 -12.5 -35t-31.5 -14q-22 0 -34.5 16t-12.5 35zM344 535q0 21 12 35t32 14q22 0 34.5 -16t12.5 -35q0 -21 -12.5 -35t-31.5 -14q-22 0 -34.5 16t-12.5 35zM12 256q0 2 7 12.5t20 27.5l26 33q16 19 27.5 30.5 t32.5 23t43 11.5q23 0 40.5 -10t17.5 -29q0 -14 -32 -133.5t-32 -144.5q0 -20 25 -20q32 0 86 77q70 101 100 198q7 22 12 54q2 6 7 7q26 6 52 6q9 0 9 -12q0 -6 -27.5 -146.5t-27.5 -151.5q0 -22 16 -22q10 0 30 23t36 45.5t17 22.5q2 0 7.5 -3.5t5.5 -5.5q0 -7 -22.5 -43 t-58.5 -72.5t-64 -36.5q-15 0 -25.5 8.5t-10.5 21.5q0 17 8.5 58.5t20.5 94.5t17 80q-34 -70 -60 -109q-105 -159 -176 -159q-58 0 -58 45q0 12 30.5 126.5t30.5 151.5q0 26 -17 26q-11 0 -34 -24.5t-41.5 -49.5t-19.5 -25q-4 0 -11 5t-7 9z" />
<glyph unicode="&#xfd;" horiz-adv-x="422" d="M248 451q0 1 3 7l61 123q13 26 35 26q15 0 24.5 -6.5t9.5 -17.5q0 -16 -10 -27l-91 -103q-5 -7 -10 -7h-15q-7 0 -7 5zM-16 -262q0 15 9 25.5t16.5 14t27.5 9t24 7.5q30 11 51 47q37 69 48 105t11 71q0 32 -1 63.5t-3.5 69t-7.5 69t-12 58.5t-18 42t-24 15 q-17 0 -36 -15.5t-31 -31t-13 -15.5q-3 0 -11 4t-8 8q0 5 17 28.5t49 48t63 24.5t50 -21t28 -65t12.5 -91t6.5 -121q1 -22 1 -33l27 50l31.5 58.5t26 54.5t22.5 60q12 37 17 100q2 20 14 20t25.5 -7.5t13.5 -20.5q0 -5 -2 -17q-12 -77 -148 -312l-29 -49l-10 -19 q-82 -157 -101 -190q-11 -21 -41 -39q-58 -35 -75 -35q-9 0 -14.5 10t-5.5 20z" />
<glyph unicode="&#xfe;" horiz-adv-x="430" d="M-47 -258q0 19 4 23t18 4q3 0 9 -0.5t8 -0.5q14 0 18 20q26 137 43 243l35 208q44 251 59 373q2 8 -1 11.5t-11 1.5q-73 -19 -74 -19q-7 0 -7 10q0 8 1 13q1 13 12 16l77 18.5l55.5 14t20.5 4.5q10 0 10 -12q0 -8 -12.5 -82l-34.5 -196t-44 -230q38 89 88 165 q36 58 102 58q46 0 62.5 -25t16.5 -69q0 -111 -75 -206t-153 -95q-11 0 -32 3.5t-24 3.5q-9 0 -10 -5l-32 -209q-3 -20 11 -21q11 -1 28 -3t23 -2q26 -3 26 -14q0 -27 -13 -27q-5 0 -65.5 7.5t-118.5 7.5q-20 0 -20 11zM128 51q0 -29 61 -29q49 0 100 88t51 168q0 61 -41 61 q-14 0 -28 -9.5t-27.5 -29t-22 -33.5t-22 -40.5l-16.5 -32.5q-55 -105 -55 -143z" />
<glyph unicode="&#xff;" horiz-adv-x="422" d="M165 535q0 21 12 35t32 14q22 0 34.5 -16t12.5 -35q0 -21 -12.5 -35t-31.5 -14q-22 0 -34.5 16t-12.5 35zM305 535q0 21 12 35t32 14q22 0 34.5 -16t12.5 -35q0 -21 -12.5 -35t-31.5 -14q-22 0 -34.5 16t-12.5 35zM-16 -262q0 15 9 25.5t16.5 14t27.5 9t24 7.5 q30 11 51 47q37 69 48 105t11 71q0 32 -1 63.5t-3.5 69t-7.5 69t-12 58.5t-18 42t-24 15q-17 0 -36 -15.5t-31 -31t-13 -15.5q-3 0 -11 4t-8 8q0 5 17 28.5t49 48t63 24.5t50 -21t28 -65t12.5 -91t6.5 -121q1 -22 1 -33l27 50l31.5 58.5t26 54.5t22.5 60q12 37 17 100 q2 20 14 20t25.5 -7.5t13.5 -20.5q0 -5 -2 -17q-12 -77 -148 -312l-29 -49l-10 -19q-82 -157 -101 -190q-11 -21 -41 -39q-58 -35 -75 -35q-9 0 -14.5 10t-5.5 20z" />
<glyph unicode="&#x100;" horiz-adv-x="688" d="M398 783q0 10 2 26q1 7 2.5 9t7.5 2h188q6 0 6 -6q0 -11 -2 -27q-1 -11 -9 -11h-185q-10 0 -10 7zM17 15q0 10 4 12.5t17 2.5h32q8 9 77.5 129l153 261t117.5 192q4 6 22 25t28 37q8 16 18 16q14 0 16 -21q104 -619 114 -639h41q9 0 11.5 -3.5t2.5 -12.5q0 -12 -2.5 -16 t-11.5 -4q-6 0 -39.5 1.5t-50.5 1.5q-16 0 -58.5 -1.5t-53.5 -1.5q-10 0 -13 4t-3 17q0 10 4 12.5t17 2.5h56v8q0 24 -13.5 120.5l-14.5 103.5q-2 12 -3 14t-8 2h-193q-9 0 -12 -1.5t-8 -11.5q-116 -217 -121 -235h66q9 0 11.5 -3.5t2.5 -12.5q0 -12 -2.5 -16t-11.5 -4 t-43 1.5t-59 1.5q-17 0 -43.5 -1.5t-30.5 -1.5q-10 0 -13 4t-3 17zM287 311q0 -3 15 -3h167q10 0 10 2q0 10 -21 136.5t-23 126.5l-31 -55l-68.5 -119.5t-41.5 -73.5q-7 -12 -7 -14z" />
<glyph unicode="&#x101;" horiz-adv-x="433" d="M181 515q0 8 2 24q1 11 12 11h181q11 0 11 -9q0 -8 -2 -24q-1 -11 -11 -11h-181q-12 0 -12 9zM22 59q0 46 15 101t42 107.5t73 87.5t100 35q10 0 28.5 -9t27.5 -22l19 -26q3 0 13 41q3 13 47 13q16 0 16 -8q0 -5 -40.5 -148t-40.5 -168q0 -17 11 -17q7 0 34 28t30 28 q5 0 9.5 -5.5t4.5 -11.5q0 -4 -22.5 -28t-55 -47.5t-52.5 -23.5q-30 0 -30 27q0 33 48 187q-55 -92 -111 -150q-24 -25 -33.5 -34t-28 -19t-36.5 -10q-32 0 -50 20.5t-18 51.5zM95 96q0 -50 25 -50q28 0 80.5 60t95.5 131q15 25 15 52q0 24 -28.5 39.5t-55.5 15.5 q-32 0 -64 -45.5t-50 -103t-18 -99.5z" />
<glyph unicode="&#x102;" horiz-adv-x="688" d="M412 810q0 31 5 31h15q4 0 4 -5q0 -30 14.5 -43.5t50.5 -13.5q51 0 75 32q4 6 7 13.5t4.5 12t2.5 4.5h20v-3q-6 -47 -38 -79.5t-79 -32.5q-42 0 -61.5 24t-19.5 60zM17 15q0 10 4 12.5t17 2.5h32q8 9 77.5 129l153 261t117.5 192q4 6 22 25t28 37q8 16 18 16q14 0 16 -21 q104 -619 114 -639h41q9 0 11.5 -3.5t2.5 -12.5q0 -12 -2.5 -16t-11.5 -4q-6 0 -39.5 1.5t-50.5 1.5q-16 0 -58.5 -1.5t-53.5 -1.5q-10 0 -13 4t-3 17q0 10 4 12.5t17 2.5h56v8q0 24 -13.5 120.5l-14.5 103.5q-2 12 -3 14t-8 2h-193q-9 0 -12 -1.5t-8 -11.5 q-116 -217 -121 -235h66q9 0 11.5 -3.5t2.5 -12.5q0 -12 -2.5 -16t-11.5 -4t-43 1.5t-59 1.5q-17 0 -43.5 -1.5t-30.5 -1.5q-10 0 -13 4t-3 17zM287 311q0 -3 15 -3h167q10 0 10 2q0 10 -21 136.5t-23 126.5l-31 -55l-68.5 -119.5t-41.5 -73.5q-7 -12 -7 -14z" />
<glyph unicode="&#x103;" horiz-adv-x="433" d="M197 552q0 35 7 35h13q4 0 4 -6q0 -8 2 -20q9 -47 63 -47q50 0 75 39q3 5 6 11.5t4.5 11t3.5 8t4 3.5h11q5 0 5 -3q0 -1 -0.5 -3.5t-0.5 -3.5q-8 -51 -40 -86t-76 -35q-42 0 -61.5 27.5t-19.5 68.5zM22 59q0 46 15 101t42 107.5t73 87.5t100 35q10 0 28.5 -9t27.5 -22 l19 -26q3 0 13 41q3 13 47 13q16 0 16 -8q0 -5 -40.5 -148t-40.5 -168q0 -17 11 -17q7 0 34 28t30 28q5 0 9.5 -5.5t4.5 -11.5q0 -4 -22.5 -28t-55 -47.5t-52.5 -23.5q-30 0 -30 27q0 33 48 187q-55 -92 -111 -150q-24 -25 -33.5 -34t-28 -19t-36.5 -10q-32 0 -50 20.5 t-18 51.5zM95 96q0 -50 25 -50q28 0 80.5 60t95.5 131q15 25 15 52q0 24 -28.5 39.5t-55.5 15.5q-32 0 -64 -45.5t-50 -103t-18 -99.5z" />
<glyph unicode="&#x104;" horiz-adv-x="688" d="M17 15q0 10 4 12.5t17 2.5h32q8 9 77.5 129l153 261t117.5 192q4 6 22 25t28 37q8 16 18 16q14 0 16 -21q104 -619 114 -639h41q9 0 11.5 -3.5t2.5 -12.5q0 -12 -2.5 -16t-11.5 -4q-6 0 -18.5 0.5t-30.5 1.5t-29 1q-105 -96 -105 -174q0 -23 14 -42.5t32 -19.5 q20 0 41 11t35 22t16 11q4 0 8 -6.5t4 -9.5q0 -5 -19.5 -22t-56.5 -34.5t-73 -17.5q-32 0 -53 27t-21 60q0 31 24.5 69t46.5 60.5t68 65.5q-11 0 -30 -1t-33.5 -1.5t-21.5 -0.5q-10 0 -13 4t-3 17q0 10 4 12.5t17 2.5h56v8q0 24 -13.5 120.5l-14.5 103.5q-2 12 -3 14t-8 2 h-193q-9 0 -12 -1.5t-8 -11.5q-116 -217 -121 -235h66q9 0 11.5 -3.5t2.5 -12.5q0 -12 -2.5 -16t-11.5 -4t-43 1.5t-59 1.5q-17 0 -43.5 -1.5t-30.5 -1.5q-10 0 -13 4t-3 17zM287 311q0 -3 15 -3h167q10 0 10 2q0 10 -21 136.5t-23 126.5l-31 -55l-68.5 -119.5t-41.5 -73.5 q-7 -12 -7 -14z" />
<glyph unicode="&#x105;" horiz-adv-x="433" d="M22 59q0 46 15 101t42 107.5t73 87.5t100 35q36 0 58 -31q3 -4 7 -11t6.5 -11t3.5 -4q3 0 13 41q3 13 47 13q16 0 16 -8q0 -5 -40.5 -148t-40.5 -168q0 -17 11 -17q7 0 34 28t30 28q5 0 9.5 -5.5t4.5 -11.5q0 -5 -26 -31q-18 -18 -50 -43t-45 -38q-80 -82 -80 -150 q0 -23 14 -42.5t32 -19.5q20 0 41 11t35 22t16 11q4 0 8 -6.5t4 -9.5q0 -5 -19.5 -22t-56.5 -34.5t-73 -17.5q-32 0 -53 27t-21 60q0 22 10 45t34.5 51.5l37.5 42.5t48 47q-16 6 -16 25q0 33 48 187q-55 -92 -111 -150q-24 -25 -33.5 -34t-28 -19t-36.5 -10q-32 0 -50 20.5 t-18 51.5zM97 96q0 -50 23 -50q24 0 80 62.5t96 128.5q15 25 15 52q0 24 -26.5 39.5t-52.5 15.5q-30 0 -62.5 -45.5t-52.5 -103.5t-20 -99z" />
<glyph unicode="&#x106;" horiz-adv-x="686" d="M386 731q0 4 3 7l67 86q20 26 40 26q29 0 29 -24q0 -20 -19 -33l-83 -60l-11 -7h-19q-7 0 -7 5zM32 291q0 162 109 272.5t257 110.5q61 0 117.5 -24t92.5 -60q11 38 14 38q9 0 20.5 -3.5t11.5 -10.5q0 -3 -7.5 -41l-17 -85t-10.5 -54q-2 -7 -16 -7q-10 0 -18 4.5t-8 9.5 q0 2 11 46.5t12 50.5q-6 10 -32.5 32t-76 46t-94.5 24q-74 0 -137 -55.5t-97.5 -136t-34.5 -160.5q0 -122 68.5 -193.5t170.5 -71.5q46 0 90 16.5t66 33t25 24.5q10 29 25 84q5 16 27 11q19 -4 19 -14q0 -7 -33 -117q-6 -19 -83 -48.5t-143 -29.5q-64 0 -120.5 16.5t-104 51 t-75.5 96.5t-28 144z" />
<glyph unicode="&#x107;" horiz-adv-x="402" d="M247 451q0 1 3 7l61 123q13 26 35 26q15 0 24.5 -6.5t9.5 -17.5q0 -16 -10 -27l-91 -103q-5 -7 -10 -7h-15q-7 0 -7 5zM22 128q0 116 72 191t152 75q59 0 88 -32q23 -25 23 -58q0 -22 -13 -37t-33 -15q-25 0 -25 40q0 4 0.5 12t0.5 12q0 19 -11 32t-33 13q-27 0 -55 -18 t-48 -48q-47 -69 -47 -151q0 -12 1 -21t6.5 -25.5t15 -27t30.5 -19t50 -8.5q38 0 76.5 19.5t61.5 39.5l24 19q3 0 9 -6.5t6 -10.5q0 -7 -30.5 -34t-83 -54.5t-97.5 -27.5q-75 0 -107.5 41t-32.5 99z" />
<glyph unicode="&#x108;" horiz-adv-x="686" d="M291 730q0 2 6 8l91 92q12 12 22 12h20q12 0 19 -12l53 -92q3 -4 3 -8t-9 -4h-10q-4 0 -11 7l-63 52q-1 1 -4 0l-85 -53q-10 -6 -13 -6h-13q-6 0 -6 4zM32 291q0 162 109 272.5t257 110.5q61 0 117.5 -24t92.5 -60q11 38 14 38q9 0 20.5 -3.5t11.5 -10.5q0 -3 -7.5 -41 l-17 -85t-10.5 -54q-2 -7 -16 -7q-10 0 -18 4.5t-8 9.5q0 2 11 46.5t12 50.5q-6 10 -32.5 32t-76 46t-94.5 24q-74 0 -137 -55.5t-97.5 -136t-34.5 -160.5q0 -122 68.5 -193.5t170.5 -71.5q46 0 90 16.5t66 33t25 24.5q10 29 25 84q5 16 27 11q19 -4 19 -14q0 -7 -33 -117 q-6 -19 -83 -48.5t-143 -29.5q-64 0 -120.5 16.5t-104 51t-75.5 96.5t-28 144z" />
<glyph unicode="&#x109;" horiz-adv-x="402" d="M164 461l6 9l91 104q8 10 11 11.5t11 1.5h20q8 0 11 -2t8 -12l53 -103q4 -8 4 -9q0 -4 -10 -4h-12q-2 0 -9 7l-60 59q-4 4 -11 0l-81 -59q-9 -7 -11 -7h-15q-6 0 -6 4zM22 128q0 116 72 191t152 75q59 0 88 -32q23 -25 23 -58q0 -22 -13 -37t-33 -15q-25 0 -25 40 q0 4 0.5 12t0.5 12q0 19 -11 32t-33 13q-27 0 -55 -18t-48 -48q-47 -69 -47 -151q0 -12 1 -21t6.5 -25.5t15 -27t30.5 -19t50 -8.5q38 0 76.5 19.5t61.5 39.5l24 19q3 0 9 -6.5t6 -10.5q0 -7 -30.5 -34t-83 -54.5t-97.5 -27.5q-75 0 -107.5 41t-32.5 99z" />
<glyph unicode="&#x10a;" horiz-adv-x="686" d="M363 790q0 21 12 35t32 14q22 0 34.5 -16t12.5 -35q0 -21 -12.5 -35t-31.5 -14q-22 0 -34.5 16t-12.5 35zM32 291q0 162 109 272.5t257 110.5q61 0 117.5 -24t92.5 -60q11 38 14 38q9 0 20.5 -3.5t11.5 -10.5q0 -3 -7.5 -41l-17 -85t-10.5 -54q-2 -7 -16 -7 q-10 0 -18 4.5t-8 9.5q0 2 11 46.5t12 50.5q-6 10 -32.5 32t-76 46t-94.5 24q-74 0 -137 -55.5t-97.5 -136t-34.5 -160.5q0 -122 68.5 -193.5t170.5 -71.5q46 0 90 16.5t66 33t25 24.5q10 29 25 84q5 16 27 11q19 -4 19 -14q0 -7 -33 -117q-6 -19 -83 -48.5t-143 -29.5 q-64 0 -120.5 16.5t-104 51t-75.5 96.5t-28 144z" />
<glyph unicode="&#x10b;" horiz-adv-x="402" d="M233 540q0 21 12 35t32 14q22 0 34.5 -16t12.5 -35q0 -21 -12.5 -35t-31.5 -14q-22 0 -34.5 16t-12.5 35zM22 128q0 116 72 191t152 75q59 0 88 -32q23 -25 23 -58q0 -22 -13 -37t-33 -15q-25 0 -25 40q0 4 0.5 12t0.5 12q0 19 -11 32t-33 13q-27 0 -55 -18t-48 -48 q-47 -69 -47 -151q0 -12 1 -21t6.5 -25.5t15 -27t30.5 -19t50 -8.5q38 0 76.5 19.5t61.5 39.5l24 19q3 0 9 -6.5t6 -10.5q0 -7 -30.5 -34t-83 -54.5t-97.5 -27.5q-75 0 -107.5 41t-32.5 99z" />
<glyph unicode="&#x10c;" horiz-adv-x="686" d="M315 838q0 4 9 4h10q4 0 11 -7l63 -52q2 -2 4 0l85 53q10 6 13 6h13q6 0 6 -4q0 -2 -6 -8l-91 -92q-12 -12 -22 -12h-20q-12 0 -19 12l-53 92q-3 4 -3 8zM32 291q0 162 109 272.5t257 110.5q61 0 117.5 -24t92.5 -60q11 38 14 38q9 0 20.5 -3.5t11.5 -10.5q0 -3 -7.5 -41 l-17 -85t-10.5 -54q-2 -7 -16 -7q-10 0 -18 4.5t-8 9.5q0 2 11 46.5t12 50.5q-6 10 -32.5 32t-76 46t-94.5 24q-74 0 -137 -55.5t-97.5 -136t-34.5 -160.5q0 -122 68.5 -193.5t170.5 -71.5q46 0 90 16.5t66 33t25 24.5q10 29 25 84q5 16 27 11q19 -4 19 -14q0 -7 -33 -117 q-6 -19 -83 -48.5t-143 -29.5q-64 0 -120.5 16.5t-104 51t-75.5 96.5t-28 144z" />
<glyph unicode="&#x10d;" horiz-adv-x="402" d="M184 583q0 4 10 4h12q2 0 9 -7l60 -59q4 -4 11 0l81 59q9 7 11 7h15q6 0 6 -4l-6 -9l-91 -104q-8 -10 -11 -11.5t-11 -1.5h-20q-8 0 -11 2t-8 12l-53 103q-4 8 -4 9zM22 128q0 116 72 191t152 75q59 0 88 -32q23 -25 23 -58q0 -22 -13 -37t-33 -15q-25 0 -25 40 q0 4 0.5 12t0.5 12q0 19 -11 32t-33 13q-27 0 -55 -18t-48 -48q-47 -69 -47 -151q0 -12 1 -21t6.5 -25.5t15 -27t30.5 -19t50 -8.5q38 0 76.5 19.5t61.5 39.5l24 19q3 0 9 -6.5t6 -10.5q0 -7 -30.5 -34t-83 -54.5t-97.5 -27.5q-75 0 -107.5 41t-32.5 99z" />
<glyph unicode="&#x10e;" horiz-adv-x="742" d="M263 838q0 4 9 4h10q4 0 11 -7l63 -52q2 -2 4 0l85 53q10 6 13 6h13q6 0 6 -4q0 -2 -6 -8l-91 -92q-12 -12 -22 -12h-20q-12 0 -19 12l-53 92q-3 4 -3 8zM16 10q0 12 4.5 15t15.5 3h41q7 24 41 264t46 333l-2 8l-69 -2q-16 0 -16 15q0 7 1 10.5t4.5 6t10.5 2.5 q1 0 24 -0.5t51.5 -0.5h43.5q33 0 75.5 1t56.5 1q166 0 263.5 -80.5t97.5 -250.5q0 -162 -104.5 -252t-259.5 -90q-32 0 -108 2t-106 2q-16 0 -55 -2t-42 -2q-9 0 -11.5 3.5t-2.5 13.5zM174 46q0 -12 5 -15q4 -3 57 -3q70 0 127.5 14t95.5 36t67 53t44.5 61t25 64.5 t12.5 59.5t3 49q0 122 -73.5 194.5t-221.5 72.5q-60 0 -60 -4l-48 -321.5t-34 -260.5z" />
<glyph unicode="&#x10f;" horiz-adv-x="473" d="M475 495q0 4 6 26.5l15 58l13 50.5q9 34 37 34q15 0 22 -8t7 -18t-13 -36l-55 -98q-5 -14 -12 -14h-15q-5 0 -5 5zM22 74q0 35 14.5 84.5t40 101t69 87t94.5 35.5q14 0 26.5 -1.5t22 -4.5t15.5 -5.5t12 -6t7 -3.5q5 -2 7 -3t4.5 -1t4 2.5t2.5 7.5q6 31 15 91l15.5 107 t6.5 48q2 8 0 11.5t-5 2.5t-4 -1l-81 -21q-7 0 -7 11q0 8 1 13q1 12 10 15l76.5 18.5l56 14.5t21.5 5q14 0 14 -18q0 -4 -50 -289t-50 -315q0 -12 10 -12q12 0 34 18.5t39.5 37t18.5 18.5q4 0 9 -4.5t5 -7.5q0 -5 -22 -33t-62.5 -57.5t-77.5 -29.5q-13 0 -21.5 10.5 t-8.5 27.5q0 34 36 188q-43 -73 -79 -120q-20 -27 -30.5 -39.5t-29 -30.5t-37.5 -25.5t-42 -7.5q-10 0 -20 2t-25.5 9t-25 25t-9.5 45zM94 102q0 -28 10 -40.5t33 -12.5q42 0 136 139q53 77 53 116q0 12 -28 31t-58 19q-39 0 -74.5 -48.5t-53.5 -106t-18 -97.5z" />
<glyph unicode="&#x110;" horiz-adv-x="742" d="M16 10q0 12 4.5 15t15.5 3h41q9 26 45 281q1 7 -0.5 8t-7.5 1h-65q-5 0 -5 13v6q0 11 5 11h68q7 0 8.5 1t2.5 8q1 5 10.5 73.5l17.5 131t8 70.5v1l-71 -2q-16 0 -16 15q0 7 1 10.5t4.5 6t10.5 2.5q1 0 24 -0.5t51.5 -0.5h43.5q33 0 75.5 1t56.5 1q166 0 263.5 -80.5 t97.5 -250.5q0 -162 -104.5 -252t-259.5 -90q-32 0 -108 2t-106 2q-16 0 -55 -2t-42 -2q-9 0 -11.5 3.5t-2.5 13.5zM174 46q0 -12 5 -15q4 -3 57 -3q70 0 127.5 14t95.5 36t67 53t44.5 61t25 64.5t12.5 59.5t3 49q0 122 -73.5 194.5t-221.5 72.5q-59 0 -60 -4 q-1 -2 -11 -68.5l-20 -134t-10 -68.5q-1 -9 7 -9h196q4 0 4 -15t-4 -15h-200q-9 0 -10 -10q-34 -234 -34 -262z" />
<glyph unicode="&#x111;" horiz-adv-x="473" d="M22 74q0 35 14.5 84.5t40 101t69 87t94.5 35.5q14 0 26.5 -1.5t22 -4.5t15.5 -5.5t12 -6t7 -3.5q5 -2 7 -3t4.5 -1t4 2.5t2.5 7.5q8 43 18 108q0 6 -4 6h-147q-5 0 -5 16q0 14 5 14h150q5 0 6 6l6.5 46t5.5 36.5t2 13.5q2 8 0 11.5t-5 2.5t-4 -1l-81 -21q-7 0 -7 11 q0 8 1 13q1 12 10 15l76.5 18.5l56 14.5t21.5 5q14 0 14 -18q0 -4 -25 -147q0 -6 7 -6h59q5 0 5 -15t-5 -15h-64q-8 0 -9 -6q-68 -387 -68 -415q0 -12 10 -12q12 0 34 18.5t39.5 37t18.5 18.5q4 0 9 -4.5t5 -7.5q0 -5 -22 -33t-62.5 -57.5t-77.5 -29.5q-13 0 -21.5 10.5 t-8.5 27.5q0 34 36 188q-43 -73 -79 -120q-20 -27 -30.5 -39.5t-29 -30.5t-37.5 -25.5t-42 -7.5q-10 0 -20 2t-25.5 9t-25 25t-9.5 45zM94 102q0 -28 10 -40.5t33 -12.5q42 0 136 139q53 77 53 116q0 12 -28 31t-58 19q-39 0 -74.5 -48.5t-53.5 -106t-18 -97.5z" />
<glyph unicode="&#x112;" horiz-adv-x="579" d="M249 783q0 10 2 26q1 7 2.5 9t7.5 2h188q6 0 6 -6q0 -11 -2 -27q-1 -11 -9 -11h-185q-10 0 -10 7zM17 15q0 10 4 12.5t17 2.5h40q0 2 10.5 68.5l21.5 139l23 155.5t20 147.5t8 85.5l-1 7h-58q-10 0 -14 3t-4 15q0 17 13 17l47 -2q48 -1 69 -1q28 0 108.5 1.5t100.5 1.5 q91 0 92 10q0 15 16 15q20 0 20 -14q0 -5 -4 -42.5t-5 -84.5q0 -7 -4 -9t-15 -2q-18 0 -18 13q0 3 6 75q-42 6 -258 6q-10 -28 -40 -266q-1 -5 -1 -10q9 -4 12 -4h164q42 0 44 11l11 55q1 7 19 7q16 0 16 -9q0 -4 -2.5 -17.5t-7 -34.5l-7.5 -36q-14 -73 -15 -90 q-1 -8 -16 -8h-4q-16 0 -16 8q0 3 6 36t6 34q0 11 -47 11h-151q-11 0 -13 -1t-4 -7q-3 -14 -19.5 -129t-19.5 -146q0 -6 4 -6q14 0 164.5 3.5t154.5 3.5q3 3 9 19.5t13.5 40.5t12.5 35q4 11 17 11q7 0 13.5 -4t6.5 -10t-5.5 -22l-17 -47.5t-19.5 -55.5q-4 -13 -20 -13 q-11 0 -179 1.5t-184 1.5t-54 -1.5t-49 -1.5q-10 0 -13.5 4t-3.5 17z" />
<glyph unicode="&#x113;" horiz-adv-x="390" d="M180 515q0 8 2 24q1 11 12 11h181q11 0 11 -9q0 -8 -2 -24q-1 -11 -11 -11h-181q-12 0 -12 9zM22 105q0 115 74 202t174 87q39 0 67.5 -15.5t28.5 -53.5q0 -44 -36 -79t-89 -55q-65 -24 -142 -24q-5 0 -5 -43q0 -86 93 -86q41 0 80.5 22t63 43.5t26.5 21.5q6 0 11 -6 t5 -11q0 -6 -29 -33t-84 -55t-109 -28q-56 0 -92.5 28.5t-36.5 84.5zM109 200q0 -4 7 -4q73 0 126 36t53 94q0 17 -13 27.5t-34 10.5q-80 0 -125 -120q-14 -35 -14 -44z" />
<glyph unicode="&#x114;" horiz-adv-x="579" d="M263 810q0 31 5 31h15q4 0 4 -5q0 -30 14.5 -43.5t50.5 -13.5q51 0 75 32q4 6 7 13.5t4.5 12t2.5 4.5h20v-3q-6 -47 -38 -79.5t-79 -32.5q-42 0 -61.5 24t-19.5 60zM17 15q0 10 4 12.5t17 2.5h40q0 2 10.5 68.5l21.5 139l23 155.5t20 147.5t8 85.5l-1 7h-58q-10 0 -14 3 t-4 15q0 17 13 17l47 -2q48 -1 69 -1q28 0 108.5 1.5t100.5 1.5q91 0 92 10q0 15 16 15q20 0 20 -14q0 -5 -4 -42.5t-5 -84.5q0 -7 -4 -9t-15 -2q-18 0 -18 13q0 3 6 75q-42 6 -258 6q-10 -28 -40 -266q-1 -5 -1 -10q9 -4 12 -4h164q42 0 44 11l11 55q1 7 19 7q16 0 16 -9 q0 -4 -2.5 -17.5t-7 -34.5l-7.5 -36q-14 -73 -15 -90q-1 -8 -16 -8h-4q-16 0 -16 8q0 3 6 36t6 34q0 11 -47 11h-151q-11 0 -13 -1t-4 -7q-3 -14 -19.5 -129t-19.5 -146q0 -6 4 -6q14 0 164.5 3.5t154.5 3.5q3 3 9 19.5t13.5 40.5t12.5 35q4 11 17 11q7 0 13.5 -4t6.5 -10 t-5.5 -22l-17 -47.5t-19.5 -55.5q-4 -13 -20 -13q-11 0 -179 1.5t-184 1.5t-54 -1.5t-49 -1.5q-10 0 -13.5 4t-3.5 17z" />
<glyph unicode="&#x115;" horiz-adv-x="390" d="M196 552q0 35 7 35h13q4 0 4 -6q0 -8 2 -20q9 -47 63 -47q50 0 75 39q3 5 6 11.5t4.5 11t3.5 8t4 3.5h11q5 0 5 -3q0 -1 -0.5 -3.5t-0.5 -3.5q-8 -51 -40 -86t-76 -35q-42 0 -61.5 27.5t-19.5 68.5zM22 105q0 115 74 202t174 87q39 0 67.5 -15.5t28.5 -53.5 q0 -44 -36 -79t-89 -55q-65 -24 -142 -24q-5 0 -5 -43q0 -86 93 -86q41 0 80.5 22t63 43.5t26.5 21.5q6 0 11 -6t5 -11q0 -6 -29 -33t-84 -55t-109 -28q-56 0 -92.5 28.5t-36.5 84.5zM109 200q0 -4 7 -4q73 0 126 36t53 94q0 17 -13 27.5t-34 10.5q-80 0 -125 -120 q-14 -35 -14 -44z" />
<glyph unicode="&#x116;" horiz-adv-x="579" d="M307 790q0 21 12 35t32 14q22 0 34.5 -16t12.5 -35q0 -21 -12.5 -35t-31.5 -14q-22 0 -34.5 16t-12.5 35zM17 15q0 10 4 12.5t17 2.5h40q0 2 10.5 68.5l21.5 139l23 155.5t20 147.5t8 85.5l-1 7h-58q-10 0 -14 3t-4 15q0 17 13 17l47 -2q48 -1 69 -1q28 0 108.5 1.5 t100.5 1.5q91 0 92 10q0 15 16 15q20 0 20 -14q0 -5 -4 -42.5t-5 -84.5q0 -7 -4 -9t-15 -2q-18 0 -18 13q0 3 6 75q-42 6 -258 6q-10 -28 -40 -266q-1 -5 -1 -10q9 -4 12 -4h164q42 0 44 11l11 55q1 7 19 7q16 0 16 -9q0 -4 -2.5 -17.5t-7 -34.5l-7.5 -36q-14 -73 -15 -90 q-1 -8 -16 -8h-4q-16 0 -16 8q0 3 6 36t6 34q0 11 -47 11h-151q-11 0 -13 -1t-4 -7q-3 -14 -19.5 -129t-19.5 -146q0 -6 4 -6q14 0 164.5 3.5t154.5 3.5q3 3 9 19.5t13.5 40.5t12.5 35q4 11 17 11q7 0 13.5 -4t6.5 -10t-5.5 -22l-17 -47.5t-19.5 -55.5q-4 -13 -20 -13 q-11 0 -179 1.5t-184 1.5t-54 -1.5t-49 -1.5q-10 0 -13.5 4t-3.5 17z" />
<glyph unicode="&#x117;" horiz-adv-x="390" d="M238 540q0 21 12 35t32 14q22 0 34.5 -16t12.5 -35q0 -21 -12.5 -35t-31.5 -14q-22 0 -34.5 16t-12.5 35zM22 105q0 115 74 202t174 87q39 0 67.5 -15.5t28.5 -53.5q0 -44 -36 -79t-89 -55q-65 -24 -142 -24q-5 0 -5 -43q0 -86 93 -86q41 0 80.5 22t63 43.5t26.5 21.5 q6 0 11 -6t5 -11q0 -6 -29 -33t-84 -55t-109 -28q-56 0 -92.5 28.5t-36.5 84.5zM109 200q0 -4 7 -4q73 0 126 36t53 94q0 17 -13 27.5t-34 10.5q-80 0 -125 -120q-14 -35 -14 -44z" />
<glyph unicode="&#x118;" horiz-adv-x="579" d="M17 15q0 10 4 12.5t17 2.5h40q0 2 10.5 68.5l21.5 139l23 155.5t20 147.5t8 85.5l-1 7h-58q-10 0 -14 3t-4 15q0 17 13 17l47 -2q48 -1 69 -1q28 0 108.5 1.5t100.5 1.5q91 0 92 10q0 15 16 15q20 0 20 -14q0 -5 -4 -42.5t-5 -84.5q0 -7 -4 -9t-15 -2q-18 0 -18 13 q0 3 6 75q-42 6 -258 6q-10 -28 -40 -266q-1 -5 -1 -10q9 -4 12 -4h164q42 0 44 11l11 55q1 7 19 7q16 0 16 -9q0 -4 -2.5 -17.5t-7 -34.5l-7.5 -36q-14 -73 -15 -90q-1 -8 -16 -8h-4q-16 0 -16 8q0 3 6 36t6 34q0 11 -47 11h-151q-11 0 -13 -1t-4 -7q-3 -14 -19.5 -129 t-19.5 -146q0 -6 4 -6q14 0 164.5 3.5t154.5 3.5q3 3 9 19.5t13.5 40.5t12.5 35q4 11 17 11q7 0 13.5 -4t6.5 -10t-5.5 -22l-17 -47.5t-19.5 -55.5q-4 -13 -20 -13h-61q-99 -107 -99 -171q0 -62 44 -62q20 0 41 11t35 22t16 11q4 0 8 -6.5t4 -9.5q0 -5 -19.5 -22 t-56.5 -34.5t-73 -17.5q-32 0 -52 22t-20 58q0 72 138 200q-202 2 -268 2q-16 0 -54 -1.5t-49 -1.5q-10 0 -13.5 4t-3.5 17z" />
<glyph unicode="&#x119;" horiz-adv-x="390" d="M22 105q0 115 74 202t174 87q39 0 67.5 -15.5t28.5 -53.5q0 -44 -36 -79t-89 -55q-65 -24 -142 -24q-5 0 -5 -43q0 -86 93 -86q41 0 80.5 22t63 43.5t26.5 21.5q6 0 11 -6t5 -11q0 -6 -34 -35q-33 -28 -50 -46q-47 -48 -86 -106.5t-39 -97.5q0 -62 44 -62q20 0 41 11 t35 22t16 11q4 0 8 -6.5t4 -9.5q0 -5 -19.5 -22t-56.5 -34.5t-73 -17.5q-32 0 -52 22t-20 58q0 28 25 69t44.5 62l68.5 73q7 7 10 11q-45 -18 -88 -18q-56 0 -92.5 28.5t-36.5 84.5zM109 200q0 -4 7 -4q73 0 126 36t53 94q0 17 -13 27.5t-34 10.5q-80 0 -125 -120 q-14 -35 -14 -44z" />
<glyph unicode="&#x11a;" horiz-adv-x="579" d="M259 838q0 4 9 4h10q4 0 11 -7l63 -52q2 -2 4 0l85 53q10 6 13 6h13q6 0 6 -4q0 -2 -6 -8l-91 -92q-12 -12 -22 -12h-20q-12 0 -19 12l-53 92q-3 4 -3 8zM17 15q0 10 4 12.5t17 2.5h40q0 2 10.5 68.5l21.5 139l23 155.5t20 147.5t8 85.5l-1 7h-58q-10 0 -14 3t-4 15 q0 17 13 17l47 -2q48 -1 69 -1q28 0 108.5 1.5t100.5 1.5q91 0 92 10q0 15 16 15q20 0 20 -14q0 -5 -4 -42.5t-5 -84.5q0 -7 -4 -9t-15 -2q-18 0 -18 13q0 3 6 75q-42 6 -258 6q-10 -28 -40 -266q-1 -5 -1 -10q9 -4 12 -4h164q42 0 44 11l11 55q1 7 19 7q16 0 16 -9 q0 -4 -2.5 -17.5t-7 -34.5l-7.5 -36q-14 -73 -15 -90q-1 -8 -16 -8h-4q-16 0 -16 8q0 3 6 36t6 34q0 11 -47 11h-151q-11 0 -13 -1t-4 -7q-3 -14 -19.5 -129t-19.5 -146q0 -6 4 -6q14 0 164.5 3.5t154.5 3.5q3 3 9 19.5t13.5 40.5t12.5 35q4 11 17 11q7 0 13.5 -4t6.5 -10 t-5.5 -22l-17 -47.5t-19.5 -55.5q-4 -13 -20 -13q-11 0 -179 1.5t-184 1.5t-54 -1.5t-49 -1.5q-10 0 -13.5 4t-3.5 17z" />
<glyph unicode="&#x11b;" horiz-adv-x="390" d="M189 583q0 4 10 4h12q2 0 9 -7l60 -59q4 -4 11 0l81 59q9 7 11 7h15q6 0 6 -4l-6 -9l-91 -104q-8 -10 -11 -11.5t-11 -1.5h-20q-8 0 -11 2t-8 12l-53 103q-4 8 -4 9zM22 105q0 115 74 202t174 87q39 0 67.5 -15.5t28.5 -53.5q0 -44 -36 -79t-89 -55q-65 -24 -142 -24 q-5 0 -5 -43q0 -86 93 -86q41 0 80.5 22t63 43.5t26.5 21.5q6 0 11 -6t5 -11q0 -6 -29 -33t-84 -55t-109 -28q-56 0 -92.5 28.5t-36.5 84.5zM109 200q0 -4 7 -4q73 0 126 36t53 94q0 17 -13 27.5t-34 10.5q-80 0 -125 -120q-14 -35 -14 -44z" />
<glyph unicode="&#x11c;" horiz-adv-x="721" d="M305 730q0 2 6 8l91 92q12 12 22 12h20q12 0 19 -12l53 -92q3 -4 3 -8t-9 -4h-10q-4 0 -11 7l-63 52q-1 1 -4 0l-85 -53q-10 -6 -13 -6h-13q-6 0 -6 4zM32 266q0 166 113 289t266 123q116 0 216 -60q1 5 2 12.5t2 12t4.5 8.5t9.5 4t11 -0.5t9.5 -3.5t3.5 -8 q-13 -84 -23 -175q-2 -17 -18 -17q-22 0 -22 15q0 1 0.5 2.5t0.5 2.5q1 2 8 46t8 52q-11 13 -85.5 45.5t-122.5 32.5q-77 0 -143.5 -57t-102.5 -142t-36 -172q0 -121 66 -193t163 -72q44 0 82 12t57 25t21 23q15 55 18 135q0 11 -6 11h-87q-9 0 -9 15q0 21 10 21 q15 0 64.5 -1.5t67.5 -1.5q17 0 51 1.5t54 1.5q9 0 9 -17q0 -19 -9 -19h-57q0 -1 -18 -143q-1 -12 -45.5 -36t-118 -45.5t-138.5 -21.5q-28 0 -59.5 6.5t-71.5 26t-71 50.5t-52.5 86t-21.5 126z" />
<glyph unicode="&#x11d;" horiz-adv-x="426" d="M142 459l6 9l91 104q8 10 11 11.5t11 1.5h20q8 0 11 -2t8 -12l53 -103q4 -8 4 -9q0 -4 -10 -4h-12q-2 0 -9 7l-60 59q-4 4 -11 0l-81 -59q-9 -7 -11 -7h-15q-6 0 -6 4zM-9 -157q0 40 30.5 69t62.5 43q10 4 2 8q-35 16 -35 40q0 8 18.5 37t28.5 33l54 20q7 2 1 4 q-2 1 -3 1q-93 35 -93 132q0 72 52.5 122t127.5 50q55 0 95 -40q4 -4 7 1q4 7 12 26t10 23q5 11 24 11q30 0 30 -14q0 -12 -11 -33t-23 -38t-12 -18q0 -4 3 -12q7 -18 7 -41q0 -74 -54 -123q-26 -24 -52 -35.5t-75 -24.5q-91 -25 -91 -44q0 -4 3 -7.5t9 -7t13 -6t18.5 -5.5 t21 -5t24 -4.5t25 -4l27 -4t26.5 -4.5q65 -10 99.5 -30.5t34.5 -67.5q0 -52 -35 -86.5t-87.5 -48t-120.5 -13.5q-45 0 -81 7t-64.5 30t-28.5 60zM39 -151q0 -20 17.5 -34.5t45 -21t53 -9.5t49.5 -3q62 0 99.5 22t37.5 64q0 30 -25.5 43.5t-76.5 22.5q-98 17 -106 17 q-7 0 -31 -11q-63 -32 -63 -90zM126 229q0 -59 23.5 -85t47.5 -26q38 0 76 47t38 114q0 36 -21.5 65t-53.5 29q-48 0 -79 -47.5t-31 -96.5z" />
<glyph unicode="&#x11e;" horiz-adv-x="721" d="M333 810q0 31 5 31h15q4 0 4 -5q0 -30 14.5 -43.5t50.5 -13.5q51 0 75 32q4 6 7 13.5t4.5 12t2.5 4.5h20v-3q-6 -47 -38 -79.5t-79 -32.5q-42 0 -61.5 24t-19.5 60zM32 266q0 166 113 289t266 123q116 0 216 -60q1 5 2 12.5t2 12t4.5 8.5t9.5 4t11 -0.5t9.5 -3.5t3.5 -8 q-13 -84 -23 -175q-2 -17 -18 -17q-22 0 -22 15q0 1 0.5 2.5t0.5 2.5q1 2 8 46t8 52q-11 13 -85.5 45.5t-122.5 32.5q-77 0 -143.5 -57t-102.5 -142t-36 -172q0 -121 66 -193t163 -72q44 0 82 12t57 25t21 23q15 55 18 135q0 11 -6 11h-87q-9 0 -9 15q0 21 10 21 q15 0 64.5 -1.5t67.5 -1.5q17 0 51 1.5t54 1.5q9 0 9 -17q0 -19 -9 -19h-57q0 -1 -18 -143q-1 -12 -45.5 -36t-118 -45.5t-138.5 -21.5q-28 0 -59.5 6.5t-71.5 26t-71 50.5t-52.5 86t-21.5 126z" />
<glyph unicode="&#x11f;" horiz-adv-x="426" d="M169 550q0 35 7 35h13q4 0 4 -6q0 -8 2 -20q9 -47 63 -47q50 0 75 39q3 5 6 11.5t4.5 11t3.5 8t4 3.5h11q5 0 5 -3q0 -1 -0.5 -3.5t-0.5 -3.5q-8 -51 -40 -86t-76 -35q-42 0 -61.5 27.5t-19.5 68.5zM-9 -157q0 40 30.5 69t62.5 43q10 4 2 8q-35 16 -35 40q0 8 18.5 37 t28.5 33l54 20q7 2 1 4q-2 1 -3 1q-93 35 -93 132q0 72 52.5 122t127.5 50q55 0 95 -40q4 -4 7 1q4 7 12 26t10 23q5 11 24 11q30 0 30 -14q0 -12 -11 -33t-23 -38t-12 -18q0 -4 3 -12q7 -18 7 -41q0 -74 -54 -123q-26 -24 -52 -35.5t-75 -24.5q-91 -25 -91 -44q0 -4 3 -7.5 t9 -7t13 -6t18.5 -5.5t21 -5t24 -4.5t25 -4l27 -4t26.5 -4.5q65 -10 99.5 -30.5t34.5 -67.5q0 -52 -35 -86.5t-87.5 -48t-120.5 -13.5q-45 0 -81 7t-64.5 30t-28.5 60zM39 -151q0 -20 17.5 -34.5t45 -21t53 -9.5t49.5 -3q62 0 99.5 22t37.5 64q0 30 -25.5 43.5t-76.5 22.5 q-98 17 -106 17q-7 0 -31 -11q-63 -32 -63 -90zM126 229q0 -59 23.5 -85t47.5 -26q38 0 76 47t38 114q0 36 -21.5 65t-53.5 29q-48 0 -79 -47.5t-31 -96.5z" />
<glyph unicode="&#x120;" horiz-adv-x="721" d="M377 790q0 21 12 35t32 14q22 0 34.5 -16t12.5 -35q0 -21 -12.5 -35t-31.5 -14q-22 0 -34.5 16t-12.5 35zM32 266q0 166 113 289t266 123q116 0 216 -60q1 5 2 12.5t2 12t4.5 8.5t9.5 4t11 -0.5t9.5 -3.5t3.5 -8q-13 -84 -23 -175q-2 -17 -18 -17q-22 0 -22 15 q0 1 0.5 2.5t0.5 2.5q1 2 8 46t8 52q-11 13 -85.5 45.5t-122.5 32.5q-77 0 -143.5 -57t-102.5 -142t-36 -172q0 -121 66 -193t163 -72q44 0 82 12t57 25t21 23q15 55 18 135q0 11 -6 11h-87q-9 0 -9 15q0 21 10 21q15 0 64.5 -1.5t67.5 -1.5q17 0 51 1.5t54 1.5q9 0 9 -17 q0 -19 -9 -19h-57q0 -1 -18 -143q-1 -12 -45.5 -36t-118 -45.5t-138.5 -21.5q-28 0 -59.5 6.5t-71.5 26t-71 50.5t-52.5 86t-21.5 126z" />
<glyph unicode="&#x121;" horiz-adv-x="426" d="M211 538q0 21 12 35t32 14q22 0 34.5 -16t12.5 -35q0 -21 -12.5 -35t-31.5 -14q-22 0 -34.5 16t-12.5 35zM-9 -157q0 40 30.5 69t62.5 43q10 4 2 8q-35 16 -35 40q0 8 18.5 37t28.5 33l54 20q7 2 1 4q-2 1 -3 1q-93 35 -93 132q0 72 52.5 122t127.5 50q55 0 95 -40 q4 -4 7 1q4 7 12 26t10 23q5 11 24 11q30 0 30 -14q0 -12 -11 -33t-23 -38t-12 -18q0 -4 3 -12q7 -18 7 -41q0 -74 -54 -123q-26 -24 -52 -35.5t-75 -24.5q-91 -25 -91 -44q0 -4 3 -7.5t9 -7t13 -6t18.5 -5.5t21 -5t24 -4.5t25 -4l27 -4t26.5 -4.5q65 -10 99.5 -30.5 t34.5 -67.5q0 -52 -35 -86.5t-87.5 -48t-120.5 -13.5q-45 0 -81 7t-64.5 30t-28.5 60zM39 -151q0 -20 17.5 -34.5t45 -21t53 -9.5t49.5 -3q62 0 99.5 22t37.5 64q0 30 -25.5 43.5t-76.5 22.5q-98 17 -106 17q-7 0 -31 -11q-63 -32 -63 -90zM126 229q0 -59 23.5 -85t47.5 -26 q38 0 76 47t38 114q0 36 -21.5 65t-53.5 29q-48 0 -79 -47.5t-31 -96.5z" />
<glyph unicode="&#x122;" horiz-adv-x="721" d="M232 -207q0 2 13.5 9.5t27 20.5t13.5 28q0 16 -17 32t-17 22q0 13 20 25t27 12q11 0 29 -18t18 -33q0 -31 -26.5 -60.5t-50.5 -43t-28 -13.5q-9 0 -9 19zM32 266q0 166 113 289t266 123q116 0 216 -60q1 5 2 12.5t2 12t4.5 8.5t9.5 4t11 -0.5t9.5 -3.5t3.5 -8 q-13 -84 -23 -175q-2 -17 -18 -17q-22 0 -22 15q0 1 0.5 2.5t0.5 2.5q1 2 8 46t8 52q-11 13 -85.5 45.5t-122.5 32.5q-77 0 -143.5 -57t-102.5 -142t-36 -172q0 -121 66 -193t163 -72q44 0 82 12t57 25t21 23q15 55 18 135q0 11 -6 11h-87q-9 0 -9 15q0 21 10 21 q15 0 64.5 -1.5t67.5 -1.5q17 0 51 1.5t54 1.5q9 0 9 -17q0 -19 -9 -19h-57q0 -1 -18 -143q-1 -12 -45.5 -36t-118 -45.5t-138.5 -21.5q-28 0 -59.5 6.5t-71.5 26t-71 50.5t-52.5 86t-21.5 126z" />
<glyph unicode="&#x123;" horiz-adv-x="426" d="M205 498q0 31 26.5 60.5t50.5 43t28 13.5q9 0 9 -19q0 -2 -13.5 -9.5t-27 -20.5t-13.5 -28q0 -16 17 -32t17 -22q0 -13 -20 -25t-27 -12q-11 0 -29 18t-18 33zM-9 -157q0 40 30.5 69t62.5 43q10 4 2 8q-35 16 -35 40q0 8 18.5 37t28.5 33l54 20q7 2 1 4q-2 1 -3 1 q-93 35 -93 132q0 72 52.5 122t127.5 50q55 0 95 -40q4 -4 7 1q4 7 12 26t10 23q5 11 24 11q30 0 30 -14q0 -12 -11 -33t-23 -38t-12 -18q0 -4 3 -12q7 -18 7 -41q0 -74 -54 -123q-26 -24 -52 -35.5t-75 -24.5q-91 -25 -91 -44q0 -4 3 -7.5t9 -7t13 -6t18.5 -5.5t21 -5 t24 -4.5t25 -4l27 -4t26.5 -4.5q65 -10 99.5 -30.5t34.5 -67.5q0 -52 -35 -86.5t-87.5 -48t-120.5 -13.5q-45 0 -81 7t-64.5 30t-28.5 60zM39 -151q0 -20 17.5 -34.5t45 -21t53 -9.5t49.5 -3q62 0 99.5 22t37.5 64q0 30 -25.5 43.5t-76.5 22.5q-98 17 -106 17q-7 0 -31 -11 q-63 -32 -63 -90zM126 229q0 -59 23.5 -85t47.5 -26q38 0 76 47t38 114q0 36 -21.5 65t-53.5 29q-48 0 -79 -47.5t-31 -96.5z" />
<glyph unicode="&#x124;" horiz-adv-x="795" d="M337 730q0 2 6 8l91 92q12 12 22 12h20q12 0 19 -12l53 -92q3 -4 3 -8t-9 -4h-10q-4 0 -11 7l-63 52q-1 1 -4 0l-85 -53q-10 -6 -13 -6h-13q-6 0 -6 4zM17 13q0 10 3.5 13.5t15.5 3.5h53q10 24 49 293.5t39 299.5q0 13 -6 13h-65q-11 0 -11 18q0 12 3.5 15t14.5 3 q6 0 49.5 -1.5t60.5 -1.5q16 0 53 1.5t48 1.5q10 0 13.5 -4t3.5 -17q0 -10 -4 -12.5t-17 -2.5h-49q-9 -19 -45 -267q-2 -7 -0.5 -11.5t9.5 -4.5h338q10 0 11 9q30 219 30 261q0 9 -1 11t-5 2h-63q-13 0 -13 18q0 12 4.5 15t15.5 3q6 0 49 -1.5t60 -1.5q16 0 52.5 1.5 t47.5 1.5q10 0 13.5 -4t3.5 -17q0 -10 -4 -12.5t-17 -2.5h-49q-11 -21 -46.5 -299t-35.5 -297q0 -10 5 -10h57q9 0 11.5 -3.5t2.5 -12.5q0 -12 -2.5 -16t-11.5 -4q-11 0 -54.5 1.5t-59.5 1.5t-50 -1.5t-45 -1.5q-10 0 -13.5 4t-3.5 17q0 10 4 12.5t17 2.5h51q5 16 43 284 q1 6 -0.5 7.5t-7.5 1.5h-338q-9 0 -11 -1.5t-3 -11.5q-32 -235 -32 -270q0 -10 5 -10h59q9 0 11.5 -3.5t2.5 -12.5q0 -12 -2.5 -16t-11.5 -4q-11 0 -54 1.5t-59 1.5t-54.5 -1.5t-49.5 -1.5q-10 0 -12.5 4t-2.5 15z" />
<glyph unicode="&#x125;" horiz-adv-x="468" d="M81 730q0 2 6 8l91 92q12 12 22 12h20q12 0 19 -12l53 -92q3 -4 3 -8t-9 -4h-10q-4 0 -11 7l-63 52q-1 1 -4 0l-85 -53q-10 -6 -13 -6h-13q-6 0 -6 4zM22 6l17 80q17 79 41.5 229t39.5 304q2 15 -4 15q-10 0 -46 -13t-38 -13q-6 0 -6 13q0 19 9 23q30 11 83.5 22.5 t72.5 11.5q9 0 9 -18q-6 -111 -88 -512q50 103 105 169q57 69 126 69q27 0 44.5 -13t17.5 -38q0 -38 -33.5 -148.5t-33.5 -119.5q0 -19 18 -19q14 0 54 44l41 43q4 0 9.5 -4.5t5.5 -8.5t-14 -23t-35.5 -42t-51.5 -41.5t-57 -18.5q-19 0 -31.5 11.5t-12.5 29.5q0 16 36.5 129 t36.5 140q0 36 -31 36t-64.5 -40t-73.5 -106q-47 -80 -54 -107l-21 -84q-3 -11 -60 -11q-11 0 -11 11z" />
<glyph unicode="&#x126;" horiz-adv-x="795" d="M17 13q0 10 3.5 13.5t15.5 3.5h53q7 17 30 162t40 280q2 6 1 9.5t-8 3.5h-71q-5 0 -5 16q0 14 5 14h73q9 0 10 1.5t2 9.5q11 80 11 97q0 13 -6 13h-65q-11 0 -11 18q0 12 3.5 15t14.5 3q6 0 49.5 -1.5t60.5 -1.5q16 0 53 1.5t48 1.5q10 0 13.5 -4t3.5 -17q0 -10 -4 -12.5 t-17 -2.5h-49q-4 -8 -22 -110q-1 -7 0 -9t9 -2h333q10 0 11.5 1.5t2.5 11.5q9 86 9 95t-1 11t-5 2h-63q-13 0 -13 18q0 12 4.5 15t15.5 3q6 0 49 -1.5t60 -1.5q16 0 52.5 1.5t47.5 1.5q10 0 13.5 -4t3.5 -17q0 -10 -4 -12.5t-17 -2.5h-49q-7 -10 -20 -108q-2 -8 0 -10.5 t9 -2.5h57q5 0 5 -15t-5 -15h-63q-7 0 -8.5 -2t-2.5 -9q-54 -392 -54 -434q0 -10 5 -10h57q9 0 11.5 -3.5t2.5 -12.5q0 -12 -2.5 -16t-11.5 -4q-11 0 -54.5 1.5t-59.5 1.5t-50 -1.5t-45 -1.5q-10 0 -13.5 4t-3.5 17q0 10 4 12.5t17 2.5h51q5 16 43 284q1 6 -0.5 7.5 t-7.5 1.5h-338q-9 0 -11 -1.5t-3 -11.5q-32 -235 -32 -270q0 -10 5 -10h59q9 0 11.5 -3.5t2.5 -12.5q0 -12 -2.5 -16t-11.5 -4q-11 0 -54 1.5t-59 1.5t-54.5 -1.5t-49.5 -1.5q-10 0 -12.5 4t-2.5 15zM226 369q-2 -7 -0.5 -11.5t9.5 -4.5h338q10 0 11 9q11 86 14 112 q2 11 -6 11h-338q-9 0 -10 -1t-2 -9z" />
<glyph unicode="&#x127;" horiz-adv-x="468" d="M8 495q0 16 6 16h85q7 0 8 1t2 6v2q8 62 11 99q2 15 -4 15q-10 0 -46 -13t-38 -13q-6 0 -6 13q0 19 9 23q30 11 83.5 22.5t72.5 11.5q9 0 9 -18q-3 -51 -18 -137q-2 -6 -1 -9t8 -3h146q6 0 6 -15t-6 -15h-151q-9 0 -10 -7q-23 -136 -62 -326q50 103 105 169q57 69 126 69 q27 0 44.5 -13t17.5 -38q0 -38 -33.5 -148.5t-33.5 -119.5q0 -19 18 -19q14 0 54 44l41 43q4 0 9.5 -4.5t5.5 -8.5t-14 -23t-35.5 -42t-51.5 -41.5t-57 -18.5q-19 0 -31.5 11.5t-12.5 29.5q0 16 36.5 129t36.5 140q0 36 -31 36t-64.5 -40t-73.5 -106q-47 -80 -54 -107 l-21 -84q-3 -11 -60 -11q-11 0 -11 11q0 2 12.5 59.5t33 171t35.5 232.5q1 8 -0.5 10t-9.5 2h-79q-6 0 -6 14z" />
<glyph unicode="&#x128;" horiz-adv-x="377" d="M139 744q0 9 11 27q15 25 33.5 39.5t32.5 14.5q17 0 43.5 -18t36.5 -18q22 0 37 31l2 4q2 5 9 5h13q1 0 1 -2q0 -7 -10 -30q-30 -57 -70 -57q-19 0 -42.5 17.5t-37.5 17.5q-20 0 -35 -27q-3 -8 -10 -8h-11q-3 0 -3 4zM17 15q0 10 4 12.5t17 2.5h58q9 27 48.5 292 t39.5 301q0 13 -6 13h-67q-14 0 -14 18q0 12 4.5 15t15.5 3q6 0 53 -1.5t64 -1.5q16 0 57 1.5t52 1.5q10 0 13.5 -4t3.5 -17q0 -10 -4 -12.5t-17 -2.5h-56q-11 -23 -48.5 -287t-37.5 -309q0 -10 5 -10h66q9 0 11.5 -3.5t2.5 -12.5q0 -12 -2.5 -16t-11.5 -4q-11 0 -58 1.5 t-63 1.5t-59 -1.5t-54 -1.5q-10 0 -13.5 4t-3.5 17z" />
<glyph unicode="&#x129;" horiz-adv-x="270" d="M75 494q0 9 11 27q15 25 33.5 39.5t32.5 14.5q17 0 43.5 -18t36.5 -18q22 0 37 31l2 4q2 5 9 5h13q1 0 1 -2q0 -7 -10 -30q-30 -57 -70 -57q-19 0 -42.5 17.5t-37.5 17.5q-20 0 -35 -27q-3 -8 -10 -8h-11q-3 0 -3 4zM22 282q0 10 64.5 57t89.5 47q23 0 23 -25 q0 -27 -32.5 -151t-32.5 -135q0 -17 10 -17t43.5 32t35.5 32q4 0 9.5 -5.5t5.5 -9.5q0 -14 -65.5 -65t-88.5 -51q-27 0 -27 21q0 25 35.5 146t35.5 152q0 15 -9 15q-14 0 -46.5 -29.5t-35.5 -29.5q-5 0 -10 5.5t-5 10.5z" />
<glyph unicode="&#x12a;" horiz-adv-x="377" d="M147 783q0 10 2 26q1 7 2.5 9t7.5 2h188q6 0 6 -6q0 -11 -2 -27q-1 -11 -9 -11h-185q-10 0 -10 7zM17 15q0 10 4 12.5t17 2.5h58q9 27 48.5 292t39.5 301q0 13 -6 13h-67q-14 0 -14 18q0 12 4.5 15t15.5 3q6 0 53 -1.5t64 -1.5q16 0 57 1.5t52 1.5q10 0 13.5 -4t3.5 -17 q0 -10 -4 -12.5t-17 -2.5h-56q-11 -23 -48.5 -287t-37.5 -309q0 -10 5 -10h66q9 0 11.5 -3.5t2.5 -12.5q0 -12 -2.5 -16t-11.5 -4q-11 0 -58 1.5t-63 1.5t-59 -1.5t-54 -1.5q-10 0 -13.5 4t-3.5 17z" />
<glyph unicode="&#x12b;" horiz-adv-x="270" d="M83 515q0 8 2 24q1 11 12 11h181q11 0 11 -9q0 -8 -2 -24q-1 -11 -11 -11h-181q-12 0 -12 9zM22 282q0 10 64.5 57t89.5 47q23 0 23 -25q0 -27 -32.5 -151t-32.5 -135q0 -17 10 -17t43.5 32t35.5 32q4 0 9.5 -5.5t5.5 -9.5q0 -14 -65.5 -65t-88.5 -51q-27 0 -27 21 q0 25 35.5 146t35.5 152q0 15 -9 15q-14 0 -46.5 -29.5t-35.5 -29.5q-5 0 -10 5.5t-5 10.5z" />
<glyph unicode="&#x12c;" horiz-adv-x="377" d="M161 810q0 31 5 31h15q4 0 4 -5q0 -30 14.5 -43.5t50.5 -13.5q51 0 75 32q4 6 7 13.5t4.5 12t2.5 4.5h20v-3q-6 -47 -38 -79.5t-79 -32.5q-42 0 -61.5 24t-19.5 60zM17 15q0 10 4 12.5t17 2.5h58q9 27 48.5 292t39.5 301q0 13 -6 13h-67q-14 0 -14 18q0 12 4.5 15t15.5 3 q6 0 53 -1.5t64 -1.5q16 0 57 1.5t52 1.5q10 0 13.5 -4t3.5 -17q0 -10 -4 -12.5t-17 -2.5h-56q-11 -23 -48.5 -287t-37.5 -309q0 -10 5 -10h66q9 0 11.5 -3.5t2.5 -12.5q0 -12 -2.5 -16t-11.5 -4q-11 0 -58 1.5t-63 1.5t-59 -1.5t-54 -1.5q-10 0 -13.5 4t-3.5 17z" />
<glyph unicode="&#x12d;" horiz-adv-x="270" d="M99 552q0 35 7 35h13q4 0 4 -6q0 -8 2 -20q9 -47 63 -47q50 0 75 39q3 5 6 11.5t4.5 11t3.5 8t4 3.5h11q5 0 5 -3q0 -1 -0.5 -3.5t-0.5 -3.5q-8 -51 -40 -86t-76 -35q-42 0 -61.5 27.5t-19.5 68.5zM22 282q0 10 64.5 57t89.5 47q23 0 23 -25q0 -27 -32.5 -151t-32.5 -135 q0 -17 10 -17t43.5 32t35.5 32q4 0 9.5 -5.5t5.5 -9.5q0 -14 -65.5 -65t-88.5 -51q-27 0 -27 21q0 25 35.5 146t35.5 152q0 15 -9 15q-14 0 -46.5 -29.5t-35.5 -29.5q-5 0 -10 5.5t-5 10.5z" />
<glyph unicode="&#x12e;" horiz-adv-x="377" d="M7 -205q0 66 120 202q-11 0 -32.5 -1t-37 -1.5t-23.5 -0.5q-10 0 -13.5 4t-3.5 17q0 10 4 12.5t17 2.5h58q9 27 48.5 292t39.5 301q0 13 -6 13h-67q-14 0 -14 18q0 12 4.5 15t15.5 3q6 0 53 -1.5t64 -1.5q16 0 57 1.5t52 1.5q10 0 13.5 -4t3.5 -17q0 -10 -4 -12.5 t-17 -2.5h-56q-11 -23 -48.5 -287t-37.5 -309q0 -10 5 -10h66q9 0 11.5 -3.5t2.5 -12.5q0 -12 -2.5 -16t-11.5 -4q-10 0 -109 3q-40 -51 -59.5 -91.5t-19.5 -86.5q0 -58 44 -58q20 0 41 11t35 22t16 11q4 0 8 -6.5t4 -9.5q0 -5 -19.5 -22t-56.5 -34.5t-73 -17.5 q-32 0 -52 22t-20 58z" />
<glyph unicode="&#x12f;" horiz-adv-x="270" d="M-43 -205q0 27 22 64.5t43.5 62l63.5 69.5q-29 0 -29 21q0 25 35.5 146t35.5 152q0 15 -9 15q-14 0 -46.5 -29.5t-35.5 -29.5q-5 0 -10 5.5t-5 10.5q0 10 64.5 57t89.5 47q23 0 23 -25q0 -27 -32.5 -151t-32.5 -135q0 -17 10 -17t43.5 32t35.5 32q4 0 9.5 -5.5t5.5 -9.5 q0 -12 -56 -57q-24 -19 -49 -47q-103 -118 -103 -180t44 -62q20 0 41 11t35 22t16 11q4 0 8 -6.5t4 -9.5q0 -5 -19.5 -22t-56.5 -34.5t-73 -17.5q-32 0 -52 22t-20 58zM125 549q0 21 12 35t32 14q22 0 34.5 -16t12.5 -35q0 -21 -12.5 -35t-31.5 -14q-22 0 -34.5 16t-12.5 35 z" />
<glyph unicode="&#x130;" horiz-adv-x="377" d="M205 790q0 21 12 35t32 14q22 0 34.5 -16t12.5 -35q0 -21 -12.5 -35t-31.5 -14q-22 0 -34.5 16t-12.5 35zM17 15q0 10 4 12.5t17 2.5h58q9 27 48.5 292t39.5 301q0 13 -6 13h-67q-14 0 -14 18q0 12 4.5 15t15.5 3q6 0 53 -1.5t64 -1.5q16 0 57 1.5t52 1.5q10 0 13.5 -4 t3.5 -17q0 -10 -4 -12.5t-17 -2.5h-56q-11 -23 -48.5 -287t-37.5 -309q0 -10 5 -10h66q9 0 11.5 -3.5t2.5 -12.5q0 -12 -2.5 -16t-11.5 -4q-11 0 -58 1.5t-63 1.5t-59 -1.5t-54 -1.5q-10 0 -13.5 4t-3.5 17z" />
<glyph unicode="&#x131;" horiz-adv-x="270" d="M22 282q0 10 64.5 57t89.5 47q23 0 23 -25q0 -27 -32.5 -151t-32.5 -135q0 -17 10 -17t43.5 32t35.5 32q4 0 9.5 -5.5t5.5 -9.5q0 -14 -65.5 -65t-88.5 -51q-27 0 -27 21q0 25 35.5 146t35.5 152q0 15 -9 15q-14 0 -46.5 -29.5t-35.5 -29.5q-5 0 -10 5.5t-5 10.5z" />
<glyph unicode="&#x132;" horiz-adv-x="677" d="M251 -188q0 24 29 45.5t41 21.5q9 0 25.5 -10.5t26.5 -10.5q21 0 29.5 33t14.5 91q1 9 1 13q11 106 30.5 260.5l33.5 257t14 108.5q0 15 -7 15h-70q-11 0 -16 3t-5 15t5 15t16 3q6 0 57 -1.5t68 -1.5q16 0 52 1.5t47 1.5q10 0 13.5 -4t3.5 -17q0 -10 -4 -12.5t-17 -2.5 h-49q-9 -19 -72 -506q-1 -4 -4 -28.5t-4.5 -32t-5 -30.5t-7 -33.5t-9 -31.5t-12 -34l-15 -30t-19.5 -31.5t-24 -28.5q-19 -20 -32 -31.5t-35 -22.5t-44 -11q-20 0 -38 7.5t-18 19.5zM17 15q0 10 4 12.5t17 2.5h58q9 27 48.5 292t39.5 301q0 13 -6 13h-67q-14 0 -14 18 q0 12 4.5 15t15.5 3q6 0 53 -1.5t64 -1.5q16 0 57 1.5t52 1.5q10 0 13.5 -4t3.5 -17q0 -10 -4 -12.5t-17 -2.5h-56q-11 -23 -48.5 -287t-37.5 -309q0 -10 5 -10h66q9 0 11.5 -3.5t2.5 -12.5q0 -12 -2.5 -16t-11.5 -4q-11 0 -58 1.5t-63 1.5t-59 -1.5t-54 -1.5q-10 0 -13.5 4 t-3.5 17z" />
<glyph unicode="&#x133;" horiz-adv-x="567" d="M198 -221q0 17 11 28t27 11q20 0 40 -12.5t35 -12.5q16 0 26 26t21 80q19 93 43 242t24 169q0 15 -9 15q-13 0 -54.5 -44.5t-44.5 -44.5q-4 0 -9.5 4.5t-5.5 9.5q0 6 30 38.5t72.5 65t68.5 32.5q9 0 16.5 -7t7.5 -20q0 -32 -55 -362q-24 -161 -97 -216q-54 -39 -89 -39 q-25 0 -41.5 11.5t-16.5 25.5zM424 579q0 21 12 35t32 14q22 0 34.5 -16t12.5 -35q0 -21 -12.5 -35t-31.5 -14q-22 0 -34.5 16t-12.5 35zM22 282q0 10 64.5 57t89.5 47q23 0 23 -25q0 -27 -32.5 -151t-32.5 -135q0 -17 10 -17t43.5 32t35.5 32q4 0 9.5 -5.5t5.5 -9.5 q0 -14 -65.5 -65t-88.5 -51q-27 0 -27 21q0 25 35.5 146t35.5 152q0 15 -9 15q-14 0 -46.5 -29.5t-35.5 -29.5q-5 0 -10 5.5t-5 10.5zM125 549q0 21 12 35t32 14q22 0 34.5 -16t12.5 -35q0 -21 -12.5 -35t-31.5 -14q-22 0 -34.5 16t-12.5 35z" />
<glyph unicode="&#x134;" horiz-adv-x="365" d="M120 730q0 2 6 8l91 92q12 12 22 12h20q12 0 19 -12l53 -92q3 -4 3 -8t-9 -4h-10q-4 0 -11 7l-63 52q-1 1 -4 0l-85 -53q-10 -6 -13 -6h-13q-6 0 -6 4zM-61 -188q0 24 29 45.5t41 21.5q9 0 25.5 -10.5t26.5 -10.5q21 0 29.5 33t14.5 91q1 9 1 13q11 106 30.5 260.5 l33.5 257t14 108.5q0 15 -7 15h-70q-11 0 -16 3t-5 15t5 15t16 3q6 0 57 -1.5t68 -1.5q16 0 52 1.5t47 1.5q10 0 13.5 -4t3.5 -17q0 -10 -4 -12.5t-17 -2.5h-49q-9 -19 -72 -506q-1 -4 -4 -28.5t-4.5 -32t-5 -30.5t-7 -33.5t-9 -31.5t-12 -34l-15 -30t-19.5 -31.5t-24 -28.5 q-19 -20 -32 -31.5t-35 -22.5t-44 -11q-20 0 -38 7.5t-18 19.5z" />
<glyph unicode="&#x135;" horiz-adv-x="297" d="M73 461l6 9l91 104q8 10 11 11.5t11 1.5h20q8 0 11 -2t8 -12l53 -103q4 -8 4 -9q0 -4 -10 -4h-12q-2 0 -9 7l-60 59q-4 4 -11 0l-81 -59q-9 -7 -11 -7h-15q-6 0 -6 4zM-72 -221q0 17 11 28t27 11q20 0 40 -12.5t35 -12.5q16 0 26 26t21 80q19 93 43 242t24 169 q0 15 -9 15q-13 0 -54.5 -44.5t-44.5 -44.5q-4 0 -9.5 4.5t-5.5 9.5q0 6 30 38.5t72.5 65t68.5 32.5q9 0 16.5 -7t7.5 -20q0 -32 -55 -362q-24 -161 -97 -216q-54 -39 -89 -39q-25 0 -41.5 11.5t-16.5 25.5z" />
<glyph unicode="&#x136;" horiz-adv-x="656" d="M246 -207q0 2 13.5 9.5t27 20.5t13.5 28q0 16 -17 32t-17 22q0 13 20 25t27 12q11 0 29 -18t18 -33q0 -31 -26.5 -60.5t-50.5 -43t-28 -13.5q-9 0 -9 19zM17 13q0 10 4 13.5t17 3.5h31q10 25 51.5 294.5t41.5 298.5q0 13 -6 13h-57q-15 0 -15 18q0 12 5 15t17 3 q6 0 45.5 -1.5t56.5 -1.5q16 0 49 1.5t44 1.5q10 0 12.5 -4t2.5 -17q0 -10 -3.5 -12.5t-15.5 -2.5h-37q-10 -8 -31.5 -131t-23.5 -147q-2 -17 10 -17h49q7 0 91.5 108l130.5 171q8 12 8 13q0 3 -11 3h-23q-11 0 -15.5 3t-4.5 15t4 15t14 3q5 0 30.5 -1.5t42.5 -1.5 q23 0 48.5 1.5t31.5 1.5q10 0 13.5 -4t3.5 -17q0 -10 -4 -12.5t-17 -2.5h-56q-80 -107 -218 -260q-3 -3 -8 -9q-7 -7 -7 -8q0 -3 7 -10q24 -22 56.5 -60.5t56.5 -70.5l65 -89l61 -83q11 -16 33 -16h30q8 0 10 -3t2 -13q0 -9 -0.5 -12.5t-3 -5.5t-8.5 -2q-7 0 -45.5 1.5 t-70.5 1.5q-16 0 -42.5 -1.5t-37.5 -1.5q-10 0 -12.5 4t-2.5 17q0 10 4 12.5t17 2.5h8q17 0 17 4q0 3 -11 18q-188 265 -195 265h-49q-8 0 -9 -7q-4 -33 -14.5 -101.5t-16.5 -112.5t-6 -58q0 -2 1 -5v-3h67q9 0 11.5 -3.5t2.5 -12.5q0 -12 -2.5 -16t-11.5 -4q-11 0 -54 1.5 t-59 1.5t-44.5 -1.5t-39.5 -1.5q-10 0 -12.5 4t-2.5 15z" />
<glyph unicode="&#x137;" horiz-adv-x="450" d="M125 -207q0 2 13.5 9.5t27 20.5t13.5 28q0 16 -17 32t-17 22q0 13 20 25t27 12q11 0 29 -18t18 -33q0 -31 -26.5 -60.5t-50.5 -43t-28 -13.5q-9 0 -9 19zM22 -3q0 8 21 107t48.5 249.5t38.5 269.5q0 6 -6 6q-5 0 -41 -10t-37 -10q-6 0 -6 9q0 24 9 26l72 18q77 20 82 20 q14 0 14 -14q0 -13 -93 -470q36 65 63 100q33 44 67 65t84 21q62 0 62 -40q0 -43 -33 -80t-68 -54t-66 -24q-2 0 -7.5 -1t-6.5 -1q9 -4 21 -15q47 -45 73 -77q16 -20 24 -28.5t22 -16t30 -7.5q31 0 31 24q0 3 -1 9.5t-1 10.5q0 15 11 15q9 0 16.5 -11.5t7.5 -34.5 q0 -25 -39.5 -41.5t-74.5 -16.5q-23 0 -45 21q-11 10 -23.5 25t-29 37.5t-24.5 32.5l-23.5 28l-20.5 24.5t-7 11.5q0 6 18 24q3 3 12 3q16 0 27 5q37 17 70 53t33 68q0 18 -28 18q-27 0 -61 -32q-11 -11 -24.5 -28.5t-21 -28.5l-28 -42l-25.5 -39q-17 -27 -24 -57 q-16 -66 -21 -97q-7 -24 -13 -25q-1 0 -11 -1.5t-22 -3t-17 -1.5q-8 0 -8 6z" />
<glyph unicode="&#x138;" horiz-adv-x="491" d="M21 291q0 11 51.5 54.5t82.5 43.5q21 0 21 -23q0 -63 -27 -193q52 90 79 125q33 44 67 65t84 21q62 0 62 -40q0 -43 -33 -80t-68 -54t-66 -24q-2 0 -7.5 -1t-6.5 -1q9 -4 21 -15q47 -45 73 -77q16 -20 24 -28.5t22 -16t30 -7.5q31 0 31 24q0 3 -1 9.5t-1 10.5q0 15 11 15 q9 0 16.5 -11.5t7.5 -34.5q0 -25 -39.5 -41.5t-74.5 -16.5q-23 0 -45 21q-11 10 -23.5 25t-29 37.5t-24.5 32.5l-23.5 28l-20.5 24.5t-7 11.5q0 6 18 24q3 3 12 3q16 0 27 5q37 17 70 53t33 68q0 17 -28 17t-61 -31q-24 -23 -99 -137q-17 -27 -24 -58q-16 -66 -21 -97 q-7 -24 -13 -25q-1 0 -11 -1.5t-22 -3t-17 -1.5q-11 0 -8 13q1 3 9.5 48.5l16.5 87.5t15 88.5t7 64.5q0 35 -10 35q-14 0 -41 -26t-28 -26q-2 0 -6.5 5t-4.5 10z" />
<glyph unicode="&#x139;" horiz-adv-x="586" d="M201 731q0 4 3 7l67 86q20 26 40 26q29 0 29 -24q0 -20 -19 -33l-83 -60q-10 -7 -11 -7h-19q-7 0 -7 5zM17 15q0 10 4 12.5t16 2.5h50q6 37 41 306.5t35 289.5v10h-59q-11 0 -14 3.5t-3 14.5q0 12 3.5 15t15.5 3q4 0 40 -1.5t62 -1.5q27 0 64.5 1.5t45.5 1.5 q13 0 16.5 -3.5t3.5 -14.5q0 -10 -4.5 -14t-16.5 -4h-59q-7 -47 -42 -311t-35 -272q0 -19 18 -19q227 0 287 6q11 1 13 3t7 18l26 79q3 10 13 9q24 -3 24 -14q0 -2 -5 -18.5l-15 -48.5t-18 -61q-4 -13 -18 -13q-11 0 -187.5 1.5t-192.5 1.5t-52.5 -1.5t-47.5 -1.5 q-10 0 -13 4t-3 17z" />
<glyph unicode="&#x13a;" horiz-adv-x="272" d="M193 731q0 4 3 7l67 86q20 26 40 26q29 0 29 -24q0 -20 -19 -33l-83 -60q-10 -7 -11 -7h-19q-7 0 -7 5zM52 28q0 6 18 106.5l42 243.5t35 234q2 8 -1 11.5t-11 1.5q-73 -19 -74 -19q-7 0 -7 10q0 8 1 13q1 13 12 16l77 18.5l55.5 14t20.5 4.5q10 0 10 -10 q0 -12 -50 -305.5t-50 -298.5q0 -18 11 -18t35.5 21t44 42t20.5 21q3 0 11 -6.5t8 -9.5q0 -6 -28.5 -37t-72.5 -62.5t-75 -31.5q-32 0 -32 41z" />
<glyph unicode="&#x13b;" horiz-adv-x="586" d="M233 -207q0 2 13.5 9.5t27 20.5t13.5 28q0 16 -17 32t-17 22q0 13 20 25t27 12q11 0 29 -18t18 -33q0 -31 -26.5 -60.5t-50.5 -43t-28 -13.5q-9 0 -9 19zM17 15q0 10 4 12.5t16 2.5h50q6 37 41 306.5t35 289.5v10h-59q-11 0 -14 3.5t-3 14.5q0 12 3.5 15t15.5 3 q4 0 40 -1.5t62 -1.5q27 0 64.5 1.5t45.5 1.5q13 0 16.5 -3.5t3.5 -14.5q0 -10 -4.5 -14t-16.5 -4h-59q-7 -47 -42 -311t-35 -272q0 -19 18 -19q227 0 287 6q11 1 13 3t7 18l26 79q3 10 13 9q24 -3 24 -14q0 -2 -5 -18.5l-15 -48.5t-18 -61q-4 -13 -18 -13q-11 0 -187.5 1.5 t-192.5 1.5t-52.5 -1.5t-47.5 -1.5q-10 0 -13 4t-3 17z" />
<glyph unicode="&#x13c;" horiz-adv-x="272" d="M14 -207q0 2 13.5 9.5t27 20.5t13.5 28q0 16 -17 32t-17 22q0 13 20 25t27 12q11 0 29 -18t18 -33q0 -31 -26.5 -60.5t-50.5 -43t-28 -13.5q-9 0 -9 19zM52 28q0 6 18 106.5l42 243.5t35 234q2 8 -1 11.5t-11 1.5q-73 -19 -74 -19q-7 0 -7 10q0 8 1 13q1 13 12 16 l77 18.5l55.5 14t20.5 4.5q10 0 10 -10q0 -12 -50 -305.5t-50 -298.5q0 -18 11 -18t35.5 21t44 42t20.5 21q3 0 11 -6.5t8 -9.5q0 -6 -28.5 -37t-72.5 -62.5t-75 -31.5q-32 0 -32 41z" />
<glyph unicode="&#x13d;" horiz-adv-x="586" d="M364 495q0 4 6 26.5l15 58l13 50.5q9 34 37 34q15 0 22 -8t7 -18t-13 -36l-55 -98q-5 -14 -12 -14h-15q-5 0 -5 5zM17 15q0 10 4 12.5t16 2.5h50q6 37 41 306.5t35 289.5v10h-59q-11 0 -14 3.5t-3 14.5q0 12 3.5 15t15.5 3q4 0 40 -1.5t62 -1.5q27 0 64.5 1.5t45.5 1.5 q13 0 16.5 -3.5t3.5 -14.5q0 -10 -4.5 -14t-16.5 -4h-59q-7 -47 -42 -311t-35 -272q0 -19 18 -19q227 0 287 6q11 1 13 3t7 18l26 79q3 10 13 9q24 -3 24 -14q0 -2 -5 -18.5l-15 -48.5t-18 -61q-4 -13 -18 -13q-11 0 -187.5 1.5t-192.5 1.5t-52.5 -1.5t-47.5 -1.5 q-10 0 -13 4t-3 17z" />
<glyph unicode="&#x13e;" horiz-adv-x="272" d="M245 495q0 4 6 26.5l15 58l13 50.5q9 34 37 34q15 0 22 -8t7 -18t-13 -36l-55 -98q-5 -14 -12 -14h-15q-5 0 -5 5zM52 28q0 6 18 106.5l42 243.5t35 234q2 8 -1 11.5t-11 1.5q-73 -19 -74 -19q-7 0 -7 10q0 8 1 13q1 13 12 16l77 18.5l55.5 14t20.5 4.5q10 0 10 -10 q0 -12 -50 -305.5t-50 -298.5q0 -18 11 -18t35.5 21t44 42t20.5 21q3 0 11 -6.5t8 -9.5q0 -6 -28.5 -37t-72.5 -62.5t-75 -31.5q-32 0 -32 41z" />
<glyph unicode="&#x13f;" horiz-adv-x="586" d="M17 15q0 10 4 12.5t16 2.5h50q6 37 41 306.5t35 289.5v10h-59q-11 0 -14 3.5t-3 14.5q0 12 3.5 15t15.5 3q4 0 40 -1.5t62 -1.5q27 0 64.5 1.5t45.5 1.5q13 0 16.5 -3.5t3.5 -14.5q0 -10 -4.5 -14t-16.5 -4h-59q-7 -47 -42 -311t-35 -272q0 -19 18 -19q227 0 287 6 q11 1 13 3t7 18l26 79q3 10 13 9q24 -3 24 -14q0 -2 -5 -18.5l-15 -48.5t-18 -61q-4 -13 -18 -13q-11 0 -187.5 1.5t-192.5 1.5t-52.5 -1.5t-47.5 -1.5q-10 0 -13 4t-3 17zM425 340q0 21 12 35t32 14q22 0 34.5 -16t12.5 -35q0 -21 -12.5 -35t-31.5 -14q-22 0 -34.5 16 t-12.5 35z" />
<glyph unicode="&#x140;" horiz-adv-x="397" d="M294 340q0 21 12 35t32 14q22 0 34.5 -16t12.5 -35q0 -21 -12.5 -35t-31.5 -14q-22 0 -34.5 16t-12.5 35zM52 28q0 6 18 106.5l42 243.5t35 234q2 8 -1 11.5t-11 1.5q-73 -19 -74 -19q-7 0 -7 10q0 8 1 13q1 13 12 16l77 18.5l55.5 14t20.5 4.5q10 0 10 -10 q0 -12 -50 -305.5t-50 -298.5q0 -18 11 -18t35.5 21t44 42t20.5 21q3 0 11 -6.5t8 -9.5q0 -6 -28.5 -37t-72.5 -62.5t-75 -31.5q-32 0 -32 41z" />
<glyph unicode="&#x141;" horiz-adv-x="586" d="M17 15q0 10 4 12.5t16 2.5h49q1 0 25 179q1 6 -0.5 7t-7.5 -2q-9 -4 -25.5 -12l-26.5 -12.5t-11 -4.5q-4 0 -4 12q0 19 3 20l67 31q11 5 13 17v3q44 333 44 358v10h-59q-11 0 -14 3.5t-3 14.5q0 12 3.5 15t15.5 3q4 0 40 -1.5t62 -1.5q27 0 64.5 1.5t45.5 1.5 q13 0 16.5 -3.5t3.5 -14.5q0 -10 -4.5 -14t-16.5 -4h-59l-43 -324q-2 -8 -1 -10t2.5 -2t8.5 3l101.5 48l120.5 56t49 22q3 0 3 -3q0 -11 -3 -26q-1 -4 -7 -7l-271 -126q-10 -6 -12 -18q-25 -187 -25 -196q0 -19 18 -19q227 0 287 6q11 1 13 3t7 18l26 79q3 10 13 9 q24 -3 24 -14q0 -2 -5 -18.5l-15 -48.5t-18 -61q-4 -13 -18 -13q-11 0 -187.5 1.5t-192.5 1.5t-52.5 -1.5t-47.5 -1.5q-10 0 -13 4t-3 17z" />
<glyph unicode="&#x142;" horiz-adv-x="272" d="M23 271q0 3 2.5 17t4.5 15l68 35q8 4 11 19q31 196 38 255q2 8 -1 11.5t-11 1.5q-73 -19 -74 -19q-7 0 -7 10q0 8 1 13q1 13 12 16l77 18.5l55.5 14t20.5 4.5q10 0 10 -10q0 -18 -46 -282q-1 -6 1 -7t6 2q2 1 3 1l65 32q2 0 2 -4l-6 -31l-67 -34q-9 -5 -11 -9t-4 -16 q-43 -252 -43 -256q0 -18 11 -18t35.5 21t44 42t20.5 21q3 0 11 -6.5t8 -9.5q0 -6 -28.5 -37t-72.5 -62.5t-75 -31.5q-32 0 -32 41l46 263q2 11 0.5 12t-10.5 -4l-60 -31q-5 -2 -5 3z" />
<glyph unicode="&#x143;" horiz-adv-x="824" d="M452 731q0 4 3 7l67 86q20 26 40 26q29 0 29 -24q0 -20 -19 -33l-83 -60l-11 -7h-19q-7 0 -7 5zM17 15q0 10 4 12.5t17 2.5h47q22 135 89 511q11 55 11 73q0 2 -5 11q-4 7 -7 9t-14 2h-60q-8 0 -10 3t-2 13q0 9 0.5 12.5t3 5.5t8.5 2t54.5 -1.5t59.5 -1.5q13 0 28 1.5 t17 1.5q14 0 23 -14l328 -499q8 -11 13 -11q9 24 39.5 230.5t30.5 248.5v9h-75q-9 0 -11.5 3.5t-2.5 12.5q0 12 2.5 16t11.5 4q6 0 37 -1.5t52 -1.5q24 0 52 1.5t32 1.5q10 0 13.5 -4t3.5 -17q0 -10 -4 -12.5t-17 -2.5h-40q-11 -34 -79 -464q-9 -59 -17 -170 q-1 -15 -4.5 -20.5t-13.5 -5.5q-4 0 -7.5 2t-7 6t-5.5 7t-6 9.5t-5 8.5q-55 89 -117 180l-256 374q-12 15 -14 11q-1 -2 -2 -8l-6 -38l-13.5 -85.5l-16.5 -111.5l-16.5 -118.5t-12.5 -103t-5 -67.5q0 -5 1 -10v-2h84q9 0 11.5 -3.5t2.5 -12.5q0 -12 -2.5 -16t-11.5 -4 q-11 0 -50.5 1.5t-55.5 1.5q-18 0 -52 -1.5t-35 -1.5q-10 0 -13.5 4t-3.5 17z" />
<glyph unicode="&#x144;" horiz-adv-x="515" d="M321 451q0 1 3 7l61 123q13 26 35 26q15 0 24.5 -6.5t9.5 -17.5q0 -16 -10 -27l-91 -103q-5 -7 -10 -7h-15q-7 0 -7 5zM12 287q0 4 30.5 28.5t74 49t70.5 24.5q9 0 16.5 -6t7.5 -18q0 -13 -2.5 -31.5t-5 -33.5t-9 -40.5t-9.5 -38.5t-11.5 -43t-10.5 -39 q70 121 128.5 185.5t113.5 64.5q54 0 54 -47q0 -30 -38.5 -146t-38.5 -126q0 -17 16 -17q12 0 34 19t39 38l17 19q2 0 8.5 -6.5t6.5 -9.5q0 -6 -24 -33t-64.5 -54.5t-74.5 -27.5q-16 0 -25.5 12.5t-9.5 31.5q0 29 40 136t40 137q0 26 -19 26q-24 0 -77 -66.5t-99 -140.5 q-22 -35 -44 -111q0 -1 -1 -5t-2.5 -7t-3 -7t-4.5 -6.5t-7 -2.5q-40 -4 -48 -4q-10 0 -8 14q60 249 60 311q0 15 -10 15t-32 -16t-40.5 -32t-19.5 -16q-5 0 -11.5 6t-6.5 14z" />
<glyph unicode="&#x145;" horiz-adv-x="824" d="M317 -207q0 2 13.5 9.5t27 20.5t13.5 28q0 16 -17 32t-17 22q0 13 20 25t27 12q11 0 29 -18t18 -33q0 -31 -26.5 -60.5t-50.5 -43t-28 -13.5q-9 0 -9 19zM17 15q0 10 4 12.5t17 2.5h47q22 135 89 511q11 55 11 73q0 2 -5 11q-4 7 -7 9t-14 2h-60q-8 0 -10 3t-2 13 q0 9 0.5 12.5t3 5.5t8.5 2t54.5 -1.5t59.5 -1.5q13 0 28 1.5t17 1.5q14 0 23 -14l328 -499q8 -11 13 -11q9 24 39.5 230.5t30.5 248.5v9h-75q-9 0 -11.5 3.5t-2.5 12.5q0 12 2.5 16t11.5 4q6 0 37 -1.5t52 -1.5q24 0 52 1.5t32 1.5q10 0 13.5 -4t3.5 -17q0 -10 -4 -12.5 t-17 -2.5h-40q-11 -34 -79 -464q-9 -59 -17 -170q-1 -15 -4.5 -20.5t-13.5 -5.5q-4 0 -7.5 2t-7 6t-5.5 7t-6 9.5t-5 8.5q-55 89 -117 180l-256 374q-12 15 -14 11q-1 -2 -2 -8l-6 -38l-13.5 -85.5l-16.5 -111.5l-16.5 -118.5t-12.5 -103t-5 -67.5q0 -5 1 -10v-2h84 q9 0 11.5 -3.5t2.5 -12.5q0 -12 -2.5 -16t-11.5 -4q-11 0 -50.5 1.5t-55.5 1.5q-18 0 -52 -1.5t-35 -1.5q-10 0 -13.5 4t-3.5 17z" />
<glyph unicode="&#x146;" horiz-adv-x="515" d="M159 -207q0 2 13.5 9.5t27 20.5t13.5 28q0 16 -17 32t-17 22q0 13 20 25t27 12q11 0 29 -18t18 -33q0 -31 -26.5 -60.5t-50.5 -43t-28 -13.5q-9 0 -9 19zM12 287q0 4 30.5 28.5t74 49t70.5 24.5q9 0 16.5 -6t7.5 -18q0 -13 -2.5 -31.5t-5 -33.5t-9 -40.5t-9.5 -38.5 t-11.5 -43t-10.5 -39q70 121 128.5 185.5t113.5 64.5q54 0 54 -47q0 -30 -38.5 -146t-38.5 -126q0 -17 16 -17q12 0 34 19t39 38l17 19q2 0 8.5 -6.5t6.5 -9.5q0 -6 -24 -33t-64.5 -54.5t-74.5 -27.5q-16 0 -25.5 12.5t-9.5 31.5q0 29 40 136t40 137q0 26 -19 26 q-24 0 -77 -66.5t-99 -140.5q-22 -35 -44 -111q0 -1 -1 -5t-2.5 -7t-3 -7t-4.5 -6.5t-7 -2.5q-40 -4 -48 -4q-10 0 -8 14q60 249 60 311q0 15 -10 15t-32 -16t-40.5 -32t-19.5 -16q-5 0 -11.5 6t-6.5 14z" />
<glyph unicode="&#x147;" horiz-adv-x="824" d="M381 838q0 4 9 4h10q4 0 11 -7l63 -52q2 -2 4 0l85 53q10 6 13 6h13q6 0 6 -4q0 -2 -6 -8l-91 -92q-12 -12 -22 -12h-20q-12 0 -19 12l-53 92q-3 4 -3 8zM17 15q0 10 4 12.5t17 2.5h47q22 135 89 511q11 55 11 73q0 2 -5 11q-4 7 -7 9t-14 2h-60q-8 0 -10 3t-2 13 q0 9 0.5 12.5t3 5.5t8.5 2t54.5 -1.5t59.5 -1.5q13 0 28 1.5t17 1.5q14 0 23 -14l328 -499q8 -11 13 -11q9 24 39.5 230.5t30.5 248.5v9h-75q-9 0 -11.5 3.5t-2.5 12.5q0 12 2.5 16t11.5 4q6 0 37 -1.5t52 -1.5q24 0 52 1.5t32 1.5q10 0 13.5 -4t3.5 -17q0 -10 -4 -12.5 t-17 -2.5h-40q-11 -34 -79 -464q-9 -59 -17 -170q-1 -15 -4.5 -20.5t-13.5 -5.5q-4 0 -7.5 2t-7 6t-5.5 7t-6 9.5t-5 8.5q-55 89 -117 180l-256 374q-12 15 -14 11q-1 -2 -2 -8l-6 -38l-13.5 -85.5l-16.5 -111.5l-16.5 -118.5t-12.5 -103t-5 -67.5q0 -5 1 -10v-2h84 q9 0 11.5 -3.5t2.5 -12.5q0 -12 -2.5 -16t-11.5 -4q-11 0 -50.5 1.5t-55.5 1.5q-18 0 -52 -1.5t-35 -1.5q-10 0 -13.5 4t-3.5 17z" />
<glyph unicode="&#x148;" horiz-adv-x="515" d="M258 583q0 4 10 4h12q2 0 9 -7l60 -59q4 -4 11 0l81 59q9 7 11 7h15q6 0 6 -4l-6 -9l-91 -104q-8 -10 -11 -11.5t-11 -1.5h-20q-8 0 -11 2t-8 12l-53 103q-4 8 -4 9zM12 287q0 4 30.5 28.5t74 49t70.5 24.5q9 0 16.5 -6t7.5 -18q0 -13 -2.5 -31.5t-5 -33.5t-9 -40.5 t-9.5 -38.5t-11.5 -43t-10.5 -39q70 121 128.5 185.5t113.5 64.5q54 0 54 -47q0 -30 -38.5 -146t-38.5 -126q0 -17 16 -17q12 0 34 19t39 38l17 19q2 0 8.5 -6.5t6.5 -9.5q0 -6 -24 -33t-64.5 -54.5t-74.5 -27.5q-16 0 -25.5 12.5t-9.5 31.5q0 29 40 136t40 137q0 26 -19 26 q-24 0 -77 -66.5t-99 -140.5q-22 -35 -44 -111q0 -1 -1 -5t-2.5 -7t-3 -7t-4.5 -6.5t-7 -2.5q-40 -4 -48 -4q-10 0 -8 14q60 249 60 311q0 15 -10 15t-32 -16t-40.5 -32t-19.5 -16q-5 0 -11.5 6t-6.5 14z" />
<glyph unicode="&#x149;" horiz-adv-x="744" d="M241 287q0 4 30.5 28.5t74 49t70.5 24.5q9 0 16.5 -6t7.5 -18q0 -13 -2.5 -31.5t-5 -33.5t-9 -40.5t-9.5 -38.5t-11.5 -43t-10.5 -39q70 121 128.5 185.5t113.5 64.5q54 0 54 -47q0 -30 -38.5 -146t-38.5 -126q0 -17 16 -17q12 0 34 19t39 38l17 19q3 0 9 -6.5t6 -9.5 q0 -6 -24 -33t-64.5 -54.5t-74.5 -27.5q-16 0 -25.5 12.5t-9.5 31.5q0 29 40 136t40 137q0 26 -19 26q-24 0 -77 -66.5t-99 -140.5q-22 -35 -44 -111q0 -1 -1 -5t-2.5 -7t-3 -7t-4.5 -6.5t-7 -2.5q-40 -4 -48 -4q-10 0 -8 14q60 249 60 311q0 15 -10 15t-32 -16t-40.5 -32 t-19.5 -16q-5 0 -11.5 6t-6.5 14zM56 453q0 1 16 17t32.5 36.5t16.5 34.5q0 12 -10.5 40.5t-10.5 42.5q0 20 19 38.5t31 18.5q13 0 22.5 -32.5t9.5 -55.5t-10.5 -48t-25.5 -44.5t-31 -35.5t-26.5 -24.5t-12.5 -8.5t-11 9t-9 12z" />
<glyph unicode="&#x14a;" horiz-adv-x="824" d="M17 15q0 10 4 12.5t17 2.5h47q22 135 89 511q11 55 11 73q0 2 -5 11q-4 7 -7 9t-14 2h-60q-8 0 -10 3t-2 13q0 9 0.5 12.5t3 5.5t8.5 2t54.5 -1.5t59.5 -1.5q13 0 28 1.5t17 1.5q14 0 23 -14l328 -499q8 -11 13 -11q9 24 39.5 230.5t30.5 248.5v9h-75q-9 0 -11.5 3.5 t-2.5 12.5q0 12 2.5 16t11.5 4q6 0 37 -1.5t52 -1.5q24 0 52 1.5t32 1.5q10 0 13.5 -4t3.5 -17q0 -10 -4 -12.5t-17 -2.5h-40q-11 -34 -79 -464q-23 -144 -44 -239q-23 -105 -87 -152q-54 -39 -89 -39q-25 0 -41.5 11.5t-16.5 25.5q0 17 11 28t27 11q20 0 40 -12.5t35 -12.5 q4 0 7.5 1.5t6.5 5t5.5 7.5t5 11l4.5 13t4.5 15t4 16t4.5 18t5 19q29 113 29 137q0 13 -18 41l-332 486q-12 15 -14 11q-1 -2 -2 -8q0 -1 -4.5 -29.5l-10.5 -69l-13.5 -92l-14.5 -103.5l-13.5 -98.5t-10 -82t-3.5 -49.5q0 -5 1 -10v-2h84q9 0 11.5 -3.5t2.5 -12.5 q0 -12 -2.5 -16t-11.5 -4q-11 0 -50.5 1.5t-55.5 1.5q-18 0 -52 -1.5t-35 -1.5q-10 0 -13.5 4t-3.5 17z" />
<glyph unicode="&#x14b;" horiz-adv-x="515" d="M12 287q0 4 30.5 28.5t74 49t70.5 24.5q9 0 16.5 -6t7.5 -18q0 -13 -2.5 -31.5t-5 -33.5t-9 -40.5t-9.5 -38.5t-11.5 -43t-10.5 -39q70 121 128.5 185.5t113.5 64.5q54 0 54 -47q0 -50 -97 -409q-30 -109 -87 -152q-54 -39 -89 -39q-25 0 -41.5 11.5t-16.5 25.5 q0 17 11 28t27 11q20 0 40 -12.5t35 -12.5t23.5 21.5t20.5 71.5q2 8 3 13q7 30 35 137t46 183t18 96q0 11 -6 18.5t-15 7.5q-24 0 -77 -66.5t-99 -140.5q-22 -35 -44 -111q0 -1 -1 -5t-2.5 -7t-3 -7t-4.5 -6.5t-7 -2.5q-40 -4 -48 -4q-10 0 -8 14q60 249 60 311q0 15 -10 15 t-32 -16t-40.5 -32t-19.5 -16q-5 0 -11.5 6t-6.5 14z" />
<glyph unicode="&#x14c;" horiz-adv-x="734" d="M336 783q0 10 2 26q1 7 2.5 9t7.5 2h188q6 0 6 -6q0 -11 -2 -27q-1 -11 -9 -11h-185q-10 0 -10 7zM32 280q0 87 33 163t86 126t120 78.5t136 28.5q136 0 215.5 -90t79.5 -238q0 -153 -107.5 -263t-260.5 -110q-131 0 -216.5 76t-85.5 229zM130 286q0 -54 13 -102.5 t38.5 -89.5t69.5 -65t100 -24q73 0 133.5 59.5t90.5 142.5t30 166q0 44 -11 89t-33 86.5t-61.5 67.5t-89.5 26q-106 0 -193 -111.5t-87 -244.5z" />
<glyph unicode="&#x14d;" horiz-adv-x="419" d="M187 515q0 8 2 24q1 11 12 11h181q11 0 11 -9q0 -8 -2 -24q-1 -11 -11 -11h-181q-12 0 -12 9zM22 138q0 111 66.5 186.5t167.5 75.5q38 0 67 -16t44.5 -41.5t22.5 -52t7 -52.5q0 -95 -69 -172t-163 -77q-68 0 -105.5 43.5t-37.5 105.5zM90 146q0 -127 77 -127 q44 0 83 46.5t58.5 105.5t19.5 107q0 35 -18.5 64t-64.5 29q-55 0 -105 -78t-50 -147z" />
<glyph unicode="&#x14e;" horiz-adv-x="734" d="M350 810q0 31 5 31h15q4 0 4 -5q0 -30 14.5 -43.5t50.5 -13.5q51 0 75 32q4 6 7 13.5t4.5 12t2.5 4.5h20v-3q-6 -47 -38 -79.5t-79 -32.5q-42 0 -61.5 24t-19.5 60zM32 280q0 87 33 163t86 126t120 78.5t136 28.5q136 0 215.5 -90t79.5 -238q0 -153 -107.5 -263 t-260.5 -110q-131 0 -216.5 76t-85.5 229zM130 286q0 -54 13 -102.5t38.5 -89.5t69.5 -65t100 -24q73 0 133.5 59.5t90.5 142.5t30 166q0 44 -11 89t-33 86.5t-61.5 67.5t-89.5 26q-106 0 -193 -111.5t-87 -244.5z" />
<glyph unicode="&#x14f;" horiz-adv-x="419" d="M203 552q0 35 7 35h13q4 0 4 -6q0 -8 2 -20q9 -47 63 -47q50 0 75 39q3 5 6 11.5t4.5 11t3.5 8t4 3.5h11q5 0 5 -3q0 -1 -0.5 -3.5t-0.5 -3.5q-8 -51 -40 -86t-76 -35q-42 0 -61.5 27.5t-19.5 68.5zM22 138q0 111 66.5 186.5t167.5 75.5q38 0 67 -16t44.5 -41.5t22.5 -52 t7 -52.5q0 -95 -69 -172t-163 -77q-68 0 -105.5 43.5t-37.5 105.5zM90 146q0 -127 77 -127q44 0 83 46.5t58.5 105.5t19.5 107q0 35 -18.5 64t-64.5 29q-55 0 -105 -78t-50 -147z" />
<glyph unicode="&#x150;" horiz-adv-x="734" d="M352 731q0 4 3 7l67 86q20 26 40 26q29 0 29 -24q0 -20 -19 -33l-83 -60l-11 -7h-19q-7 0 -7 5zM472 731q0 4 3 7l67 86q20 26 40 26q29 0 29 -24q0 -20 -19 -33l-83 -60q-8 -7 -11 -7h-19q-7 0 -7 5zM32 280q0 87 33 163t86 126t120 78.5t136 28.5q136 0 215.5 -90 t79.5 -238q0 -153 -107.5 -263t-260.5 -110q-131 0 -216.5 76t-85.5 229zM130 286q0 -54 13 -102.5t38.5 -89.5t69.5 -65t100 -24q73 0 133.5 59.5t90.5 142.5t30 166q0 44 -11 89t-33 86.5t-61.5 67.5t-89.5 26q-106 0 -193 -111.5t-87 -244.5z" />
<glyph unicode="&#x151;" horiz-adv-x="419" d="M203 451q0 1 3 7l61 123q13 26 35 26q15 0 24.5 -6.5t9.5 -17.5q0 -16 -10 -27l-91 -103q-5 -7 -10 -7h-15q-7 0 -7 5zM313 451q0 1 3 7l61 123q13 26 35 26q15 0 24.5 -6.5t9.5 -17.5q0 -16 -10 -27l-91 -103q-5 -7 -10 -7h-15q-7 0 -7 5zM22 138q0 111 66.5 186.5 t167.5 75.5q38 0 67 -16t44.5 -41.5t22.5 -52t7 -52.5q0 -95 -69 -172t-163 -77q-68 0 -105.5 43.5t-37.5 105.5zM90 146q0 -127 77 -127q44 0 83 46.5t58.5 105.5t19.5 107q0 35 -18.5 64t-64.5 29q-55 0 -105 -78t-50 -147z" />
<glyph unicode="&#x152;" horiz-adv-x="988" d="M32 287q0 167 114.5 279t272.5 112q36 0 105 -6.5t98 -6.5q28 0 108.5 1.5t100.5 1.5q91 0 92 10q0 15 16 15q20 0 20 -14q0 -5 -4 -42.5t-5 -84.5q0 -7 -4 -9t-15 -2q-18 0 -18 13q0 3 6 75q-42 6 -258 6q-10 -28 -40 -266q-1 -5 -1 -10q9 -4 12 -4h164q42 0 44 11 l11 55q1 7 19 7q16 0 16 -9q0 -4 -2.5 -17.5t-7 -34.5l-7.5 -36q-14 -73 -15 -90q-1 -8 -16 -8h-4q-16 0 -16 8q0 3 6 36t6 34q0 11 -47 11h-151q-11 0 -13.5 -1t-3.5 -7q-3 -14 -19.5 -129t-19.5 -146q0 -6 4 -6q14 0 164.5 3.5t154.5 3.5q3 3 9 19.5t13.5 40.5t12.5 35 q4 11 17 11q7 0 13.5 -4t6.5 -10t-5.5 -22l-17 -47.5t-19.5 -55.5q-4 -13 -20 -13q-11 0 -179 1.5t-184 1.5q-21 0 -88 -8.5t-119 -8.5q-58 0 -111.5 18t-98 54t-71 96.5t-26.5 138.5zM130 293q0 -110 63 -196.5t163 -86.5q43 0 70 3t35 5.5t26 10.5q0 1 11.5 72.5l23 147.5 l24.5 169t19 146q6 57 6 59q-8 5 -49.5 14t-72.5 9q-144 0 -231.5 -101t-87.5 -252z" />
<glyph unicode="&#x153;" horiz-adv-x="669" d="M22 138q0 111 66.5 186.5t167.5 75.5q92 0 126 -89q67 83 167 83q39 0 67.5 -15.5t28.5 -53.5q0 -44 -36 -79t-89 -55q-65 -24 -142 -24q-5 -5 -5 -43q0 -86 93 -86q41 0 80.5 22t63 43.5t26.5 21.5q6 0 11 -6t5 -11q0 -6 -29 -33t-84 -55t-109 -28q-84 0 -117 64 q-71 -67 -148 -67q-68 0 -105.5 43.5t-37.5 105.5zM90 146q0 -127 77 -127q44 0 83 46.5t58.5 105.5t19.5 107q0 35 -18.5 64t-64.5 29q-55 0 -105 -78t-50 -147zM388 200q0 -4 7 -4q73 0 126 36t53 94q0 17 -13 27.5t-34 10.5q-80 0 -125 -120q-14 -35 -14 -44z" />
<glyph unicode="&#x154;" horiz-adv-x="625" d="M317 731q0 4 3 7l67 86q20 26 40 26q29 0 29 -24q0 -20 -19 -33l-83 -60q-10 -7 -11 -7h-19q-7 0 -7 5zM17 13q0 10 4 13.5t17 3.5h38q19 108 46.5 303t35.5 277q1 8 1 23h-65q-10 0 -14 3t-4 15q0 17 16 17q1 0 16 -1t40.5 -1.5t54.5 -0.5q15 0 69.5 3.5t72.5 3.5 q87 0 146 -46t59 -119q0 -136 -184 -182q-4 -1 -5 -1l13 -4.5l22 -7.5t24 -9q115 -46 115 -167q0 -6 -1.5 -44t-1.5 -54v-5l1 -3h45q12 0 16 -3.5t4 -14.5q0 -18 -8 -18q-2 0 -30.5 1t-64 1.5t-54.5 0.5q-8 0 -6 16q16 94 16 157q0 47 -37.5 84.5t-95.5 49.5q-24 5 -70 5 h-29q-20 0 -23 -21q-26 -182 -29 -252q0 -6 5 -6h53q9 0 12.5 -3t3.5 -13q0 -12 -2.5 -16t-11.5 -4q-11 0 -42.5 1.5t-47.5 1.5t-54 -1.5t-49 -1.5t-14 3.5t-3 15.5zM207 350q0 -11 15 -11h7q20 0 43.5 -1.5t26.5 -1.5q52 0 106 49.5t54 112.5q0 142 -168 142q-38 0 -47 -3 l-36 -275q-1 -6 -1 -12z" />
<glyph unicode="&#x155;" horiz-adv-x="341" d="M185 451q0 1 3 7l61 123q13 26 35 26q15 0 24.5 -6.5t9.5 -17.5q0 -16 -10 -27l-91 -103q-5 -7 -10 -7h-15q-7 0 -7 5zM21 291q0 11 51.5 54.5t82.5 43.5q21 0 21 -23q0 -20 -25 -167q40 108 58 140q31 57 75 57q19 0 34.5 -10.5t15.5 -28.5q0 -40 -25 -40q-13 0 -29.5 9 t-25.5 9q-12 0 -22 -16q-24 -37 -57 -124q-2 -6 -11 -38q-9 -36 -19.5 -86.5l-13.5 -64.5q-3 -13 -55 -13q-13 0 -13 7q0 2 12 64t24 133t12 96q0 35 -10 35q-14 0 -41 -26t-28 -26q-2 0 -6.5 5t-4.5 10z" />
<glyph unicode="&#x156;" horiz-adv-x="625" d="M241 -207q0 2 13.5 9.5t27 20.5t13.5 28q0 16 -17 32t-17 22q0 13 20 25t27 12q11 0 29 -18t18 -33q0 -31 -26.5 -60.5t-50.5 -43t-28 -13.5q-9 0 -9 19zM17 13q0 10 4 13.5t17 3.5h38q19 108 46.5 303t35.5 277q1 8 1 23h-65q-10 0 -14 3t-4 15q0 17 16 17q1 0 16 -1 t40.5 -1.5t54.5 -0.5q15 0 69.5 3.5t72.5 3.5q87 0 146 -46t59 -119q0 -136 -184 -182q-4 -1 -5 -1l13 -4.5l22 -7.5t24 -9q115 -46 115 -167q0 -6 -1.5 -44t-1.5 -54v-5l1 -3h45q12 0 16 -3.5t4 -14.5q0 -18 -8 -18q-2 0 -30.5 1t-64 1.5t-54.5 0.5q-8 0 -6 16 q16 94 16 157q0 47 -37.5 84.5t-95.5 49.5q-24 5 -70 5h-29q-20 0 -23 -21q-26 -182 -29 -252q0 -6 5 -6h53q9 0 12.5 -3t3.5 -13q0 -12 -2.5 -16t-11.5 -4q-11 0 -42.5 1.5t-47.5 1.5t-54 -1.5t-49 -1.5t-14 3.5t-3 15.5zM207 350q0 -11 15 -11h7q20 0 43.5 -1.5t26.5 -1.5 q52 0 106 49.5t54 112.5q0 142 -168 142q-38 0 -47 -3l-36 -275q-1 -6 -1 -12z" />
<glyph unicode="&#x157;" horiz-adv-x="341" d="M21 -207q0 2 13.5 9.5t27 20.5t13.5 28q0 16 -17 32t-17 22q0 13 20 25t27 12q11 0 29 -18t18 -33q0 -31 -26.5 -60.5t-50.5 -43t-28 -13.5q-9 0 -9 19zM21 291q0 11 51.5 54.5t82.5 43.5q21 0 21 -23q0 -20 -25 -167q40 108 58 140q31 57 75 57q19 0 34.5 -10.5 t15.5 -28.5q0 -40 -25 -40q-13 0 -29.5 9t-25.5 9q-12 0 -22 -16q-24 -37 -57 -124q-2 -6 -11 -38q-9 -36 -19.5 -86.5l-13.5 -64.5q-3 -13 -55 -13q-13 0 -13 7q0 2 12 64t24 133t12 96q0 35 -10 35q-14 0 -41 -26t-28 -26q-2 0 -6.5 5t-4.5 10z" />
<glyph unicode="&#x158;" horiz-adv-x="625" d="M246 838q0 4 9 4h10q4 0 11 -7l63 -52q2 -2 4 0l85 53q10 6 13 6h13q6 0 6 -4q0 -2 -6 -8l-91 -92q-12 -12 -22 -12h-20q-12 0 -19 12l-53 92q-3 4 -3 8zM17 13q0 10 4 13.5t17 3.5h38q19 108 46.5 303t35.5 277q1 8 1 23h-65q-10 0 -14 3t-4 15q0 17 16 17q1 0 16 -1 t40.5 -1.5t54.5 -0.5q15 0 69.5 3.5t72.5 3.5q87 0 146 -46t59 -119q0 -136 -184 -182q-4 -1 -5 -1l13 -4.5l22 -7.5t24 -9q115 -46 115 -167q0 -6 -1.5 -44t-1.5 -54v-5l1 -3h45q12 0 16 -3.5t4 -14.5q0 -18 -8 -18q-2 0 -30.5 1t-64 1.5t-54.5 0.5q-8 0 -6 16 q16 94 16 157q0 47 -37.5 84.5t-95.5 49.5q-24 5 -70 5h-29q-20 0 -23 -21q-26 -182 -29 -252q0 -6 5 -6h53q9 0 12.5 -3t3.5 -13q0 -12 -2.5 -16t-11.5 -4q-11 0 -42.5 1.5t-47.5 1.5t-54 -1.5t-49 -1.5t-14 3.5t-3 15.5zM207 350q0 -11 15 -11h7q20 0 43.5 -1.5t26.5 -1.5 q52 0 106 49.5t54 112.5q0 142 -168 142q-38 0 -47 -3l-36 -275q-1 -6 -1 -12z" />
<glyph unicode="&#x159;" horiz-adv-x="341" d="M122 583q0 4 10 4h12q2 0 9 -7l60 -59q4 -4 11 0l81 59q9 7 11 7h15q6 0 6 -4l-6 -9l-91 -104q-8 -10 -11 -11.5t-11 -1.5h-20q-8 0 -11 2t-8 12l-53 103q-4 8 -4 9zM21 291q0 11 51.5 54.5t82.5 43.5q21 0 21 -23q0 -20 -25 -167q40 108 58 140q31 57 75 57 q19 0 34.5 -10.5t15.5 -28.5q0 -40 -25 -40q-13 0 -29.5 9t-25.5 9q-12 0 -22 -16q-24 -37 -57 -124q-2 -6 -11 -38q-9 -36 -19.5 -86.5l-13.5 -64.5q-3 -13 -55 -13q-13 0 -13 7q0 2 12 64t24 133t12 96q0 35 -10 35q-14 0 -41 -26t-28 -26q-2 0 -6.5 5t-4.5 10z" />
<glyph unicode="&#x15a;" horiz-adv-x="505" d="M293 731q0 4 3 7l67 86q20 26 40 26q29 0 29 -24q0 -20 -19 -33l-83 -60q-10 -7 -11 -7h-19q-7 0 -7 5zM37 67q0 5 11 68.5t13 67.5q1 2 9 2q27 0 27 -10q0 -2 -8.5 -47t-8.5 -47q0 -9 27.5 -28t73 -36.5t84.5 -17.5q55 0 91 34t36 86q0 41 -31.5 71t-76.5 51t-90 45 t-76.5 66t-31.5 101q0 88 58.5 143.5t149.5 55.5q66 0 137 -55q1 4 3 15t3 14q4 13 15 12q1 0 5.5 -0.5t7 -1t5.5 -3t3 -5.5q0 -7 -32 -170q-2 -12 -13 -12q-23 0 -23 14l7 31q8 31 8 39q-2 7 -17 25.5t-49 39t-71 20.5q-56 0 -88.5 -35.5t-32.5 -93.5q0 -44 31 -74.5 t75 -49.5t88.5 -41t75.5 -63.5t31 -102.5q0 -59 -34 -104t-82 -66t-97 -21q-55 0 -107 16.5t-79 35.5t-27 31z" />
<glyph unicode="&#x15b;" horiz-adv-x="336" d="M189 451q0 1 3 7l61 123q13 26 35 26q15 0 24.5 -6.5t9.5 -17.5q0 -16 -10 -27l-91 -103q-5 -7 -10 -7h-15q-7 0 -7 5zM17 61q0 12 9.5 20t17.5 8q5 0 9 -0.5t8 -2.5l6 -3t6 -4t5 -4l5.5 -5.5l5.5 -5.5l10.5 -11t10 -10l8.5 -7.5t8.5 -6.5t8.5 -3.5t11 -1.5 q29 0 48.5 19.5t19.5 50.5q0 19 -22.5 42t-49.5 42t-49.5 47.5t-22.5 57.5q0 49 40 84t94 35q31 0 53 -8.5t31 -21t12.5 -21.5t3.5 -16q0 -20 -21 -20q-30 0 -51 37q-14 25 -29 25q-26 0 -46 -14t-20 -46q0 -25 15 -45.5t36 -36l42.5 -32t36.5 -41t15 -55.5q0 -46 -40 -80.5 t-94 -34.5q-46 0 -88.5 22t-42.5 47z" />
<glyph unicode="&#x15c;" horiz-adv-x="505" d="M198 730q0 2 6 8l91 92q12 12 22 12h20q12 0 19 -12l53 -92q3 -4 3 -8t-9 -4h-10q-4 0 -11 7l-63 52q-1 1 -4 0l-85 -53q-10 -6 -13 -6h-13q-6 0 -6 4zM37 67q0 5 11 68.5t13 67.5q1 2 9 2q27 0 27 -10q0 -2 -8.5 -47t-8.5 -47q0 -9 27.5 -28t73 -36.5t84.5 -17.5 q55 0 91 34t36 86q0 41 -31.5 71t-76.5 51t-90 45t-76.5 66t-31.5 101q0 88 58.5 143.5t149.5 55.5q66 0 137 -55q1 4 3 15t3 14q4 13 15 12q1 0 5.5 -0.5t7 -1t5.5 -3t3 -5.5q0 -7 -32 -170q-2 -12 -13 -12q-23 0 -23 14l7 31q8 31 8 39q-2 7 -17 25.5t-49 39t-71 20.5 q-56 0 -88.5 -35.5t-32.5 -93.5q0 -44 31 -74.5t75 -49.5t88.5 -41t75.5 -63.5t31 -102.5q0 -59 -34 -104t-82 -66t-97 -21q-55 0 -107 16.5t-79 35.5t-27 31z" />
<glyph unicode="&#x15d;" horiz-adv-x="336" d="M106 461l6 9l91 104q8 10 11 11.5t11 1.5h20q8 0 11 -2t8 -12l53 -103q4 -8 4 -9q0 -4 -10 -4h-12q-2 0 -9 7l-60 59q-4 4 -11 0l-81 -59q-9 -7 -11 -7h-15q-6 0 -6 4zM17 61q0 12 9.5 20t17.5 8q5 0 9 -0.5t8 -2.5l6 -3t6 -4t5 -4l5.5 -5.5l5.5 -5.5l10.5 -11t10 -10 l8.5 -7.5t8.5 -6.5t8.5 -3.5t11 -1.5q29 0 48.5 19.5t19.5 50.5q0 19 -22.5 42t-49.5 42t-49.5 47.5t-22.5 57.5q0 49 40 84t94 35q31 0 53 -8.5t31 -21t12.5 -21.5t3.5 -16q0 -20 -21 -20q-30 0 -51 37q-14 25 -29 25q-26 0 -46 -14t-20 -46q0 -25 15 -45.5t36 -36 l42.5 -32t36.5 -41t15 -55.5q0 -46 -40 -80.5t-94 -34.5q-46 0 -88.5 22t-42.5 47z" />
<glyph unicode="&#x15e;" horiz-adv-x="505" d="M37 67q0 5 11 68.5t13 67.5q1 2 9 2q27 0 27 -10q0 -2 -8.5 -47t-8.5 -47q0 -9 27.5 -28t73 -36.5t84.5 -17.5q55 0 91 34t36 86q0 41 -31.5 71t-76.5 51t-90 45t-76.5 66t-31.5 101q0 88 58.5 143.5t149.5 55.5q66 0 137 -55q1 4 3 15t3 14q4 13 15 12q1 0 5.5 -0.5 t7 -1t5.5 -3t3 -5.5q0 -7 -32 -170q-2 -12 -13 -12q-23 0 -23 14l7 31q8 31 8 39q-2 7 -17 25.5t-49 39t-71 20.5q-56 0 -88.5 -35.5t-32.5 -93.5q0 -44 31 -74.5t75 -49.5t88.5 -41t75.5 -63.5t31 -102.5q0 -59 -34 -104t-82 -66t-97 -21h-1q-20 -36 -27 -50q10 2 25 2 q36 0 58 -20t22 -47q0 -39 -33 -64t-82 -25q-22 0 -41 6t-28 12.5t-9 11.5q0 13 11 13q2 0 9.5 -3.5t20 -7t26.5 -3.5q66 0 66 46q0 17 -10.5 29.5t-33.5 12.5q-11 0 -23 -3t-13 -3q-2 0 -6 2.5t-4 3.5t7.5 15.5t20.5 37.5t19 35q-50 4 -95 20.5t-68.5 33.5t-23.5 28z" />
<glyph unicode="&#x15f;" horiz-adv-x="336" d="M17 61q0 12 9.5 20t17.5 8q5 0 9 -0.5t8 -2.5l6 -3t6 -4t5 -4l5.5 -5.5l5.5 -5.5l10.5 -11t10 -10l8.5 -7.5t8.5 -6.5t8.5 -3.5t11 -1.5q29 0 48.5 19.5t19.5 50.5q0 19 -22.5 42t-49.5 42t-49.5 47.5t-22.5 57.5q0 49 40 84t94 35q31 0 53 -8.5t31 -21t12.5 -21.5 t3.5 -16q0 -20 -21 -20q-30 0 -51 37q-14 25 -29 25q-26 0 -46 -14t-20 -46q0 -25 15 -45.5t36 -36l42.5 -32t36.5 -41t15 -55.5q0 -45 -38.5 -79.5t-91.5 -35.5l-11.5 -21l-13.5 -24.5t-7 -12.5q10 2 25 2q36 0 58 -20t22 -47q0 -39 -33 -64t-82 -25q-22 0 -41 6t-28 12.5 t-9 11.5q0 13 11 13q2 0 9.5 -3.5t20 -7t26.5 -3.5q66 0 66 46q0 17 -10.5 29.5t-33.5 12.5q-11 0 -23 -3t-13 -3q-2 0 -6 2.5t-4 3.5l51 96q-42 5 -75.5 25.5t-33.5 42.5z" />
<glyph unicode="&#x160;" horiz-adv-x="505" d="M222 838q0 4 9 4h10q4 0 11 -7l63 -52q2 -2 4 0l85 53q10 6 13 6h13q6 0 6 -4q0 -2 -6 -8l-91 -92q-12 -12 -22 -12h-20q-12 0 -19 12l-53 92q-3 4 -3 8zM37 67q0 5 11 68.5t13 67.5q1 2 9 2q27 0 27 -10q0 -2 -8.5 -47t-8.5 -47q0 -9 27.5 -28t73 -36.5t84.5 -17.5 q55 0 91 34t36 86q0 41 -31.5 71t-76.5 51t-90 45t-76.5 66t-31.5 101q0 88 58.5 143.5t149.5 55.5q66 0 137 -55q1 4 3 15t3 14q4 13 15 12q1 0 5.5 -0.5t7 -1t5.5 -3t3 -5.5q0 -7 -32 -170q-2 -12 -13 -12q-23 0 -23 14l7 31q8 31 8 39q-2 7 -17 25.5t-49 39t-71 20.5 q-56 0 -88.5 -35.5t-32.5 -93.5q0 -44 31 -74.5t75 -49.5t88.5 -41t75.5 -63.5t31 -102.5q0 -59 -34 -104t-82 -66t-97 -21q-55 0 -107 16.5t-79 35.5t-27 31z" />
<glyph unicode="&#x161;" horiz-adv-x="336" d="M126 583q0 4 10 4h12q2 0 9 -7l60 -59q4 -4 11 0l81 59q9 7 11 7h15q6 0 6 -4l-6 -9l-91 -104q-8 -10 -11 -11.5t-11 -1.5h-20q-8 0 -11 2t-8 12l-53 103q-4 8 -4 9zM17 61q0 12 9.5 20t17.5 8q5 0 9 -0.5t8 -2.5l6 -3t6 -4t5 -4l5.5 -5.5l5.5 -5.5l10.5 -11t10 -10 l8.5 -7.5t8.5 -6.5t8.5 -3.5t11 -1.5q29 0 48.5 19.5t19.5 50.5q0 19 -22.5 42t-49.5 42t-49.5 47.5t-22.5 57.5q0 49 40 84t94 35q31 0 53 -8.5t31 -21t12.5 -21.5t3.5 -16q0 -20 -21 -20q-30 0 -51 37q-14 25 -29 25q-26 0 -46 -14t-20 -46q0 -25 15 -45.5t36 -36 l42.5 -32t36.5 -41t15 -55.5q0 -46 -40 -80.5t-94 -34.5q-46 0 -88.5 22t-42.5 47z" />
<glyph unicode="&#x162;" horiz-adv-x="681" d="M17 546q0 2 5.5 17.5l16.5 47l21 62.5q2 8 5.5 11.5t7 4t11.5 0.5q14 0 14 -15v-4q14 -6 103 -6h326q99 0 101 8q1 9 4 13t13 4q11 0 15 -2.5t4 -11.5q0 -8 -1.5 -23.5t-3.5 -45t-4 -63.5q0 -11 -22 -11q-10 0 -12 3t-2 12q0 2 3 37.5t3 41.5q-9 4 -104 4h-106 q-7 0 -10 -17l-27 -187.5l-37 -261.5t-17 -123q0 -11 5 -11h64q9 0 11.5 -3.5t2.5 -12.5q0 -12 -2.5 -16t-11.5 -4q-7 0 -106 3l-18.5 -34t-15.5 -29q10 2 25 2q36 0 58 -20t22 -47q0 -39 -33 -64t-82 -25q-22 0 -41 6t-28 12.5t-9 11.5q0 13 11 13q2 0 9.5 -3.5t20 -7 t26.5 -3.5q66 0 66 46q0 17 -10.5 29.5t-33.5 12.5q-11 0 -23 -3t-13 -3q-2 0 -6 2.5t-4 3.5t53 100q-99 -3 -101 -3q-10 0 -12.5 4t-2.5 17q0 10 3.5 12.5t15.5 2.5h55q10 18 52.5 297.5t42.5 294.5q0 8 -3 8h-137q-89 0 -92 -9l-24 -70q-4 -11 -7.5 -15t-11.5 -4 q-22 0 -22 14z" />
<glyph unicode="&#x163;" horiz-adv-x="284" d="M-20 -190q0 13 11 13q2 0 9.5 -3.5t20 -7t26.5 -3.5q66 0 66 46q0 17 -10.5 29.5t-33.5 12.5q-11 0 -23 -3t-13 -3q-2 0 -6 2.5t-4 3.5l53 99q-25 6 -25 36q0 10 26.5 153.5t26.5 145.5q-2 8 -6 8h-55q-11 0 -11 7q0 1 0.5 9t0.5 10q0 10 11 10h61q6 0 7 4q1 1 1 2 q10 58 16 100q1 7 3 10.5t6 6t12 3.5q6 1 21 1h7q24 0 24 -8q0 -2 -5.5 -26l-11.5 -51t-7 -35q-2 -7 7 -7h76q11 0 9 -11q-3 -25 -13 -25h-78q-7 0 -8 -8q-41 -220 -41 -246q0 -18 16 -18q10 0 36.5 23t49.5 46l23 23q2 0 9.5 -6.5t7.5 -9.5q0 -4 -28.5 -35.5t-70.5 -67 t-71 -43.5l-18.5 -34t-15.5 -29q10 2 25 2q36 0 58 -20t22 -47q0 -39 -33 -64t-82 -25q-22 0 -41 6t-28 12.5t-9 11.5z" />
<glyph unicode="&#x164;" horiz-adv-x="681" d="M276 841q0 4 9 4h10q4 0 11 -7l63 -52q2 -2 4 0l85 53q10 6 13 6h13q6 0 6 -4q0 -2 -6 -8l-91 -92q-12 -12 -22 -12h-20q-12 0 -19 12l-53 92q-3 5 -3 8zM17 546q0 2 5.5 17.5l16.5 47l21 62.5q2 8 5.5 11.5t7 4t11.5 0.5q14 0 14 -15v-4q14 -6 103 -6h326q99 0 101 8 q1 9 4 13t13 4q11 0 15 -2.5t4 -11.5q0 -8 -1.5 -23.5t-3.5 -45t-4 -63.5q0 -11 -22 -11q-10 0 -12 3t-2 12q0 2 3 37.5t3 41.5q-9 4 -104 4h-106q-7 0 -10 -17l-27 -187.5l-37 -261.5t-17 -123q0 -11 5 -11h64q9 0 11.5 -3.5t2.5 -12.5q0 -12 -2.5 -16t-11.5 -4 q-11 0 -57.5 1.5t-62.5 1.5q-17 0 -62 -1.5t-51 -1.5q-10 0 -12.5 4t-2.5 17q0 10 3.5 12.5t15.5 2.5h55q10 18 52.5 297.5t42.5 294.5q0 8 -3 8h-137q-89 0 -92 -9l-24 -70q-4 -11 -7.5 -15t-11.5 -4q-22 0 -22 14z" />
<glyph unicode="&#x165;" horiz-adv-x="284" d="M240 495q0 4 6 26.5l15 58l13 50.5q9 34 37 34q15 0 22 -8t7 -18t-13 -36l-55 -98q-5 -14 -12 -14h-15q-5 0 -5 5zM32 346q0 1 0.5 9t0.5 10q0 10 11 10h61q6 0 7 4q1 1 1 2q10 58 16 100q1 7 3 10.5t6 6t12 3.5q6 1 21 1h7q24 0 24 -8q0 -2 -5.5 -26l-11.5 -51t-7 -35 q-2 -7 7 -7h76q11 0 9 -11q-3 -25 -13 -25h-78q-7 0 -8 -8q-41 -220 -41 -246q0 -18 16 -18q10 0 36.5 23t49.5 46l23 23q2 0 9.5 -6.5t7.5 -9.5q0 -5 -32 -40.5t-77.5 -71.5t-73.5 -36q-38 0 -38 37q0 10 26.5 153.5t26.5 145.5q-2 8 -6 8h-55q-11 0 -11 7z" />
<glyph unicode="&#x166;" horiz-adv-x="681" d="M17 546q0 2 5.5 17.5l16.5 47l21 62.5q2 8 5.5 11.5t7 4t11.5 0.5q14 0 14 -15v-4q14 -6 103 -6h326q99 0 101 8q1 9 4 13t13 4q11 0 15 -2.5t4 -11.5q0 -8 -1.5 -23.5t-3.5 -45t-4 -63.5q0 -11 -22 -11q-10 0 -12 3t-2 12q0 2 3 37.5t3 41.5q-9 4 -104 4h-106 q-7 0 -10 -17l-34 -239q-2 -10 -0.5 -13t12.5 -3h153q6 0 6 -15t-6 -15h-161q-9 0 -11 -4q0 -2 -1 -7q-39 -271 -39 -276q0 -11 5 -11h64q9 0 11.5 -3.5t2.5 -12.5q0 -12 -2.5 -16t-11.5 -4q-11 0 -57.5 1.5t-62.5 1.5q-17 0 -62 -1.5t-51 -1.5q-10 0 -12.5 4t-2.5 17 q0 10 3.5 12.5t15.5 2.5h55q10 18 51 288q1 10 -6 10h-157q-6 0 -6 16q0 14 6 14h154q11 0 13 1.5t3 10.5q1 3 1 5q36 241 36 247q0 8 -3 8h-137q-89 0 -92 -9l-24 -70q-4 -11 -7.5 -15t-11.5 -4q-22 0 -22 14z" />
<glyph unicode="&#x167;" horiz-adv-x="284" d="M17 232q0 20 5 20h60q8 0 9 5q13 72 13 74q-2 8 -6 8h-55q-11 0 -11 7q0 1 0.5 9t0.5 10q0 10 11 10h61q6 0 7 4q1 1 1 2q10 58 16 100q1 7 3 10.5t6 6t12 3.5q6 1 21 1h7q24 0 24 -8q0 -2 -5.5 -26l-11.5 -51t-7 -35q0 -7 7 -7h76q11 0 9 -11q-3 -25 -13 -25h-78 q-7 0 -8 -8l-13 -71q-1 -5 0 -6.5t6 -1.5h86q1 0 1 -4q0 -26 -6 -26h-86q-7 0 -8 -6q-21 -126 -21 -131q0 -18 16 -18q10 0 36.5 23t49.5 46l23 23q2 0 9.5 -6.5t7.5 -9.5q0 -5 -32 -40.5t-77.5 -71.5t-73.5 -36q-38 0 -38 37q0 17 32 185q-5 5 -7 5h-56q-3 0 -3 10z" />
<glyph unicode="&#x168;" horiz-adv-x="759" d="M316 744q0 9 11 27q15 25 33.5 39.5t32.5 14.5q17 0 43.5 -18t36.5 -18q21 0 37 31l2 4q2 5 9 5h13q1 0 1 -2q0 -7 -10 -30q-30 -57 -70 -57q-19 0 -42.5 17.5t-37.5 17.5q-20 0 -35 -27q-3 -8 -10 -8h-11q-3 0 -3 4zM57 649q0 12 4 15t15 3q6 0 41.5 -1.5t52.5 -1.5 q16 0 53.5 1.5t48.5 1.5q10 0 12.5 -4t2.5 -17q0 -10 -3.5 -12.5t-15.5 -2.5h-33q-10 -20 -41.5 -212.5t-31.5 -242.5q0 -36 15 -63t34 -40t44.5 -20.5t39.5 -8.5t27 -1q41 0 87 16t76 35q27 20 38 58q12 47 32 163q40 235 48 316h-66q-11 0 -16 3t-5 15t5 15t16 3 q6 0 47.5 -1.5t58.5 -1.5t48 1.5t34 1.5q10 0 13.5 -4t3.5 -17q0 -10 -4 -12.5t-17 -2.5h-30q-1 -6 -21 -116q-62 -378 -95 -490q-7 -27 -22 -27q-18 0 -19 14q-7 64 -10 64q-2 0 -44 -24q-113 -62 -212 -62q-83 0 -139 43.5t-56 117.5q0 47 33 249.5t33 228.5v2h-63 q-10 0 -14.5 3t-4.5 15z" />
<glyph unicode="&#x169;" horiz-adv-x="521" d="M207 494q0 9 11 27q15 25 33.5 39.5t32.5 14.5q17 0 43.5 -18t36.5 -18q22 0 37 31l2 4q2 5 9 5h13q1 0 1 -2q0 -7 -10 -30q-30 -57 -70 -57q-19 0 -42.5 17.5t-37.5 17.5q-20 0 -35 -27q-3 -8 -10 -8h-11q-3 0 -3 4zM12 256q0 2 7 12.5t20 27.5l26 33q16 19 27.5 30.5 t32.5 23t43 11.5q23 0 40.5 -10t17.5 -29q0 -14 -32 -133.5t-32 -144.5q0 -20 25 -20q32 0 86 77q70 101 100 198q7 22 12 54q2 6 7 7q26 6 52 6q9 0 9 -12q0 -6 -27.5 -146.5t-27.5 -151.5q0 -22 16 -22q10 0 30 23t36 45.5t17 22.5q2 0 7.5 -3.5t5.5 -5.5q0 -7 -22.5 -43 t-58.5 -72.5t-64 -36.5q-15 0 -25.5 8.5t-10.5 21.5q0 17 8.5 58.5t20.5 94.5t17 80q-34 -70 -60 -109q-105 -159 -176 -159q-58 0 -58 45q0 12 30.5 126.5t30.5 151.5q0 26 -17 26q-11 0 -34 -24.5t-41.5 -49.5t-19.5 -25q-4 0 -11 5t-7 9z" />
<glyph unicode="&#x16a;" horiz-adv-x="759" d="M324 783q0 10 2 26q1 7 2.5 9t7.5 2h188q6 0 6 -6q0 -11 -2 -27q-1 -11 -9 -11h-185q-10 0 -10 7zM57 649q0 12 4 15t15 3q6 0 41.5 -1.5t52.5 -1.5q16 0 53.5 1.5t48.5 1.5q10 0 12.5 -4t2.5 -17q0 -10 -3.5 -12.5t-15.5 -2.5h-33q-10 -20 -41.5 -212.5t-31.5 -242.5 q0 -36 15 -63t34 -40t44.5 -20.5t39.5 -8.5t27 -1q41 0 87 16t76 35q27 20 38 58q12 47 32 163q40 235 48 316h-66q-11 0 -16 3t-5 15t5 15t16 3q6 0 47.5 -1.5t58.5 -1.5t48 1.5t34 1.5q10 0 13.5 -4t3.5 -17q0 -10 -4 -12.5t-17 -2.5h-30q-1 -6 -21 -116 q-62 -378 -95 -490q-7 -27 -22 -27q-18 0 -19 14q-7 64 -10 64q-2 0 -44 -24q-113 -62 -212 -62q-83 0 -139 43.5t-56 117.5q0 47 33 249.5t33 228.5v2h-63q-10 0 -14.5 3t-4.5 15z" />
<glyph unicode="&#x16b;" horiz-adv-x="521" d="M215 515q0 8 2 24q1 11 12 11h181q11 0 11 -9q0 -8 -2 -24q-1 -11 -11 -11h-181q-12 0 -12 9zM12 256q0 2 7 12.5t20 27.5l26 33q16 19 27.5 30.5t32.5 23t43 11.5q23 0 40.5 -10t17.5 -29q0 -14 -32 -133.5t-32 -144.5q0 -20 25 -20q32 0 86 77q70 101 100 198 q7 22 12 54q2 6 7 7q26 6 52 6q9 0 9 -12q0 -6 -27.5 -146.5t-27.5 -151.5q0 -22 16 -22q10 0 30 23t36 45.5t17 22.5q2 0 7.5 -3.5t5.5 -5.5q0 -7 -22.5 -43t-58.5 -72.5t-64 -36.5q-15 0 -25.5 8.5t-10.5 21.5q0 17 8.5 58.5t20.5 94.5t17 80q-34 -70 -60 -109 q-105 -159 -176 -159q-58 0 -58 45q0 12 30.5 126.5t30.5 151.5q0 26 -17 26q-11 0 -34 -24.5t-41.5 -49.5t-19.5 -25q-4 0 -11 5t-7 9z" />
<glyph unicode="&#x16c;" horiz-adv-x="759" d="M338 810q0 31 5 31h15q4 0 4 -5q0 -30 14.5 -43.5t50.5 -13.5q51 0 75 32q4 6 7 13.5t4.5 12t2.5 4.5h20v-3q-6 -47 -38 -79.5t-79 -32.5q-42 0 -61.5 24t-19.5 60zM57 649q0 12 4 15t15 3q6 0 41.5 -1.5t52.5 -1.5q16 0 53.5 1.5t48.5 1.5q10 0 12.5 -4t2.5 -17 q0 -10 -3.5 -12.5t-15.5 -2.5h-33q-10 -20 -41.5 -212.5t-31.5 -242.5q0 -36 15 -63t34 -40t44.5 -20.5t39.5 -8.5t27 -1q41 0 87 16t76 35q27 20 38 58q12 47 32 163q40 235 48 316h-66q-11 0 -16 3t-5 15t5 15t16 3q6 0 47.5 -1.5t58.5 -1.5t48 1.5t34 1.5q10 0 13.5 -4 t3.5 -17q0 -10 -4 -12.5t-17 -2.5h-30q-1 -6 -21 -116q-62 -378 -95 -490q-7 -27 -22 -27q-18 0 -19 14q-7 64 -10 64q-2 0 -44 -24q-113 -62 -212 -62q-83 0 -139 43.5t-56 117.5q0 47 33 249.5t33 228.5v2h-63q-10 0 -14.5 3t-4.5 15z" />
<glyph unicode="&#x16d;" horiz-adv-x="521" d="M231 552q0 35 7 35h13q4 0 4 -6q0 -8 2 -20q9 -47 63 -47q50 0 75 39q3 5 6 11.5t4.5 11t3.5 8t4 3.5h11q5 0 5 -3q0 -1 -0.5 -3.5t-0.5 -3.5q-8 -51 -40 -86t-76 -35q-42 0 -61.5 27.5t-19.5 68.5zM12 256q0 2 7 12.5t20 27.5l26 33q16 19 27.5 30.5t32.5 23t43 11.5 q23 0 40.5 -10t17.5 -29q0 -14 -32 -133.5t-32 -144.5q0 -20 25 -20q32 0 86 77q70 101 100 198q7 22 12 54q2 6 7 7q26 6 52 6q9 0 9 -12q0 -6 -27.5 -146.5t-27.5 -151.5q0 -22 16 -22q10 0 30 23t36 45.5t17 22.5q2 0 7.5 -3.5t5.5 -5.5q0 -7 -22.5 -43t-58.5 -72.5 t-64 -36.5q-15 0 -25.5 8.5t-10.5 21.5q0 17 8.5 58.5t20.5 94.5t17 80q-34 -70 -60 -109q-105 -159 -176 -159q-58 0 -58 45q0 12 30.5 126.5t30.5 151.5q0 26 -17 26q-11 0 -34 -24.5t-41.5 -49.5t-19.5 -25q-4 0 -11 5t-7 9z" />
<glyph unicode="&#x16e;" horiz-adv-x="759" d="M356 781q0 29 21 50t50 21t50 -21t21 -50t-21 -50t-50 -21t-50 21t-21 50zM390 781q0 -16 10.5 -26.5t26.5 -10.5t26.5 10.5t10.5 26.5t-10.5 26.5t-26.5 10.5t-26.5 -10.5t-10.5 -26.5zM57 649q0 12 4 15t15 3q6 0 41.5 -1.5t52.5 -1.5q16 0 53.5 1.5t48.5 1.5 q10 0 12.5 -4t2.5 -17q0 -10 -3.5 -12.5t-15.5 -2.5h-33q-10 -20 -41.5 -212.5t-31.5 -242.5q0 -36 15 -63t34 -40t44.5 -20.5t39.5 -8.5t27 -1q41 0 87 16t76 35q27 20 38 58q12 47 32 163q40 235 48 316h-66q-11 0 -16 3t-5 15t5 15t16 3q6 0 47.5 -1.5t58.5 -1.5t48 1.5 t34 1.5q10 0 13.5 -4t3.5 -17q0 -10 -4 -12.5t-17 -2.5h-30q-1 -6 -21 -116q-62 -378 -95 -490q-7 -27 -22 -27q-18 0 -19 14q-7 64 -10 64q-2 0 -44 -24q-113 -62 -212 -62q-83 0 -139 43.5t-56 117.5q0 47 33 249.5t33 228.5v2h-63q-10 0 -14.5 3t-4.5 15z" />
<glyph unicode="&#x16f;" horiz-adv-x="521" d="M247 531q0 29 21 50t50 21t50 -21t21 -50t-21 -50t-50 -21t-50 21t-21 50zM281 531q0 -16 10.5 -26.5t26.5 -10.5t26.5 10.5t10.5 26.5t-10.5 26.5t-26.5 10.5t-26.5 -10.5t-10.5 -26.5zM12 256q0 2 7 12.5t20 27.5l26 33q16 19 27.5 30.5t32.5 23t43 11.5q23 0 40.5 -10 t17.5 -29q0 -14 -32 -133.5t-32 -144.5q0 -20 25 -20q32 0 86 77q70 101 100 198q7 22 12 54q2 6 7 7q26 6 52 6q9 0 9 -12q0 -6 -27.5 -146.5t-27.5 -151.5q0 -22 16 -22q10 0 30 23t36 45.5t17 22.5q2 0 7.5 -3.5t5.5 -5.5q0 -7 -22.5 -43t-58.5 -72.5t-64 -36.5 q-15 0 -25.5 8.5t-10.5 21.5q0 17 8.5 58.5t20.5 94.5t17 80q-34 -70 -60 -109q-105 -159 -176 -159q-58 0 -58 45q0 12 30.5 126.5t30.5 151.5q0 26 -17 26q-11 0 -34 -24.5t-41.5 -49.5t-19.5 -25q-4 0 -11 5t-7 9z" />
<glyph unicode="&#x170;" horiz-adv-x="759" d="M340 731q0 4 3 7l67 86q20 26 40 26q29 0 29 -24q0 -20 -19 -33l-83 -60l-11 -7h-19q-7 0 -7 5zM460 731q0 4 3 7l67 86q20 26 40 26q29 0 29 -24q0 -20 -19 -33l-83 -60q-8 -7 -11 -7h-19q-7 0 -7 5zM57 649q0 12 4 15t15 3q6 0 41.5 -1.5t52.5 -1.5q16 0 53.5 1.5 t48.5 1.5q10 0 12.5 -4t2.5 -17q0 -10 -3.5 -12.5t-15.5 -2.5h-33q-10 -20 -41.5 -212.5t-31.5 -242.5q0 -36 15 -63t34 -40t44.5 -20.5t39.5 -8.5t27 -1q41 0 87 16t76 35q27 20 38 58q12 47 32 163q40 235 48 316h-66q-11 0 -16 3t-5 15t5 15t16 3q6 0 47.5 -1.5 t58.5 -1.5t48 1.5t34 1.5q10 0 13.5 -4t3.5 -17q0 -10 -4 -12.5t-17 -2.5h-30q-1 -6 -21 -116q-62 -378 -95 -490q-7 -27 -22 -27q-18 0 -19 14q-7 64 -10 64q-2 0 -44 -24q-113 -62 -212 -62q-83 0 -139 43.5t-56 117.5q0 47 33 249.5t33 228.5v2h-63q-10 0 -14.5 3 t-4.5 15z" />
<glyph unicode="&#x171;" horiz-adv-x="521" d="M231 451q0 1 3 7l61 123q13 26 35 26q15 0 24.5 -6.5t9.5 -17.5q0 -16 -10 -27l-91 -103q-5 -7 -10 -7h-15q-7 0 -7 5zM341 451q0 1 3 7l61 123q13 26 35 26q15 0 24.5 -6.5t9.5 -17.5q0 -16 -10 -27l-91 -103q-5 -7 -10 -7h-15q-7 0 -7 5zM12 256q0 2 7 12.5t20 27.5 l26 33q16 19 27.5 30.5t32.5 23t43 11.5q23 0 40.5 -10t17.5 -29q0 -14 -32 -133.5t-32 -144.5q0 -20 25 -20q32 0 86 77q70 101 100 198q7 22 12 54q2 6 7 7q26 6 52 6q9 0 9 -12q0 -6 -27.5 -146.5t-27.5 -151.5q0 -22 16 -22q10 0 30 23t36 45.5t17 22.5q2 0 7.5 -3.5 t5.5 -5.5q0 -7 -22.5 -43t-58.5 -72.5t-64 -36.5q-15 0 -25.5 8.5t-10.5 21.5q0 17 8.5 58.5t20.5 94.5t17 80q-34 -70 -60 -109q-105 -159 -176 -159q-58 0 -58 45q0 12 30.5 126.5t30.5 151.5q0 26 -17 26q-11 0 -34 -24.5t-41.5 -49.5t-19.5 -25q-4 0 -11 5t-7 9z" />
<glyph unicode="&#x172;" horiz-adv-x="759" d="M57 649q0 12 4 15t15 3q6 0 41.5 -1.5t52.5 -1.5q16 0 53.5 1.5t48.5 1.5q10 0 12.5 -4t2.5 -17q0 -10 -3.5 -12.5t-15.5 -2.5h-33q-10 -20 -41.5 -212.5t-31.5 -242.5q0 -36 15 -63t34 -40t44.5 -20.5t39.5 -8.5t27 -1q41 0 87.5 16t76.5 35q26 19 37 58q12 47 32 163 q40 235 48 316h-66q-11 0 -16 3t-5 15t5 15t16 3q6 0 47.5 -1.5t58.5 -1.5t48 1.5t34 1.5q10 0 13.5 -4t3.5 -17q0 -10 -4 -12.5t-17 -2.5h-30q-1 -6 -21 -116q-62 -378 -95 -490q-7 -27 -22 -27q-18 0 -19 14q-7 64 -10 64q-1 0 -14 -13q-32 -32 -52 -54t-48.5 -56.5 t-43 -66t-14.5 -58.5q0 -26 13 -46.5t38 -20.5q20 0 41 11t35 22t16 11q4 0 8 -6.5t4 -9.5q0 -5 -19.5 -22t-56.5 -34.5t-73 -17.5q-33 0 -56 24.5t-23 62.5q0 14 3 28.5t11 29.5l14.5 27t20.5 28.5l22 26t26 26.5l25.5 24l27.5 24.5t25 22.5q-100 -49 -186 -49 q-83 0 -139 43.5t-56 117.5q0 47 33 249.5t33 228.5v2h-63q-10 0 -14.5 3t-4.5 15z" />
<glyph unicode="&#x173;" horiz-adv-x="521" d="M12 256q0 2 7 12.5t20 27.5l26 33q16 19 27.5 30.5t32.5 23t43 11.5q23 0 40.5 -10t17.5 -29q0 -14 -32 -133.5t-32 -144.5q0 -20 25 -20q32 0 86 77q70 101 100 198q7 22 12 54q2 6 7 7q26 6 52 6q9 0 9 -12q0 -6 -27.5 -146.5t-27.5 -151.5q0 -22 16 -22q10 0 30 23 t36 45.5t17 22.5q2 0 7.5 -3.5t5.5 -5.5q0 -11 -32 -56.5t-59 -68.5q-8 -7 -28 -23t-31 -28q-80 -84 -80 -150q0 -23 14 -42.5t32 -19.5q20 0 41 11t35 22t16 11q4 0 8 -6.5t4 -9.5q0 -5 -19.5 -22t-56.5 -34.5t-73 -17.5q-32 0 -53 27t-21 60q0 29 22.5 65t44.5 58.5 t63 60.5q9 9 14 13q-22 7 -22 28q0 17 8.5 58.5t20.5 94.5t17 80q-34 -70 -60 -109q-105 -159 -176 -159q-58 0 -58 45q0 12 30.5 126.5t30.5 151.5q0 26 -17 26q-11 0 -34 -24.5t-41.5 -49.5t-19.5 -25q-4 0 -11 5t-7 9z" />
</font>
</defs>
</svg>
