<?xml version="1.0" standalone="no"?>
<!DOCTYPE svg PUBLIC "-//W3C//DTD SVG 1.1//EN" "http://www.w3.org/Graphics/SVG/1.1/DTD/svg11.dtd" >
<svg xmlns="http://www.w3.org/2000/svg">
<metadata>
This is a custom SVG webfont generated by Font Squirrel.
Copyright   : Copyright c 2011 Barry Schwartz
</metadata>
<defs>
<font id="FanwoodTextRegular" horiz-adv-x="500" >
<font-face units-per-em="1000" ascent="690" descent="-310" />
<missing-glyph horiz-adv-x="200" />
<glyph unicode="fi" horiz-adv-x="499" d="M32 12q0 6 0.5 9t3 5t8.5 2h41q3 12 3 60q0 20 -0.5 51t-0.5 33v80q0 91 -2 91h-34q-9 0 -11 3t-2 13v8t1 4.5t3 3t6 0.5h31q8 0 8 5q0 66 6 125q8 83 54.5 129.5t115.5 46.5q58 0 94 -29.5t36 -61.5q0 -17 -18 -32.5t-31 -15.5q-15 0 -16 12q-4 61 -21.5 80t-48.5 19 q-32 0 -52.5 -21.5t-29.5 -61t-12 -75.5t-3 -86v-22q0 -8 2.5 -10t13.5 -2h117q11 0 59 2.5t54 2.5q10 0 10 -9v-164q0 -179 5 -179h38q8 0 10 -3t2 -13q0 -17 -12 -17q-9 0 -38.5 1t-42.5 1t-45 -1t-41 -1q-8 0 -10 3.5t-2 13.5q0 9 2.5 12.5t12.5 3.5h44q3 0 3 97 q0 111 -4 208q-1 11 -7 11h-157q-9 0 -11.5 -1.5t-2.5 -7.5v-166q0 -128 8 -141h62q12 0 12 -16q0 -17 -12 -17q-8 0 -46 1t-54 1q-12 0 -41 -1t-45 -1q-9 0 -11 3.5t-2 13.5z" />
<glyph unicode="fl" horiz-adv-x="501" d="M30 12q0 6 0.5 9t3 5t8.5 2h41q5 0 5 60q0 20 -0.5 51t-0.5 33v60q0 111 -2 111h-35q-9 0 -11.5 3t-2.5 13t2 13t9 3h30q6 0 7.5 1.5t1.5 7.5q0 24 -0.5 47t-0.5 50q0 85 46.5 142.5t134.5 57.5q38 0 76 -22q12 -7 25 -5q9 1 18.5 3l14.5 3t7 1q10 0 10 -18 q-4 -181 -4 -348q0 -267 4 -267h48q13 0 13 -16q0 -17 -13 -17q-6 0 -38.5 1t-48.5 1q-14 0 -49.5 -1t-41.5 -1q-13 0 -13 17q0 6 0.5 9t3 5t8.5 2h47q4 0 4 82v219q0 11 -1.5 13t-9.5 2h-150q-11 0 -13.5 -1.5t-2.5 -7.5v-226q0 -81 5 -81h57q10 0 12 -3.5t2 -12.5 q0 -17 -14 -17q-8 0 -42.5 1t-50.5 1q-14 0 -47 -1t-39 -1q-9 0 -11 3.5t-2 13.5zM158 389q0 -11 2 -12.5t16 -1.5h148q9 0 11 2.5t2 14.5q0 61 -2 157q0 6 -1 10.5t-2.5 7t-4.5 6.5t-5 7q-6 8 -14 24t-13.5 25t-18 16.5t-30.5 7.5q-28 0 -46.5 -15t-27 -44t-11.5 -57.5 t-3 -69.5v-78z" />
<glyph unicode="ff" horiz-adv-x="558" d="M35 12q0 16 15 16h35q3 0 3 60q0 20 -0.5 51t-0.5 33v60q0 111 -2 111h-37q-9 0 -10.5 2.5t-1.5 13.5v8t1 4.5t3 3t5 0.5h34q5 0 6 1.5t1 7.5q0 31 1 53.5t7 58.5t16.5 62t32 51.5t51.5 39.5q38 18 75 18q52 0 95 -37q6 -6 8.5 -6t7.5 7q38 50 109 50q38 0 65 -19t27 -51 q0 -17 -19 -33.5t-32 -16.5q-15 0 -16 12q-4 30 -6.5 43t-12 25t-25.5 12q-19 0 -31.5 -9.5t-17.5 -31t-6.5 -41t-1.5 -52.5v-130q0 -11 2 -12.5t15 -1.5h116q10 0 10 -5q0 -6 -2.5 -16t-7.5 -10h-116q-10 0 -12 -1.5t-2 -7.5v-166q0 -141 8 -141h67q10 0 12 -3.5t2 -12.5 q0 -17 -14 -17q-8 0 -50 1t-58 1q-13 0 -44 -1t-38 -1q-8 0 -10 3.5t-2 13.5q0 16 13 16h37q3 0 3 60q0 20 -0.5 51t-0.5 33v60q0 26 -0.5 62t-0.5 40q0 7 -2 8.5t-13 1.5h-149q-10 0 -12 -1.5t-2 -7.5v-166q0 -141 8 -141h58q9 0 11 -3.5t2 -12.5q0 -17 -13 -17 q-8 0 -45.5 1t-53.5 1q-12 0 -37 -1t-41 -1t-16 17zM159 386q0 -8 2 -9.5t10 -1.5h159q6 0 7 1.5t1 8.5q0 19 -0.5 39t-0.5 40q0 15 1 30t2.5 26t2.5 19t2 13t1 6q0 3 -2 5q-16 11 -25 28q-9 15 -15.5 23.5t-19 16t-27.5 7.5q-23 0 -40.5 -10t-27.5 -29t-16.5 -38 t-9.5 -47.5t-3.5 -46t-0.5 -42.5v-39z" />
<glyph unicode="ffi" horiz-adv-x="753" d="M35 12q0 6 0.5 9t3 5t8.5 2h37q4 0 4 60q0 20 -0.5 51t-0.5 33v66q0 105 -2 105h-37q-9 0 -10.5 2.5t-1.5 13.5v8t1 4.5t3 3t5 0.5h34q7 0 7 9q0 46 2.5 76t12 71t33 71t60.5 47q38 18 75 18q63 0 106 -48q7 -9 13 -1q48 63 129 63q58 0 94 -29.5t36 -61.5 q0 -17 -18 -32.5t-31 -15.5q-15 0 -16 12q-4 61 -21.5 80t-48.5 19q-32 0 -52.5 -21.5t-29.5 -61t-12 -75.5t-3 -86v-22q0 -9 2 -10.5t14 -1.5h117q11 0 59 2.5t54 2.5q10 0 10 -9v-164q0 -179 5 -179h38q8 0 10 -3t2 -13q0 -17 -12 -17q-9 0 -38.5 1t-42.5 1t-45 -1t-41 -1 q-8 0 -10 3.5t-2 13.5q0 9 2.5 12.5t12.5 3.5h44q3 0 3 97q0 111 -4 208q-1 11 -7 11h-157q-9 0 -11.5 -2.5t-2.5 -11.5v-161q0 -141 8 -141h50q10 0 12 -3.5t2 -12.5q0 -17 -13 -17q-8 0 -40.5 1t-48.5 1q-14 0 -46.5 -1t-39.5 -1q-9 0 -11 3.5t-2 13.5q0 6 0.5 9t3 5 t8.5 2h40q4 0 4 60q0 20 -0.5 51t-0.5 33v153q0 18 -4 18q-7 0 -20 0.5t-17 0.5h-124q-11 0 -12.5 -1.5t-1.5 -7.5v-166q0 -141 8 -141h57q10 0 12 -3.5t2 -12.5q0 -17 -14 -17q-8 0 -45 1t-53 1q-13 0 -43 -1t-38 -1q-9 0 -11 3.5t-2 13.5zM158 384q0 -7 3 -8t15 -1h155 q10 0 10 5q0 105 10 151l4 18l-8 8q-17 15 -31 39q-24 42 -59 42q-18 0 -32 -4.5t-24 -15t-17.5 -21t-12 -29.5t-7 -32t-4 -37.5t-2 -37.5t-0.5 -39.5v-37.5z" />
<glyph unicode="ffl" horiz-adv-x="754" d="M35 12q0 16 12 16h37q4 0 4 60q0 20 -0.5 51t-0.5 33v60q0 111 -2 111h-32q-17 0 -17 16t14 16h29q5 0 6 1t1 8q0 215 108 265q38 18 75 18q28 0 58 -13t49 -36q2 -3 5 0q51 63 139 63q38 0 76 -22q12 -7 25 -5q9 1 18.5 3l14.5 3t7 1q10 0 10 -18q-4 -181 -4 -375 q0 -240 3 -240h48q10 0 12 -3.5t2 -12.5q0 -17 -14 -17q-8 0 -39 1t-47 1q-13 0 -47.5 -1t-43.5 -1q-13 0 -13 17q0 16 13 16h47q3 0 3 82v219q0 11 -1.5 13t-9.5 2h-150q-11 0 -13.5 -1.5t-2.5 -7.5v-226q0 -81 6 -81h52q13 0 13 -16q0 -17 -13 -17q-8 0 -40.5 1t-48.5 1 q-13 0 -45 -1t-40 -1q-10 0 -12 3.5t-2 13.5q0 16 13 16h40q5 0 5 60q0 20 -0.5 51t-0.5 33v165q0 5 -1.5 6t-9.5 1h-154q-10 0 -12 -1.5t-2 -7.5v-166q0 -141 8 -141h58q13 0 13 -16q0 -17 -13 -17q-8 0 -45.5 1t-53.5 1q-13 0 -42.5 -1t-38.5 -1q-13 0 -13 17zM159 384 q0 -6 2.5 -7.5t14.5 -1.5h157q5 0 6 1.5t1 10.5q0 21 -0.5 44.5t-0.5 49.5q0 47 8 74q2 4 -3 8q-17 14 -25 28q-9 15 -15.5 23.5t-19 16t-27.5 7.5q-33 0 -54 -20t-30 -56.5t-11.5 -67t-2.5 -73.5v-37zM412 389q0 -10 2.5 -12t15.5 -2h148q9 0 11 2.5t2 14.5q0 61 -2 157 q0 6 -1 10.5t-2.5 7t-4.5 6.5t-5 7q-6 8 -14 24t-13.5 25t-18 16.5t-30.5 7.5q-28 0 -46.5 -15t-27 -44t-11.5 -57.5t-3 -69.5v-78z" />
<glyph unicode="fj" horiz-adv-x="506" d="M32 12q0 6 0.5 9t3 5t8.5 2h41q3 12 3 60q0 20 -0.5 51t-0.5 33v80q0 91 -2 91h-34q-9 0 -11 3t-2 13v8t1 4.5t3 3t6 0.5h31q8 0 8 5q0 66 6 125q8 83 54.5 129.5t115.5 46.5q58 0 94 -29.5t36 -61.5q0 -17 -18 -32.5t-31 -15.5q-15 0 -16 12q-4 61 -21.5 80t-48.5 19 q-32 0 -52.5 -21.5t-29.5 -61t-12 -75.5t-3 -86v-22q0 -8 2.5 -10t13.5 -2h117q11 0 57.5 3t52.5 3q10 0 10 -20q0 -11 2.5 -134t2.5 -200q0 -90 -11 -146t-44 -99q-14 -18 -58.5 -39t-67.5 -21q-22 0 -22 23q0 17 15.5 36.5t28.5 19.5q12 0 32 -2t23 -2q35 0 35 30 q0 9 -2 56.5t-4.5 145t-2.5 229.5q0 49 -2 76q-1 7 -2 8.5t-5 1.5h-157q-9 0 -11.5 -1.5t-2.5 -7.5v-166q0 -128 8 -141h62q12 0 12 -16q0 -17 -12 -17q-8 0 -46 1t-54 1q-12 0 -41 -1t-45 -1q-9 0 -11 3.5t-2 13.5z" />
<glyph unicode="ffj" horiz-adv-x="760" d="M35 12q0 6 0.5 9t3 5t8.5 2h37q4 0 4 60q0 20 -0.5 51t-0.5 33v66q0 105 -2 105h-37q-9 0 -10.5 2.5t-1.5 13.5v8t1 4.5t3 3t5 0.5h34q7 0 7 9q0 46 2.5 76t12 71t33 71t60.5 47q38 18 75 18q63 0 106 -48q7 -9 13 -1q48 63 129 63q58 0 94 -29.5t36 -61.5 q0 -17 -18 -32.5t-31 -15.5q-15 0 -16 12q-4 61 -21.5 80t-48.5 19q-32 0 -52.5 -21.5t-29.5 -61t-12 -75.5t-3 -86v-22q0 -9 2 -10.5t14 -1.5h117q11 0 57.5 3t52.5 3q10 0 10 -26q0 -20 2.5 -136.5t2.5 -191.5q0 -90 -11 -146t-44 -99q-14 -18 -58.5 -39t-67.5 -21 q-22 0 -22 23q0 17 15.5 36.5t28.5 19.5q12 0 32 -2t23 -2q35 0 35 30q0 9 -2 56.5t-4.5 145t-2.5 229.5q0 49 -2 76q-1 10 -5 10h-159q-9 0 -11.5 -2.5t-2.5 -11.5v-161q0 -141 8 -141h50q10 0 12 -3.5t2 -12.5q0 -17 -14 -17q-8 0 -40 1t-48 1q-14 0 -46.5 -1t-39.5 -1 q-9 0 -11 3t-2 12v2q0 6 0.5 9t3 5t8.5 2h40q4 0 4 60q0 20 -0.5 51t-0.5 33v153q0 18 -4 18q-7 0 -20 0.5t-17 0.5h-124q-11 0 -12.5 -1.5t-1.5 -7.5v-166q0 -141 8 -141h57q10 0 12 -3.5t2 -12.5q0 -17 -14 -17q-8 0 -45 1t-53 1q-13 0 -43 -1t-38 -1q-9 0 -11 3.5 t-2 13.5zM158 384q0 -7 3 -8t15 -1h155q10 0 10 5q0 105 10 151l4 18l-8 8q-17 15 -31 39q-24 42 -59 42q-18 0 -32 -4.5t-24 -15t-17.5 -21t-12 -29.5t-7 -32t-4 -37.5t-2 -37.5t-0.5 -39.5v-37.5z" />
<glyph unicode="fb" horiz-adv-x="739" d="M30 12q0 6 0.5 9t3 5t8.5 2h41q5 0 5 60q0 20 -0.5 51t-0.5 33v60q0 111 -2 111h-35q-9 0 -11.5 3t-2.5 13t2 13t9 3h30q6 0 7.5 1.5t1.5 7.5q0 24 -0.5 47t-0.5 50q0 85 46.5 142.5t134.5 57.5q38 0 76 -22q12 -7 25 -5q9 1 18.5 3l14.5 3t7 1q10 0 10 -18 q0 -3 -1.5 -48t-2.5 -104t-1 -97q0 -33 2 -33q1 0 7 3t16.5 7t22.5 8t27.5 7t29.5 3q85 0 140 -57.5t55 -143.5q0 -93 -64 -148.5t-153 -55.5q-25 0 -55.5 9.5t-40.5 9.5q-13 0 -29.5 -9t-23.5 -9q-10 0 -10 16v7t0.5 19.5t1 33.5t0.5 56v80q0 304 -1 352q0 6 -1.5 10.5 t-3 7t-5 7t-5.5 7.5q-6 8 -14 24t-13.5 24.5t-18 16t-30.5 7.5q-28 0 -46.5 -15t-27 -44t-11.5 -57.5t-3 -69.5v-78q0 -11 2 -12.5t16 -1.5h116q10 0 10 -7q0 -4 -2.5 -14t-6.5 -10h-117q-11 0 -13.5 -1.5t-2.5 -7.5v-226q0 -81 5 -81h57q10 0 12 -3.5t2 -12.5 q0 -17 -14 -17q-8 0 -42.5 1t-50.5 1q-14 0 -47 -1t-39 -1q-9 0 -11 3.5t-2 13.5zM410 64q0 -47 81 -47q66 0 104.5 50t38.5 120q0 69 -46.5 118t-110.5 49q-20 0 -42.5 -9t-22.5 -15q0 -60 -1 -159t-1 -107z" />
<glyph unicode="fh" horiz-adv-x="755" d="M30 12q0 6 0.5 9t3 5t8.5 2h41q5 0 5 60q0 20 -0.5 51t-0.5 33v60q0 111 -2 111h-35q-9 0 -11.5 3t-2.5 13t2 13t9 3h30q6 0 7.5 1.5t1.5 7.5q0 24 -0.5 47t-0.5 50q0 85 46.5 142.5t134.5 57.5q38 0 76 -22q12 -7 25 -5q9 1 18.5 3l14.5 3t7 1q10 0 10 -18 q0 -1 -1 -45.5t-2 -113.5t-1 -130q0 -8 0.5 -8.5t6.5 2.5q73 40 134 40q33 0 57 -12t37.5 -30t21.5 -47t10 -55.5t2 -63.5v-85q0 -67 3 -67h34q14 0 14 -16q0 -17 -14 -17q-8 0 -33 1t-41 1q-12 0 -42 -1t-46 -1q-10 0 -12 3.5t-2 13.5q0 16 12 16h48q5 0 5 184 q0 57 -23.5 93t-69.5 36t-88 -21q-14 -7 -14 -12q1 -182 1 -192q0 -88 4 -88h46q9 0 11 -3.5t2 -12.5q0 -17 -13 -17q-8 0 -39 1t-47 1q-12 0 -42 -1t-46 -1q-10 0 -12 3.5t-2 13.5q0 16 15 16h43q4 0 4 184q0 250 -1 337q0 6 -1.5 10.5t-3 7t-5 7t-5.5 7.5q-6 8 -14 24 t-13.5 24.5t-18 16t-30.5 7.5q-28 0 -46.5 -15t-27 -44t-11.5 -57.5t-3 -69.5v-78q0 -11 2 -12.5t16 -1.5h116q10 0 10 -7q0 -4 -2.5 -14t-6.5 -10h-117q-11 0 -13.5 -1.5t-2.5 -7.5v-226q0 -81 5 -81h57q10 0 12 -3.5t2 -12.5q0 -17 -14 -17q-8 0 -42.5 1t-50.5 1 q-14 0 -47 -1t-39 -1q-9 0 -11 3.5t-2 13.5z" />
<glyph unicode="fk" horiz-adv-x="705" d="M30 12q0 6 0.5 9t3 5t8.5 2h41q5 0 5 60q0 20 -0.5 51t-0.5 33v60q0 111 -2 111h-35q-9 0 -11.5 3t-2.5 13t2 13t9 3h30q6 0 7.5 1.5t1.5 7.5q0 24 -0.5 47t-0.5 50q0 85 46.5 142.5t134.5 57.5q38 0 76 -22q12 -7 25 -5q9 1 18.5 3l14.5 3t7 1q10 0 10 -18l-9 -421 q0 -7 2 -8.5t11 -1.5h22q12 0 27 21q48 63 78 113q3 5 3 7.5t-2 3t-8 0.5h-24q-9 0 -11 3.5t-2 12.5q0 17 14 17q3 0 25 -1t37 -1q14 0 35 1t27 1q12 0 12 -17q0 -16 -13 -16h-32q-6 0 -108 -122q-6 -8 -6.5 -10t3.5 -6q2 -2 3 -4l151 -175q10 -12 20 -12h12q10 0 12 -3 t2 -13t-2 -13.5t-12 -3.5q-6 0 -30.5 1t-38.5 1t-39.5 -1t-31.5 -1q-9 0 -11 3.5t-2 13.5q0 16 13 16h13q5 0 6.5 1t0.5 3t-4 6l-110 136q-9 11 -12 13.5t-10 2.5h-12q-8 0 -8 -13v-84q0 -65 2 -65h32q9 0 11 -4t2 -15q0 -14 -13 -14q-8 0 -31.5 1t-39.5 1q-19 0 -50 -1 t-34 -1q-9 0 -11 3.5t-2 13.5q0 6 0.5 9t3 5t8.5 2h44q6 0 7 2t1 13v193q0 226 -1 313q0 6 -1.5 10.5t-3 7t-5 7t-5.5 7.5q-6 8 -14 24t-13.5 24.5t-18 16t-30.5 7.5q-28 0 -46.5 -15t-27 -44t-11.5 -57.5t-3 -69.5v-78q0 -11 2 -12.5t16 -1.5h116q10 0 10 -7q0 -4 -2.5 -14 t-6.5 -10h-117q-11 0 -13.5 -1.5t-2.5 -7.5v-226q0 -81 5 -81h57q10 0 12 -3.5t2 -12.5q0 -17 -14 -17q-8 0 -42.5 1t-50.5 1q-14 0 -47 -1t-39 -1q-9 0 -11 3.5t-2 13.5z" />
<glyph unicode="ffb" horiz-adv-x="992" d="M35 12q0 16 12 16h37q4 0 4 60q0 20 -0.5 51t-0.5 33v60q0 111 -2 111h-32q-17 0 -17 16t14 16h29q5 0 6 1t1 8q0 215 108 265q38 18 75 18q28 0 58 -13t49 -36q2 -3 5 0q51 63 139 63q38 0 76 -22q12 -7 25 -5q9 1 18.5 3l14.5 3t7 1q10 0 10 -18q0 -3 -1.5 -48t-3 -104 t-1.5 -97q0 -33 2 -33q1 0 7 3t16.5 7t22.5 8t27.5 7t29.5 3q85 0 140 -57.5t55 -143.5q0 -93 -64 -148.5t-153 -55.5q-25 0 -55.5 9.5t-40.5 9.5q-13 0 -29.5 -9t-23.5 -9q-10 0 -10 16v7t0.5 19.5t1 33.5t0.5 56v80q0 256 -2 352q0 6 -1 10.5t-2.5 7t-4.5 6.5t-5 7 q-6 8 -14 24t-13.5 25t-18 16.5t-30.5 7.5q-28 0 -46.5 -15t-27 -44t-11.5 -57.5t-3 -69.5v-78q0 -10 2.5 -12t15.5 -2h115q10 0 10 -7q0 -4 -2.5 -14t-6.5 -10h-116q-11 0 -13.5 -1.5t-2.5 -7.5v-226q0 -81 6 -81h52q13 0 13 -16q0 -17 -13 -17q-8 0 -40.5 1t-48.5 1 q-13 0 -45 -1t-40 -1q-10 0 -12 3.5t-2 13.5q0 16 13 16h40q5 0 5 60q0 20 -0.5 51t-0.5 33v165q0 5 -1.5 6t-9.5 1h-154q-10 0 -12 -1.5t-2 -7.5v-166q0 -141 8 -141h58q13 0 13 -16q0 -17 -13 -17q-8 0 -45.5 1t-53.5 1q-13 0 -42.5 -1t-38.5 -1q-13 0 -13 17zM159 384 q0 -6 2.5 -7.5t14.5 -1.5h157q5 0 6 1.5t1 10.5q0 21 -0.5 44.5t-0.5 49.5q0 47 8 74q2 4 -3 8q-17 14 -25 28q-9 15 -15.5 23.5t-19 16t-27.5 7.5q-33 0 -54 -20t-30 -56.5t-11.5 -67t-2.5 -73.5v-37zM663 64q0 -47 81 -47q66 0 104.5 50t38.5 120q0 69 -46.5 118 t-110.5 49q-20 0 -42.5 -9t-22.5 -15q0 -60 -1 -159t-1 -107z" />
<glyph unicode="ffh" horiz-adv-x="1008" d="M35 12q0 16 12 16h37q4 0 4 60q0 20 -0.5 51t-0.5 33v60q0 111 -2 111h-32q-17 0 -17 16t14 16h29q5 0 6 1t1 8q0 215 108 265q38 18 75 18q28 0 58 -13t49 -36q2 -3 5 0q51 63 139 63q38 0 76 -22q12 -7 25 -5q9 1 18.5 3l14.5 3t7 1q10 0 10 -14q0 -1 -0.5 -18.5 t-1.5 -47t-1.5 -65t-1 -79.5t-0.5 -83q0 -8 0.5 -8.5t6.5 2.5q73 40 134 40q33 0 57 -12t37.5 -30t21.5 -47t10 -55.5t2 -63.5v-85q0 -67 3 -67h34q14 0 14 -16q0 -17 -14 -17q-8 0 -33 1t-41 1q-12 0 -42 -1t-46 -1q-10 0 -12 3.5t-2 13.5q0 16 12 16h48q5 0 5 184 q0 57 -23.5 93t-69.5 36t-88 -21q-14 -7 -14 -12q1 -182 1 -192q0 -88 4 -88h46q9 0 11 -3.5t2 -12.5q0 -17 -13 -17q-8 0 -39 1t-47 1q-12 0 -42 -1t-46 -1q-10 0 -12 3.5t-2 13.5q0 16 15 16h43q4 0 4 184q0 155 -2 337q0 6 -1 10.5t-2.5 7t-4.5 6.5t-5 7q-6 8 -14 24 t-13.5 25t-18 16.5t-30.5 7.5q-28 0 -46.5 -15t-27 -44t-11.5 -57.5t-3 -69.5v-78q0 -10 2.5 -12t15.5 -2h115q10 0 10 -7q0 -4 -2.5 -14t-6.5 -10h-116q-11 0 -13.5 -1.5t-2.5 -7.5v-226q0 -81 6 -81h52q13 0 13 -16q0 -17 -13 -17q-8 0 -40.5 1t-48.5 1q-13 0 -45 -1 t-40 -1q-10 0 -12 3.5t-2 13.5q0 16 13 16h40q5 0 5 60q0 20 -0.5 51t-0.5 33v165q0 5 -1.5 6t-9.5 1h-154q-10 0 -12 -1.5t-2 -7.5v-166q0 -141 8 -141h58q13 0 13 -16q0 -17 -13 -17q-8 0 -45.5 1t-53.5 1q-13 0 -42.5 -1t-38.5 -1q-13 0 -13 17zM159 384q0 -6 2.5 -7.5 t14.5 -1.5h157q5 0 6 1.5t1 10.5q0 21 -0.5 44.5t-0.5 49.5q0 47 8 74q2 4 -3 8q-17 14 -25 28q-9 15 -15.5 23.5t-19 16t-27.5 7.5q-33 0 -54 -20t-30 -56.5t-11.5 -67t-2.5 -73.5v-37z" />
<glyph unicode="ffk" horiz-adv-x="957" d="M35 12q0 16 12 16h37q4 0 4 60q0 20 -0.5 51t-0.5 33v60q0 111 -2 111h-32q-17 0 -17 16t14 16h29q5 0 6 1t1 8q0 215 108 265q38 18 75 18q28 0 58 -13t49 -36q2 -3 5 0q51 63 139 63q38 0 76 -22q12 -7 25 -5q9 1 18.5 3l14.5 3t7 1q10 0 10 -17l-11 -422q0 -7 2 -8.5 t11 -1.5h22q12 0 27 21q48 63 78 113q3 5 3 7.5t-2 3t-8 0.5h-24q-9 0 -11 3.5t-2 12.5q0 17 14 17q3 0 25 -1t37 -1q14 0 35 1t27 1q12 0 12 -17q0 -16 -13 -16h-32q-6 0 -108 -122q-6 -8 -6.5 -10t3.5 -6q2 -2 3 -4l151 -175q10 -12 20 -12h12q10 0 12 -3t2 -13t-2 -13.5 t-12 -3.5q-6 0 -30.5 1t-38.5 1t-39.5 -1t-31.5 -1q-9 0 -11 3.5t-2 13.5q0 16 13 16h13q5 0 6.5 1t0.5 3t-4 6l-110 136q-9 11 -12 13.5t-10 2.5h-12q-8 0 -8 -13v-84q0 -65 2 -65h32q9 0 11 -4t2 -15q0 -14 -13 -14q-8 0 -31.5 1t-39.5 1q-19 0 -50 -1t-34 -1 q-9 0 -11 3.5t-2 13.5q0 6 0.5 9t3 5t8.5 2h44q6 0 7 2t1 13v193q0 265 -1 313q0 6 -1 10.5t-2.5 7t-4.5 6.5t-5 7q-6 8 -14 24t-13.5 25t-18 16.5t-30.5 7.5q-28 0 -46.5 -15t-27 -44t-11.5 -57.5t-3 -69.5v-78q0 -10 2.5 -12t15.5 -2h115q10 0 10 -7q0 -4 -2.5 -14 t-6.5 -10h-116q-11 0 -13.5 -1.5t-2.5 -7.5v-226q0 -81 6 -81h52q13 0 13 -16q0 -17 -13 -17q-8 0 -40.5 1t-48.5 1q-13 0 -45 -1t-40 -1q-10 0 -12 3.5t-2 13.5q0 16 13 16h40q5 0 5 60q0 20 -0.5 51t-0.5 33v165q0 5 -1.5 6t-9.5 1h-154q-10 0 -12 -1.5t-2 -7.5v-166 q0 -141 8 -141h58q13 0 13 -16q0 -17 -13 -17q-8 0 -45.5 1t-53.5 1q-13 0 -42.5 -1t-38.5 -1q-13 0 -13 17zM159 384q0 -6 2.5 -7.5t14.5 -1.5h157q5 0 6 1.5t1 10.5q0 21 -0.5 44.5t-0.5 49.5q0 47 8 74q2 4 -3 8q-17 14 -25 28q-9 15 -15.5 23.5t-19 16t-27.5 7.5 q-33 0 -54 -20t-30 -56.5t-11.5 -67t-2.5 -73.5v-37z" />
<glyph unicode="f&#x125;" horiz-adv-x="755" d="M326 730l6 9l79 89q13 14 18 14h24q7 0 18 -14l79 -89q6 -6 6 -9q0 -4 -7 -4h-12q-3 0 -13 6l-80 45q-3 1 -6 0l-80 -45q-10 -6 -13 -6h-12q-7 0 -7 4zM30 12q0 6 0.5 9t3 5t8.5 2h41q5 0 5 60q0 20 -0.5 51t-0.5 33v60q0 111 -2 111h-35q-9 0 -11.5 3t-2.5 13t2 13t9 3 h30q6 0 7.5 1.5t1.5 7.5q0 24 -0.5 47t-0.5 50q0 85 46.5 142.5t134.5 57.5q38 0 76 -22q12 -7 25 -5q9 1 18.5 3l14.5 3t7 1q10 0 10 -18q0 -1 -1 -45.5t-2 -113.5t-1 -130q0 -8 0.5 -8.5t6.5 2.5q73 40 134 40q33 0 57 -12t37.5 -30t21.5 -47t10 -55.5t2 -63.5v-85 q0 -67 3 -67h34q14 0 14 -16q0 -17 -14 -17q-8 0 -33 1t-41 1q-12 0 -42 -1t-46 -1q-10 0 -12 3.5t-2 13.5q0 16 12 16h48q5 0 5 184q0 57 -23.5 93t-69.5 36t-88 -21q-14 -7 -14 -12q1 -182 1 -192q0 -88 4 -88h46q9 0 11 -3.5t2 -12.5q0 -17 -13 -17q-8 0 -39 1t-47 1 q-12 0 -42 -1t-46 -1q-10 0 -12 3.5t-2 13.5q0 16 15 16h43q4 0 4 184q0 250 -1 337q0 6 -1.5 10.5t-3 7t-5 7t-5.5 7.5q-6 8 -14 24t-13.5 24.5t-18 16t-30.5 7.5q-28 0 -46.5 -15t-27 -44t-11.5 -57.5t-3 -69.5v-78q0 -11 2 -12.5t16 -1.5h116q10 0 10 -7q0 -4 -2.5 -14 t-6.5 -10h-117q-11 0 -13.5 -1.5t-2.5 -7.5v-226q0 -81 5 -81h57q10 0 12 -3.5t2 -12.5q0 -17 -14 -17q-8 0 -42.5 1t-50.5 1q-14 0 -47 -1t-39 -1q-9 0 -11 3.5t-2 13.5z" />
<glyph unicode="ff&#x125;" horiz-adv-x="1008" d="M579 730l6 9l79 89q13 14 18 14h24q7 0 18 -14l79 -89q6 -6 6 -9q0 -4 -7 -4h-12q-3 0 -13 6l-80 45q-3 1 -6 0l-80 -45q-10 -6 -13 -6h-12q-7 0 -7 4zM35 12q0 16 12 16h37q4 0 4 60q0 20 -0.5 51t-0.5 33v60q0 111 -2 111h-32q-17 0 -17 16t14 16h29q5 0 6 1t1 8 q0 215 108 265q38 18 75 18q28 0 58 -13t49 -36q2 -3 5 0q51 63 139 63q38 0 76 -22q12 -7 25 -5q9 1 18.5 3l14.5 3t7 1q10 0 10 -14q0 -1 -0.5 -18.5t-1.5 -47t-1.5 -65t-1 -79.5t-0.5 -83q0 -8 0.5 -8.5t6.5 2.5q73 40 134 40q33 0 57 -12t37.5 -30t21.5 -47t10 -55.5 t2 -63.5v-85q0 -67 3 -67h34q14 0 14 -16q0 -17 -14 -17q-8 0 -33 1t-41 1q-12 0 -42 -1t-46 -1q-10 0 -12 3.5t-2 13.5q0 16 12 16h48q5 0 5 184q0 57 -23.5 93t-69.5 36t-88 -21q-14 -7 -14 -12q1 -182 1 -192q0 -88 4 -88h46q9 0 11 -3.5t2 -12.5q0 -17 -13 -17 q-8 0 -39 1t-47 1q-12 0 -42 -1t-46 -1q-10 0 -12 3.5t-2 13.5q0 16 15 16h43q4 0 4 184q0 155 -2 337q0 6 -1 10.5t-2.5 7t-4.5 6.5t-5 7q-6 8 -14 24t-13.5 25t-18 16.5t-30.5 7.5q-28 0 -46.5 -15t-27 -44t-11.5 -57.5t-3 -69.5v-78q0 -10 2.5 -12t15.5 -2h115 q10 0 10 -7q0 -4 -2.5 -14t-6.5 -10h-116q-11 0 -13.5 -1.5t-2.5 -7.5v-226q0 -81 6 -81h52q13 0 13 -16q0 -17 -13 -17q-8 0 -40.5 1t-48.5 1q-13 0 -45 -1t-40 -1q-10 0 -12 3.5t-2 13.5q0 16 13 16h40q5 0 5 60q0 20 -0.5 51t-0.5 33v165q0 5 -1.5 6t-9.5 1h-154 q-10 0 -12 -1.5t-2 -7.5v-166q0 -141 8 -141h58q13 0 13 -16q0 -17 -13 -17q-8 0 -45.5 1t-53.5 1q-13 0 -42.5 -1t-38.5 -1q-13 0 -13 17zM159 384q0 -6 2.5 -7.5t14.5 -1.5h157q5 0 6 1.5t1 10.5q0 21 -0.5 44.5t-0.5 49.5q0 47 8 74q2 4 -3 8q-17 14 -25 28 q-9 15 -15.5 23.5t-19 16t-27.5 7.5q-33 0 -54 -20t-30 -56.5t-11.5 -67t-2.5 -73.5v-37z" />
<glyph unicode="f&#xfe;" horiz-adv-x="747" d="M30 12q0 6 0.5 9t3 5t8.5 2h41q5 0 5 60q0 20 -0.5 51t-0.5 33v60q0 111 -2 111h-35q-9 0 -11.5 3t-2.5 13t2 13t9 3h30q6 0 7.5 1.5t1.5 7.5q0 24 -0.5 47t-0.5 50q0 85 46.5 142.5t134.5 57.5q38 0 76 -22q12 -7 25 -5q9 1 18.5 3l14.5 3t7 1q10 0 10 -18 q-2 -42 -2 -173v-124q0 -10 13 0q1 0 1.5 1t1.5 1q54 38 110 38q84 0 129 -54t45 -138q0 -81 -58.5 -143.5t-153.5 -62.5q-19 0 -39.5 4t-33.5 8l-12 5q-2 0 -2 -13l3 -179q2 -64 5 -64h70q10 0 12 -3.5t2 -12.5q0 -17 -14 -17q-8 0 -50 1t-58 1q-12 0 -48 -1t-52 -1 q-13 0 -13 17q0 16 13 16h54q3 0 3 157l-1 204q0 225 -5 439q0 6 -1.5 10.5t-3 7t-5 7t-5.5 7.5q-6 8 -14 24t-13.5 24.5t-18 16t-30.5 7.5q-28 0 -46.5 -15t-27 -44t-11.5 -57.5t-3 -69.5v-78q0 -11 2 -12.5t16 -1.5h116q10 0 10 -7q0 -4 -2.5 -14t-6.5 -10h-117 q-11 0 -13.5 -1.5t-2.5 -7.5v-226q0 -81 5 -81h57q10 0 12 -3.5t2 -12.5q0 -17 -14 -17q-8 0 -42.5 1t-50.5 1q-14 0 -47 -1t-39 -1q-9 0 -11 3.5t-2 13.5zM416 49q0 -12 29.5 -24t54.5 -12q64 0 100.5 54t36.5 120q0 71 -36 114.5t-91 43.5q-35 0 -63 -13q-31 -16 -31 -26 v-257z" />
<glyph unicode="ff&#xfe;" horiz-adv-x="1001" d="M35 12q0 16 12 16h37q4 0 4 60q0 20 -0.5 51t-0.5 33v60q0 111 -2 111h-32q-17 0 -17 16t14 16h29q5 0 6 1t1 8q0 215 108 265q38 18 75 18q28 0 58 -13t49 -36q2 -3 5 0q51 63 139 63q38 0 76 -22q12 -7 25 -5q9 1 18.5 3l14.5 3t7 1q10 0 10 -18q-2 -42 -2 -173v-124 q0 -10 13 0q1 0 1.5 1t1.5 1q54 38 110 38q84 0 129 -54t45 -138q0 -81 -58.5 -143.5t-153.5 -62.5q-19 0 -39.5 4t-33.5 8l-12 5q-2 0 -2 -13l3 -179q2 -64 5 -64h70q10 0 12 -3.5t2 -12.5q0 -17 -14 -17q-8 0 -50 1t-58 1q-12 0 -48 -1t-52 -1q-13 0 -13 17q0 16 13 16h54 q3 0 3 157l-1 204q0 273 -6 444q0 5 -1.5 9t-6 9t-6.5 8q-6 8 -14 24t-13.5 25t-18 16.5t-30.5 7.5q-28 0 -46.5 -15t-27 -44t-11.5 -57.5t-3 -69.5v-78q0 -10 2.5 -12t15.5 -2h115q10 0 10 -8q0 -23 -11 -23h-114q-11 0 -13.5 -1.5t-2.5 -7.5v-226q0 -81 6 -81h52 q13 0 13 -16q0 -17 -13 -17q-8 0 -40.5 1t-48.5 1q-13 0 -45 -1t-40 -1q-10 0 -12 3.5t-2 13.5q0 16 13 16h40q5 0 5 60q0 20 -0.5 51t-0.5 33v165q0 5 -1.5 6t-9.5 1h-154q-10 0 -12 -1.5t-2 -7.5v-166q0 -141 8 -141h58q13 0 13 -16q0 -17 -13 -17q-8 0 -45.5 1t-53.5 1 q-13 0 -42.5 -1t-38.5 -1q-13 0 -13 17zM159 384q0 -6 2.5 -7.5t14.5 -1.5h157q5 0 6 1.5t1 10.5q0 21 -0.5 44.5t-0.5 49.5q0 47 8 74q2 4 -3 8q-17 14 -25 28q-9 15 -15.5 23.5t-19 16t-27.5 7.5q-33 0 -54 -20t-30 -56.5t-11.5 -67t-2.5 -73.5v-37zM670 49 q0 -12 29.5 -24t54.5 -12q64 0 100.5 54t36.5 120q0 71 -36 114.5t-91 43.5q-35 0 -63 -13q-31 -16 -31 -26v-257z" />
<glyph unicode=" "  horiz-adv-x="200" />
<glyph unicode="&#x09;" horiz-adv-x="200" />
<glyph unicode="&#xa0;" horiz-adv-x="200" />
<glyph unicode="!" horiz-adv-x="261" d="M77 38q0 17 16.5 39.5t30.5 22.5q17 0 38.5 -15.5t21.5 -34.5q0 -22 -16.5 -41.5t-28.5 -19.5q-21 0 -41.5 17.5t-20.5 31.5zM94 648q0 28 44 28q18 0 26 -5t8 -19q0 -3 -4 -63t-10.5 -175.5t-11.5 -231.5q0 -13 -17 -13q-16 0 -16 13q-3 95 -7.5 202t-8 175t-3.5 89z " />
<glyph unicode="&#x22;" horiz-adv-x="261" d="M27 511q0 1 2 32.5l4.5 68.5t3.5 47q4 32 35 32q32 0 32 -28q0 -5 -2 -15l-12.5 -43l-17.5 -57.5t-10 -32.5q-1 -2 -2 -5.5t-1.5 -5t-1.5 -4t-2 -3l-3 -1.5t-4.5 -1.5t-5.5 -0.5q-15 0 -15 17zM157 511q0 1 2 32.5l4.5 68.5t3.5 47q4 32 35 32q32 0 32 -28q0 -5 -2 -15 l-12.5 -43l-17.5 -57.5t-10 -32.5q-1 -2 -2 -5.5t-1.5 -5t-1.5 -4t-2 -3l-3 -1.5t-4.5 -1.5t-5.5 -0.5q-15 0 -15 17z" />
<glyph unicode="#" horiz-adv-x="442" d="M27 169v4q0 16 14 16h69q8 0 9 7v3q10 76 14 112q1 9 -6 9h-90q-10 0 -10 16v6q0 14 10 14h95q6 0 8.5 1t2.5 2t1 7l20 141q2 17 3 19q4 8 11 8q4 1 13 1q22 0 22 -14q0 -1 -24 -155q-1 -7 -0.5 -8.5t6.5 -1.5h82h3q6 2 6 5q1 3 1 5q24 154 25 160q4 9 17 9q27 0 27 -13 q0 -4 -5 -36.5l-11 -72t-7 -49.5q-1 -5 0 -6.5t5 -1.5h59q11 0 14.5 -3.5t3.5 -15.5q0 -17 -16 -17h-65q-7 0 -8.5 -1.5t-2.5 -7.5l-17 -113q-1 -4 -0.5 -6t1.5 -2.5t6 -0.5h88q9 0 11.5 -4t2.5 -16q0 -10 -3.5 -13.5t-13.5 -3.5h-91q-7 0 -8 -7l-20 -143q-1 -6 -2.5 -9 t-7 -4.5t-16.5 -1.5q-20 0 -20 11q0 12 21 146q1 5 0.5 6.5t-6.5 1.5h-84q-6 0 -7 -1t-2 -7q-20 -145 -21 -147q-6 -10 -25 -10q-21 0 -21 16q0 3 4.5 31.5t9.5 63.5t7 46q1 6 -0.5 7t-8.5 1h-58q-15 0 -15 17zM162 199q-1 -6 0 -7t8 -1h82q6 0 7.5 1t2.5 7q16 108 17 111 q2 8 1 10t-8 2h-81q-10 0 -11 -8t-18 -115z" />
<glyph unicode="$" d="M55 92q0 9 13.5 15t24.5 6q7 0 12 -4.5t13 -16.5t13 -17q39 -47 95 -52q6 0 8 1t2 7v239q0 11 -2 14t-10 7q-75 34 -120 75t-45 108q0 64 48.5 106t119.5 50q9 5 9 8v40q0 7 10 7h9q10 0 10 -7v-41q0 -6 5 -6q66 -5 108.5 -37.5t42.5 -61.5q0 -12 -14.5 -21t-23.5 -9 q-11 0 -17 14.5t-9.5 32.5t-24.5 35t-59 21q-8 -5 -8 -7v-233q0 -12 1 -14t9 -6q39 -18 61 -30.5t51.5 -34t43.5 -49.5t14 -62q0 -73 -44.5 -119.5t-124.5 -53.5q-11 -1 -11 -9v-127q0 -8 -2 -9.5t-13 -1.5q-10 0 -12 1.5t-2 10.5v126q0 5 -1.5 6.5t-8.5 2.5q-67 4 -119 34 t-52 62zM120 484q0 -44 29 -71t78 -48q9 -3 9 4v229q0 7 -5 7q-41 -3 -76 -33t-35 -88zM265 37q0 -9 1.5 -11t8.5 -1q46 10 76.5 45.5t30.5 76.5q0 45 -28.5 73t-80.5 51q-4 2 -5 2q-3 0 -3 -7v-229z" />
<glyph unicode="%" horiz-adv-x="657" d="M47 362q0 63 53 133.5t127 70.5q41 0 73 -32q23 -23 56 -23q44 0 91 28q13 8 26.5 19t21.5 18.5l22.5 22t18.5 17.5l4 5q5 5 9 9.5t5 4.5q5 0 13 -5.5t8 -9.5t-7 -14l-232 -343l-201 -300q-4 -7 -22 -7q-21 0 -21 11q0 1 4 9q0 1 79.5 114.5l170 245t112.5 170.5 q7 11 -3 6q-51 -24 -99 -24q-13 0 -20 1q-12 -8 -12 -11v-14q0 -17 -1 -25q-6 -73 -58 -132.5t-115 -59.5q-48 0 -75.5 33t-27.5 82zM102 336q0 -29 13 -48.5t38 -19.5q50 0 93 57.5t43 135.5q0 67 -49 67q-44 0 -91 -63t-47 -129zM333 103q0 72 56.5 139t127.5 67 q43 0 68 -30.5t25 -81.5q0 -79 -54 -144t-120 -65q-48 0 -75.5 33t-27.5 82zM388 78q0 -68 51 -68q49 0 92.5 57.5t43.5 134.5q0 68 -50 68q-43 0 -90 -63t-47 -129z" />
<glyph unicode="&#x26;" horiz-adv-x="657" d="M37 155q0 99 125 187q12 9 12 11q0 1 -1.5 2.5t-5.5 5t-7 7.5q-57 65 -57 118q0 67 49 113t117 46q58 0 98.5 -26.5t40.5 -76.5q0 -76 -126 -162q-11 -7 -11 -10t10 -11q58 -49 156 -154q11 -12 17 -2q0 2 1 3l18 31.5l21 36.5t15 30t7 23q0 1 -0.5 1t-4 0.5t-11.5 0.5 h-63q-9 0 -11 2.5t-2 15.5q0 18 13 18q4 0 42.5 -1.5t68.5 -1.5q16 0 43.5 1.5t30.5 1.5q8 0 10.5 -4t2.5 -17q0 -10 -3 -12.5t-14 -2.5h-34q-7 0 -18 -17q-95 -137 -96 -142q0 -2 9 -14q33 -40 65 -99q7 -12 11.5 -16.5t18.5 -7.5t41 -3q7 0 8 -2t1 -13q0 -13 -2.5 -15.5 t-13.5 -2.5q-40 -1 -78 -5.5t-40 -4.5q-14 0 -18 12q-14 50 -47 97q-3 4 -4.5 5.5t-3.5 2t-3.5 -1t-4.5 -5.5q-100 -110 -190 -110q-82 0 -132 47t-50 121zM105 197q0 -57 44.5 -99.5t101.5 -42.5q76 0 142 66q5 7 5 8t-1 2.5t-2.5 4t-3.5 5.5q-27 37 -78 89t-96 89 q-14 11 -17 11t-23 -14q-72 -53 -72 -119zM174 518q0 -45 50 -105q15 -17 20 -17q4 0 20 11q70 53 70 119q0 33 -22 58t-55 25q-40 0 -61.5 -26.5t-21.5 -64.5z" />
<glyph unicode="'" horiz-adv-x="131" d="M27 511q0 1 2 32.5l4.5 68.5t3.5 47q4 32 35 32q32 0 32 -28q0 -5 -2 -15l-12.5 -43l-17.5 -57.5t-10 -32.5q-1 -2 -2 -5.5t-1.5 -5t-1.5 -4t-2 -3l-3 -1.5t-4.5 -1.5t-5.5 -0.5q-15 0 -15 17z" />
<glyph unicode="(" horiz-adv-x="279" d="M37 285q0 74 19 143t45 114.5t54 81t46.5 52t21.5 16.5q6 0 12.5 -5t6.5 -11q0 -1 -14.5 -18t-35.5 -48.5t-42 -73.5t-35.5 -105.5t-14.5 -133.5q0 -79 14 -150t34.5 -116.5t41 -79.5t34.5 -53.5t14 -23.5q0 -17 -19 -17q-5 0 -24.5 22t-46 63t-51.5 92t-42.5 118.5 t-17.5 132.5z" />
<glyph unicode=")" horiz-adv-x="279" d="M37 -127q0 1 14.5 18t35.5 48.5t42 73.5t35.5 105.5t14.5 133.5q0 79 -14 150t-34.5 116.5t-41 79.5t-34.5 53.5t-14 23.5q0 17 19 17q5 0 24.5 -22t46 -63t51.5 -92t42.5 -118.5t17.5 -132.5q0 -74 -19 -143t-45 -114.5t-54 -81t-46.5 -52t-21.5 -16.5q-6 0 -12.5 5 t-6.5 11z" />
<glyph unicode="*" horiz-adv-x="391" d="M27 447q0 24 25 34q11 5 50 18.5t51 18.5q13 5 15.5 8t0.5 5t-13 10l-42.5 27t-45.5 33q-14 16 -14 31q0 12 8 21t23 9q19 0 33 -16q8 -8 19 -25l24.5 -39.5l17.5 -29.5q7 -11 7.5 -11t5.5 10q4 9 12.5 34t16 45t13.5 28q13 20 34 20q13 0 21.5 -10t8.5 -21 q0 -14 -10 -28q-9 -13 -39.5 -40t-38.5 -35q-11 -12 -8.5 -14t14.5 -3q8 -1 56 -2t61 -5q31 -10 31 -34q0 -15 -10.5 -23.5t-24.5 -8.5q-10 0 -29 8.5t-46.5 23t-38.5 19.5q-14 6 -14.5 6t0.5 -14q3 -11 10.5 -35.5l13 -44t5.5 -30.5q0 -17 -8 -29.5t-25 -12.5t-26.5 13 t-9.5 28q0 9 3 26t7.5 39.5t6.5 34.5q2 10 2 16q0 14 -13 1l-3 -3l-36 -37.5t-42 -38.5t-26 -7t-23.5 8t-9.5 22z" />
<glyph unicode="+" horiz-adv-x="527" d="M28 212q0 12 3.5 17.5t17.5 5.5h170q9 0 13 2t5 5t1 9v176q0 12 5.5 15t18.5 3q9 0 13.5 -1t9 -6.5t4.5 -15.5v-163q0 -24 14 -24h177q9 0 13 -3.5t5 -8t1 -12.5q0 -15 -4 -20.5t-20 -5.5h-172q-7 0 -10 -1.5t-3.5 -3.5t-0.5 -10v-175q0 -20 -23 -20q-17 0 -22.5 3.5 t-5.5 17.5v174q0 11 -3.5 13t-17.5 2h-169q-9 0 -13.5 3.5t-5.5 8.5t-1 15z" />
<glyph unicode="," horiz-adv-x="203" d="M37 -139q0 3 17.5 19t35 40t17.5 46q0 19 -16.5 35.5t-33 27.5t-16.5 19q0 12 21.5 27.5t29.5 15.5q16 0 45 -23.5t29 -42.5q0 -39 -26.5 -84.5t-53.5 -72.5t-35 -27q-6 0 -10 7t-4 13z" />
<glyph unicode="-" horiz-adv-x="258" d="M21 201q0 7 6.5 24.5t12.5 18.5q7 1 94 4t93 3q4 0 4 -9q0 -38 -10 -39q-112 -8 -193 -8q-7 0 -7 6z" />
<glyph unicode="." horiz-adv-x="221" d="M57 38q0 17 16.5 39.5t30.5 22.5q17 0 38.5 -15.5t21.5 -34.5q0 -22 -16.5 -41.5t-28.5 -19.5q-21 0 -41.5 17.5t-20.5 31.5z" />
<glyph unicode="/" horiz-adv-x="406" d="M5 -224q0 8 21 62l317 850q4 13 8.5 16t23.5 3q25 0 25 -11q0 -10 -15 -48l-314 -851q-10 -28 -16 -31q-5 -2 -21 -2q-29 0 -29 12z" />
<glyph unicode="0" d="M55 189q0 84 56.5 139t139.5 55q90 0 142 -56.5t52 -138.5q0 -85 -57.5 -140.5t-142.5 -55.5q-79 0 -134.5 58.5t-55.5 138.5zM94 189q0 -64 43.5 -103.5t106.5 -39.5q78 0 118 44t40 112q0 58 -46.5 96.5t-108.5 38.5q-61 0 -107 -44t-46 -104z" />
<glyph unicode="1" d="M147 12q0 9 2.5 12.5t12.5 3.5h45q7 0 7 9q1 29 1 88v89q0 93 -2 137q0 7 -0.5 8t-6.5 1h-45q-11 0 -11 16q0 17 11 17q9 0 45 -1t49 -1t48.5 1t44.5 1q8 0 9.5 -3.5t1.5 -13.5q0 -9 -2 -12.5t-12 -3.5h-46q-3 0 -4 -9q-3 -58 -3 -234q0 -53 1 -80q0 -6 1 -7.5t8 -1.5h40 q14 0 14 -16q0 -17 -14 -17q-9 0 -43.5 1t-47.5 1t-48 -1t-44 -1q-8 0 -10 3.5t-2 13.5z" />
<glyph unicode="2" d="M57 323q0 8 26.5 28.5t69 39t77.5 18.5q57 0 94 -37t37 -92q0 -94 -183 -206l-17 -11q0 -2 17 -2h209q2 0 19.5 34t18.5 34q4 0 13 -2.5t9 -5.5q0 -7 -28 -116q-3 -8 -14 -8h-326q-19 0 -19 14q0 8 14 19q13 13 54.5 41.5t73 52.5t58.5 64t27 82q0 43 -22.5 67t-58.5 24 q-30 0 -61 -15.5t-50 -31.5l-19 -15q-3 0 -11 9t-8 15z" />
<glyph unicode="3" d="M77 -164q0 9 12.5 16t28.5 7q18 0 43 -15q5 -3 14 -9.5t15 -10t17.5 -6.5t25.5 -3q46 0 84.5 44.5t38.5 101.5q0 68 -35.5 98t-112.5 30q-12 0 -32 -1.5t-21 -1.5q-5 0 -8 2.5t-4.5 4.5t-3 7t-1.5 6q-2 6 -2 10q0 12 23 20q77 22 113 53t36 83q0 39 -23 66.5t-59 27.5 q-33 0 -59.5 -13t-39.5 -25.5t-14 -12.5q-4 0 -12.5 8t-8.5 12q0 7 20 24.5t55.5 34t70.5 16.5q62 0 99.5 -34.5t37.5 -91.5q0 -85 -93 -125q-35 -14 -35 -18q0 -2 28 -4q150 -12 150 -164q0 -81 -61.5 -135t-140.5 -54q-44 0 -95 15t-51 37z" />
<glyph unicode="4" d="M37 8q0 33 85 132l133 160q86 97 98 97q16 0 16 -29v-296q0 -11 1.5 -13t10.5 -2h58q4 0 6 -0.5t3 -2.5t1 -7v-40q0 -7 -1.5 -8.5t-10.5 -1.5h-55q-7 0 -9.5 -1.5t-1.5 -9.5q9 -183 9 -185q0 -13 -19 -14l-45 -4q-14 0 -14 16v186q0 8 -2 10t-11 2h-231q-21 0 -21 11z M112 83q-16 -19 -12 -23q4 -3 18 -3h168q12 0 14 2.5t2 14.5v216q0 11 -1 14t-4 1t-8 -8q-2 -3 -3 -4z" />
<glyph unicode="5" d="M97 158q0 6 8.5 45l20.5 95t18 88q2 8 13 8q2 0 42 -2l91 -4.5t79 -2.5q18 0 21 3q1 1 3 7.5t5 12.5t5 6h4q16 0 16 -9q-3 -45 -4 -69q-1 -20 -40 -20q-35 0 -65.5 1.5t-69 4.5t-66.5 4q-12 0 -13 -8q-20 -100 -20 -106q0 -3 8 -4q107 -10 168.5 -53t61.5 -136 q0 -50 -24.5 -92.5t-59.5 -69.5t-75 -46t-69 -27t-42 -8q-11 0 -11 21q0 16 10 17q28 6 58.5 19t62.5 34.5t52.5 57t20.5 78.5q0 71 -53.5 105.5t-137.5 34.5q-18 0 -18 15z" />
<glyph unicode="6" d="M45 231q0 78 31 150t75 120.5t91.5 85.5t81.5 54t44 17q6 0 11.5 -8.5t5.5 -14.5t-12 -11q-48 -20 -89 -54t-68 -72.5t-43 -67.5t-26 -56q-7 -17 -7 -22q0 -2 3 -2t18 3q43 8 92 8q80 0 135.5 -48t55.5 -124q0 -90 -57.5 -143.5t-142.5 -53.5q-90 0 -144.5 62.5 t-54.5 176.5zM118 201q0 -68 36 -120t104 -52q48 0 80 43t32 96q0 74 -39 119.5t-114 45.5q-29 0 -65 -6q-16 -3 -18.5 -6.5t-6.5 -23.5q-9 -43 -9 -96z" />
<glyph unicode="7" d="M81 277q0 1 1.5 17.5l4.5 47.5t6 58q2 14 4.5 17.5t14.5 3.5q11 0 13.5 -3t2.5 -13v-5q0 -4 161 -4h166q20 0 20 -12q0 -3 -4 -11l-128 -246l-130.5 -252.5t-54.5 -94.5q-10 0 -24.5 10t-14.5 21q0 2 289 504q8 15 6 16t-12 1h-199q-84 0 -85 -10l-6 -48q-1 -8 -13 -8 q-18 0 -18 11z" />
<glyph unicode="8" d="M68 154q0 38 11.5 68t33.5 49.5t36 29t34 19.5q3 2 5.5 3t3.5 1l1 1l-1 1q-2 2 -6 4.5l-7 4.5q-102 70 -102 160q0 70 50.5 118t122.5 48q68 0 114.5 -42.5t46.5 -110.5q0 -18 -3.5 -34.5t-7.5 -28.5t-13.5 -25.5l-14.5 -20.5t-17.5 -18t-16.5 -14l-18 -13l-13 -10 q-5 -4 -5 -5l5 -4l17 -9q16 -10 23 -15l23 -17t24.5 -24.5t19 -30t15 -39t4.5 -46.5q0 -73 -51 -118t-134 -45q-74 0 -127 46t-53 117zM127 164q0 -62 34.5 -100.5t90.5 -38.5q49 0 79.5 38t30.5 90q0 39 -19 69t-39.5 44t-58.5 35q-19 12 -26 12q-8 -3 -31 -20 q-61 -44 -61 -129zM141 507q0 -63 68 -116q32 -24 53 -34q4 -2 7.5 -3.5t5.5 -2.5l2 -1q2 0 12 9q26 23 48.5 64.5t22.5 76.5q0 63 -31 98t-81 35q-49 0 -78 -36.5t-29 -89.5z" />
<glyph unicode="9" d="M57 204q0 90 56 143.5t140 53.5q88 0 145.5 -63t57.5 -176q0 -83 -38.5 -153t-91.5 -110.5t-111.5 -69.5t-96 -39.5t-47.5 -10.5q-4 0 -7.5 11t-3.5 18q0 2 24.5 10t62.5 25t78.5 42t79.5 70.5t59 101.5q3 10 1.5 10.5t-10.5 -5.5q-56 -33 -127 -33q-78 0 -124.5 48.5 t-46.5 126.5zM128 214q0 -59 34.5 -103.5t92.5 -44.5q95 0 123 50q6 12 6 56q0 78 -32.5 135.5t-95.5 57.5t-95.5 -42t-32.5 -109z" />
<glyph unicode=":" horiz-adv-x="221" d="M57 38q0 17 16.5 39.5t30.5 22.5q17 0 38.5 -15.5t21.5 -34.5q0 -22 -16.5 -41.5t-28.5 -19.5q-21 0 -41.5 17.5t-20.5 31.5zM57 313q0 17 16.5 39.5t30.5 22.5q17 0 38.5 -15.5t21.5 -34.5q0 -22 -16.5 -41.5t-28.5 -19.5q-21 0 -41.5 17.5t-20.5 31.5z" />
<glyph unicode=";" horiz-adv-x="223" d="M47 -139q0 3 17.5 19t35 40t17.5 46q0 19 -16.5 35.5t-33 27.5t-16.5 19q0 12 21.5 27.5t29.5 15.5q16 0 45 -23.5t29 -42.5q0 -39 -26.5 -84.5t-53.5 -72.5t-35 -27q-6 0 -10 7t-4 13zM58 313q0 17 16.5 39.5t30.5 22.5q17 0 38.5 -15.5t21.5 -34.5q0 -22 -16.5 -41.5 t-28.5 -19.5q-21 0 -41.5 17.5t-20.5 31.5z" />
<glyph unicode="&#x3c;" horiz-adv-x="527" d="M38 211q0 17 17 23l413 150q22 0 22 -28q0 -12 -18 -19l-315 -111q-34 -12 -40 -18q1 -1 40 -15l320 -112q13 -4 13 -16q0 -9 -7 -18t-20 -9q-4 0 -409 147q-16 5 -16 26z" />
<glyph unicode="=" horiz-adv-x="527" d="M28 134q0 12 3.5 18t17.5 6h431q9 0 13 -3.5t5 -8t1 -12.5q0 -15 -4 -21t-20 -6h-427q-14 0 -17 6t-3 21zM28 290q0 12 3.5 17.5t17.5 5.5h431q9 0 13 -3.5t5 -8t1 -12.5q0 -15 -4 -20.5t-20 -5.5h-427q-14 0 -17 6t-3 21z" />
<glyph unicode="&#x3e;" horiz-adv-x="527" d="M38 65q0 13 12 16l321 112q37 13 40 15q-5 5 -40 18l-316 111q-17 6 -17 19q0 28 21 28q1 0 413 -150q18 -7 18 -23q0 -20 -17 -26q-405 -147 -409 -147q-13 0 -19.5 9t-6.5 18z" />
<glyph unicode="?" horiz-adv-x="364" d="M57 605v45q0 20 12 20q8 0 13 -12.5t6 -12.5q24 -4 37.5 -6.5t43 -11t48.5 -18t44 -27t40 -39t25.5 -53.5t10.5 -71q0 -177 -139 -177q-14 0 -17.5 -2t-4.5 -12q-7 -70 -8 -93q0 -6 -2.5 -7.5t-12.5 -1.5q-13 0 -16 2.5t-3 13.5q0 128 2 156q1 13 7 17t21 4h60q28 0 46 8 t25.5 22.5t10 26.5t2.5 28q0 71 -56.5 120t-168.5 63q-1 0 -6 0.5t-6.5 1t-5 2t-5 3t-2.5 4.5t-1 7zM93 38q0 17 16.5 39.5t30.5 22.5q17 0 38.5 -15.5t21.5 -34.5q0 -22 -16.5 -41.5t-28.5 -19.5q-21 0 -41.5 17.5t-20.5 31.5z" />
<glyph unicode="@" horiz-adv-x="795" d="M47 187q0 84 36.5 160t95.5 129t135 84t154 31q76 0 136.5 -22.5t102 -80t41.5 -144.5q0 -92 -55 -161t-130.5 -100.5t-153.5 -31.5q-38 0 -38 25q0 16 4 38q-61 -61 -113 -61q-30 0 -45.5 25.5t-15.5 60.5q0 26 19.5 69t52 85.5t81.5 73.5t100 31q6 0 13.5 -1.5t12 -3 t5.5 -1.5q2 1 12 14q14 17 30 17q28 0 28 -16q0 -7 -3 -15q-110 -237 -110 -277q0 -15 2.5 -21.5t14.5 -6.5q42 0 92 24.5t94 68.5q67 67 67 157q0 110 -65.5 165t-175.5 55q-156 0 -270 -108t-114 -268q0 -117 79.5 -189.5t189.5 -72.5q96 0 168 32t140 95q10 10 15 10 q7 0 12.5 -8t5.5 -12q0 -5 -6 -11q-63 -68 -151 -104.5t-187 -36.5q-126 0 -216 81t-90 222zM274 147q0 -17 11 -30t28 -13q42 0 93 106t51 140q0 9 -9 15t-20 6q-40 0 -97 -74.5t-57 -149.5z" />
<glyph unicode="A" horiz-adv-x="698" d="M27 15q0 10 3 12.5t15 2.5h30q6 0 144 329l106 246q4 10 17 26.5t19 29.5q13 29 22 29q10 0 12 -9l120 -337q113 -314 120 -314h35q7 0 9 -3t2 -13q0 -12 -2 -16t-9 -4q-6 0 -41 1.5t-52 1.5q-16 0 -60 -1.5t-55 -1.5q-9 0 -11 4t-2 17q0 11 2.5 13t14.5 2h55q1 0 1 1 q0 29 -70 224l-4 12t-3.5 4t-7.5 1h-202q-11 0 -14 -2.5t-7 -13.5q-80 -201 -81 -225l1 -1h77q8 0 10 -3t2 -13q0 -9 -0.5 -12.5t-3 -5.5t-8.5 -2q-1 0 -34.5 1.5t-59.5 1.5q-24 0 -49 -1.5t-27 -1.5q-10 0 -12 3.5t-2 17.5zM234 305q0 -3 13 -3h179q9 0 9 4q0 2 -3 10 l-83 243q-4 12 -5 12q-2 0 -7 -12l-98 -240q-5 -12 -5 -14z" />
<glyph unicode="B" horiz-adv-x="592" d="M37 649q0 12 3.5 15t14.5 3q6 0 53.5 -1t64.5 -1q19 0 60.5 1.5t62.5 1.5q100 0 162.5 -38.5t62.5 -125.5q0 -103 -149 -158q-8 -3 -8 -4t7 -2q179 -26 179 -171q0 -174 -283 -174q-27 0 -60.5 1t-35.5 1q-18 0 -61.5 -1.5t-45.5 -1.5q-10 0 -13 4t-3 17q0 10 4 12.5 t17 2.5h52q3 0 3 39v323q0 239 -8 239l-61 -2q-10 0 -14 4t-4 16zM212 315q0 -285 7 -285h60q177 0 177 146q0 108 -85 137q-30 10 -117 10h-34q-8 0 -8 -8zM212 358q0 -3 0.5 -4.5t3 -2t9.5 -0.5h57q10 0 20.5 -0.5t12.5 -0.5q10 0 19 3q40 12 68.5 45.5t28.5 89.5 q0 71 -48.5 112t-125.5 41q-33 0 -41 -4q-4 -3 -4 -231v-48z" />
<glyph unicode="C" horiz-adv-x="731" d="M42 335q0 156 102.5 252t257.5 96q21 0 42.5 -2.5t37.5 -6.5t33.5 -10.5t28 -11.5t24 -13t19 -11.5t15.5 -10.5l9 -7q12 -9 12 1v27q0 10 3.5 13t14.5 3q23 0 23 -16q0 -5 -2 -86.5t-2 -111.5q0 -9 -4 -11.5t-15 -2.5q-14 0 -18 2.5t-4 10.5q0 1 2 44t2 48q0 8 -28 34.5 t-84.5 54t-115.5 27.5q-107 0 -176 -89t-69 -225q0 -126 80 -216.5t194 -90.5q51 0 98 15t70 29.5t24 20.5l13 116q3 15 14 15q1 0 5 -0.5t6 -0.5q15 -1 15 -11q0 -14 -16 -138q-2 -12 -38 -33t-98.5 -39.5t-120.5 -18.5q-71 0 -133.5 21.5t-112.5 63.5t-79 111.5t-29 157.5 z" />
<glyph unicode="D" horiz-adv-x="758" d="M32 10q0 12 4.5 15t15.5 3h64q4 0 8 220.5t4 314.5q0 75 -2 75l-69 -2q-8 0 -11 2.5t-3 12.5q0 19 14 19h12t27.5 -0.5t31.5 -0.5q41 0 114.5 6t89.5 6q167 0 275.5 -94t108.5 -252q0 -161 -104 -251.5t-254 -90.5q-30 0 -92 2t-93 2q-16 0 -70 -2t-57 -2q-9 0 -11.5 3.5 t-2.5 13.5zM216 86q0 -57 1 -58q7 -3 55 -3q69 0 124 14t89.5 34t59.5 52t37 58.5t18.5 63t7.5 55.5t1 46q0 72 -35.5 140t-105.5 114.5t-157 46.5q-63 0 -88 -6q-6 -2 -6 -143q-1 -137 -1 -414z" />
<glyph unicode="E" horiz-adv-x="605" d="M37 15q0 10 4 12.5t16 2.5h61q4 0 4 72v96q0 31 -0.5 72t-1 78t-1 69.5t-1 53t-0.5 21.5q0 32 -1.5 65.5t-3.5 54.5t-4 21h-47q-10 0 -13.5 3t-3.5 15q0 17 13 17l44 -2q44 -1 65 -1q29 0 130 1.5t122 1.5q47 0 53.5 1t7.5 9q1 7 2 9t4 4t10 2q12 0 16 -2.5t4 -11.5 q0 -2 -2 -44t-2 -88q0 -7 -4 -9t-15 -2q-18 0 -18 15q0 1 1.5 35t1.5 42q0 7 -267 7q-6 0 -6 -125q0 -42 2 -142q0 -9 1.5 -11t7.5 -2h167q52 0 52 13v52q0 10 20 10q17 0 17 -9q0 -1 -1 -30t-1 -50t1 -51t1 -34q0 -9 -16 -9q-21 0 -21 10v50q0 15 -52 15h-163h-3 q-6 0 -8 -1.5t-2 -10.5q6 -273 11 -273q47 0 120.5 0.5t128.5 1.5t57 1q5 0 6.5 3t2.5 15v2q1 13 3 89q0 9 17 9q20 0 20 -10q0 -28 -1.5 -78t-1.5 -62q0 -14 -20 -14q-11 0 -185 1.5t-190 1.5t-63.5 -1.5t-58.5 -1.5q-10 0 -13 4t-3 17z" />
<glyph unicode="F" horiz-adv-x="550" d="M37 651q0 17 13 17l44 -2q44 -1 65 -1q28 0 133.5 1.5t125.5 1.5q50 0 56.5 1t7.5 9q1 7 3.5 10.5t4.5 4t8 0.5q20 0 20 -14q0 -2 -2 -44t-2 -88q0 -7 -4 -9t-15 -2q-18 0 -18 15q0 2 1.5 36.5t1.5 41.5q-42 6 -277 6q-6 0 -6 -111q0 -110 2 -156q0 -12 2 -13h11h173 q52 0 52 13v53q0 9 20 9q17 0 17 -8q0 -1 -1 -30.5t-1 -50.5t1 -56.5t1 -39.5q0 -8 -16 -8q-21 0 -21 9v61q0 5 -2 7.5t-14 5t-36 2.5h-173q-10 0 -11.5 -1.5t-1.5 -15.5q1 -49 2 -124.5l1.5 -113t2.5 -37.5h81q9 0 11.5 -3.5t2.5 -12.5q0 -12 -2.5 -16t-11.5 -4 q-11 0 -57.5 1.5t-62.5 1.5q-17 0 -58 -1.5t-47 -1.5q-10 0 -12.5 4t-2.5 17q0 10 4 12.5t17 2.5h42q5 0 5 72v96q0 31 -0.5 72t-1 78t-1 69.5t-1 53t-0.5 21.5q0 32 -1.5 65.5t-3.5 54.5t-4 21h-44q-11 0 -15.5 3t-4.5 15z" />
<glyph unicode="G" horiz-adv-x="764" d="M42 335q0 162 104 253.5t262 91.5q117 0 203 -60q12 -9 12 1v25q0 10 3.5 13t14.5 3q12 0 17 -3t5 -13q0 -2 -1.5 -78.5t-1.5 -106.5q0 -9 -4 -12t-15 -3q-14 0 -18 2.5t-4 10.5q0 1 2 39t2 43q0 8 -25 32t-79 49t-115 25q-108 0 -181 -90t-73 -224q0 -129 78.5 -223.5 t195.5 -94.5q32 0 60 5t45.5 11.5t30 14.5t18.5 13.5t6 8.5q3 26 3 94q0 55 -7 55h-87q-11 0 -11 15q0 21 10 21q14 0 64.5 -1.5t69.5 -1.5q28 0 57 1.5t33 1.5q11 0 11 -17q0 -19 -11 -19h-31q-10 0 -10 -55q0 -12 -0.5 -42t-0.5 -47q0 -12 -40 -34t-108 -41t-130 -19 q-71 0 -133.5 21t-112.5 63t-79 112t-29 160z" />
<glyph unicode="H" horiz-adv-x="791" d="M37 15q0 10 3 12.5t15 2.5h58q6 0 6 255v102q0 249 -5 249h-44q-11 0 -15.5 3t-4.5 15t4.5 15t15.5 3q5 0 37 -1.5t56 -1.5t61.5 1.5t46.5 1.5q10 0 12.5 -4t2.5 -17q0 -10 -3.5 -12.5t-15.5 -2.5h-55q-5 0 -5 -131q0 -27 0.5 -73t0.5 -59q0 -11 1.5 -13t10.5 -2h365 q9 0 10.5 1.5t1.5 10.5v122q0 144 -8 144h-57q-10 0 -13.5 3.5t-3.5 14.5q0 12 2.5 15t13.5 3q4 0 41.5 -1.5t65.5 -1.5q25 0 60.5 1.5t36.5 1.5q10 0 12.5 -4t2.5 -17q0 -10 -3.5 -12.5t-15.5 -2.5h-44q-3 0 -3 -239q0 -367 4 -367h53q9 0 11 -3t2 -13q0 -12 -2 -16t-11 -4 q-11 0 -45 1.5t-50 1.5t-59 -1.5t-54 -1.5q-10 0 -12.5 4t-2.5 17q0 10 3.5 12.5t15.5 2.5h55q5 0 5 162v124q0 9 -1 10.5t-5 1.5h-374q-7 0 -8 -2t-1 -12q0 -284 9 -284h66q8 0 10 -3t2 -13q0 -9 -0.5 -12.5t-3 -5.5t-8.5 -2q-11 0 -53.5 1.5t-58.5 1.5t-62.5 -1.5 t-57.5 -1.5q-10 0 -12 3.5t-2 17.5z" />
<glyph unicode="I" horiz-adv-x="333" d="M27 15q0 10 4 12.5t17 2.5h66q9 0 9 364v98q0 31 -1.5 65.5t-3.5 56.5t-3 22h-66q-10 0 -14 3t-4 15t3.5 15t14.5 3q3 0 47 -1.5t78 -1.5q26 0 68 1.5t50 1.5q9 0 11.5 -4t2.5 -17q0 -10 -3 -12.5t-15 -2.5h-65q-9 0 -9 -155v-135q0 -316 9 -316h69q9 0 11.5 -3.5 t2.5 -12.5q0 -12 -2.5 -16t-11.5 -4q-4 0 -48.5 1.5t-71.5 1.5q-29 0 -74.5 -1.5t-53.5 -1.5q-10 0 -13.5 4t-3.5 17z" />
<glyph unicode="J" horiz-adv-x="333" d="M-33 -188q0 24 29 45.5t41 21.5q9 0 25.5 -10.5t26.5 -10.5q24 0 30.5 31t6.5 106v497q0 144 -9 144h-66q-11 0 -15.5 3t-4.5 15t4.5 15t15.5 3q4 0 50.5 -1.5t75.5 -1.5q23 0 61 1.5t43 1.5q10 0 12.5 -4t2.5 -17q0 -10 -3.5 -12.5t-15.5 -2.5h-51q-5 0 -5 -266v-240 q0 -84 -17 -154t-70 -126q-19 -20 -32 -31.5t-35 -22.5t-44 -11q-20 0 -38 7.5t-18 19.5z" />
<glyph unicode="K" horiz-adv-x="650" d="M37 15q0 10 4 12.5t17 2.5h53q7 0 7 167v290q0 144 -6 144h-46q-11 0 -15.5 3t-4.5 15t4.5 15t15.5 3q5 0 43 -1.5t62 -1.5q16 0 56.5 1.5t51.5 1.5q10 0 12.5 -4t2.5 -17q0 -10 -3.5 -12.5t-15.5 -2.5h-55q-5 0 -8.5 -54.5t-3.5 -100.5v-125q0 -8 0.5 -11t2.5 -4.5 t7 -1.5h22q9 0 54.5 56l106.5 137l66 88q12 16 -4 16h-40q-11 0 -15.5 3t-4.5 15t4.5 15t15.5 3q5 0 35.5 -1.5t52.5 -1.5q21 0 50 1.5t33 1.5q10 0 12 -3.5t2 -17.5q0 -10 -3 -12.5t-15 -2.5h-48q-2 0 -218 -257l-2 -2q-4 -7 -1 -10q4 -3 6 -6l269 -310q14 -16 29 -16h16 q8 0 10 -3t2 -13q0 -9 -0.5 -12.5t-3 -5.5t-8.5 -2q-11 0 -48.5 1.5t-53.5 1.5t-54 -1.5t-49 -1.5q-10 0 -12 3.5t-2 17.5q0 10 3.5 12.5t14.5 2.5h33q5 0 7.5 0.5t2 3t-1.5 4t-5 5.5l-217 257q-6 7 -20 7h-19q-9 0 -10.5 -1.5t-1.5 -9.5q0 -266 9 -266h72q9 0 11.5 -3.5 t2.5 -12.5q0 -12 -2 -16t-11 -4q-11 0 -58 1.5t-63 1.5t-61 -1.5t-56 -1.5q-10 0 -12.5 4t-2.5 17z" />
<glyph unicode="L" horiz-adv-x="592" d="M37 15q0 10 4 12.5t16 2.5h60q8 0 8 289v231q0 86 -5 86h-59q-11 0 -14 3.5t-3 14.5q0 12 4 15t16 3q6 0 51 -1.5t62 -1.5q16 0 62.5 1.5t57.5 1.5q12 0 15 -3t3 -15q0 -10 -3.5 -14t-15.5 -4h-70q-8 0 -8 -212v-277q0 -113 6 -113q226 0 292 6q15 1 17 5q1 4 3 15l12 86 q2 11 14 9q23 -2 23 -12q0 -4 -4.5 -31l-9.5 -60t-7 -44q-1 -9 -5.5 -11.5t-19.5 -2.5q-11 0 -179.5 1.5t-184.5 1.5t-63.5 -1.5t-58.5 -1.5q-10 0 -13 4t-3 17z" />
<glyph unicode="M" horiz-adv-x="895" d="M32 15q0 10 4 12.5t17 2.5h41q2 0 7 99q18 366 18 497v4t-1 2.5t-3 2t-5.5 1t-9.5 0.5h-50q-7 0 -8.5 3t-1.5 13q0 9 0.5 12.5t2.5 5.5t7 2q4 0 47 -1.5t64 -1.5q13 0 37.5 1.5t25.5 1.5q13 0 19 -15l210 -524q4 -10 6.5 -12t4 1t5.5 12l196 510q6 17 10 21t16 4h48 q16 0 53.5 1.5t48.5 1.5q10 0 12.5 -4t2.5 -17q0 -10 -3.5 -12.5t-15.5 -2.5h-47q-5 -8 -5 -77v-90q0 -140 4.5 -289.5t10.5 -149.5h52q9 0 12.5 -3t3.5 -13q0 -12 -2.5 -16t-11.5 -4q-11 0 -51 1.5t-56 1.5q-25 0 -64.5 -1.5t-42.5 -1.5q-10 0 -13 4t-3 17q0 10 4 12.5 t17 2.5h45q7 0 7 174q0 164 -5 377q-1 18 -2 20q-2 2 -4 -4q-1 -2 -7 -16l-185 -473q-10 -26 -28 -51.5t-28 -45.5q-10 -21 -18 -21q-7 0 -20 30l-233 575q-5 14 -7.5 18t-4 0t-2.5 -19q-8 -211 -8 -465q0 -99 5 -99h69q9 0 11.5 -3.5t2.5 -12.5q0 -12 -2.5 -16t-11.5 -4 q-11 0 -41.5 1.5t-46.5 1.5q-17 0 -46.5 -1.5t-36.5 -1.5q-10 0 -13 4t-3 17z" />
<glyph unicode="N" horiz-adv-x="814" d="M37 15q0 10 3.5 12.5t15.5 2.5h46q6 0 8 66q1 21 1 33q8 259 8 507h-65q-9 0 -11.5 3.5t-2.5 12.5q0 12 2.5 16t11.5 4q6 0 53.5 -1.5t58.5 -1.5q13 0 33.5 1.5t21.5 1.5q11 0 22 -14l406 -499q12 -14 14.5 -12t2.5 18v42q0 49 -1 187t-1 189q0 53 -1 53h-93q-8 0 -10 3 t-2 13q0 9 0.5 12.5t3 5.5t8.5 2q2 0 20 -1t43.5 -1.5t44.5 -0.5q23 0 52 1.5t33 1.5q10 0 12 -3.5t2 -17.5q0 -10 -3.5 -12.5t-16.5 -2.5h-45q-4 0 -4 -56q0 -68 -3.5 -209.5l-6.5 -253t-3 -113.5q0 -25 -13 -25q-5 0 -20 17l-492 598q-11 12 -12 11q-2 -1 -2 -11 q-1 -40 -1 -122q0 -54 -0.5 -175.5t-0.5 -167.5q0 -99 4 -99h86q8 0 10 -3t2 -13q0 -9 -0.5 -12.5t-3 -5.5t-8.5 -2q-9 0 -46 1.5t-62 1.5q-26 0 -53.5 -1.5t-30.5 -1.5q-10 0 -12.5 4t-2.5 17z" />
<glyph unicode="O" horiz-adv-x="752" d="M42 318q0 160 100 260t243 100q146 0 235.5 -102t89.5 -252q0 -151 -95 -244.5t-245 -93.5q-130 0 -229 89.5t-99 242.5zM142 345q0 -138 62.5 -231.5t166.5 -93.5q77 0 133.5 47t82 116.5t25.5 149.5q0 79 -25 148t-80.5 116t-131.5 47q-102 0 -167.5 -90t-65.5 -209z " />
<glyph unicode="P" horiz-adv-x="564" d="M37 649q0 12 3.5 15t14.5 3q8 0 58.5 -1t59.5 -1q16 0 68 2.5t63 2.5q109 0 176 -50.5t67 -148.5q0 -94 -65 -139t-177 -45q-19 0 -46.5 1.5t-40.5 1.5q-7 0 -7 -8v-66q0 -186 4 -186h71q9 0 11.5 -3.5t2.5 -12.5q0 -12 -2.5 -16t-11.5 -4q-11 0 -55 1.5t-60 1.5 q-18 0 -62.5 -1.5t-46.5 -1.5q-10 0 -12.5 4t-2.5 17q0 10 4 12.5t17 2.5h48q9 0 9 444v52q0 105 -4 105l-66 -2q-11 0 -14.5 3.5t-3.5 16.5zM212 325q0 -10 35 -10q93 0 150.5 41t57.5 130q0 70 -58.5 111t-149.5 41q-22 0 -31 -1q-4 -1 -4 -51v-261z" />
<glyph unicode="Q" horiz-adv-x="783" d="M42 340q0 157 102 247.5t248 90.5q150 0 249.5 -95.5t99.5 -242.5q0 -120 -68 -209t-178 -120q-36 -11 -167 -70q-9 -4 -9 -5q-2 -2 3 -2q2 -1 6 -1q102 -6 132 -13q25 -5 64 -16.5t67.5 -18t47.5 -6.5q30 0 54.5 7.5t37.5 15.5t15 8q3 0 10 -8t7 -12q0 -16 -55 -48 t-105 -32q-60 0 -136 21t-135 41.5t-78 20.5q-14 0 -39 -9t-28 -9q-11 0 -25 17t-14 28q0 18 28 18q4 0 11 -0.5t11 -0.5q31 0 56 6q44 12 124 51q7 4 7 5t-11 2q-69 9 -126.5 32.5t-105 62.5t-74 101.5t-26.5 142.5zM135 356q0 -67 23 -129t61 -106q36 -42 112 -71t103 -29 q14 0 44.5 18.5t67.5 53t64 98.5t27 141q0 78 -29.5 148t-89 117t-136.5 47q-104 0 -175.5 -86t-71.5 -202z" />
<glyph unicode="R" horiz-adv-x="641" d="M37 649q0 12 4.5 15t15.5 3q6 0 52.5 -1t63.5 -1q16 0 75 3t70 3q33 0 62 -4t59 -16t51.5 -30.5t35 -50t13.5 -72.5q0 -33 -14.5 -62t-38.5 -49.5t-43.5 -33t-39.5 -21.5q-1 0 -2 -1q-7 -3 2 -6q30 -10 54 -23t52 -38.5t44.5 -69t18.5 -102.5q1 -22 1.5 -34.5t2 -18.5 t3 -7.5t4.5 -1.5h46q9 0 12 -5t3 -20q0 -11 -16 -11l-137 3q-11 0 -11 11v58q0 43 -2 72t-11.5 64t-27 55.5t-50.5 35.5t-79 16q-10 0 -43.5 0.5t-48.5 0.5q-8 0 -8 -8q0 -54 4 -163t7 -109h58q9 0 11.5 -3.5t2.5 -12.5q0 -12 -2.5 -16t-11.5 -4q-11 0 -51.5 1.5t-56.5 1.5 q-18 0 -57 -1.5t-41 -1.5q-10 0 -13.5 4t-3.5 17q0 10 4 12.5t17 2.5h43q4 0 4 126v133q0 342 -10 342l-58 -2q-19 0 -19 20zM210 343q0 -5 13 -5q20 0 65 -0.5t63 -1.5q8 0 11 1q86 40 86 147q0 70 -54 112.5t-128 42.5q-36 0 -51 -2q-5 0 -5 -51v-243z" />
<glyph unicode="S" horiz-adv-x="528" d="M52 488q0 83 66 137.5t151 54.5q74 0 137 -43q9 -7 15 -7q4 0 4 18q1 12 3.5 14.5t14.5 2.5q15 0 18.5 -2.5t3.5 -14.5l-3 -64q-3 -64 -3 -95q0 -10 -3 -13.5t-15 -3.5q-13 0 -17.5 3.5t-4.5 11.5q0 1 1.5 30t1.5 34q0 20 -51 57.5t-100 37.5q-56 0 -93 -36t-37 -90 q0 -42 26.5 -72t65.5 -45l85.5 -33.5t85.5 -38t65.5 -59t26.5 -94.5q0 -90 -68.5 -143t-158.5 -53q-51 0 -99.5 9t-74.5 20.5t-27 19.5l-3.5 48.5l-4.5 63t-2 34.5q0 4 0.5 6t1.5 4.5t4.5 3.5t8.5 1h5q18 0 19 -17l6 -94q1 -19 64.5 -39.5t110.5 -20.5q53 0 91.5 34t38.5 84 q0 35 -19.5 61.5t-51 43t-69.5 31.5t-76 32t-69.5 39t-51 58t-19.5 84z" />
<glyph unicode="T" horiz-adv-x="690" d="M18 542q0 1 3 22.5t7 53.5t6 54q1 11 4 14.5t15 3.5q16 0 16 -9v-10q0 -5 105 -5h357q106 0 106 8q1 10 4.5 13t11.5 3q12 0 16 -2t4 -12q0 -2 -2 -45.5t-2 -89.5q0 -7 -3.5 -8.5t-15.5 -1.5q-18 0 -18 14q0 2 1.5 38t1.5 42q0 7 -110 7h-115q-5 0 -8 -155v-29 q-1 -28 -2 -72.5t-2 -94.5t-1.5 -102t-0.5 -87q0 -62 2 -62h71q9 0 11.5 -3.5t2.5 -12.5q0 -12 -2.5 -16t-11.5 -4q-11 0 -57.5 1.5t-62.5 1.5t-64 -1.5t-59 -1.5q-10 0 -12.5 4t-2.5 17q0 10 3.5 12.5t15.5 2.5h62q6 0 9.5 194.5t3.5 320.5q0 87 -6 87h-142q-92 0 -94 -10 l-8 -77q-1 -9 -3.5 -11.5t-11.5 -2.5q-22 0 -22 11z" />
<glyph unicode="U" horiz-adv-x="755" d="M37 649q0 12 3.5 15t14.5 3q6 0 42 -1.5t53 -1.5q16 0 60.5 1.5t55.5 1.5q10 0 12.5 -4t2.5 -17q0 -10 -3.5 -12.5t-15.5 -2.5h-65q-5 0 -9 -167t-4 -236q0 -96 47 -143.5t151 -47.5q92 0 170 53q16 11 19 21q5 16 5 136v305q0 79 -6 79h-50q-11 0 -15.5 3t-4.5 15 t4.5 15t15.5 3q6 0 46 -1.5t57 -1.5t46 1.5t32 1.5q10 0 13.5 -4t3.5 -17q0 -10 -4 -12.5t-17 -2.5h-23q-4 0 -5.5 -41t-3 -134t-2.5 -139q-1 -57 -3 -128t-3 -113t-1 -51q0 -35 -24 -35q-13 0 -33 36.5t-29 36.5t-45 -20q-40 -23 -96.5 -40t-110.5 -17q-59 0 -101 14 t-65 35t-36 55t-16.5 64t-3.5 73q0 11 0.5 157t0.5 191q0 56 -4 56h-38q-10 0 -14 3t-4 15z" />
<glyph unicode="V" horiz-adv-x="685" d="M7 649q0 12 4 15t15 3q4 0 40.5 -1.5t53.5 -1.5q16 0 67.5 1.5t62.5 1.5q10 0 13.5 -4t3.5 -17q0 -10 -4 -12.5t-17 -2.5h-70v-2q0 -18 12 -50q68 -199 159 -436q15 -41 20 -41q4 0 19 39l37 95.5l46.5 119l42.5 111t34 98t12 53.5q0 13 -6 13h-71q-11 0 -16 3t-5 15 t3.5 15t14.5 3q6 0 47 -1.5t58 -1.5t46 1.5t32 1.5q10 0 13.5 -4t3.5 -17q0 -10 -4 -12.5t-17 -2.5t-19 -2t-7.5 -4.5t-6.5 -14.5l-231 -543q-5 -11 -9 -17.5t-10 -13.5t-9 -12q-6 -9 -14.5 -25t-14 -21.5t-14.5 -5.5q-7 0 -13 15.5t-18 53t-26 68.5q-1 1 -52 132.5 l-102 260.5t-54 129h-31q-10 0 -14.5 3t-4.5 15z" />
<glyph unicode="W" horiz-adv-x="1008" d="M7 649q0 12 4.5 15t15.5 3q6 0 42.5 -1.5t53.5 -1.5q16 0 54.5 1.5t49.5 1.5q10 0 13.5 -4t3.5 -17q0 -10 -4 -12.5t-17 -2.5h-50q-6 0 -7 -6q2 -14 27 -98l47.5 -155l50.5 -158t23 -71q9 -25 11 -25q1 0 12 25l143 365q3 8 3 17q0 2 -7 30q-21 76 -27 76h-57 q-11 0 -15.5 3t-4.5 15t4.5 15t15.5 3q6 0 50 -1.5t61 -1.5q16 0 62.5 1.5t57.5 1.5q10 0 13.5 -4t3.5 -17q0 -10 -4.5 -12.5t-15.5 -2.5h-63q-1 -2 -1 -6q0 -26 18 -98l32.5 -116l34.5 -120.5l28.5 -98.5t14.5 -49q13 -41 17 -41q3 0 18 39q5 14 35.5 93.5l46 122.5 l38.5 107t34 102t11 52q0 13 -6 13h-65q-11 0 -15.5 3t-4.5 15t4.5 15t15.5 3q2 0 37 -1.5t66 -1.5q21 0 43.5 1.5t24.5 1.5q10 0 13.5 -4t3.5 -15q0 -10 -4 -13.5t-17 -3.5t-19 -2t-8 -5t-6 -14l-221 -543q-5 -11 -9 -17.5t-10 -14l-9 -11.5q-6 -8 -13 -20t-10.5 -17.5 t-8.5 -10t-11 -4.5t-11.5 6.5t-10.5 20.5t-9 28.5l-11 38.5l-13 43q0 1 -5.5 21l-15 54.5l-20.5 75l-25 89.5l-26 90q-4 18 -7 18q-1 0 -9 -18l-142 -372q-5 -11 -9 -17.5t-10 -14l-9 -11.5q-6 -8 -13 -20t-10.5 -17.5t-8.5 -10t-11 -4.5t-11.5 6.5t-10.5 20.5t-9 28.5 l-11 38.5l-13 43q0 1 -16.5 56l-39.5 131l-46 152.5l-40 129.5t-19 53h-36q-11 0 -15.5 3t-4.5 15z" />
<glyph unicode="X" horiz-adv-x="638" d="M7 12q0 12 4.5 15t14.5 3h37q3 0 72 99l42.5 59.5t56 72t45.5 57.5q6 8 -1 17l-106 172.5t-81 123.5h-39q-11 0 -15.5 3t-4.5 15t4 15t15 3q6 0 54 -1.5t65 -1.5q16 0 52 1.5t47 1.5q10 0 12.5 -4t2.5 -17q0 -10 -4 -12.5t-17 -2.5h-41q-7 0 -8 -1.5t1 -5.5q1 -3 2 -4 q22 -54 116 -219q1 -1 3 -4.5t3.5 -5.5t2.5 -2t4 4l82 124q63 94 63 113v1h-56q-13 0 -17 2.5t-4 12.5q0 13 3.5 17t13.5 4q5 0 31 -1.5t47 -1.5q17 0 43.5 1.5t32.5 1.5q11 0 15 -3.5t4 -14.5q0 -12 -4.5 -15t-14.5 -3h-23q-6 0 -47 -59q-33 -48 -88 -121t-63 -85 q-4 -5 0 -11q206 -325 212 -325h34q14 0 17.5 -2.5t3.5 -15.5q0 -12 -3.5 -15t-15.5 -3q-6 0 -46.5 1.5t-57.5 1.5q-16 0 -60.5 -1.5t-55.5 -1.5q-10 0 -13.5 4t-3.5 17q0 10 4 12.5t17 2.5h50q12 0 5 11q-18 37 -145 250q-4 7 -8 1q-110 -155 -163 -242q-10 -17 -8 -19 q2 -1 6 -1h55q13 0 17 -2.5t4 -12.5q0 -13 -3.5 -17t-13.5 -4q-11 0 -39 1.5t-44 1.5q-17 0 -47 -1.5t-36 -1.5q-11 0 -15 3.5t-4 14.5z" />
<glyph unicode="Y" horiz-adv-x="597" d="M7 654q0 12 3.5 15t14.5 3q1 0 36 -1.5t70 -1.5q33 0 74 1.5t44 1.5q8 0 11 -4t3 -17q0 -10 -3 -12.5t-15 -2.5h-59h-7.5t-3 -2t0 -3t2.5 -6q9 -23 37 -76.5l62.5 -117t42.5 -79.5q7 -13 9 -13t7 10q139 268 139 284q0 3 -2 3h-52q-13 0 -17 2.5t-4 12.5q0 13 3.5 17 t13.5 4q2 0 27.5 -1.5t50.5 -1.5t48 1.5t28 1.5q11 0 15 -3.5t4 -14.5q0 -12 -4.5 -15t-14.5 -3h-34q-2 0 -39 -64l-82.5 -144.5t-61.5 -105.5q-3 -4 -3 -9q0 -283 9 -283h69q9 0 11.5 -3.5t2.5 -12.5q0 -12 -2.5 -16t-11.5 -4q-7 0 -46.5 1.5t-73.5 1.5q-25 0 -68 -1.5 t-46 -1.5q-10 0 -12.5 4t-2.5 17q0 10 3.5 12.5t15.5 2.5h51q10 0 10 241q0 10 -7 22l-115 205.5t-84 137.5h-29q-10 0 -14 3t-4 15z" />
<glyph unicode="Z" horiz-adv-x="601" d="M37 15q0 6 61.5 100l164 249.5l164.5 253.5q2 2 2 5t-11 3h-312q-4 0 -5 -8q-2 -9 -5 -28.5t-5.5 -33.5t-2.5 -16q-3 -18 -11 -18q-29 0 -29 10q0 1 3.5 22.5l9 57.5t9.5 65q1 7 7 8q3 1 7 1q23 0 22 -8l-1 -8q0 -6 56 -6h385q10 0 13 -3.5t3 -14.5q0 -7 -62.5 -99.5 l-159 -238t-157.5 -249.5q-13 -19 1 -19h340q5 0 5 8q0 7 1 12q1 13 3 90q0 9 21 9q20 0 20 -10q0 -27 -1.5 -78t-1.5 -63q0 -14 -17 -14q-57 0 -256 1.5t-250 1.5q-11 0 -11 18z" />
<glyph unicode="[" horiz-adv-x="296" d="M77 -129v807q0 9 3 12t12 3h153q9 0 11.5 -2.5t2.5 -9.5v-14q0 -10 -2.5 -13t-11.5 -3h-107q-8 0 -9 -1t-1 -8v-735q0 -7 1 -8t9 -1h107q9 0 11.5 -3t2.5 -13v-12q0 -14 -14 -14h-152q-11 0 -13.5 2t-2.5 13z" />
<glyph unicode="\" horiz-adv-x="406" d="M6 696q0 11 25 11q19 0 23.5 -3t8.5 -16l317 -850q21 -54 21 -62q0 -12 -29 -12q-19 0 -23.5 4.5t-13.5 28.5l-314 851q-15 38 -15 48z" />
<glyph unicode="]" horiz-adv-x="296" d="M37 -118q0 10 2.5 13t11.5 3h107q8 0 9 1t1 8v735q0 7 -1 8t-9 1h-107q-9 0 -11.5 3t-2.5 13v12q0 14 14 14h152q10 0 13 -2.5t3 -11.5v-807q0 -7 -0.5 -9.5t-3.5 -4.5t-9 -2h-155q-9 0 -11.5 2.5t-2.5 9.5v14z" />
<glyph unicode="^" horiz-adv-x="402" d="M47 309l148 324l1 1q3 1 7 1t7 -1l1 -1l148 -324q-13 -4 -30 -4q-11 0 -27 3h-1l-100 227l-96 -227h-2q-18 -3 -28 -3q-16 0 -28 4z" />
<glyph unicode="_" horiz-adv-x="410" d="M22 -41q0 19 17 19h335q14 0 14 -14v-14q0 -23 -14 -23h-338q-9 0 -11.5 4t-2.5 16v12z" />
<glyph unicode="`" horiz-adv-x="400" d="M95 582q0 14 10.5 23.5t28.5 9.5q23 0 33 -27l49 -130q2 -4 2 -7q0 -5 -7 -5h-16q-5 0 -10 7l-82 107q-8 11 -8 22z" />
<glyph unicode="a" horiz-adv-x="419" d="M32 71q0 43 38 76t85 49t104 26q5 1 5 13q0 27 -0.5 42t-5 36t-13 32t-25 19t-40.5 8q-18 0 -31 -6q-19 -8 -24 -21t-5 -46q0 -15 -7 -20q-12 -9 -33 -19.5t-25 -10.5q-9 0 -9 19q0 59 50 96.5t105 37.5q73 0 103.5 -34.5t30.5 -99.5q0 -29 -3 -113t-3 -91q0 -10 4 -16.5 t8 -8.5t6 -2q5 0 23 13l17 12q4 0 10 -7.5t6 -12.5q0 -1 -51 -39q-32 -23 -42 -23q-9 0 -16 3t-11.5 9t-6.5 10t-4.5 13.5t-3.5 10.5q-2 6 -4 6.5t-7 -3.5q-74 -46 -124 -46q-47 0 -74 24t-27 64zM108 99q0 -25 17 -45.5t45 -20.5q18 0 40.5 5.5t38 12t15.5 10.5v131 q0 8 -3 8q-14 0 -61 -15q-92 -29 -92 -86z" />
<glyph unicode="b" horiz-adv-x="485" d="M1 639q0 24 6 24q21 2 56.5 6l61.5 7t28 3q8 0 8 -8t-0.5 -48t-1.5 -104t-1 -129q0 -29 2 -29q1 0 7 3t16.5 7t22.5 8t27.5 7t29.5 3q85 0 140 -57.5t55 -143.5q0 -93 -64 -148.5t-153 -55.5q-25 0 -55.5 9.5t-40.5 9.5q-13 0 -29.5 -9t-23.5 -9q-10 0 -10 16q0 1 0.5 6 t1 16.5t1 30t1 53.5t0.5 79q0 140 -4 295t-11 155q-4 0 -31.5 -3t-29.5 -3q-9 0 -9 9zM156 64q0 -47 81 -47q66 0 104.5 50t38.5 120q0 69 -46.5 118t-110.5 49q-20 0 -42.5 -9t-22.5 -15q0 -60 -1 -159t-1 -107z" />
<glyph unicode="c" horiz-adv-x="412" d="M32 177q0 105 64 165t145 60q51 0 93.5 -29.5t42.5 -69.5q0 -13 -11 -22q-18 -14 -32 -14q-16 0 -20 13q-2 7 -7 22l-7.5 22t-8 17.5t-12.5 15t-18 8.5t-26 4q-59 0 -95.5 -52t-36.5 -115q0 -67 39.5 -116t111.5 -49q31 0 59.5 7.5t44.5 15.5l17 7q10 0 10 -11 q0 -5 -18.5 -20.5t-58.5 -32t-84 -16.5q-89 0 -140.5 51.5t-51.5 138.5z" />
<glyph unicode="d" horiz-adv-x="499" d="M27 181q0 86 59 143.5t147 57.5q16 0 32 -2.5t28 -6t21.5 -7.5l15 -6.5t6.5 -2.5q3 0 3 14q0 62 -3.5 165.5t-7.5 103.5q-3 0 -33 -4.5t-34 -4.5q-7 0 -4 18q2 14 5 15q2 1 4 1q27 3 60.5 7.5t54 7.5t27.5 3q5 0 5 -16q0 -7 -1.5 -65t-3 -169.5t-1.5 -248.5q0 -43 2 -115 q1 -32 5 -42t17 -10q1 0 8 1t15.5 2.5t12.5 1.5q10 2 10 -6q0 -25 -9 -26q-118 -16 -123 -16q-8 0 -8 12q0 1 0.5 17.5t0.5 18.5q0 8 -11 1q-63 -39 -121 -39q-76 0 -127.5 47.5t-51.5 149.5zM106 188q0 -73 36.5 -117t112.5 -44q22 0 53 10t31 20v250q0 6 -12.5 17 t-35.5 21.5t-46 10.5q-62 0 -100.5 -49.5t-38.5 -118.5z" />
<glyph unicode="e" horiz-adv-x="424" d="M28 185q0 91 58 152.5t148 61.5q72 0 112 -47t40 -115q0 -15 -57 -15q-5 0 -110 2.5t-113 2.5q-3 -7 -3 -33q0 -74 43 -118t100 -44q23 0 45 6.5t36.5 16.5t25.5 19.5t17.5 16t7.5 6.5q2 0 11 -7.5t9 -9.5t-8 -12.5t-24 -25t-36 -28t-49 -23t-58 -9.5q-92 0 -143.5 56 t-51.5 147zM108 255q0 -5 9 -5q57 0 157 4q37 1 37 4q0 61 -28.5 87t-60.5 26q-45 0 -78 -37.5t-36 -78.5z" />
<glyph unicode="f" horiz-adv-x="306" d="M32 12q0 16 15 16h37q4 0 4 60q0 20 -0.5 51t-0.5 33v60q0 111 -2 111h-33q-9 0 -11.5 3t-2.5 13t2 13t9 3h30q7 0 7 9q0 24 -1 47t-1 50q0 88 38 144t121 56q32 0 59 -19.5t27 -50.5q0 -17 -19 -33.5t-32 -16.5q-15 0 -16 12q-4 30 -6.5 43t-12 25t-25.5 12 q-56 0 -56 -161q0 -17 -2 -103q0 -10 4 -12t19 -2h111q10 0 10 -7q0 -4 -2.5 -14t-6.5 -10h-112q-19 0 -19 -9v-166q0 -141 9 -141h68q8 0 10 -3t2 -13t-2 -13.5t-12 -3.5q-8 0 -50 1t-58 1q-12 0 -39.5 -1t-43.5 -1t-16 17z" />
<glyph unicode="g" horiz-adv-x="425" d="M12 -173q0 44 37.5 72.5t85.5 41.5q2 1 6 2l6 3h-14h-36q-33 0 -43 21q-9 23 -9 49q0 31 20 35q104 26 104 28q0 1 -9 3q-129 37 -129 164q0 65 54.5 108.5t124.5 43.5q34 0 63.5 -13t44.5 -25l16 -13q1 0 13 4.5t29.5 9t30.5 5.5q5 0 8.5 -11t3.5 -20t-6 -9 q-55 -6 -55 -12q0 -1 3 -10.5t6 -26t3 -34.5q0 -61 -29.5 -97t-87.5 -58q-27 -11 -173 -52q-2 0 -2 -6q0 -5 2.5 -11.5t5.5 -11t4 -4.5q18 -1 58 -2.5t64.5 -3t61 -5.5t59.5 -12.5t45.5 -21.5t33.5 -33.5t11 -48.5q0 -77 -62 -123t-161 -46q-71 0 -129.5 31.5t-58.5 88.5z M63 -166q0 -44 42.5 -69.5t93.5 -25.5q65 0 113 27.5t48 85.5q0 37 -53.5 57t-117.5 20q-42 0 -84 -26t-42 -69zM101 250q0 -64 40.5 -108t65.5 -44q32 0 63.5 42t31.5 104q0 58 -26 90.5t-71 32.5q-42 0 -73 -34.5t-31 -82.5z" />
<glyph unicode="h" horiz-adv-x="503" d="M7 641q0 18 7 19q128 18 147 18q8 0 8 -14q0 -1 -2 -50.5t-4 -124t-2 -135.5q0 -8 0.5 -8.5t6.5 2.5q73 40 134 40q33 0 57 -12t37.5 -30t21.5 -47t10 -55.5t2 -63.5v-85q0 -67 3 -67h34q14 0 14 -16q0 -17 -14 -17q-8 0 -33 1t-41 1q-12 0 -42 -1t-46 -1q-10 0 -12 3.5 t-2 13.5q0 16 12 16h48q5 0 5 184q0 57 -23.5 93t-69.5 36t-88 -21q-14 -7 -14 -12q1 -182 1 -192q0 -88 4 -88h46q9 0 11 -3.5t2 -12.5q0 -17 -13 -17q-8 0 -39 1t-47 1q-12 0 -42 -1t-46 -1q-10 0 -12 3.5t-2 13.5q0 16 15 16h43q4 0 4 184q0 263 -8 407q0 7 -1 10 t-1.5 3.5t-3.5 0.5q-1 0 -28.5 -3.5t-30.5 -3.5q-6 0 -6 15z" />
<glyph unicode="i" horiz-adv-x="249" d="M20 354q0 4 5 17q4 10 19 10q24 1 51.5 2t43.5 2t18 1q7 0 8.5 -2t1.5 -7v-170q0 -179 5 -179h43q8 0 10 -3t2 -13q0 -17 -12 -17q-9 0 -41 1t-45 1t-48 -1t-44 -1q-8 0 -10 3.5t-2 13.5q0 9 2.5 12.5t12.5 3.5h50q3 0 3 97q0 117 -4 214q0 7 -2 10t-3.5 3h-6.5 q-1 0 -23.5 -1t-24.5 -1q-9 0 -9 4zM74 553q0 26 20.5 42t42.5 16q19 0 32 -10.5t13 -32.5q0 -26 -20 -42.5t-44 -16.5q-18 0 -31 11.5t-13 32.5z" />
<glyph unicode="j" horiz-adv-x="292" d="M2 -255q0 17 15.5 36.5t26.5 19.5q12 0 33 -2t24 -2q35 0 35 30q0 9 -2 56.5t-4.5 145t-2.5 229.5q0 49 -2 76q-1 8 -2 9.5t-4 1.5t-34 -1.5t-36 -1.5q-7 0 -7 4q0 7 3 18t8 11q25 1 59 2.5l55.5 2.5t22.5 1q10 0 10 -22v-4q0 -40 2.5 -149.5t2.5 -178.5q0 -90 -11 -146 t-44 -99q-14 -18 -58.5 -39t-67.5 -21q-22 0 -22 23zM77 580q0 26 20.5 42t42.5 16q19 0 32 -10.5t13 -32.5q0 -26 -20 -42.5t-44 -16.5q-18 0 -31 11.5t-13 32.5z" />
<glyph unicode="k" horiz-adv-x="449" d="M6 649v11q0 13 12 14q127 10 137 10q6 0 7 -2.5t1 -10.5v-3l-11 -446q0 -7 2 -8.5t11 -1.5h22q12 0 27 21q48 63 78 113q3 5 3 7.5t-2 3t-8 0.5h-24q-9 0 -11 3.5t-2 12.5q0 17 14 17q3 0 25 -1t37 -1q14 0 35 1t27 1q12 0 12 -17q0 -16 -13 -16h-32q-6 0 -108 -122 q-6 -8 -6.5 -10t3.5 -6q2 -2 3 -4l151 -175q10 -12 20 -12h12q10 0 12 -3t2 -13t-2 -13.5t-12 -3.5q-6 0 -30.5 1t-38.5 1t-39.5 -1t-31.5 -1q-9 0 -11 3.5t-2 13.5q0 16 13 16h13q5 0 6.5 1t0.5 3t-4 6l-110 136q-9 11 -12 13.5t-10 2.5h-12q-8 0 -8 -13v-84q0 -65 2 -65 h32q9 0 11 -4t2 -15q0 -14 -13 -14q-8 0 -31.5 1t-39.5 1q-19 0 -50 -1t-34 -1q-9 0 -11 3.5t-2 13.5q0 6 0.5 9t3 5t8.5 2h44q6 0 7 2t1 13v193q0 406 -8 406q-1 0 -26.5 -1.5t-30.5 -1.5q-7 0 -9 1.5t-2 8.5z" />
<glyph unicode="l" horiz-adv-x="257" d="M16 644q0 8 3 19q2 8 9 9h3q120 9 124 9q10 0 10 -18q1 -160 3.5 -332t2.5 -267q0 -36 5 -36h43q8 0 10 -3t2 -13q0 -7 -0.5 -10t-3 -5t-8.5 -2q-8 0 -37.5 1t-45.5 1q-12 0 -46 -1t-50 -1q-13 0 -13 17q0 16 12 16h51q5 0 5 82q0 395 -11 517q-1 8 -3 12t-3 4h-5 q-3 0 -26.5 -2t-25.5 -2q-5 0 -5 5z" />
<glyph unicode="m" horiz-adv-x="739" d="M21 350q0 2 5 19q2 7 4 8.5t9 1.5h4q103 5 107 5q8 0 10 -2.5t2 -11.5v-30q0 -7 0.5 -7.5t4.5 2.5q80 56 143 56q21 0 38 -5.5t25.5 -12.5t14.5 -14.5t8 -12.5l3 -6q1 0 9 5t21.5 12t30 14.5t37.5 12.5t39 5q70 0 98.5 -39t28.5 -110q0 -22 -1 -95t-1 -75q0 -42 2 -42h40 q14 0 14 -16q0 -17 -14 -17q-8 0 -35.5 1t-43.5 1q-12 0 -42 -1t-46 -1q-13 0 -13 17q0 16 15 16h41q8 0 8 188q0 125 -86 125q-21 0 -44.5 -6.5t-36.5 -13t-13 -8.5q0 -1 1.5 -8.5t3 -25t1.5 -43.5v-112q0 -96 2 -96h36q9 0 11 -3.5t2 -12.5q0 -17 -13 -17q-8 0 -34.5 1 t-42.5 1q-12 0 -35.5 -1t-39.5 -1q-10 0 -13 3.5t-3 13.5q0 16 13 16h38q7 0 7 94q0 19 -0.5 41t-0.5 36.5v16.5q0 32 -1.5 50t-8 37.5t-21 28.5t-38.5 9q-62 0 -98 -29q-10 -8 -10 -16v-239q0 -21 2.5 -25t13.5 -4h24q14 0 14 -16q0 -17 -14 -17q-9 0 -37.5 1t-41.5 1 q-14 0 -47 -1t-40 -1q-12 0 -12 16q0 17 11 17h42q7 0 10 29q2 20 2 106v109q0 42 -2 68q-5 7 -6 7q-48 -3 -56 -3q-5 0 -5 6z" />
<glyph unicode="n" horiz-adv-x="514" d="M20 348q0 4 6 19q2 7 4 8t12 2q6 0 50.5 3t60.5 4q9 1 11 -1.5t2 -9.5v-3v-34q0 -8 6 -3q3 2 5 3q2 2 18 12.5t23.5 14.5t23 11t31 10t33.5 3q43 0 71 -13.5t41.5 -40.5t18.5 -56t5 -70q0 -33 -2.5 -100t-2.5 -70q0 -7 1 -8t7 -1h30q10 0 13.5 -3t3.5 -13q0 -17 -15 -17 q-8 0 -33.5 1t-41.5 1q-12 0 -41.5 -1t-45.5 -1q-11 0 -13 3t-2 13q0 17 16 17h43q6 0 6 184q0 60 -20.5 93.5t-72.5 33.5q-32 0 -88 -28q-16 -9 -16 -20q0 -41 -0.5 -123.5t-0.5 -123.5q0 -12 1.5 -14t8.5 -2h38q10 0 12 -3.5t2 -12.5q0 -17 -13 -17q-8 0 -38 1t-46 1 q-12 0 -43.5 -1t-47.5 -1q-9 0 -11 3.5t-2 13.5q0 16 13 16h45q8 0 8 209q0 68 -2 99q0 6 -1.5 8.5t-3 2.5h-3.5h-3t-27.5 -2t-28.5 -2q-5 0 -5 5z" />
<glyph unicode="o" horiz-adv-x="446" d="M27 183q0 91 58 153.5t150 62.5q82 0 133 -58.5t51 -143.5q0 -95 -53.5 -155t-146.5 -60q-81 0 -136.5 59t-55.5 142zM104 169q0 -61 31 -108t84 -47q122 0 122 190q0 62 -31 112.5t-87 50.5q-119 0 -119 -198z" />
<glyph unicode="p" horiz-adv-x="512" d="M21 348q0 3 3 16t6 13q29 1 62.5 2.5t53 2.5t20.5 1q14 0 14 -17v-20q0 -10 13 0q1 0 1.5 1t1.5 1q54 38 110 38q84 0 129 -54t45 -138q0 -81 -58.5 -143.5t-153.5 -62.5q-19 0 -39.5 4t-32.5 8l-13 5q-2 0 -2 -13l3 -179q2 -64 5 -64h70q10 0 12 -3.5t2 -12.5 q0 -17 -14 -17q-8 0 -50 1t-58 1q-12 0 -48 -1t-52 -1q-13 0 -13 17q0 16 13 16h54q3 0 3 157v142q0 191 -7 287q-1 8 -2.5 9.5t-6.5 1.5h-4q-6 0 -31.5 -1t-26.5 -1q-9 0 -9 4zM181 49q0 -12 29.5 -24t54.5 -12q64 0 100.5 54t36.5 120q0 71 -36 114.5t-91 43.5 q-35 0 -63 -13q-31 -16 -31 -26v-257z" />
<glyph unicode="q" horiz-adv-x="490" d="M32 180q0 88 60 146t151 58q33 0 73 -13t44 -13q7 0 20 17.5t23 17.5q14 0 14 -18q-5 -149 -5 -298v-165q0 -160 4 -160h36q10 0 13 -3t3 -15q0 -8 -0.5 -11t-3 -4.5t-9.5 -1.5h-30q-39 0 -78 -2.5t-63 -5.5l-24 -3q-10 0 -10 21q0 13 12 14q59 6 63 8q8 4 8 21l2 230 q0 9 -10 5q-3 -1 -5 -2q-65 -19 -111 -19q-69 0 -123 49t-54 147zM109 191q0 -65 38.5 -117t102.5 -52q27 0 56.5 5.5t29.5 13.5v250q0 28 -26.5 44t-74.5 16q-61 0 -93.5 -48t-32.5 -112z" />
<glyph unicode="r" horiz-adv-x="329" d="M21 349q0 2 0.5 5.5t2 7.5t1.5 6q1 6 4 7t14 1q14 0 41.5 1t45.5 1.5t21 0.5q9 0 10.5 -1t1.5 -8q0 -8 -0.5 -28.5t-0.5 -29.5v-7l1 -2q2 4 3 7q17 40 44 63.5t52 23.5q22 0 41 -17t19 -29q0 -10 -14 -27.5t-27 -17.5q-12 0 -31.5 16t-27.5 16q-54 0 -54 -201 q0 -109 9 -109h66q13 0 13 -16q0 -17 -13 -17q-8 0 -50.5 1t-58.5 1q-12 0 -42.5 -1t-46.5 -1q-13 0 -13 17q0 6 0.5 9t3 5t8.5 2h44q8 0 8 134q0 186 -8 186q-3 0 -31 -1t-29 -1q-7 0 -7 3z" />
<glyph unicode="s" horiz-adv-x="337" d="M32 50q0 13 13 27.5t20 14.5q3 0 6 -4t7 -12t8 -13q40 -49 91 -49q27 0 45 16t18 46q0 31 -22 49.5t-65 36.5q-29 13 -42.5 20t-35 22t-31 33.5t-9.5 42.5q0 50 45 83t102 33q52 0 79.5 -23t27.5 -49q0 -8 -16.5 -14t-28.5 -6q-9 0 -15 16t-19.5 32.5t-40.5 16.5 q-28 0 -49 -16.5t-21 -50.5q0 -15 5 -25.5t21 -21.5t22 -14l32 -16q33 -15 46 -22t36.5 -23t33.5 -34t10 -40q0 -54 -42.5 -87.5t-101.5 -33.5q-47 0 -88 19.5t-41 45.5z" />
<glyph unicode="t" horiz-adv-x="289" d="M31 344q0 5 5 10l91 127q6 9 13 9q11 0 11 -12q0 -1 -1.5 -21.5t-3 -44t-1.5 -30.5q0 -5 1 -6t7 -1h103q7 0 7 -6q0 -1 -3 -16q-5 -18 -16 -18h-95q-4 0 -4 -43v-192q0 -19 2 -30t12.5 -20t30.5 -9q23 0 52 8t30 8q5 0 5 -15q0 -6 -5 -10q-18 -13 -59 -28.5t-65 -15.5 q-39 0 -57 21.5t-18 49.5q0 41 1 124.5t1 92.5q0 58 -11 58h-25q-8 0 -8 10z" />
<glyph unicode="u" horiz-adv-x="510" d="M11 357q0 7 4 17q3 8 14 9h4q88 4 114 4q6 0 6 -9v-272q0 -64 108 -64q28 0 58 4t30 9v118q0 183 -8 183q-5 0 -27 -1t-23 -1q-8 0 -8 3q0 12 2 18q1 9 13 9q22 1 50.5 2t46 2t19.5 1q4 0 6 -0.5t3 -2t1 -2v-4.5q-1 -239 -1 -301q0 -37 3 -46.5t13 -9.5q1 0 21.5 3 t22.5 3q6 0 6 -13q0 -12 -1.5 -14.5t-11.5 -3.5q-116 -17 -119 -17t-4.5 25.5t-2.5 25.5l-10 -4q-10 -5 -26.5 -12t-36 -14t-43.5 -11.5t-45 -4.5q-66 0 -89 37.5t-23 98.5v157q0 74 -9 74q-1 0 -24 -0.5t-25 -0.5q-8 0 -8 5z" />
<glyph unicode="v" horiz-adv-x="461" d="M22 368q0 17 13 17q8 0 31 -1t39 -1q13 0 47.5 1t42.5 1t9.5 -3.5t1.5 -13.5q0 -16 -10 -16h-35q-15 0 -15 -5q2 -11 38.5 -115t55.5 -147q6 -13 8 -13q3 0 7 11q94 223 94 256q0 13 -7 13h-29q-9 0 -11 3.5t-2 12.5q0 6 0.5 9t3.5 5.5t10 2.5q2 0 25 -1t35 -1t29.5 1 t24.5 1q11 0 11 -17q0 -16 -12 -16h-19q-5 0 -11 -10q-11 -19 -57 -131t-69 -160q-7 -15 -13.5 -23.5t-16.5 -20.5t-20 -27q-6 -8 -13 -8q-5 0 -9.5 5t-8 14t-6 16.5t-5.5 18.5t-4 14q-32 98 -109 299q-10 12 -13 13h-18q-13 0 -13 16z" />
<glyph unicode="w" horiz-adv-x="697" d="M22 368q0 17 14 17q8 0 30.5 -1t38.5 -1q13 0 46 1t41 1q10 0 12 -3.5t2 -13.5q0 -16 -13 -16h-27q-14 0 -14 -7q0 -4 15.5 -54t37 -113t34.5 -93q5 -9 7 -9q3 0 9 16q68 172 80 206q7 18 7 26q0 5 -5 15q-7 13 -31 13h-12q-14 0 -14 16q0 17 14 17q11 0 34 -1t41 -1 q13 0 36.5 1t35.5 1q10 0 12 -3.5t2 -13.5q0 -16 -15 -16h-21q-6 0 -7.5 -1.5t-1.5 -5.5v-1q3 -14 33.5 -115t47.5 -144q5 -15 9 -15q2 0 8 14q18 42 50.5 141t32.5 115q0 12 -8 12h-34q-13 0 -13 16q0 17 14 17q2 0 25 -1t35 -1q13 0 32.5 1t21.5 1q12 0 12 -17 q0 -16 -13 -16h-6q-10 0 -15 -10q-9 -17 -50 -128t-66 -163q-9 -18 -22.5 -35t-23.5 -35q-5 -9 -14 -9q-15 0 -33 68q-44 150 -69 224q-4 9 -5 9q-2 0 -6 -9q-67 -177 -84 -212q-8 -17 -22.5 -34t-25.5 -37q-5 -9 -15 -9q-13 0 -34 68q-4 15 -21 63.5l-42 119.5l-41 116 q-4 13 -16 13h-16q-10 0 -12 3.5t-2 12.5z" />
<glyph unicode="x" horiz-adv-x="468" d="M22 12q0 10 3 13t12 3q13 0 19.5 4t25.5 24l120 123q8 8 3 15l-107 144q-11 14 -20 14h-22q-10 0 -12 3.5t-2 12.5q0 17 14 17q2 0 33 -1t48 -1q15 0 38 1t24 1q12 0 12 -17q0 -16 -11 -16q-20 0 -20 -4q0 -5 8 -15l63 -92q5 -8 7 -8.5t7 4.5q2 3 4 5q7 7 40 46l41 49 q6 7 6 10q0 5 -21 5h-16q-9 0 -11 3.5t-2 12.5q0 6 0.5 9t3.5 5.5t10 2.5q1 0 10 -0.5t22 -1t25 -0.5q17 0 36.5 1t20.5 1q8 0 10 -3.5t2 -13.5q0 -16 -13 -16q-7 0 -13.5 -3t-9.5 -5t-11 -10l-10 -10q-13 -12 -105 -104q-8 -8 -8 -10t8 -13q78 -109 116 -157q9 -12 18 -12 h12q10 0 12 -3.5t2 -12.5q0 -17 -13 -17q-3 0 -29 1t-43 1q-15 0 -42 -1t-28 -1q-10 0 -12 3.5t-2 13.5q0 16 13 16h13q14 0 14 6q0 3 -3 7.5l-7.5 11.5t-7.5 11q-29 46 -64 93q-6 8 -8 8t-8 -7q-89 -105 -94 -113q-7 -9 -6 -13t12 -4h30q10 0 12 -3.5t2 -12.5 q0 -17 -14 -17q-6 0 -27.5 1t-37.5 1q-14 0 -35 -1t-27 -1q-7 0 -8.5 3.5t-1.5 13.5z" />
<glyph unicode="y" horiz-adv-x="467" d="M22 368q0 17 13 17q6 0 33.5 -1t43.5 -1q22 0 52.5 1t35.5 1q16 0 16 -17q0 -16 -15 -16h-19q-23 0 -23 -7q0 -11 31.5 -97.5t57.5 -150.5q14 -32 16 -32t14 32q71 208 80 241q1 4 1 8q0 6 -18 6h-35q-9 0 -11 3.5t-2 12.5q0 17 14 17q3 0 29 -1t38 -1q13 0 34 1t24 1 q13 0 13 -17q0 -6 -0.5 -9t-3 -5t-8.5 -2h-15q-9 0 -12 -8q-38 -104 -133 -342q-1 -3 -7 -19.5t-15.5 -46t-17.5 -51.5q-21 -60 -38 -85q-10 -15 -27 -36q-2 -2 -5 -6.5t-4 -5.5t-4 -4.5t-4.5 -4.5t-4 -3.5t-5.5 -4t-6.5 -3.5t-8.5 -4q-54 -26 -63 -26q-21 0 -21 23 q0 16 20 44q9 12 29 19q4 2 18 6.5t22 7.5t19.5 8.5t18.5 12t10 14.5q44 109 44 120q0 7 -28 76l-72 173.5l-56 132.5q-4 9 -5.5 11t-6.5 2h-20q-9 0 -11 3.5t-2 12.5z" />
<glyph unicode="z" horiz-adv-x="413" d="M32 10q0 7 11 22l213 314q12 17 -3 17l-151 -5q-17 -1 -19.5 -2.5t-5.5 -14.5l-10 -43q-1 -6 -2 -8.5t-4.5 -3.5t-9.5 -1q-17 2 -17 6q0 2 1.5 15.5t3.5 36l3 33.5q0 6 0.5 8t2.5 4.5t5 3t9 0.5h281q27 0 27 -10q0 -5 -10 -19l-211 -310q-15 -23 4 -23l174 4q7 0 10 2 t3 3.5t1 8.5l6 54q1 8 2 10.5t4.5 3.5t13.5 1q12 0 12 -7q0 -18 -5 -95q-1 -12 -4 -15t-15 -3h-295q-25 0 -25 13z" />
<glyph unicode="{" horiz-adv-x="307" d="M37 274q0 8 5.5 11.5t14.5 4.5t18.5 7t18.5 17t14.5 37t5.5 65v80q0 35 0.5 53t3 43.5t8 37.5t15.5 26.5t25 20.5t37 10.5t52 4.5q9 0 12 -3t3 -13q0 -16 -17 -16q-42 0 -61.5 -18t-19.5 -71v-149q0 -73 -10 -102t-50 -42q-8 -3 -8 -4.5t8 -3.5q40 -13 50 -42t10 -102 v-149q0 -53 19.5 -71t61.5 -18q17 0 17 -16q0 -10 -3 -13t-12 -3q-30 0 -52 4.5t-37 10.5t-25 20.5t-15.5 26.5t-8 37.5t-3 43.5t-0.5 53v80q0 39 -5.5 65t-14.5 37t-18.5 17t-18.5 7t-14.5 4.5t-5.5 11.5z" />
<glyph unicode="|" horiz-adv-x="247" d="M97 -187v933q0 19 21 19h7q11 0 15.5 -1t7 -5.5t2.5 -13.5v-932q0 -9 -0.5 -13t-4 -8t-10.5 -4h-21q-12 0 -14.5 4.5t-2.5 20.5z" />
<glyph unicode="}" horiz-adv-x="307" d="M37 -128q0 16 17 16q42 0 61.5 18t19.5 71v149q0 73 10 102t50 42l9 4l-9 4q-40 13 -50 42t-10 102v149q0 53 -19.5 71t-61.5 18q-17 0 -17 16q0 10 3.5 13t11.5 3q30 0 52 -4.5t37 -10.5t25 -20.5t15.5 -26.5t8 -37.5t3 -43.5t0.5 -53v-80q0 -39 5.5 -65t14.5 -37 t18.5 -17t18.5 -7t14.5 -4.5t5.5 -11.5t-5.5 -11.5t-14.5 -4.5t-18.5 -7t-18.5 -17t-14.5 -37t-5.5 -65v-80q0 -35 -0.5 -53t-3 -43.5t-8 -37.5t-15.5 -26.5t-25 -20.5t-37 -10.5t-52 -4.5q-8 0 -11.5 3t-3.5 13z" />
<glyph unicode="~" horiz-adv-x="793" d="M42 117q0 6 4 18q6 23 17 46.5t32 52.5t55.5 47t77.5 18q49 0 103 -22.5t93.5 -49.5t87 -49.5t85.5 -22.5q25 0 47 15.5t36 40.5t21.5 42.5t12.5 34.5q3 12 19 9q13 -4 13 -10q0 -4 -1 -7q-7 -28 -19.5 -55t-34 -55t-55 -45.5t-74.5 -17.5q-50 0 -105.5 21.5t-95.5 47.5 t-89 47.5t-88 21.5q-77 0 -109 -124q-4 -16 -10 -16q-3 0 -11 2q-12 3 -12 10z" />
<glyph unicode="&#xa1;" horiz-adv-x="261" d="M77 615q0 22 16.5 41.5t28.5 19.5q21 0 41.5 -17.5t20.5 -31.5q0 -17 -16.5 -39.5t-30.5 -22.5q-17 0 -38.5 15.5t-21.5 34.5zM89 13q0 3 4 63t10.5 175.5t11.5 231.5q0 13 17 13q16 0 16 -13q3 -95 7.5 -202t8 -175t3.5 -89q0 -28 -44 -28q-18 0 -26 5t-8 19z" />
<glyph unicode="&#xa2;" horiz-adv-x="407" d="M27 177q0 97 55 155.5t130 67.5q7 1 8 8v3l4 55q2 30 5 30h8q17 0 17 -5q0 -1 -1.5 -15t-3 -34t-2.5 -31v-3q0 -5 1 -5.5t9 -1.5q45 -7 80 -35t35 -63q0 -15 -11 -22q-18 -14 -32 -14q-16 0 -20 13q-2 6 -7 22.5t-8 23.5t-9 17.5t-14 15.5t-20 8q-5 1 -6 0t-2 -7 l-26 -312q0 -7 4 -8q13 -3 28 -3q31 0 59.5 7.5t45.5 15.5l16 7q10 0 10 -11q0 -5 -18.5 -20.5t-58.5 -32t-84 -16.5q-8 0 -9 -5q-11 -115 -12 -115h-8q-15 0 -15 5q0 2 1 15t3.5 41t4.5 54q0 6 -0.5 7t-9.5 2q-69 13 -108 62.5t-39 123.5zM98 202q0 -49 22 -90.5t63 -60.5 q7 -3 7 1l25 308q0 7 -3 7h-4q-49 -11 -79.5 -60t-30.5 -105z" />
<glyph unicode="&#xa3;" horiz-adv-x="510" d="M37 -56q0 12 9 21.5t31.5 23t28.5 17.5q13 9 13 17q4 72 4 105q0 50 -3 104q-1 13 -9 13h-55q-12 0 -12 16q0 14 11 14h50q13 0 13 6q0 1 -2 33.5t-3.5 84.5t-1.5 101q0 75 50.5 121.5t119.5 46.5q48 0 83 -21.5t35 -59.5q0 -18 -12.5 -31t-30.5 -13q-19 0 -19 11 q0 33 -14.5 59t-48.5 26q-30 0 -49 -13.5t-27 -42t-10.5 -54.5t-2.5 -69v-170q0 -10 2 -12.5t13 -2.5h121q12 0 12 -15t-12 -15h-127q-8 0 -9 -13q-5 -107 -35 -191q-2 -5 3 -2q36 17 77 17q28 0 88.5 -8.5t80.5 -8.5q49 0 49 34q0 9 -22 27.5t-22 23.5q0 8 12 21.5t24 13.5 q16 0 32 -17.5t16 -40.5q0 -45 -36 -78.5t-79 -33.5q-32 0 -130 7t-103 7q-8 0 -16 -22q0 -1 -3.5 -11t-5 -13l-5.5 -11.5t-7 -11.5t-8.5 -8t-12 -7t-14.5 -2q-12 0 -21.5 7t-9.5 20z" />
<glyph unicode="&#xa4;" horiz-adv-x="494" d="M22 8q0 11 18 29l59 60q-34 48 -34 107t33 105l-58 60q-18 18 -18 29q0 12 8 19.5t19 7.5q13 0 30 -17l60 -60q46 34 105 34q60 0 106 -34l60 60q17 17 29 17t20 -8t8 -19t-18 -29l-60 -61q36 -51 36 -106q0 -56 -36 -104l60 -61q18 -18 18 -29q0 -12 -8.5 -20t-19.5 -8 t-29 18l-60 60q-48 -35 -106 -35q-60 0 -105 34l-60 -59q-17 -17 -30 -17q-12 0 -19.5 8t-7.5 19zM122 202q0 -51 36 -87t86 -36t86.5 36.5t36.5 87.5t-36.5 88.5t-86.5 37.5q-51 0 -86.5 -38t-35.5 -89z" />
<glyph unicode="&#xa5;" horiz-adv-x="597" d="M7 654q0 12 3.5 15t14.5 3q1 0 36 -1.5t70 -1.5q33 0 74 1.5t44 1.5q8 0 11 -4t3 -17q0 -10 -3 -12.5t-15 -2.5h-59h-7.5t-3 -2t0 -3t2.5 -6q9 -23 37 -76.5l62.5 -117t42.5 -79.5q7 -13 9 -13t7 10q139 268 139 284q0 3 -2 3h-52q-13 0 -17 2.5t-4 12.5q0 13 3.5 17 t13.5 4q2 0 27.5 -1.5t50.5 -1.5t48 1.5t28 1.5q11 0 15 -3.5t4 -14.5q0 -12 -4.5 -15t-14.5 -3h-34q-2 0 -26.5 -42.5l-66.5 -116l-60 -105.5h144q6 0 6 -15t-6 -15h-162l-12 -20q-3 -4 -3 -9v-63h177q6 0 6 -15t-6 -15h-177q2 -190 9 -190h69q9 0 11.5 -3.5t2.5 -12.5 q0 -12 -2.5 -16t-11.5 -4q-7 0 -46.5 1.5t-73.5 1.5q-25 0 -68 -1.5t-46 -1.5q-10 0 -12.5 4t-2.5 17q0 10 3.5 12.5t15.5 2.5h51q10 0 10 190h-173q-6 0 -6 16q0 14 6 14h173v21q0 10 -7 22l-27 49h-139q-6 0 -6 16q0 14 6 14h122q-147 264 -155 264h-29q-10 0 -14 3t-4 15 z" />
<glyph unicode="&#xa6;" horiz-adv-x="247" d="M97 -187v376q0 17 14 17h25q14 0 14 -17v-376q0 -9 -0.5 -13t-4 -8t-10.5 -4h-21q-12 0 -14.5 4.5t-2.5 20.5zM97 379v367q0 19 21 19h7q11 0 15.5 -1t7 -5.5t2.5 -13.5v-366q0 -13 -4 -17.5t-13 -4.5h-18q-11 0 -14.5 4t-3.5 18z" />
<glyph unicode="&#xa7;" horiz-adv-x="381" d="M37 310q0 68 70 120q6 4 -2 14q-45 62 -45 112q0 54 35 89t93 35q43 0 80 -11.5t37 -36.5q0 -31 -40 -31q-24 0 -57 16.5t-59 16.5q-48 0 -48 -40q0 -23 25 -62t60.5 -85l71.5 -96.5t61 -109t25 -109.5q0 -16 -4 -29.5t-14 -24.5t-15.5 -16.5t-19 -15t-14.5 -10.5 q-8 -7 -8 -10q0 -2 6 -13q42 -76 42 -115q0 -57 -40 -92t-109 -35q-106 0 -106 47q0 11 9.5 18.5t21.5 7.5q8 0 44 -13q34 -12 71 -12q69 0 69 49q0 24 -37.5 78.5t-82.5 110.5t-82.5 127.5t-37.5 125.5zM82 357q0 -77 165 -303q6 -8 8 -8q3 0 12 8q31 29 31 48 q0 17 -7 40.5t-21 50.5t-27.5 50.5t-33.5 53l-31.5 46l-29 40.5t-19.5 26q-5 6 -6.5 6.5t-7.5 -4.5q-33 -25 -33 -54z" />
<glyph unicode="&#xa8;" horiz-adv-x="400" d="M66 533q0 26 20.5 42t42.5 16q19 0 32 -10.5t13 -32.5q0 -26 -20 -42.5t-44 -16.5q-18 0 -31 11.5t-13 32.5zM226 533q0 26 20.5 42t42.5 16q19 0 32 -10.5t13 -32.5q0 -26 -20 -42.5t-44 -16.5q-18 0 -31 11.5t-13 32.5z" />
<glyph unicode="&#xa9;" horiz-adv-x="843" d="M51 189q0 157 106.5 266t262.5 109q157 0 263 -108.5t106 -266.5q0 -157 -106.5 -266t-262.5 -109t-262.5 109t-106.5 266zM91 189q0 -140 95 -238.5t234 -98.5t234 98.5t95 238.5t-95 238.5t-234 98.5t-234 -98.5t-95 -238.5zM193 201q0 100 66 161.5t166 61.5 q14 0 27.5 -1.5t24 -4.5t21.5 -7t18 -7t15 -8l12 -7.5t9.5 -6.5t6.5 -5q6 -5 6 1v19q0 9 18 9q15 0 15 -9q0 -2 -0.5 -27t-1 -55t-0.5 -45q0 -12 -13 -12q-21 0 -21 8q0 1 1.5 28t1.5 30t-7 11t-20.5 18.5t-30.5 20.5t-40.5 17t-46.5 7q-68 0 -112 -56.5t-44 -142.5 q0 -80 51 -136.5t124 -56.5q43 0 76 12.5t48.5 25t16.5 12.5q3 0 9 -9.5t6 -12.5q0 -7 -18.5 -21t-61.5 -28.5t-94 -14.5q-96 0 -162 60t-66 171z" />
<glyph unicode="&#xaa;" horiz-adv-x="352" d="M32 407q0 35 32 62.5t71 40.5t87 21q3 0 3 4v5q0 21 -0.5 33t-4 28t-10 24.5t-19.5 14.5t-32 6q-14 0 -23 -4q-15 -6 -19 -15t-5 -34q0 -16 -7 -20q-33 -21 -49 -21q-11 0 -11 15q0 48 42.5 78t89.5 30q62 0 87.5 -27.5t25.5 -79.5q0 -23 -2.5 -90t-2.5 -73q0 -20 15 -21 l14 10q14 9 17 9q4 0 8.5 -5.5t4.5 -10.5q0 -3 -9 -10.5t-26 -20t-20 -14.5q-15 -10 -24 -10q-26 0 -36 49q-1 0 -5.5 -4t-7.5 -6q-56 -36 -98 -36q-40 0 -63 19.5t-23 52.5zM101 431q0 -20 13.5 -35.5t36.5 -15.5q20 0 44 7.5t30 12.5v103l-1 6q-11 0 -49 -12 q-74 -23 -74 -66z" />
<glyph unicode="&#xab;" horiz-adv-x="408" d="M47 193q0 4 6.5 11t24 22.5t25.5 23.5l36 34.5l32.5 32t13.5 11.5t9.5 -7t7.5 -8q0 -4 -31.5 -59.5t-31.5 -60.5t31.5 -60t31.5 -60q0 -3 -7.5 -9t-9.5 -6t-13.5 11.5l-32.5 32l-36 34.5q-6 6 -16 15l-16 14.5l-12 11.5t-9 10t-3 6zM197 193q0 4 6.5 11t24 22.5 t25.5 23.5l36 34.5l32.5 32t13.5 11.5t9.5 -7t7.5 -8q0 -4 -31.5 -59.5t-31.5 -60.5t31.5 -60t31.5 -60q0 -3 -7.5 -9t-9.5 -6t-13.5 11.5l-32.5 32l-36 34.5q-6 6 -16 15l-16 14.5l-12 11.5t-9 10t-3 6z" />
<glyph unicode="&#xac;" horiz-adv-x="527" d="M28 215q0 20 22 20h427q14 0 18.5 -4.5t4.5 -17.5v-158q0 -18 -19 -18q-11 0 -17 1t-10.5 6.5t-4.5 15.5v111q0 14 -23 14h-376q-14 0 -18 6.5t-4 23.5z" />
<glyph unicode="&#xad;" horiz-adv-x="258" d="M21 201q0 7 6.5 24.5t12.5 18.5q7 1 94 4t93 3q4 0 4 -9q0 -38 -10 -39q-112 -8 -193 -8q-7 0 -7 6z" />
<glyph unicode="&#xae;" horiz-adv-x="536" d="M22 470q0 105 70.5 177.5t175.5 72.5t175.5 -72t70.5 -178q0 -105 -70.5 -177.5t-175.5 -72.5t-175.5 72.5t-70.5 177.5zM53 470q0 -92 62 -156.5t153 -64.5t153 64.5t62 156.5t-62 156.5t-153 64.5t-153 -64.5t-62 -156.5zM139 628q0 8 3 10t9 2q3 0 24.5 -0.5 t28.5 -0.5t34.5 1.5t32.5 1.5q104 0 104 -83q0 -46 -59 -77q72 -25 75 -108l2 -23v-2h22q8 0 8 -15q0 -9 -11 -9l-62 1q-10 0 -10 10v27q0 47 -11 73t-50 31q-15 2 -52 2h-2q0 -86 4 -120h26q8 0 8 -10q0 -14 -8 -14q-5 0 -25 0.5t-27 0.5t-26 -0.5t-20 -0.5q-10 0 -10 14 q0 10 12 10h18q2 20 2 55v60q0 131 -4 152l-24 -1q-12 0 -12 13zM225 490h2q12 0 33.5 -0.5t28.5 -0.5q37 19 37 64q0 30 -23.5 48.5t-55.5 18.5q-3 0 -10 -0.5t-11 -0.5q-1 -5 -1 -20v-109z" />
<glyph unicode="&#xaf;" horiz-adv-x="400" d="M95 518v23q0 7 1 9t7 2h193q9 0 9 -10v-25q0 -5 -0.5 -7t-2 -3t-6.5 -1h-193q-8 0 -8 12z" />
<glyph unicode="&#xb0;" horiz-adv-x="256" d="M37 535q0 37 26.5 64t64.5 27t64.5 -27t26.5 -64t-26.5 -64t-64.5 -27t-64.5 27t-26.5 64zM74 535q0 -23 16 -38.5t38 -15.5t38 15.5t16 38.5t-16 38.5t-38 15.5t-38 -15.5t-16 -38.5z" />
<glyph unicode="&#xb1;" horiz-adv-x="527" d="M28 90q0 16 3.5 23t17.5 7h429q12 0 16.5 -5t4.5 -18t-4.5 -20t-19.5 -7h-427q-20 0 -20 20zM28 324q0 25 21 25h181q6 0 7 1.5t1 5.5v139q0 18 19 18q18 0 24.5 -4t6.5 -16v-136q0 -8 9 -8h183q19 0 19 -18t-4 -25.5t-20 -7.5h-178q-9 0 -9 -14v-132q0 -17 -19 -17 q-17 0 -24 3t-7 14v132v7.5t-1 4t-4 2.5h-8h-177q-9 0 -13.5 4t-5.5 8.5t-1 13.5z" />
<glyph unicode="&#xb2;" horiz-adv-x="360" d="M37 671q0 9 16.5 30t50 42t69.5 21q58 0 88.5 -38.5t30.5 -81.5q0 -103 -161 -221q-9 -6 -20 -20h177l6 49q0 10 13 8q14 0 14 -8q0 -2 -2.5 -20l-6 -42t-4.5 -35q-1 -8 -15 -8h-230q-16 0 -16 12q0 7 20 38t25 35q2 2 14.5 12.5t18.5 16l19.5 17.5t21 21.5t19.5 23 t18.5 26l13.5 27t10.5 30t3.5 30.5q0 32 -19 56t-52 24q-28 0 -52 -15t-37.5 -30.5t-17.5 -15.5q-5 0 -10.5 5t-5.5 11z" />
<glyph unicode="&#xb3;" horiz-adv-x="360" d="M62 368q0 15 10 23.5t25 8.5q13 0 30 -7q7 -3 26 -13.5t27 -10.5q31 0 54 25t23 62q0 76 -71 76q-12 0 -41.5 -2t-31.5 -2q-16 0 -16 24q0 11 19 16q63 13 86.5 32t23.5 62q0 31 -16.5 47t-43.5 16q-31 0 -56.5 -16.5t-27.5 -16.5q-6 0 -11 5t-5 11q0 13 34.5 34.5 t74.5 21.5q49 0 81.5 -26t32.5 -66q0 -39 -25.5 -62t-68.5 -40q54 -4 88.5 -30t34.5 -70q0 -57 -48 -94t-105 -37q-36 0 -69.5 6.5t-33.5 22.5z" />
<glyph unicode="&#xb4;" horiz-adv-x="400" d="M182 451q0 3 2 7l49 130q10 27 33 27q18 0 28.5 -9.5t10.5 -23.5q0 -11 -8 -22l-82 -107q-5 -7 -10 -7h-16q-7 0 -7 5z" />
<glyph unicode="&#xb5;" horiz-adv-x="509" d="M22 -136q0 42 8.5 85.5t26 106t25.5 100.5q18 80 28.5 123t18 66t11.5 28.5t10 5.5q42 0 42 -20q0 -8 -9.5 -41.5t-22.5 -87t-19 -102.5q-3 -36 -3 -43q0 -44 26 -44q44 0 101.5 93t98.5 196q18 47 23 49q1 1 3 1q14 0 28.5 -4.5t14.5 -13.5q0 -3 -25 -134.5t-25 -157.5 q0 -10 7 -16.5t15 -6.5q19 0 36 33.5t25 33.5q11 0 11 -16q0 -34 -37.5 -76t-85.5 -42q-37 0 -37 67q0 24 8 80t8 57q0 3 -2 0q-22 -37 -54 -84q-1 -2 -15.5 -23l-19.5 -28t-20 -23.5t-25.5 -23.5t-27 -13.5t-33.5 -6.5q-30 0 -46 52q-4 13 -7 0q-15 -66 -15 -113 q0 -18 12 -46t12 -31q0 -8 -8 -19t-25 -11q-15 0 -26 13t-11 37z" />
<glyph unicode="&#xb6;" horiz-adv-x="492" d="M37 417q0 60 24 106.5t61.5 72t76 38.5t74.5 13q9 0 12 -3t3 -11v-471q0 -11 -8 -11q-30 0 -68.5 14.5t-79 43.5t-68 83.5t-27.5 124.5zM277 -205q0 11 11 11h60q6 0 7 0.5t1 4.5v833q0 9 2.5 11t9.5 2h76q11 0 11 -14v-14q0 -7 -1.5 -9.5t-9.5 -2.5h-50q-4 0 -4.5 -1 t-0.5 -6v-834q0 -8 -1.5 -9t-11.5 -1h-88q-11 0 -11 11v18z" />
<glyph unicode="&#xb7;" horiz-adv-x="147" d="M22 333q0 26 20.5 42t42.5 16q19 0 32 -10.5t13 -32.5q0 -26 -20 -42.5t-44 -16.5q-18 0 -31 11.5t-13 32.5z" />
<glyph unicode="&#xb8;" horiz-adv-x="400" d="M114 -196q0 10 10 10q2 0 10.5 -4t22 -7.5t28.5 -3.5q34 0 48.5 12.5t14.5 40.5q0 42 -52 42q-11 0 -23.5 -4.5t-13.5 -4.5q-2 0 -6.5 3t-4.5 5q0 10 41 107h23l-24 -66q-1 -3 1 -3q1 0 6 1q12 3 26 3q41 0 64.5 -22t23.5 -49q0 -36 -30.5 -65.5t-78.5 -29.5 q-54 0 -83 26q-3 3 -3 9z" />
<glyph unicode="&#xb9;" horiz-adv-x="360" d="M92 364q0 13 17 13h57q1 12 1 47v141q0 156 -4 156q-1 0 -29.5 -1.5t-30.5 -1.5q-11 0 -11 9v12q0 9 14 9q28 1 49.5 3l33 3t18.5 2.5t10 2t4 0.5q7 0 8.5 -3t1.5 -14q0 -65 -0.5 -176.5t-0.5 -169.5v-19h42q10 0 10 -13q0 -19 -11 -19q-1 0 -23.5 1t-47.5 1 q-27 0 -58 -1t-36 -1q-14 0 -14 19z" />
<glyph unicode="&#xba;" horiz-adv-x="384" d="M27 497q0 74 49 124.5t126 50.5q68 0 111.5 -47.5t43.5 -116.5q0 -77 -45 -125.5t-123 -48.5q-69 0 -115.5 47.5t-46.5 115.5zM97 486q0 -48 25 -85.5t67 -37.5q96 0 96 151q0 52 -24 90.5t-69 38.5q-95 0 -95 -157z" />
<glyph unicode="&#xbb;" horiz-adv-x="408" d="M56 73q0 4 31.5 59.5t31.5 60.5t-31.5 60t-31.5 60q0 3 7.5 9t9.5 6t13.5 -11.5l32.5 -32l36 -34.5q6 -6 16 -15l16 -14.5l12 -11.5t9 -10t3 -6q0 -4 -6.5 -11t-24 -22.5t-25.5 -23.5l-36 -34.5l-32.5 -32t-13.5 -11.5t-9.5 7t-7.5 8zM206 73q0 4 31.5 59.5t31.5 60.5 t-31.5 60t-31.5 60q0 3 7.5 9t9.5 6t13.5 -11.5l32.5 -32l36 -34.5q6 -6 16 -15l16 -14.5l12 -11.5t9 -10t3 -6q0 -4 -6.5 -11t-24 -22.5t-25.5 -23.5l-36 -34.5l-32.5 -32t-13.5 -11.5t-9.5 7t-7.5 8z" />
<glyph unicode="&#xbc;" horiz-adv-x="774" d="M446 138q0 21 11 40q44 77 150 191q7 8 27 22l12.5 12.5t11.5 10.5t9 3q16 0 16 -25v-212q0 -4 4 -4h51q10 0 10 -13v-22q0 -13 -15 -13h-46q-3 0 -3 -3v-123q0 -11 -9 -11l-43 -4q-9 0 -9 11l3 125q0 4 -1 4.5t-6 0.5h-153q-20 0 -20 10zM492 176h130q4 0 4 5v166 q-24 -26 -71 -85t-63 -86zM195 -10l6 12l409 658q1 1 2 3l1.5 3t2.5 2t4 1.5t6 1t9 0.5q23 0 23 -6l-4 -8l-410 -660q-6 -10 -9.5 -11.5t-16.5 -1.5q-23 0 -23 6zM92 264q0 13 17 13h57q1 12 1 47v141q0 156 -4 156q-1 0 -29.5 -1.5t-30.5 -1.5q-11 0 -11 9v12q0 9 14 9 q28 1 49.5 3l33 3t18.5 2.5t10 2t4 0.5q7 0 8.5 -3t1.5 -14q0 -65 -0.5 -176.5t-0.5 -169.5v-19h42q10 0 10 -13q0 -19 -11 -19q-1 0 -23.5 1t-47.5 1q-27 0 -58 -1t-36 -1q-14 0 -14 19z" />
<glyph unicode="&#xbd;" horiz-adv-x="844" d="M521 321q0 9 16.5 30t50 42t69.5 21q58 0 88.5 -38.5t30.5 -81.5q0 -103 -161 -221q-9 -6 -20 -20h177l6 49q0 10 13 8q14 0 14 -8q0 -2 -2.5 -20l-6 -42t-4.5 -35q-1 -8 -15 -8h-230q-16 0 -16 12q0 7 20 38t25 35q2 2 14.5 12.5t18.5 16l19.5 17.5t21 21.5t19.5 23 t18.5 26l13.5 27t10.5 30t3.5 30.5q0 32 -19 56t-52 24q-28 0 -52 -15t-37.5 -30.5t-17.5 -15.5q-5 0 -10.5 5t-5.5 11zM195 -10l6 12l409 658q1 1 2 3l1.5 3t2.5 2t4 1.5t6 1t9 0.5q23 0 23 -6l-4 -8l-410 -660q-6 -10 -9.5 -11.5t-16.5 -1.5q-23 0 -23 6zM92 264 q0 13 17 13h57q1 12 1 47v141q0 156 -4 156q-1 0 -29.5 -1.5t-30.5 -1.5q-11 0 -11 9v12q0 9 14 9q28 1 49.5 3l33 3t18.5 2.5t10 2t4 0.5q7 0 8.5 -3t1.5 -14q0 -65 -0.5 -176.5t-0.5 -169.5v-19h42q10 0 10 -13q0 -19 -11 -19q-1 0 -23.5 1t-47.5 1q-27 0 -58 -1t-36 -1 q-14 0 -14 19z" />
<glyph unicode="&#xbe;" horiz-adv-x="774" d="M446 138q0 21 11 40q44 77 150 191q7 8 27 22l12.5 12.5t11.5 10.5t9 3q16 0 16 -25v-212q0 -4 4 -4h51q10 0 10 -13v-22q0 -13 -15 -13h-46q-3 0 -3 -3v-123q0 -11 -9 -11l-43 -4q-9 0 -9 11l3 125q0 4 -1 4.5t-6 0.5h-153q-20 0 -20 10zM492 176h130q4 0 4 5v166 q-24 -26 -71 -85t-63 -86zM195 -10l6 12l409 658q1 1 2 3l1.5 3t2.5 2t4 1.5t6 1t9 0.5q23 0 23 -6l-4 -8l-410 -660q-6 -10 -9.5 -11.5t-16.5 -1.5q-23 0 -23 6zM62 268q0 15 10 23.5t25 8.5q13 0 30 -7q7 -3 26 -13.5t27 -10.5q31 0 54 25t23 62q0 76 -71 76 q-12 0 -41.5 -2t-31.5 -2q-16 0 -16 24q0 11 19 16q63 13 86.5 32t23.5 62q0 31 -16.5 47t-43.5 16q-31 0 -56.5 -16.5t-27.5 -16.5q-6 0 -11 5t-5 11q0 13 34.5 34.5t74.5 21.5q49 0 81.5 -26t32.5 -66q0 -39 -25.5 -62t-68.5 -40q54 -4 88.5 -30t34.5 -70q0 -57 -48 -94 t-105 -37q-36 0 -69.5 6.5t-33.5 22.5z" />
<glyph unicode="&#xbf;" horiz-adv-x="364" d="M27 240q0 177 139 177q14 0 17.5 2t4.5 12q7 70 8 93q0 6 2.5 7.5t12.5 1.5q13 0 16 -2.5t3 -13.5q0 -128 -2 -156q-1 -13 -7 -17t-21 -4h-60q-28 0 -46 -8t-25.5 -22.5t-10 -26.5t-2.5 -28q0 -71 56.5 -120t168.5 -63q1 0 6 -0.5t6.5 -1t5 -2t5 -3t2.5 -4.5t1 -7v-45 q0 -20 -12 -20q-8 0 -13 12.5t-6 12.5q-24 4 -37.5 6.5t-43 11t-48.5 18t-44 27t-40 39t-25.5 53.5t-10.5 71zM164 609q0 22 16.5 41.5t28.5 19.5q21 0 41.5 -17.5t20.5 -31.5q0 -17 -16.5 -39.5t-30.5 -22.5q-17 0 -38.5 15.5t-21.5 34.5z" />
<glyph unicode="&#xc0;" horiz-adv-x="698" d="M259 822q0 12 8.5 20t24.5 8q20 0 37 -26l53 -86l4 -8q0 -4 -9 -4h-21q-1 0 -2.5 1.5t-4 3t-3.5 2.5l-72 60q-15 12 -15 29zM27 15q0 10 3 12.5t15 2.5h30q6 0 144 329l106 246q4 10 17 26.5t19 29.5q13 29 22 29q10 0 12 -9l120 -337q113 -314 120 -314h35q7 0 9 -3 t2 -13q0 -12 -2 -16t-9 -4q-6 0 -41 1.5t-52 1.5q-16 0 -60 -1.5t-55 -1.5q-9 0 -11 4t-2 17q0 11 2.5 13t14.5 2h55q1 0 1 1q0 29 -70 224l-4 12t-3.5 4t-7.5 1h-202q-11 0 -14 -2.5t-7 -13.5q-80 -201 -81 -225l1 -1h77q8 0 10 -3t2 -13q0 -9 -0.5 -12.5t-3 -5.5t-8.5 -2 q-1 0 -34.5 1.5t-59.5 1.5q-24 0 -49 -1.5t-27 -1.5q-10 0 -12 3.5t-2 17.5zM234 305q0 -3 13 -3h179q9 0 9 4q0 2 -3 10l-83 243q-4 12 -5 12q-2 0 -7 -12l-98 -240q-5 -12 -5 -14z" />
<glyph unicode="&#xc1;" horiz-adv-x="698" d="M356 729q0 1 4 9l53 86q17 26 37 26q16 0 24.5 -8t8.5 -20q0 -16 -15 -29l-72 -60l-4 -3q-3 -4 -6 -4h-24q-6 0 -6 3zM27 15q0 10 3 12.5t15 2.5h30q6 0 144 329l106 246q4 10 17 26.5t19 29.5q13 29 22 29q10 0 12 -9l120 -337q113 -314 120 -314h35q7 0 9 -3t2 -13 q0 -12 -2 -16t-9 -4q-6 0 -41 1.5t-52 1.5q-16 0 -60 -1.5t-55 -1.5q-9 0 -11 4t-2 17q0 11 2.5 13t14.5 2h55q1 0 1 1q0 29 -70 224l-4 12t-3.5 4t-7.5 1h-202q-11 0 -14 -2.5t-7 -13.5q-80 -201 -81 -225l1 -1h77q8 0 10 -3t2 -13q0 -9 -0.5 -12.5t-3 -5.5t-8.5 -2 q-1 0 -34.5 1.5t-59.5 1.5q-24 0 -49 -1.5t-27 -1.5q-10 0 -12 3.5t-2 17.5zM234 305q0 -3 13 -3h179q9 0 9 4q0 2 -3 10l-83 243q-4 12 -5 12q-2 0 -7 -12l-98 -240q-5 -12 -5 -14z" />
<glyph unicode="&#xc2;" horiz-adv-x="698" d="M256 730l6 9l79 89q13 14 18 14h24q7 0 18 -14l79 -89q6 -6 6 -9q0 -4 -7 -4h-12q-3 0 -13 6l-80 45q-3 1 -6 0l-80 -45q-10 -6 -13 -6h-12q-7 0 -7 4zM27 15q0 10 3 12.5t15 2.5h30q6 0 144 329l106 246q4 10 17 26.5t19 29.5q13 29 22 29q10 0 12 -9l120 -337 q113 -314 120 -314h35q7 0 9 -3t2 -13q0 -12 -2 -16t-9 -4q-6 0 -41 1.5t-52 1.5q-16 0 -60 -1.5t-55 -1.5q-9 0 -11 4t-2 17q0 11 2.5 13t14.5 2h55q1 0 1 1q0 29 -70 224l-4 12t-3.5 4t-7.5 1h-202q-11 0 -14 -2.5t-7 -13.5q-80 -201 -81 -225l1 -1h77q8 0 10 -3t2 -13 q0 -9 -0.5 -12.5t-3 -5.5t-8.5 -2q-1 0 -34.5 1.5t-59.5 1.5q-24 0 -49 -1.5t-27 -1.5q-10 0 -12 3.5t-2 17.5zM234 305q0 -3 13 -3h179q9 0 9 4q0 2 -3 10l-83 243q-4 12 -5 12q-2 0 -7 -12l-98 -240q-5 -12 -5 -14z" />
<glyph unicode="&#xc3;" horiz-adv-x="698" d="M263 748q0 8 8 27q11 28 27.5 42.5t31.5 14.5q18 0 47.5 -19t40.5 -19q24 0 34 33q2 7 3 8t8 1q13 0 13 -4q0 -10 -7 -29q-23 -60 -63 -60q-19 0 -46.5 18.5t-41.5 18.5q-22 0 -32 -29q-1 -5 -1.5 -5.5t-3 -1.5t-8.5 -1q-10 0 -10 5zM27 15q0 10 3 12.5t15 2.5h30 q6 0 144 329l106 246q4 10 17 26.5t19 29.5q13 29 22 29q10 0 12 -9l120 -337q113 -314 120 -314h35q7 0 9 -3t2 -13q0 -12 -2 -16t-9 -4q-6 0 -41 1.5t-52 1.5q-16 0 -60 -1.5t-55 -1.5q-9 0 -11 4t-2 17q0 11 2.5 13t14.5 2h55q1 0 1 1q0 29 -70 224l-4 12t-3.5 4t-7.5 1 h-202q-11 0 -14 -2.5t-7 -13.5q-80 -201 -81 -225l1 -1h77q8 0 10 -3t2 -13q0 -9 -0.5 -12.5t-3 -5.5t-8.5 -2q-1 0 -34.5 1.5t-59.5 1.5q-24 0 -49 -1.5t-27 -1.5q-10 0 -12 3.5t-2 17.5zM234 305q0 -3 13 -3h179q9 0 9 4q0 2 -3 10l-83 243q-4 12 -5 12q-2 0 -7 -12 l-98 -240q-5 -12 -5 -14z" />
<glyph unicode="&#xc4;" horiz-adv-x="698" d="M237 783q0 26 20.5 42t42.5 16q19 0 32 -10.5t13 -32.5q0 -26 -20 -42.5t-44 -16.5q-18 0 -31 11.5t-13 32.5zM397 783q0 26 20.5 42t42.5 16q19 0 32 -10.5t13 -32.5q0 -26 -20 -42.5t-44 -16.5q-18 0 -31 11.5t-13 32.5zM27 15q0 10 3 12.5t15 2.5h30q6 0 144 329 l106 246q4 10 17 26.5t19 29.5q13 29 22 29q10 0 12 -9l120 -337q113 -314 120 -314h35q7 0 9 -3t2 -13q0 -12 -2 -16t-9 -4q-6 0 -41 1.5t-52 1.5q-16 0 -60 -1.5t-55 -1.5q-9 0 -11 4t-2 17q0 11 2.5 13t14.5 2h55q1 0 1 1q0 29 -70 224l-4 12t-3.5 4t-7.5 1h-202 q-11 0 -14 -2.5t-7 -13.5q-80 -201 -81 -225l1 -1h77q8 0 10 -3t2 -13q0 -9 -0.5 -12.5t-3 -5.5t-8.5 -2q-1 0 -34.5 1.5t-59.5 1.5q-24 0 -49 -1.5t-27 -1.5q-10 0 -12 3.5t-2 17.5zM234 305q0 -3 13 -3h179q9 0 9 4q0 2 -3 10l-83 243q-4 12 -5 12q-2 0 -7 -12l-98 -240 q-5 -12 -5 -14z" />
<glyph unicode="&#xc5;" horiz-adv-x="698" d="M297 785q0 31 21.5 52.5t52.5 21.5t52.5 -21.5t21.5 -52.5t-21.5 -52.5t-52.5 -21.5t-52.5 21.5t-21.5 52.5zM331 785q0 -17 11.5 -28.5t28.5 -11.5t28.5 11.5t11.5 28.5t-11.5 28.5t-28.5 11.5t-28.5 -11.5t-11.5 -28.5zM27 15q0 10 3 12.5t15 2.5h30q6 0 144 329 l106 246q4 10 17 26.5t19 29.5q13 29 22 29q10 0 12 -9l120 -337q113 -314 120 -314h35q7 0 9 -3t2 -13q0 -12 -2 -16t-9 -4q-6 0 -41 1.5t-52 1.5q-16 0 -60 -1.5t-55 -1.5q-9 0 -11 4t-2 17q0 11 2.5 13t14.5 2h55q1 0 1 1q0 29 -70 224l-4 12t-3.5 4t-7.5 1h-202 q-11 0 -14 -2.5t-7 -13.5q-80 -201 -81 -225l1 -1h77q8 0 10 -3t2 -13q0 -9 -0.5 -12.5t-3 -5.5t-8.5 -2q-1 0 -34.5 1.5t-59.5 1.5q-24 0 -49 -1.5t-27 -1.5q-10 0 -12 3.5t-2 17.5zM234 305q0 -3 13 -3h179q9 0 9 4q0 2 -3 10l-83 243q-4 12 -5 12q-2 0 -7 -12l-98 -240 q-5 -12 -5 -14z" />
<glyph unicode="&#xc6;" horiz-adv-x="973" d="M17 15q0 10 4 12.5t17 2.5h28q3 0 11.5 11.5t23.5 36l30.5 49.5l40 66.5l44.5 73.5l221 360q3 6 -5 6h-50q-7 0 -9 3.5t-2 14.5q0 17 11 17l19 -1q19 -1 55 -1.5t79 -0.5q29 0 130 1.5t122 1.5q47 0 53.5 1t7.5 9q1 7 2 9t4 4t10 2q12 0 16 -2.5t4 -11.5q0 -2 -2 -44 t-2 -88q0 -7 -4 -9t-15 -2q-18 0 -18 15q0 1 1.5 35t1.5 42q0 7 -267 7q-6 0 -6 -125q0 -42 2 -142q0 -9 1.5 -11t7.5 -2h167q52 0 52 13v52q0 10 20 10q17 0 17 -9q0 -1 -1 -30t-1 -50t1 -51t1 -34q0 -9 -16 -9q-21 0 -21 10v50q0 15 -52 15h-163h-3q-6 0 -8 -1.5t-2 -10.5 q6 -273 11 -273q47 0 120.5 0.5t128.5 1.5t57 1q5 0 6.5 3t2.5 15v2q1 13 3 89q0 9 17 9q20 0 20 -10q0 -28 -1.5 -78t-1.5 -62q0 -14 -20 -14q-11 0 -185 1.5t-190 1.5t-64.5 -1.5t-59.5 -1.5q-10 0 -12 3.5t-2 17.5q0 10 3 12.5t15 2.5h63q4 0 4 72v158q0 8 -5.5 10 t-21.5 2h-199q-5 0 -71 -117t-66 -124l1 -1h64q9 0 11.5 -3.5t2.5 -12.5q0 -12 -2.5 -16t-11.5 -4q-11 0 -41 1.5t-46 1.5q-18 0 -46 -1.5t-29 -1.5q-9 0 -11 4t-2 17zM282 307q0 -5 13 -5h169q19 0 22.5 2.5t3.5 14.5v132q0 182 -8 182h-4q-3 0 -8 -8l-182 -306 q-6 -10 -6 -12z" />
<glyph unicode="&#xc7;" horiz-adv-x="731" d="M42 335q0 156 102.5 252t257.5 96q21 0 42.5 -2.5t37.5 -6.5t33.5 -10.5t28 -11.5t24 -13t19 -11.5t15.5 -10.5l9 -7q12 -9 12 1v27q0 10 3.5 13t14.5 3q23 0 23 -16q0 -5 -2 -86.5t-2 -111.5q0 -9 -4 -11.5t-15 -2.5q-14 0 -18 2.5t-4 10.5q0 1 2 44t2 48q0 8 -28 34.5 t-84.5 54t-115.5 27.5q-107 0 -176 -89t-69 -225q0 -126 80 -216.5t194 -90.5q51 0 98 15t70 29.5t24 20.5l13 116q3 15 14 15q1 0 5 -0.5t6 -0.5q15 -1 15 -11q0 -14 -16 -138q-2 -12 -37.5 -32.5t-96 -39t-118.5 -19.5l-17 -47q-1 -3 1 -3q1 0 6 1q12 3 26 3 q41 0 64.5 -22t23.5 -49q0 -36 -30.5 -65.5t-78.5 -29.5q-54 0 -83 26q-3 3 -3 9q0 10 10 10q2 0 10.5 -4t22 -7.5t28.5 -3.5q34 0 48.5 12.5t14.5 40.5q0 42 -52 42q-11 0 -23.5 -4.5t-13.5 -4.5q-2 0 -6.5 3t-4.5 5q0 4 33 88q-144 6 -239.5 96.5t-95.5 257.5z" />
<glyph unicode="&#xc8;" horiz-adv-x="605" d="M204 822q0 12 8.5 20t24.5 8q20 0 37 -26l53 -86l4 -8q0 -4 -9 -4h-21q-1 0 -2.5 1.5t-4 3t-3.5 2.5l-72 60q-15 12 -15 29zM37 15q0 10 4 12.5t16 2.5h61q4 0 4 72v96q0 31 -0.5 72t-1 78t-1 69.5t-1 53t-0.5 21.5q0 32 -1.5 65.5t-3.5 54.5t-4 21h-47q-10 0 -13.5 3 t-3.5 15q0 17 13 17l44 -2q44 -1 65 -1q29 0 130 1.5t122 1.5q47 0 53.5 1t7.5 9q1 7 2 9t4 4t10 2q12 0 16 -2.5t4 -11.5q0 -2 -2 -44t-2 -88q0 -7 -4 -9t-15 -2q-18 0 -18 15q0 1 1.5 35t1.5 42q0 7 -267 7q-6 0 -6 -125q0 -42 2 -142q0 -9 1.5 -11t7.5 -2h167q52 0 52 13 v52q0 10 20 10q17 0 17 -9q0 -1 -1 -30t-1 -50t1 -51t1 -34q0 -9 -16 -9q-21 0 -21 10v50q0 15 -52 15h-163h-3q-6 0 -8 -1.5t-2 -10.5q6 -273 11 -273q47 0 120.5 0.5t128.5 1.5t57 1q5 0 6.5 3t2.5 15v2q1 13 3 89q0 9 17 9q20 0 20 -10q0 -28 -1.5 -78t-1.5 -62 q0 -14 -20 -14q-11 0 -185 1.5t-190 1.5t-63.5 -1.5t-58.5 -1.5q-10 0 -13 4t-3 17z" />
<glyph unicode="&#xc9;" horiz-adv-x="605" d="M301 729q0 1 4 9l53 86q17 26 37 26q16 0 24.5 -8t8.5 -20q0 -16 -15 -29l-72 -60l-3 -3q-4 -4 -7 -4h-24q-6 0 -6 3zM37 15q0 10 4 12.5t16 2.5h61q4 0 4 72v96q0 31 -0.5 72t-1 78t-1 69.5t-1 53t-0.5 21.5q0 32 -1.5 65.5t-3.5 54.5t-4 21h-47q-10 0 -13.5 3t-3.5 15 q0 17 13 17l44 -2q44 -1 65 -1q29 0 130 1.5t122 1.5q47 0 53.5 1t7.5 9q1 7 2 9t4 4t10 2q12 0 16 -2.5t4 -11.5q0 -2 -2 -44t-2 -88q0 -7 -4 -9t-15 -2q-18 0 -18 15q0 1 1.5 35t1.5 42q0 7 -267 7q-6 0 -6 -125q0 -42 2 -142q0 -9 1.5 -11t7.5 -2h167q52 0 52 13v52 q0 10 20 10q17 0 17 -9q0 -1 -1 -30t-1 -50t1 -51t1 -34q0 -9 -16 -9q-21 0 -21 10v50q0 15 -52 15h-163h-3q-6 0 -8 -1.5t-2 -10.5q6 -273 11 -273q47 0 120.5 0.5t128.5 1.5t57 1q5 0 6.5 3t2.5 15v2q1 13 3 89q0 9 17 9q20 0 20 -10q0 -28 -1.5 -78t-1.5 -62 q0 -14 -20 -14q-11 0 -185 1.5t-190 1.5t-63.5 -1.5t-58.5 -1.5q-10 0 -13 4t-3 17z" />
<glyph unicode="&#xca;" horiz-adv-x="605" d="M201 730l6 9l79 89q13 14 18 14h24q7 0 18 -14l79 -89q6 -6 6 -9q0 -4 -7 -4h-12q-3 0 -13 6l-80 45q-3 1 -6 0l-80 -45q-10 -6 -13 -6h-12q-7 0 -7 4zM37 15q0 10 4 12.5t16 2.5h61q4 0 4 72v96q0 31 -0.5 72t-1 78t-1 69.5t-1 53t-0.5 21.5q0 32 -1.5 65.5t-3.5 54.5 t-4 21h-47q-10 0 -13.5 3t-3.5 15q0 17 13 17l44 -2q44 -1 65 -1q29 0 130 1.5t122 1.5q47 0 53.5 1t7.5 9q1 7 2 9t4 4t10 2q12 0 16 -2.5t4 -11.5q0 -2 -2 -44t-2 -88q0 -7 -4 -9t-15 -2q-18 0 -18 15q0 1 1.5 35t1.5 42q0 7 -267 7q-6 0 -6 -125q0 -42 2 -142 q0 -9 1.5 -11t7.5 -2h167q52 0 52 13v52q0 10 20 10q17 0 17 -9q0 -1 -1 -30t-1 -50t1 -51t1 -34q0 -9 -16 -9q-21 0 -21 10v50q0 15 -52 15h-163h-3q-6 0 -8 -1.5t-2 -10.5q6 -273 11 -273q47 0 120.5 0.5t128.5 1.5t57 1q5 0 6.5 3t2.5 15v2q1 13 3 89q0 9 17 9 q20 0 20 -10q0 -28 -1.5 -78t-1.5 -62q0 -14 -20 -14q-11 0 -185 1.5t-190 1.5t-63.5 -1.5t-58.5 -1.5q-10 0 -13 4t-3 17z" />
<glyph unicode="&#xcb;" horiz-adv-x="605" d="M182 783q0 26 20.5 42t42.5 16q19 0 32 -10.5t13 -32.5q0 -26 -20 -42.5t-44 -16.5q-18 0 -31 11.5t-13 32.5zM342 783q0 26 20.5 42t42.5 16q19 0 32 -10.5t13 -32.5q0 -26 -20 -42.5t-44 -16.5q-18 0 -31 11.5t-13 32.5zM37 15q0 10 4 12.5t16 2.5h61q4 0 4 72v96 q0 31 -0.5 72t-1 78t-1 69.5t-1 53t-0.5 21.5q0 32 -1.5 65.5t-3.5 54.5t-4 21h-47q-10 0 -13.5 3t-3.5 15q0 17 13 17l44 -2q44 -1 65 -1q29 0 130 1.5t122 1.5q47 0 53.5 1t7.5 9q1 7 2 9t4 4t10 2q12 0 16 -2.5t4 -11.5q0 -2 -2 -44t-2 -88q0 -7 -4 -9t-15 -2 q-18 0 -18 15q0 1 1.5 35t1.5 42q0 7 -267 7q-6 0 -6 -125q0 -42 2 -142q0 -9 1.5 -11t7.5 -2h167q52 0 52 13v52q0 10 20 10q17 0 17 -9q0 -1 -1 -30t-1 -50t1 -51t1 -34q0 -9 -16 -9q-21 0 -21 10v50q0 15 -52 15h-163h-3q-6 0 -8 -1.5t-2 -10.5q6 -273 11 -273 q47 0 120.5 0.5t128.5 1.5t57 1q5 0 6.5 3t2.5 15v2q1 13 3 89q0 9 17 9q20 0 20 -10q0 -28 -1.5 -78t-1.5 -62q0 -14 -20 -14q-11 0 -185 1.5t-190 1.5t-63.5 -1.5t-58.5 -1.5q-10 0 -13 4t-3 17z" />
<glyph unicode="&#xcc;" horiz-adv-x="333" d="M56 822q0 12 8.5 20t24.5 8q20 0 37 -26l53 -86l4 -8q0 -4 -9 -4h-21q-1 0 -2.5 1.5t-4 3t-3.5 2.5l-72 60q-15 12 -15 29zM27 15q0 10 4 12.5t17 2.5h66q9 0 9 364v98q0 31 -1.5 65.5t-3.5 56.5t-3 22h-66q-10 0 -14 3t-4 15t3.5 15t14.5 3q3 0 47 -1.5t78 -1.5 q26 0 68 1.5t50 1.5q9 0 11.5 -4t2.5 -17q0 -10 -3 -12.5t-15 -2.5h-65q-9 0 -9 -155v-135q0 -316 9 -316h69q9 0 11.5 -3.5t2.5 -12.5q0 -12 -2.5 -16t-11.5 -4q-4 0 -48.5 1.5t-71.5 1.5q-29 0 -74.5 -1.5t-53.5 -1.5q-10 0 -13.5 4t-3.5 17z" />
<glyph unicode="&#xcd;" horiz-adv-x="333" d="M153 729q0 1 4 9l53 86q17 26 37 26q16 0 24.5 -8t8.5 -20q0 -16 -15 -29l-72 -60l-3 -3q-4 -4 -7 -4h-24q-6 0 -6 3zM27 15q0 10 4 12.5t17 2.5h66q9 0 9 364v98q0 31 -1.5 65.5t-3.5 56.5t-3 22h-66q-10 0 -14 3t-4 15t3.5 15t14.5 3q3 0 47 -1.5t78 -1.5q26 0 68 1.5 t50 1.5q9 0 11.5 -4t2.5 -17q0 -10 -3 -12.5t-15 -2.5h-65q-9 0 -9 -155v-135q0 -316 9 -316h69q9 0 11.5 -3.5t2.5 -12.5q0 -12 -2.5 -16t-11.5 -4q-4 0 -48.5 1.5t-71.5 1.5q-29 0 -74.5 -1.5t-53.5 -1.5q-10 0 -13.5 4t-3.5 17z" />
<glyph unicode="&#xce;" horiz-adv-x="333" d="M53 730l6 9l79 89q13 14 18 14h24q7 0 18 -14l79 -89q6 -6 6 -9q0 -4 -7 -4h-12q-3 0 -13 6l-80 45q-3 1 -6 0l-80 -45q-10 -6 -13 -6h-12q-7 0 -7 4zM27 15q0 10 4 12.5t17 2.5h66q9 0 9 364v98q0 31 -1.5 65.5t-3.5 56.5t-3 22h-66q-10 0 -14 3t-4 15t3.5 15t14.5 3 q3 0 47 -1.5t78 -1.5q26 0 68 1.5t50 1.5q9 0 11.5 -4t2.5 -17q0 -10 -3 -12.5t-15 -2.5h-65q-9 0 -9 -155v-135q0 -316 9 -316h69q9 0 11.5 -3.5t2.5 -12.5q0 -12 -2.5 -16t-11.5 -4q-4 0 -48.5 1.5t-71.5 1.5q-29 0 -74.5 -1.5t-53.5 -1.5q-10 0 -13.5 4t-3.5 17z" />
<glyph unicode="&#xcf;" horiz-adv-x="333" d="M34 783q0 26 20.5 42t42.5 16q19 0 32 -10.5t13 -32.5q0 -26 -20 -42.5t-44 -16.5q-18 0 -31 11.5t-13 32.5zM194 783q0 26 20.5 42t42.5 16q19 0 32 -10.5t13 -32.5q0 -26 -20 -42.5t-44 -16.5q-18 0 -31 11.5t-13 32.5zM27 15q0 10 4 12.5t17 2.5h66q9 0 9 364v98 q0 31 -1.5 65.5t-3.5 56.5t-3 22h-66q-10 0 -14 3t-4 15t3.5 15t14.5 3q3 0 47 -1.5t78 -1.5q26 0 68 1.5t50 1.5q9 0 11.5 -4t2.5 -17q0 -10 -3 -12.5t-15 -2.5h-65q-9 0 -9 -155v-135q0 -316 9 -316h69q9 0 11.5 -3.5t2.5 -12.5q0 -12 -2.5 -16t-11.5 -4q-4 0 -48.5 1.5 t-71.5 1.5q-29 0 -74.5 -1.5t-53.5 -1.5q-10 0 -13.5 4t-3.5 17z" />
<glyph unicode="&#xd0;" horiz-adv-x="758" d="M32 10q0 12 4.5 15t15.5 3h64q4 0 10 295q0 5 -8 5h-76q-5 0 -5 16q0 14 5 14h77q5 0 6 1t1 6q2 148 2 198q0 75 -2 75l-69 -2q-8 0 -11 2.5t-3 12.5q0 19 14 19h12t27.5 -0.5t31.5 -0.5q41 0 114.5 6t89.5 6q167 0 275.5 -94t108.5 -252q0 -161 -104 -251.5t-254 -90.5 q-30 0 -92 2t-93 2q-16 0 -70 -2t-57 -2q-9 0 -11.5 3.5t-2.5 13.5zM216 86q0 -57 1 -58q7 -3 55 -3q69 0 124 14t89.5 34t59.5 52t37 58.5t18.5 63t7.5 55.5t1 46q0 72 -35.5 140t-105.5 114.5t-157 46.5q-63 0 -88 -6q-6 -2 -6 -143q0 -22 -0.5 -67t-0.5 -68q0 -5 1 -6 t7 -1h209q5 0 5 -15t-5 -15h-208q-9 0 -9 -7v-235z" />
<glyph unicode="&#xd1;" horiz-adv-x="814" d="M313 748q0 8 8 27q11 28 27.5 42.5t31.5 14.5q18 0 47.5 -19t40.5 -19q24 0 34 33q2 7 3 8t8 1q13 0 13 -4q0 -10 -7 -29q-23 -60 -63 -60q-19 0 -46.5 18.5t-41.5 18.5q-22 0 -32 -29q-1 -5 -1.5 -5.5t-3 -1.5t-8.5 -1q-10 0 -10 5zM37 15q0 10 3.5 12.5t15.5 2.5h46 q6 0 8 66q1 21 1 33q8 259 8 507h-65q-9 0 -11.5 3.5t-2.5 12.5q0 12 2.5 16t11.5 4q6 0 53.5 -1.5t58.5 -1.5q13 0 33.5 1.5t21.5 1.5q11 0 22 -14l406 -499q12 -14 14.5 -12t2.5 18v42q0 49 -1 187t-1 189q0 53 -1 53h-93q-8 0 -10 3t-2 13q0 9 0.5 12.5t3 5.5t8.5 2 q2 0 20 -1t43.5 -1.5t44.5 -0.5q23 0 52 1.5t33 1.5q10 0 12 -3.5t2 -17.5q0 -10 -3.5 -12.5t-16.5 -2.5h-45q-4 0 -4 -56q0 -68 -3.5 -209.5l-6.5 -253t-3 -113.5q0 -25 -13 -25q-5 0 -20 17l-492 598q-11 12 -12 11q-2 -1 -2 -11q-1 -40 -1 -122q0 -54 -0.5 -175.5 t-0.5 -167.5q0 -99 4 -99h86q8 0 10 -3t2 -13q0 -9 -0.5 -12.5t-3 -5.5t-8.5 -2q-9 0 -46 1.5t-62 1.5q-26 0 -53.5 -1.5t-30.5 -1.5q-10 0 -12.5 4t-2.5 17z" />
<glyph unicode="&#xd2;" horiz-adv-x="752" d="M263 822q0 12 8.5 20t24.5 8q20 0 37 -26l53 -86l4 -8q0 -4 -9 -4h-21q-1 0 -2.5 1.5t-4 3t-3.5 2.5l-72 60q-15 12 -15 29zM42 318q0 160 100 260t243 100q146 0 235.5 -102t89.5 -252q0 -151 -95 -244.5t-245 -93.5q-130 0 -229 89.5t-99 242.5zM142 345 q0 -138 62.5 -231.5t166.5 -93.5q77 0 133.5 47t82 116.5t25.5 149.5q0 79 -25 148t-80.5 116t-131.5 47q-102 0 -167.5 -90t-65.5 -209z" />
<glyph unicode="&#xd3;" horiz-adv-x="752" d="M360 729q0 1 4 9l53 86q17 26 37 26q16 0 24.5 -8t8.5 -20q0 -16 -15 -29l-72 -60l-4 -3q-3 -4 -6 -4h-24q-6 0 -6 3zM42 318q0 160 100 260t243 100q146 0 235.5 -102t89.5 -252q0 -151 -95 -244.5t-245 -93.5q-130 0 -229 89.5t-99 242.5zM142 345q0 -138 62.5 -231.5 t166.5 -93.5q77 0 133.5 47t82 116.5t25.5 149.5q0 79 -25 148t-80.5 116t-131.5 47q-102 0 -167.5 -90t-65.5 -209z" />
<glyph unicode="&#xd4;" horiz-adv-x="752" d="M260 730l6 9l79 89q13 14 18 14h24q7 0 18 -14l79 -89q6 -6 6 -9q0 -4 -7 -4h-12q-3 0 -13 6l-80 45q-3 1 -6 0l-80 -45q-10 -6 -13 -6h-12q-7 0 -7 4zM42 318q0 160 100 260t243 100q146 0 235.5 -102t89.5 -252q0 -151 -95 -244.5t-245 -93.5q-130 0 -229 89.5 t-99 242.5zM142 345q0 -138 62.5 -231.5t166.5 -93.5q77 0 133.5 47t82 116.5t25.5 149.5q0 79 -25 148t-80.5 116t-131.5 47q-102 0 -167.5 -90t-65.5 -209z" />
<glyph unicode="&#xd5;" horiz-adv-x="752" d="M267 748q0 8 8 27q11 28 27.5 42.5t31.5 14.5q18 0 47.5 -19t40.5 -19q24 0 34 33q2 7 3 8t8 1q13 0 13 -4q0 -10 -7 -29q-23 -60 -63 -60q-19 0 -46.5 18.5t-41.5 18.5q-22 0 -32 -29q-1 -5 -1.5 -5.5t-3 -1.5t-8.5 -1q-10 0 -10 5zM42 318q0 160 100 260t243 100 q146 0 235.5 -102t89.5 -252q0 -151 -95 -244.5t-245 -93.5q-130 0 -229 89.5t-99 242.5zM142 345q0 -138 62.5 -231.5t166.5 -93.5q77 0 133.5 47t82 116.5t25.5 149.5q0 79 -25 148t-80.5 116t-131.5 47q-102 0 -167.5 -90t-65.5 -209z" />
<glyph unicode="&#xd6;" horiz-adv-x="752" d="M241 783q0 26 20.5 42t42.5 16q19 0 32 -10.5t13 -32.5q0 -26 -20 -42.5t-44 -16.5q-18 0 -31 11.5t-13 32.5zM401 783q0 26 20.5 42t42.5 16q19 0 32 -10.5t13 -32.5q0 -26 -20 -42.5t-44 -16.5q-18 0 -31 11.5t-13 32.5zM42 318q0 160 100 260t243 100 q146 0 235.5 -102t89.5 -252q0 -151 -95 -244.5t-245 -93.5q-130 0 -229 89.5t-99 242.5zM142 345q0 -138 62.5 -231.5t166.5 -93.5q77 0 133.5 47t82 116.5t25.5 149.5q0 79 -25 148t-80.5 116t-131.5 47q-102 0 -167.5 -90t-65.5 -209z" />
<glyph unicode="&#xd7;" horiz-adv-x="527" d="M85 358q0 7 11.5 18t19.5 11q7 0 16 -9l116 -115q16 -17 26 -7l125 125q7 7 14 7t17.5 -11t10.5 -19q0 -6 -10 -16l-121 -121q-7 -8 -7 -11t7 -10l124 -124q7 -7 7 -14t-11 -18.5t-18 -11.5t-15 8l-123 124q-9 7 -12.5 6t-12.5 -10l-120 -120q-8 -8 -14 -8q-7 0 -18 11 t-11 18q0 6 9 15l120 121q13 13 2 24l-124 124q-8 8 -8 13z" />
<glyph unicode="&#xd8;" horiz-adv-x="752" d="M42 318q0 160 100 260t243 100q79 0 143 -31q4 -3 5.5 -2.5t3.5 4.5l43 75l1 1l1 1h3q5 0 12 -5q12 -6 9 -13l-44 -74q-2 -3 -2 -5q1 -2 3 -3q70 -47 108.5 -126.5t38.5 -175.5q0 -151 -95 -244.5t-245 -93.5q-82 0 -153 36q-6 4 -8 0l-43 -73q-5 -7 -8 -7q-8 1 -19 10 q-2 1 -2 6l46 79q2 3 -3 7q-138 94 -138 274zM142 345q0 -146 67 -238q5 -6 7 -6q3 0 6 5l283 488q3 5 -3 9q-53 41 -127 41q-102 0 -167.5 -90t-65.5 -209zM240 74q0 -2 2 -4q56 -50 129 -50q77 0 133.5 47t82 116.5t25.5 149.5q0 69 -20.5 133t-58.5 108q-3 2 -5 0 l-287 -496q-1 -1 -1 -4z" />
<glyph unicode="&#xd9;" horiz-adv-x="755" d="M272 822q0 12 8.5 20t24.5 8q20 0 37 -26l53 -86l4 -8q0 -4 -9 -4h-21q-1 0 -2.5 1.5t-4 3t-3.5 2.5l-72 60q-15 12 -15 29zM37 649q0 12 3.5 15t14.5 3q6 0 42 -1.5t53 -1.5q16 0 60.5 1.5t55.5 1.5q10 0 12.5 -4t2.5 -17q0 -10 -3.5 -12.5t-15.5 -2.5h-65q-5 0 -9 -167 t-4 -236q0 -96 47 -143.5t151 -47.5q92 0 170 53q16 11 19 21q5 16 5 136v305q0 79 -6 79h-50q-11 0 -15.5 3t-4.5 15t4.5 15t15.5 3q6 0 46 -1.5t57 -1.5t46 1.5t32 1.5q10 0 13.5 -4t3.5 -17q0 -10 -4 -12.5t-17 -2.5h-23q-4 0 -5.5 -41t-3 -134t-2.5 -139q-1 -57 -3 -128 t-3 -113t-1 -51q0 -35 -24 -35q-13 0 -33 36.5t-29 36.5t-45 -20q-40 -23 -96.5 -40t-110.5 -17q-59 0 -101 14t-65 35t-36 55t-16.5 64t-3.5 73q0 11 0.5 157t0.5 191q0 56 -4 56h-38q-10 0 -14 3t-4 15z" />
<glyph unicode="&#xda;" horiz-adv-x="755" d="M369 729q0 1 4 9l53 86q17 26 37 26q16 0 24.5 -8t8.5 -20q0 -16 -15 -29l-72 -60l-3 -3q-4 -4 -7 -4h-24q-6 0 -6 3zM37 649q0 12 3.5 15t14.5 3q6 0 42 -1.5t53 -1.5q16 0 60.5 1.5t55.5 1.5q10 0 12.5 -4t2.5 -17q0 -10 -3.5 -12.5t-15.5 -2.5h-65q-5 0 -9 -167 t-4 -236q0 -96 47 -143.5t151 -47.5q92 0 170 53q16 11 19 21q5 16 5 136v305q0 79 -6 79h-50q-11 0 -15.5 3t-4.5 15t4.5 15t15.5 3q6 0 46 -1.5t57 -1.5t46 1.5t32 1.5q10 0 13.5 -4t3.5 -17q0 -10 -4 -12.5t-17 -2.5h-23q-4 0 -5.5 -41t-3 -134t-2.5 -139q-1 -57 -3 -128 t-3 -113t-1 -51q0 -35 -24 -35q-13 0 -33 36.5t-29 36.5t-45 -20q-40 -23 -96.5 -40t-110.5 -17q-59 0 -101 14t-65 35t-36 55t-16.5 64t-3.5 73q0 11 0.5 157t0.5 191q0 56 -4 56h-38q-10 0 -14 3t-4 15z" />
<glyph unicode="&#xdb;" horiz-adv-x="755" d="M269 730l6 9l79 89q13 14 18 14h24q7 0 18 -14l79 -89q6 -6 6 -9q0 -4 -7 -4h-12q-3 0 -13 6l-80 45q-3 1 -6 0l-80 -45q-10 -6 -13 -6h-12q-7 0 -7 4zM37 649q0 12 3.5 15t14.5 3q6 0 42 -1.5t53 -1.5q16 0 60.5 1.5t55.5 1.5q10 0 12.5 -4t2.5 -17q0 -10 -3.5 -12.5 t-15.5 -2.5h-65q-5 0 -9 -167t-4 -236q0 -96 47 -143.5t151 -47.5q92 0 170 53q16 11 19 21q5 16 5 136v305q0 79 -6 79h-50q-11 0 -15.5 3t-4.5 15t4.5 15t15.5 3q6 0 46 -1.5t57 -1.5t46 1.5t32 1.5q10 0 13.5 -4t3.5 -17q0 -10 -4 -12.5t-17 -2.5h-23q-4 0 -5.5 -41 t-3 -134t-2.5 -139q-1 -57 -3 -128t-3 -113t-1 -51q0 -35 -24 -35q-13 0 -33 36.5t-29 36.5t-45 -20q-40 -23 -96.5 -40t-110.5 -17q-59 0 -101 14t-65 35t-36 55t-16.5 64t-3.5 73q0 11 0.5 157t0.5 191q0 56 -4 56h-38q-10 0 -14 3t-4 15z" />
<glyph unicode="&#xdc;" horiz-adv-x="755" d="M250 783q0 26 20.5 42t42.5 16q19 0 32 -10.5t13 -32.5q0 -26 -20 -42.5t-44 -16.5q-18 0 -31 11.5t-13 32.5zM410 783q0 26 20.5 42t42.5 16q19 0 32 -10.5t13 -32.5q0 -26 -20 -42.5t-44 -16.5q-18 0 -31 11.5t-13 32.5zM37 649q0 12 3.5 15t14.5 3q6 0 42 -1.5 t53 -1.5q16 0 60.5 1.5t55.5 1.5q10 0 12.5 -4t2.5 -17q0 -10 -3.5 -12.5t-15.5 -2.5h-65q-5 0 -9 -167t-4 -236q0 -96 47 -143.5t151 -47.5q92 0 170 53q16 11 19 21q5 16 5 136v305q0 79 -6 79h-50q-11 0 -15.5 3t-4.5 15t4.5 15t15.5 3q6 0 46 -1.5t57 -1.5t46 1.5 t32 1.5q10 0 13.5 -4t3.5 -17q0 -10 -4 -12.5t-17 -2.5h-23q-4 0 -5.5 -41t-3 -134t-2.5 -139q-1 -57 -3 -128t-3 -113t-1 -51q0 -35 -24 -35q-13 0 -33 36.5t-29 36.5t-45 -20q-40 -23 -96.5 -40t-110.5 -17q-59 0 -101 14t-65 35t-36 55t-16.5 64t-3.5 73q0 11 0.5 157 t0.5 191q0 56 -4 56h-38q-10 0 -14 3t-4 15z" />
<glyph unicode="&#xdd;" horiz-adv-x="597" d="M313 729q0 1 4 9l53 86q17 26 37 26q16 0 24.5 -8t8.5 -20q0 -16 -15 -29l-72 -60l-3 -3q-4 -4 -7 -4h-24q-6 0 -6 3zM7 654q0 12 3.5 15t14.5 3q1 0 36 -1.5t70 -1.5q33 0 74 1.5t44 1.5q8 0 11 -4t3 -17q0 -10 -3 -12.5t-15 -2.5h-59h-7.5t-3 -2t0 -3t2.5 -6 q9 -23 37 -76.5l62.5 -117t42.5 -79.5q7 -13 9 -13t7 10q139 268 139 284q0 3 -2 3h-52q-13 0 -17 2.5t-4 12.5q0 13 3.5 17t13.5 4q2 0 27.5 -1.5t50.5 -1.5t48 1.5t28 1.5q11 0 15 -3.5t4 -14.5q0 -12 -4.5 -15t-14.5 -3h-34q-2 0 -39 -64l-82.5 -144.5t-61.5 -105.5 q-3 -4 -3 -9q0 -283 9 -283h69q9 0 11.5 -3.5t2.5 -12.5q0 -12 -2.5 -16t-11.5 -4q-7 0 -46.5 1.5t-73.5 1.5q-25 0 -68 -1.5t-46 -1.5q-10 0 -12.5 4t-2.5 17q0 10 3.5 12.5t15.5 2.5h51q10 0 10 241q0 10 -7 22l-115 205.5t-84 137.5h-29q-10 0 -14 3t-4 15z" />
<glyph unicode="&#xde;" horiz-adv-x="591" d="M27 15q0 10 4 12.5t17 2.5h66q9 0 9 364v98q0 144 -8 144h-66q-10 0 -14 3t-4 15t3.5 15t14.5 3q6 0 57 -1.5t68 -1.5q16 0 61.5 1.5t56.5 1.5q9 0 11.5 -4t2.5 -17q0 -10 -3 -12.5t-15 -2.5h-65q-3 0 -6 -35.5t-3 -63.5q0 -13 7 -13q10 0 44.5 1.5t40.5 1.5 q109 0 176 -50.5t67 -148.5q0 -94 -65 -139t-177 -45q-5 0 -77 3q-11 1 -13 -1.5t-2 -14.5q0 -97 8 -101h69q9 0 11.5 -3.5t2.5 -12.5q0 -12 -2 -16t-11 -4q-8 0 -50.5 1.5t-70.5 1.5q-27 0 -73.5 -1.5t-54.5 -1.5q-10 0 -13.5 4t-3.5 17zM214 186q0 -14 35 -14 q92 0 150 40.5t58 128.5q0 71 -58.5 112.5t-149.5 41.5q-26 0 -30.5 -2.5t-4.5 -18.5v-288z" />
<glyph unicode="&#xdf;" horiz-adv-x="482" d="M27 12q0 6 0.5 9t3 5t8.5 2h39q5 16 5 175q0 70 -1 174l-1 104q0 87 43 143.5t132 56.5q69 0 108.5 -37.5t39.5 -104.5q0 -66 -35 -106t-78 -56q-9 -4 -4 -6q18 -5 36 -12.5t43.5 -24.5t43.5 -38.5t31.5 -56t13.5 -75.5q0 -73 -39 -125t-103 -52q-47 0 -78 22t-31 59 q0 19 8.5 28.5t28.5 15.5q6 2 12 2q8 0 10 -13q0 -4 1 -18.5t1.5 -21t4 -18.5t8.5 -17.5t14.5 -10t22.5 -4.5q28 0 44 43t16 100q0 39 -6 70.5t-14 52t-23.5 36t-26.5 23t-30 13.5t-28 7.5t-27 3.5q-10 1 -10 12q0 14 10 14q45 2 80 40.5t35 115.5q0 52 -19.5 81.5 t-74.5 29.5q-22 0 -38 -11.5t-24 -27t-12.5 -40t-5.5 -41.5t-1 -41v-480q0 -11 -2 -13.5t-9 -2.5q-2 0 -12.5 0.5t-15.5 0.5q-12 0 -38.5 -1t-42.5 -1q-13 0 -13 17z" />
<glyph unicode="&#xe0;" horiz-adv-x="419" d="M96 582q0 14 10.5 23.5t28.5 9.5q23 0 33 -27l49 -130q2 -4 2 -7q0 -5 -7 -5h-16q-5 0 -10 7l-82 107q-8 11 -8 22zM32 71q0 43 38 76t85 49t104 26q5 1 5 13q0 27 -0.5 42t-5 36t-13 32t-25 19t-40.5 8q-18 0 -31 -6q-19 -8 -24 -21t-5 -46q0 -15 -7 -20 q-12 -9 -33 -19.5t-25 -10.5q-9 0 -9 19q0 59 50 96.5t105 37.5q73 0 103.5 -34.5t30.5 -99.5q0 -29 -3 -113t-3 -91q0 -10 4 -16.5t8 -8.5t6 -2q5 0 23 13l17 12q4 0 10 -7.5t6 -12.5q0 -1 -51 -39q-32 -23 -42 -23q-9 0 -16 3t-11.5 9t-6.5 10t-4.5 13.5t-3.5 10.5 q-2 6 -4 6.5t-7 -3.5q-74 -46 -124 -46q-47 0 -74 24t-27 64zM108 99q0 -25 17 -45.5t45 -20.5q18 0 40.5 5.5t38 12t15.5 10.5v131q0 8 -3 8q-14 0 -61 -15q-92 -29 -92 -86z" />
<glyph unicode="&#xe1;" horiz-adv-x="419" d="M183 451q0 3 2 7l49 130q10 27 33 27q18 0 28.5 -9.5t10.5 -23.5q0 -11 -8 -22l-82 -107q-5 -7 -10 -7h-16q-7 0 -7 5zM32 71q0 43 38 76t85 49t104 26q5 1 5 13q0 27 -0.5 42t-5 36t-13 32t-25 19t-40.5 8q-18 0 -31 -6q-19 -8 -24 -21t-5 -46q0 -15 -7 -20 q-12 -9 -33 -19.5t-25 -10.5q-9 0 -9 19q0 59 50 96.5t105 37.5q73 0 103.5 -34.5t30.5 -99.5q0 -29 -3 -113t-3 -91q0 -10 4 -16.5t8 -8.5t6 -2q5 0 23 13l17 12q4 0 10 -7.5t6 -12.5q0 -1 -51 -39q-32 -23 -42 -23q-9 0 -16 3t-11.5 9t-6.5 10t-4.5 13.5t-3.5 10.5 q-2 6 -4 6.5t-7 -3.5q-74 -46 -124 -46q-47 0 -74 24t-27 64zM108 99q0 -25 17 -45.5t45 -20.5q18 0 40.5 5.5t38 12t15.5 10.5v131q0 8 -3 8q-14 0 -61 -15q-92 -29 -92 -86z" />
<glyph unicode="&#xe2;" horiz-adv-x="419" d="M87 459q0 3 5 10l79 119q7 10 9.5 12t10.5 2h21q8 0 10 -2t9 -12l79 -119q5 -7 5 -10t-9 -3h-12q-1 0 -10 7l-81 70h-4l-81 -70q-7 -7 -10 -7h-12q-9 0 -9 3zM32 71q0 43 38 76t85 49t104 26q5 1 5 13q0 27 -0.5 42t-5 36t-13 32t-25 19t-40.5 8q-18 0 -31 -6 q-19 -8 -24 -21t-5 -46q0 -15 -7 -20q-12 -9 -33 -19.5t-25 -10.5q-9 0 -9 19q0 59 50 96.5t105 37.5q73 0 103.5 -34.5t30.5 -99.5q0 -29 -3 -113t-3 -91q0 -10 4 -16.5t8 -8.5t6 -2q5 0 23 13l17 12q4 0 10 -7.5t6 -12.5q0 -1 -51 -39q-32 -23 -42 -23q-9 0 -16 3t-11.5 9 t-6.5 10t-4.5 13.5t-3.5 10.5q-2 6 -4 6.5t-7 -3.5q-74 -46 -124 -46q-47 0 -74 24t-27 64zM108 99q0 -25 17 -45.5t45 -20.5q18 0 40.5 5.5t38 12t15.5 10.5v131q0 8 -3 8q-14 0 -61 -15q-92 -29 -92 -86z" />
<glyph unicode="&#xe3;" horiz-adv-x="419" d="M93 498q0 8 8 27q11 28 27.5 42.5t31.5 14.5q18 0 47.5 -19t40.5 -19q24 0 34 33q2 7 3 8t8 1q13 0 13 -4q0 -10 -7 -29q-23 -60 -63 -60q-19 0 -46.5 18.5t-41.5 18.5q-22 0 -32 -29q-1 -5 -1.5 -5.5t-3 -1.5t-8.5 -1q-10 0 -10 5zM32 71q0 43 38 76t85 49t104 26 q5 1 5 13q0 27 -0.5 42t-5 36t-13 32t-25 19t-40.5 8q-18 0 -31 -6q-19 -8 -24 -21t-5 -46q0 -15 -7 -20q-12 -9 -33 -19.5t-25 -10.5q-9 0 -9 19q0 59 50 96.5t105 37.5q73 0 103.5 -34.5t30.5 -99.5q0 -29 -3 -113t-3 -91q0 -10 4 -16.5t8 -8.5t6 -2q5 0 23 13l17 12 q4 0 10 -7.5t6 -12.5q0 -1 -51 -39q-32 -23 -42 -23q-9 0 -16 3t-11.5 9t-6.5 10t-4.5 13.5t-3.5 10.5q-2 6 -4 6.5t-7 -3.5q-74 -46 -124 -46q-47 0 -74 24t-27 64zM108 99q0 -25 17 -45.5t45 -20.5q18 0 40.5 5.5t38 12t15.5 10.5v131q0 8 -3 8q-14 0 -61 -15 q-92 -29 -92 -86z" />
<glyph unicode="&#xe4;" horiz-adv-x="419" d="M67 533q0 26 20.5 42t42.5 16q19 0 32 -10.5t13 -32.5q0 -26 -20 -42.5t-44 -16.5q-18 0 -31 11.5t-13 32.5zM227 533q0 26 20.5 42t42.5 16q19 0 32 -10.5t13 -32.5q0 -26 -20 -42.5t-44 -16.5q-18 0 -31 11.5t-13 32.5zM32 71q0 43 38 76t85 49t104 26q5 1 5 13 q0 27 -0.5 42t-5 36t-13 32t-25 19t-40.5 8q-18 0 -31 -6q-19 -8 -24 -21t-5 -46q0 -15 -7 -20q-12 -9 -33 -19.5t-25 -10.5q-9 0 -9 19q0 59 50 96.5t105 37.5q73 0 103.5 -34.5t30.5 -99.5q0 -29 -3 -113t-3 -91q0 -10 4 -16.5t8 -8.5t6 -2q5 0 23 13l17 12q4 0 10 -7.5 t6 -12.5q0 -1 -51 -39q-32 -23 -42 -23q-9 0 -16 3t-11.5 9t-6.5 10t-4.5 13.5t-3.5 10.5q-2 6 -4 6.5t-7 -3.5q-74 -46 -124 -46q-47 0 -74 24t-27 64zM108 99q0 -25 17 -45.5t45 -20.5q18 0 40.5 5.5t38 12t15.5 10.5v131q0 8 -3 8q-14 0 -61 -15q-92 -29 -92 -86z" />
<glyph unicode="&#xe5;" horiz-adv-x="419" d="M127 535q0 31 21.5 52.5t52.5 21.5t52.5 -21.5t21.5 -52.5t-21.5 -52.5t-52.5 -21.5t-52.5 21.5t-21.5 52.5zM161 535q0 -17 11.5 -28.5t28.5 -11.5t28.5 11.5t11.5 28.5t-11.5 28.5t-28.5 11.5t-28.5 -11.5t-11.5 -28.5zM32 71q0 43 38 76t85 49t104 26q5 1 5 13 q0 27 -0.5 42t-5 36t-13 32t-25 19t-40.5 8q-18 0 -31 -6q-19 -8 -24 -21t-5 -46q0 -15 -7 -20q-12 -9 -33 -19.5t-25 -10.5q-9 0 -9 19q0 59 50 96.5t105 37.5q73 0 103.5 -34.5t30.5 -99.5q0 -29 -3 -113t-3 -91q0 -10 4 -16.5t8 -8.5t6 -2q5 0 23 13l17 12q4 0 10 -7.5 t6 -12.5q0 -1 -51 -39q-32 -23 -42 -23q-9 0 -16 3t-11.5 9t-6.5 10t-4.5 13.5t-3.5 10.5q-2 6 -4 6.5t-7 -3.5q-74 -46 -124 -46q-47 0 -74 24t-27 64zM108 99q0 -25 17 -45.5t45 -20.5q18 0 40.5 5.5t38 12t15.5 10.5v131q0 8 -3 8q-14 0 -61 -15q-92 -29 -92 -86z" />
<glyph unicode="&#xe6;" horiz-adv-x="649" d="M32 70q0 43 38 76t85 49t104 26q5 1 5 13q0 27 -0.5 42t-5 36t-13 31.5t-25 18.5t-40.5 8q-19 0 -30 -5q-19 -8 -24 -20t-6 -44q0 -18 -8 -23q-12 -9 -31 -19t-24 -10q-11 0 -11 18q0 59 50 96.5t105 37.5q81 0 113 -46q4 -7 6.5 -7t8.5 5q57 46 130 46q72 0 112 -47 t40 -115q0 -15 -57 -15q-5 0 -109.5 2.5t-112.5 2.5q-4 0 -4 -33q0 -75 43.5 -118.5t102.5 -43.5q27 0 52 10t39.5 22.5t25 22.5t12.5 10q4 0 11.5 -7t7.5 -11q0 -7 -21.5 -29t-65 -45t-89.5 -23q-91 0 -143 55q-5 5 -6.5 4.5t-9.5 -5.5q-87 -54 -154 -54q-47 0 -74 24 t-27 64zM108 98q0 -25 17 -45.5t45 -20.5q19 0 41.5 5.5t37.5 12t15 10.5v131q0 8 -3 8q-14 0 -61 -15q-92 -29 -92 -86zM333 255q0 -5 9 -5q57 0 157 4q37 1 37 3q0 62 -28.5 88t-60.5 26q-45 0 -78 -37.5t-36 -78.5z" />
<glyph unicode="&#xe7;" horiz-adv-x="412" d="M32 177q0 105 64 165t145 60q51 0 93.5 -29.5t42.5 -69.5q0 -13 -11 -22q-18 -14 -32 -14q-16 0 -20 13q-2 7 -7 22l-7.5 22t-8 17.5t-12.5 15t-18 8.5t-26 4q-59 0 -95.5 -52t-36.5 -115q0 -67 39.5 -116t111.5 -49q31 0 59.5 7.5t44.5 15.5l17 7q10 0 10 -11 q0 -2 -6.5 -9t-19.5 -16.5t-30 -18.5t-41 -16t-50 -9l-19 -53q-1 -3 1 -3q1 0 6 1q12 3 26 3q41 0 64.5 -22t23.5 -49q0 -36 -30.5 -65.5t-78.5 -29.5q-54 0 -83 26q-3 3 -3 9q0 10 10 10q2 0 10.5 -4t22 -7.5t28.5 -3.5q34 0 48.5 12.5t14.5 40.5q0 42 -52 42 q-11 0 -23.5 -4.5t-13.5 -4.5q-2 0 -6.5 3t-4.5 5q0 5 36 94q-85 3 -134 54.5t-49 135.5z" />
<glyph unicode="&#xe8;" horiz-adv-x="424" d="M123 582q0 14 10.5 23.5t28.5 9.5q23 0 33 -27l49 -130q2 -4 2 -7q0 -5 -7 -5h-16q-5 0 -10 7l-82 107q-8 11 -8 22zM28 185q0 91 58 152.5t148 61.5q72 0 112 -47t40 -115q0 -15 -57 -15q-5 0 -110 2.5t-113 2.5q-3 -7 -3 -33q0 -74 43 -118t100 -44q23 0 45 6.5 t36.5 16.5t25.5 19.5t17.5 16t7.5 6.5q2 0 11 -7.5t9 -9.5t-8 -12.5t-24 -25t-36 -28t-49 -23t-58 -9.5q-92 0 -143.5 56t-51.5 147zM108 255q0 -5 9 -5q57 0 157 4q37 1 37 4q0 61 -28.5 87t-60.5 26q-45 0 -78 -37.5t-36 -78.5z" />
<glyph unicode="&#xe9;" horiz-adv-x="424" d="M210 451q0 3 2 7l49 130q10 27 33 27q18 0 28.5 -9.5t10.5 -23.5q0 -11 -8 -22l-82 -107q-5 -7 -10 -7h-16q-7 0 -7 5zM28 185q0 91 58 152.5t148 61.5q72 0 112 -47t40 -115q0 -15 -57 -15q-5 0 -110 2.5t-113 2.5q-3 -7 -3 -33q0 -74 43 -118t100 -44q23 0 45 6.5 t36.5 16.5t25.5 19.5t17.5 16t7.5 6.5q2 0 11 -7.5t9 -9.5t-8 -12.5t-24 -25t-36 -28t-49 -23t-58 -9.5q-92 0 -143.5 56t-51.5 147zM108 255q0 -5 9 -5q57 0 157 4q37 1 37 4q0 61 -28.5 87t-60.5 26q-45 0 -78 -37.5t-36 -78.5z" />
<glyph unicode="&#xea;" horiz-adv-x="424" d="M114 459q0 3 5 10l79 119q7 10 9.5 12t10.5 2h21q7 0 9.5 -2t9.5 -12l79 -119q5 -7 5 -10t-9 -3h-12q-1 0 -10 7l-81 70h-4l-81 -70q-7 -7 -10 -7h-12q-9 0 -9 3zM28 185q0 91 58 152.5t148 61.5q72 0 112 -47t40 -115q0 -15 -57 -15q-5 0 -110 2.5t-113 2.5 q-3 -7 -3 -33q0 -74 43 -118t100 -44q23 0 45 6.5t36.5 16.5t25.5 19.5t17.5 16t7.5 6.5q2 0 11 -7.5t9 -9.5t-8 -12.5t-24 -25t-36 -28t-49 -23t-58 -9.5q-92 0 -143.5 56t-51.5 147zM108 255q0 -5 9 -5q57 0 157 4q37 1 37 4q0 61 -28.5 87t-60.5 26q-45 0 -78 -37.5 t-36 -78.5z" />
<glyph unicode="&#xeb;" horiz-adv-x="424" d="M94 533q0 26 20.5 42t42.5 16q19 0 32 -10.5t13 -32.5q0 -26 -20 -42.5t-44 -16.5q-18 0 -31 11.5t-13 32.5zM254 533q0 26 20.5 42t42.5 16q19 0 32 -10.5t13 -32.5q0 -26 -20 -42.5t-44 -16.5q-18 0 -31 11.5t-13 32.5zM28 185q0 91 58 152.5t148 61.5q72 0 112 -47 t40 -115q0 -15 -57 -15q-5 0 -110 2.5t-113 2.5q-3 -7 -3 -33q0 -74 43 -118t100 -44q23 0 45 6.5t36.5 16.5t25.5 19.5t17.5 16t7.5 6.5q2 0 11 -7.5t9 -9.5t-8 -12.5t-24 -25t-36 -28t-49 -23t-58 -9.5q-92 0 -143.5 56t-51.5 147zM108 255q0 -5 9 -5q57 0 157 4 q37 1 37 4q0 61 -28.5 87t-60.5 26q-45 0 -78 -37.5t-36 -78.5z" />
<glyph unicode="&#xec;" horiz-adv-x="249" d="M10 582q0 14 10.5 23.5t28.5 9.5q23 0 33 -27l49 -130q2 -4 2 -7q0 -5 -7 -5h-16q-5 0 -10 7l-82 107q-8 11 -8 22zM20 354q0 4 5 17q4 10 19 10q24 1 51.5 2t43.5 2t18 1q7 0 8.5 -2t1.5 -7v-170q0 -179 5 -179h43q8 0 10 -3t2 -13q0 -17 -12 -17q-9 0 -41 1t-45 1 t-48 -1t-44 -1q-8 0 -10 3.5t-2 13.5q0 9 2.5 12.5t12.5 3.5h50q3 0 3 97q0 117 -4 214q0 7 -2 10t-3.5 3h-6.5q-1 0 -23.5 -1t-24.5 -1q-9 0 -9 4z" />
<glyph unicode="&#xed;" horiz-adv-x="249" d="M97 451q0 3 2 7l49 130q10 27 33 27q18 0 28.5 -9.5t10.5 -23.5q0 -11 -8 -22l-82 -107q-5 -7 -10 -7h-16q-7 0 -7 5zM20 354q0 4 5 17q4 10 19 10q24 1 51.5 2t43.5 2t18 1q7 0 8.5 -2t1.5 -7v-170q0 -179 5 -179h43q8 0 10 -3t2 -13q0 -17 -12 -17q-9 0 -41 1t-45 1 t-48 -1t-44 -1q-8 0 -10 3.5t-2 13.5q0 9 2.5 12.5t12.5 3.5h50q3 0 3 97q0 117 -4 214q0 7 -2 10t-3.5 3h-6.5q-1 0 -23.5 -1t-24.5 -1q-9 0 -9 4z" />
<glyph unicode="&#xee;" horiz-adv-x="249" d="M1 459q0 3 5 10l79 119q7 10 9.5 12t10.5 2h21q8 0 10 -2t9 -12l79 -119q5 -7 5 -10t-9 -3h-12q-1 0 -10 7l-81 70h-4l-81 -70q-7 -7 -10 -7h-12q-9 0 -9 3zM20 354q0 4 5 17q4 10 19 10q24 1 51.5 2t43.5 2t18 1q7 0 8.5 -2t1.5 -7v-170q0 -179 5 -179h43q8 0 10 -3 t2 -13q0 -17 -12 -17q-9 0 -41 1t-45 1t-48 -1t-44 -1q-8 0 -10 3.5t-2 13.5q0 9 2.5 12.5t12.5 3.5h50q3 0 3 97q0 117 -4 214q0 7 -2 10t-3.5 3h-6.5q-1 0 -23.5 -1t-24.5 -1q-9 0 -9 4z" />
<glyph unicode="&#xef;" horiz-adv-x="249" d="M-9 533q0 26 20.5 42t42.5 16q19 0 32 -10.5t13 -32.5q0 -26 -20 -42.5t-44 -16.5q-18 0 -31 11.5t-13 32.5zM131 533q0 26 20.5 42t42.5 16q19 0 32 -10.5t13 -32.5q0 -26 -20 -42.5t-44 -16.5q-18 0 -31 11.5t-13 32.5zM20 354q0 4 5 17q4 10 19 10q24 1 51.5 2t43.5 2 t18 1q7 0 8.5 -2t1.5 -7v-170q0 -179 5 -179h43q8 0 10 -3t2 -13q0 -17 -12 -17q-9 0 -41 1t-45 1t-48 -1t-44 -1q-8 0 -10 3.5t-2 13.5q0 9 2.5 12.5t12.5 3.5h50q3 0 3 97q0 117 -4 214q0 7 -2 10t-3.5 3h-6.5q-1 0 -23.5 -1t-24.5 -1q-9 0 -9 4z" />
<glyph unicode="&#xf0;" horiz-adv-x="438" d="M27 183q0 96 53.5 155.5t137.5 59.5q43 0 75 -17q10 -5 10.5 -1.5t-5.5 15.5q-32 73 -66 120q-3 4 -10 2l-43.5 -11.5l-48.5 -12.5t-21 -5q-4 0 -9 11t-5 15q0 1 106 30q7 2 3 7q-1 0 -1 1q-50 62 -101 101q-9 5 -9 8q0 5 11 5h44q23 0 106 -99q6 -6 6 -6.5t9 1.5 q90 25 96 25q4 0 10 -10t6 -14q0 -1 -96 -27q-5 -1 -2 -6q52 -70 90 -160.5t38 -172.5q0 -94 -52.5 -154.5t-138.5 -60.5q-82 0 -137.5 57.5t-55.5 143.5zM106 192q0 -72 30.5 -125t88.5 -53q113 0 113 179q0 73 -27.5 123.5t-86.5 50.5q-56 0 -87 -48t-31 -127z" />
<glyph unicode="&#xf1;" horiz-adv-x="514" d="M164 498q0 8 8 27q11 28 27.5 42.5t31.5 14.5q18 0 47.5 -19t40.5 -19q24 0 34 33q2 7 3.5 8t7.5 1q13 0 13 -4q0 -10 -7 -29q-23 -60 -63 -60q-19 0 -46.5 18.5t-41.5 18.5q-22 0 -32 -29q-1 -5 -1.5 -5.5t-3 -1.5t-8.5 -1q-10 0 -10 5zM20 348q0 4 6 19q2 7 4 8t12 2 q6 0 50.5 3t60.5 4q9 1 11 -1.5t2 -9.5v-3v-34q0 -8 6 -3q3 2 5 3q2 2 18 12.5t23.5 14.5t23 11t31 10t33.5 3q43 0 71 -13.5t41.5 -40.5t18.5 -56t5 -70q0 -33 -2.5 -100t-2.5 -70q0 -7 1 -8t7 -1h30q10 0 13.5 -3t3.5 -13q0 -17 -15 -17q-8 0 -33.5 1t-41.5 1 q-12 0 -41.5 -1t-45.5 -1q-11 0 -13 3t-2 13q0 17 16 17h43q6 0 6 184q0 60 -20.5 93.5t-72.5 33.5q-32 0 -88 -28q-16 -9 -16 -20q0 -41 -0.5 -123.5t-0.5 -123.5q0 -12 1.5 -14t8.5 -2h38q10 0 12 -3.5t2 -12.5q0 -17 -13 -17q-8 0 -38 1t-46 1q-12 0 -43.5 -1t-47.5 -1 q-9 0 -11 3.5t-2 13.5q0 16 13 16h45q8 0 8 209q0 68 -2 99q0 6 -1.5 8.5t-3 2.5h-3.5h-3t-27.5 -2t-28.5 -2q-5 0 -5 5z" />
<glyph unicode="&#xf2;" horiz-adv-x="446" d="M125 582q0 14 10.5 23.5t28.5 9.5q23 0 33 -27l49 -130q2 -4 2 -7q0 -5 -7 -5h-16q-5 0 -10 7l-82 107q-8 11 -8 22zM27 183q0 91 58 153.5t150 62.5q82 0 133 -58.5t51 -143.5q0 -95 -53.5 -155t-146.5 -60q-81 0 -136.5 59t-55.5 142zM104 169q0 -61 31 -108t84 -47 q122 0 122 190q0 62 -31 112.5t-87 50.5q-119 0 -119 -198z" />
<glyph unicode="&#xf3;" horiz-adv-x="446" d="M212 451q0 3 2 7l49 130q10 27 33 27q18 0 28.5 -9.5t10.5 -23.5q0 -11 -8 -22l-82 -107q-5 -7 -10 -7h-16q-7 0 -7 5zM27 183q0 91 58 153.5t150 62.5q82 0 133 -58.5t51 -143.5q0 -95 -53.5 -155t-146.5 -60q-81 0 -136.5 59t-55.5 142zM104 169q0 -61 31 -108t84 -47 q122 0 122 190q0 62 -31 112.5t-87 50.5q-119 0 -119 -198z" />
<glyph unicode="&#xf4;" horiz-adv-x="446" d="M116 459q0 3 5 10l79 119q7 10 9.5 12t10.5 2h21q7 0 9.5 -2t9.5 -12l79 -119q5 -7 5 -10t-9 -3h-12q-1 0 -10 7l-81 70h-4l-81 -70q-7 -7 -10 -7h-12q-9 0 -9 3zM27 183q0 91 58 153.5t150 62.5q82 0 133 -58.5t51 -143.5q0 -95 -53.5 -155t-146.5 -60q-81 0 -136.5 59 t-55.5 142zM104 169q0 -61 31 -108t84 -47q122 0 122 190q0 62 -31 112.5t-87 50.5q-119 0 -119 -198z" />
<glyph unicode="&#xf5;" horiz-adv-x="446" d="M122 498q0 8 8 27q11 28 27.5 42.5t31.5 14.5q18 0 47.5 -19t40.5 -19q24 0 34 33q2 7 3.5 8t7.5 1q13 0 13 -4q0 -10 -7 -29q-23 -60 -63 -60q-19 0 -46.5 18.5t-41.5 18.5q-22 0 -32 -29q-1 -5 -1.5 -5.5t-3 -1.5t-8.5 -1q-10 0 -10 5zM27 183q0 91 58 153.5t150 62.5 q82 0 133 -58.5t51 -143.5q0 -95 -53.5 -155t-146.5 -60q-81 0 -136.5 59t-55.5 142zM104 169q0 -61 31 -108t84 -47q122 0 122 190q0 62 -31 112.5t-87 50.5q-119 0 -119 -198z" />
<glyph unicode="&#xf6;" horiz-adv-x="446" d="M96 533q0 26 20.5 42t42.5 16q19 0 32 -10.5t13 -32.5q0 -26 -20 -42.5t-44 -16.5q-18 0 -31 11.5t-13 32.5zM256 533q0 26 20.5 42t42.5 16q19 0 32 -10.5t13 -32.5q0 -26 -20 -42.5t-44 -16.5q-18 0 -31 11.5t-13 32.5zM27 183q0 91 58 153.5t150 62.5q82 0 133 -58.5 t51 -143.5q0 -95 -53.5 -155t-146.5 -60q-81 0 -136.5 59t-55.5 142zM104 169q0 -61 31 -108t84 -47q122 0 122 190q0 62 -31 112.5t-87 50.5q-119 0 -119 -198z" />
<glyph unicode="&#xf7;" horiz-adv-x="527" d="M28 212q0 12 3.5 17.5t17.5 5.5h431q9 0 13 -3.5t5 -8t1 -12.5q0 -15 -4 -20.5t-20 -5.5h-427q-14 0 -17 6t-3 21zM209 320q0 18 13.5 31t31.5 13t30.5 -12.5t12.5 -30.5t-13 -31t-31 -13t-31 12.5t-13 30.5zM214 101q0 18 13 30.5t31 12.5t31 -13t13 -31t-12.5 -30.5 t-30.5 -12.5t-31.5 13t-13.5 31z" />
<glyph unicode="&#xf8;" horiz-adv-x="446" d="M27 183q0 91 58 153.5t150 62.5q31 0 68 -13q7 -2 9 2l39 67q1 3 5 3q5 0 14 -6q10 -7 7 -12l-38 -66q-3 -5 -1 -7q81 -57 81 -170q0 -95 -53.5 -155t-146.5 -60q-48 0 -89 22q-4 2 -6 -3l-37 -64q-4 -4 -5 -4q-3 0 -12.5 5.5t-9.5 8.5l2 6l38 66q2 4 -3 8 q-70 59 -70 156zM104 169q0 -51 23 -94q3 -5 5 0l153 265q1 1 1 3q0 4 -4 5q-28 19 -59 19q-119 0 -119 -198zM152 41q30 -27 67 -27q66 0 93.5 55t27.5 135q0 62 -28 110q-4 6 -7 0l-153 -265q-3 -5 0 -8z" />
<glyph unicode="&#xf9;" horiz-adv-x="510" d="M135 582q0 14 10.5 23.5t28.5 9.5q23 0 33 -27l49 -130q2 -4 2 -7q0 -5 -7 -5h-16q-5 0 -10 7l-82 107q-8 11 -8 22zM11 357q0 7 4 17q3 8 14 9h4q88 4 114 4q6 0 6 -9v-272q0 -64 108 -64q28 0 58 4t30 9v118q0 183 -8 183q-5 0 -27 -1t-23 -1q-8 0 -8 3q0 12 2 18 q1 9 13 9q22 1 50.5 2t46 2t19.5 1q4 0 6 -0.5t3 -2t1 -2v-4.5q-1 -239 -1 -301q0 -37 3 -46.5t13 -9.5q1 0 21.5 3t22.5 3q6 0 6 -13q0 -12 -1.5 -14.5t-11.5 -3.5q-116 -17 -119 -17t-4.5 25.5t-2.5 25.5l-10 -4q-10 -5 -26.5 -12t-36 -14t-43.5 -11.5t-45 -4.5 q-66 0 -89 37.5t-23 98.5v157q0 74 -9 74q-1 0 -24 -0.5t-25 -0.5q-8 0 -8 5z" />
<glyph unicode="&#xfa;" horiz-adv-x="510" d="M222 451q0 3 2 7l49 130q10 27 33 27q18 0 28.5 -9.5t10.5 -23.5q0 -11 -8 -22l-82 -107q-5 -7 -10 -7h-16q-7 0 -7 5zM11 357q0 7 4 17q3 8 14 9h4q88 4 114 4q6 0 6 -9v-272q0 -64 108 -64q28 0 58 4t30 9v118q0 183 -8 183q-5 0 -27 -1t-23 -1q-8 0 -8 3q0 12 2 18 q1 9 13 9q22 1 50.5 2t46 2t19.5 1q4 0 6 -0.5t3 -2t1 -2v-4.5q-1 -239 -1 -301q0 -37 3 -46.5t13 -9.5q1 0 21.5 3t22.5 3q6 0 6 -13q0 -12 -1.5 -14.5t-11.5 -3.5q-116 -17 -119 -17t-4.5 25.5t-2.5 25.5l-10 -4q-10 -5 -26.5 -12t-36 -14t-43.5 -11.5t-45 -4.5 q-66 0 -89 37.5t-23 98.5v157q0 74 -9 74q-1 0 -24 -0.5t-25 -0.5q-8 0 -8 5z" />
<glyph unicode="&#xfb;" horiz-adv-x="510" d="M126 459q0 3 5 10l79 119q7 10 9.5 12t10.5 2h21q7 0 9.5 -2t9.5 -12l79 -119q5 -7 5 -10t-9 -3h-12q-1 0 -10 7l-81 70h-4l-81 -70q-7 -7 -10 -7h-12q-9 0 -9 3zM11 357q0 7 4 17q3 8 14 9h4q88 4 114 4q6 0 6 -9v-272q0 -64 108 -64q28 0 58 4t30 9v118q0 183 -8 183 q-5 0 -27 -1t-23 -1q-8 0 -8 3q0 12 2 18q1 9 13 9q22 1 50.5 2t46 2t19.5 1q4 0 6 -0.5t3 -2t1 -2v-4.5q-1 -239 -1 -301q0 -37 3 -46.5t13 -9.5q1 0 21.5 3t22.5 3q6 0 6 -13q0 -12 -1.5 -14.5t-11.5 -3.5q-116 -17 -119 -17t-4.5 25.5t-2.5 25.5l-10 -4q-10 -5 -26.5 -12 t-36 -14t-43.5 -11.5t-45 -4.5q-66 0 -89 37.5t-23 98.5v157q0 74 -9 74q-1 0 -24 -0.5t-25 -0.5q-8 0 -8 5z" />
<glyph unicode="&#xfc;" horiz-adv-x="510" d="M106 533q0 26 20.5 42t42.5 16q19 0 32 -10.5t13 -32.5q0 -26 -20 -42.5t-44 -16.5q-18 0 -31 11.5t-13 32.5zM266 533q0 26 20.5 42t42.5 16q19 0 32 -10.5t13 -32.5q0 -26 -20 -42.5t-44 -16.5q-18 0 -31 11.5t-13 32.5zM11 357q0 7 4 17q3 8 14 9h4q88 4 114 4 q6 0 6 -9v-272q0 -64 108 -64q28 0 58 4t30 9v118q0 183 -8 183q-5 0 -27 -1t-23 -1q-8 0 -8 3q0 12 2 18q1 9 13 9q22 1 50.5 2t46 2t19.5 1q4 0 6 -0.5t3 -2t1 -2v-4.5q-1 -239 -1 -301q0 -37 3 -46.5t13 -9.5q1 0 21.5 3t22.5 3q6 0 6 -13q0 -12 -1.5 -14.5t-11.5 -3.5 q-116 -17 -119 -17t-4.5 25.5t-2.5 25.5l-10 -4q-10 -5 -26.5 -12t-36 -14t-43.5 -11.5t-45 -4.5q-66 0 -89 37.5t-23 98.5v157q0 74 -9 74q-1 0 -24 -0.5t-25 -0.5q-8 0 -8 5z" />
<glyph unicode="&#xfd;" horiz-adv-x="467" d="M233 451q0 3 2 7l49 130q10 27 33 27q18 0 28.5 -9.5t10.5 -23.5q0 -11 -8 -22l-82 -107q-5 -7 -10 -7h-16q-7 0 -7 5zM22 368q0 17 13 17q6 0 33.5 -1t43.5 -1q22 0 52.5 1t35.5 1q16 0 16 -17q0 -16 -15 -16h-19q-23 0 -23 -7q0 -11 31.5 -97.5t57.5 -150.5 q14 -32 16 -32t14 32q71 208 80 241q1 4 1 8q0 6 -18 6h-35q-9 0 -11 3.5t-2 12.5q0 17 14 17q3 0 29 -1t38 -1q13 0 34 1t24 1q13 0 13 -17q0 -6 -0.5 -9t-3 -5t-8.5 -2h-15q-9 0 -12 -8q-38 -104 -133 -342q-1 -3 -7 -19.5t-15.5 -46t-17.5 -51.5q-21 -60 -38 -85 q-10 -15 -27 -36q-2 -2 -5 -6.5t-4 -5.5t-4 -4.5t-4.5 -4.5t-4 -3.5t-5.5 -4t-6.5 -3.5t-8.5 -4q-54 -26 -63 -26q-21 0 -21 23q0 16 20 44q9 12 29 19q4 2 18 6.5t22 7.5t19.5 8.5t18.5 12t10 14.5q44 109 44 120q0 7 -28 76l-72 173.5l-56 132.5q-4 9 -5.5 11t-6.5 2h-20 q-9 0 -11 3.5t-2 12.5z" />
<glyph unicode="&#xfe;" horiz-adv-x="498" d="M16 644q0 8 3 19q2 8 9 9h3q120 9 124 9q10 0 10 -18q1 -130 1 -297v-20q0 -10 13 0q1 0 1.5 1t1.5 1q54 38 110 38q84 0 129 -54t45 -138q0 -81 -58.5 -143.5t-153.5 -62.5q-19 0 -39.5 4t-32.5 8l-13 5q-2 0 -2 -13l3 -179q2 -64 5 -64h70q10 0 12 -3.5t2 -12.5 q0 -17 -14 -17q-8 0 -50 1t-58 1q-12 0 -48 -1t-52 -1q-13 0 -13 17q0 16 13 16h54q3 0 3 157l-1 204q0 417 -9 517q-1 8 -3 12t-3 4h-5q-3 0 -26.5 -2t-25.5 -2q-5 0 -5 5zM167 49q0 -12 29.5 -24t54.5 -12q64 0 100.5 54t36.5 120q0 71 -36 114.5t-91 43.5q-35 0 -63 -13 q-31 -16 -31 -26v-257z" />
<glyph unicode="&#xff;" horiz-adv-x="467" d="M117 533q0 26 20.5 42t42.5 16q19 0 32 -10.5t13 -32.5q0 -26 -20 -42.5t-44 -16.5q-18 0 -31 11.5t-13 32.5zM277 533q0 26 20.5 42t42.5 16q19 0 32 -10.5t13 -32.5q0 -26 -20 -42.5t-44 -16.5q-18 0 -31 11.5t-13 32.5zM22 368q0 17 13 17q6 0 33.5 -1t43.5 -1 q22 0 52.5 1t35.5 1q16 0 16 -17q0 -16 -15 -16h-19q-23 0 -23 -7q0 -11 31.5 -97.5t57.5 -150.5q14 -32 16 -32t14 32q71 208 80 241q1 4 1 8q0 6 -18 6h-35q-9 0 -11 3.5t-2 12.5q0 17 14 17q3 0 29 -1t38 -1q13 0 34 1t24 1q13 0 13 -17q0 -6 -0.5 -9t-3 -5t-8.5 -2h-15 q-9 0 -12 -8q-38 -104 -133 -342q-1 -3 -7 -19.5t-15.5 -46t-17.5 -51.5q-21 -60 -38 -85q-10 -15 -27 -36q-2 -2 -5 -6.5t-4 -5.5t-4 -4.5t-4.5 -4.5t-4 -3.5t-5.5 -4t-6.5 -3.5t-8.5 -4q-54 -26 -63 -26q-21 0 -21 23q0 16 20 44q9 12 29 19q4 2 18 6.5t22 7.5t19.5 8.5 t18.5 12t10 14.5q44 109 44 120q0 7 -28 76l-72 173.5l-56 132.5q-4 9 -5.5 11t-6.5 2h-20q-9 0 -11 3.5t-2 12.5z" />
<glyph unicode="&#x100;" horiz-adv-x="698" d="M266 788v23q0 11 10 11h191q9 0 9 -10v-25q0 -5 -0.5 -7t-2 -3t-6.5 -1h-191q-7 0 -8.5 2t-1.5 10zM27 15q0 10 3 12.5t15 2.5h30q6 0 144 329l106 246q4 10 17 26.5t19 29.5q13 29 22 29q10 0 12 -9l120 -337q113 -314 120 -314h35q7 0 9 -3t2 -13q0 -12 -2 -16t-9 -4 q-6 0 -41 1.5t-52 1.5q-16 0 -60 -1.5t-55 -1.5q-9 0 -11 4t-2 17q0 11 2.5 13t14.5 2h55q1 0 1 1q0 29 -70 224l-4 12t-3.5 4t-7.5 1h-202q-11 0 -14 -2.5t-7 -13.5q-80 -201 -81 -225l1 -1h77q8 0 10 -3t2 -13q0 -9 -0.5 -12.5t-3 -5.5t-8.5 -2q-1 0 -34.5 1.5t-59.5 1.5 q-24 0 -49 -1.5t-27 -1.5q-10 0 -12 3.5t-2 17.5zM234 305q0 -3 13 -3h179q9 0 9 4q0 2 -3 10l-83 243q-4 12 -5 12q-2 0 -7 -12l-98 -240q-5 -12 -5 -14z" />
<glyph unicode="&#x101;" horiz-adv-x="419" d="M96 518v23q0 7 1 9t7 2h193q9 0 9 -10v-25q0 -5 -0.5 -7t-2 -3t-6.5 -1h-193q-8 0 -8 12zM32 71q0 43 38 76t85 49t104 26q5 1 5 13q0 27 -0.5 42t-5 36t-13 32t-25 19t-40.5 8q-18 0 -31 -6q-19 -8 -24 -21t-5 -46q0 -15 -7 -20q-12 -9 -33 -19.5t-25 -10.5q-9 0 -9 19 q0 59 50 96.5t105 37.5q73 0 103.5 -34.5t30.5 -99.5q0 -29 -3 -113t-3 -91q0 -10 4 -16.5t8 -8.5t6 -2q5 0 23 13l17 12q4 0 10 -7.5t6 -12.5q0 -1 -51 -39q-32 -23 -42 -23q-9 0 -16 3t-11.5 9t-6.5 10t-4.5 13.5t-3.5 10.5q-2 6 -4 6.5t-7 -3.5q-74 -46 -124 -46 q-47 0 -74 24t-27 64zM108 99q0 -25 17 -45.5t45 -20.5q18 0 40.5 5.5t38 12t15.5 10.5v131q0 8 -3 8q-14 0 -61 -15q-92 -29 -92 -86z" />
<glyph unicode="&#x102;" horiz-adv-x="698" d="M265 832q0 9 1 9h22q1 0 2 -6t5 -15t11 -18t24 -15t41 -6q23 0 40 6t24.5 15t11 18t5 15t2.5 6h22q1 0 1 -9q0 -46 -27 -76t-79 -30t-79 30t-27 76zM27 15q0 10 3 12.5t15 2.5h30q6 0 144 329l106 246q4 10 17 26.5t19 29.5q13 29 22 29q10 0 12 -9l120 -337 q113 -314 120 -314h35q7 0 9 -3t2 -13q0 -12 -2 -16t-9 -4q-6 0 -41 1.5t-52 1.5q-16 0 -60 -1.5t-55 -1.5q-9 0 -11 4t-2 17q0 11 2.5 13t14.5 2h55q1 0 1 1q0 29 -70 224l-4 12t-3.5 4t-7.5 1h-202q-11 0 -14 -2.5t-7 -13.5q-80 -201 -81 -225l1 -1h77q8 0 10 -3t2 -13 q0 -9 -0.5 -12.5t-3 -5.5t-8.5 -2q-1 0 -34.5 1.5t-59.5 1.5q-24 0 -49 -1.5t-27 -1.5q-10 0 -12 3.5t-2 17.5zM234 305q0 -3 13 -3h179q9 0 9 4q0 2 -3 10l-83 243q-4 12 -5 12q-2 0 -7 -12l-98 -240q-5 -12 -5 -14z" />
<glyph unicode="&#x103;" horiz-adv-x="419" d="M95 579q0 10 2 10h21q1 0 2 -5.5t3.5 -14.5t5.5 -15q22 -40 72 -40t72 40q3 6 5.5 15l4 14.5t3.5 5.5h19q2 0 2 -9q0 -49 -27 -86.5t-79 -37.5t-79 37t-27 86zM32 71q0 43 38 76t85 49t104 26q5 1 5 13q0 27 -0.5 42t-5 36t-13 32t-25 19t-40.5 8q-18 0 -31 -6 q-19 -8 -24 -21t-5 -46q0 -15 -7 -20q-12 -9 -33 -19.5t-25 -10.5q-9 0 -9 19q0 59 50 96.5t105 37.5q73 0 103.5 -34.5t30.5 -99.5q0 -29 -3 -113t-3 -91q0 -10 4 -16.5t8 -8.5t6 -2q5 0 23 13l17 12q4 0 10 -7.5t6 -12.5q0 -1 -51 -39q-32 -23 -42 -23q-9 0 -16 3t-11.5 9 t-6.5 10t-4.5 13.5t-3.5 10.5q-2 6 -4 6.5t-7 -3.5q-74 -46 -124 -46q-47 0 -74 24t-27 64zM108 99q0 -25 17 -45.5t45 -20.5q18 0 40.5 5.5t38 12t15.5 10.5v131q0 8 -3 8q-14 0 -61 -15q-92 -29 -92 -86z" />
<glyph unicode="&#x104;" horiz-adv-x="698" d="M27 15q0 10 3 12.5t15 2.5h30q6 0 144 329l106 246q4 10 17 26.5t19 29.5q13 29 22 29q10 0 12 -9l120 -337q113 -314 120 -314h35q7 0 9 -3t2 -13q0 -12 -2 -16t-9 -4q-5 0 -38.5 1.5t-50.5 1.5q-7 0 -13 -6q-80 -84 -80 -158q0 -32 19.5 -54.5t41.5 -22.5t41 11t30 22 t14 11t8.5 -6.5t5.5 -9.5q0 -4 -15.5 -21t-49 -35t-69.5 -18q-34 0 -65 30t-31 66q0 33 16 64.5t37 54.5t55 56q8 7 12 11q-1 4 -5 4q-54 -2 -71 -2q-9 0 -11 4t-2 17q0 11 2.5 13t14.5 2h55q1 0 1 1q0 29 -70 224l-4 12t-3.5 4t-7.5 1h-202q-11 0 -14 -2.5t-7 -13.5 q-80 -201 -81 -225l1 -1h77q8 0 10 -3t2 -13q0 -9 -0.5 -12.5t-3 -5.5t-8.5 -2q-1 0 -34.5 1.5t-59.5 1.5q-24 0 -49 -1.5t-27 -1.5q-10 0 -12 3.5t-2 17.5zM234 305q0 -3 13 -3h179q9 0 9 4q0 2 -3 10l-83 243q-4 12 -5 12q-2 0 -7 -12l-98 -240q-5 -12 -5 -14z" />
<glyph unicode="&#x105;" horiz-adv-x="419" d="M32 71q0 43 38 76t85 49t104 26q5 1 5 13q0 27 -0.5 42t-5 36t-13 32t-25 19t-40.5 8q-18 0 -31 -6q-19 -8 -24 -21t-5 -46q0 -15 -7 -20q-12 -9 -33 -19.5t-25 -10.5q-9 0 -9 19q0 59 50 96.5t105 37.5q73 0 103.5 -34.5t30.5 -99.5q0 -29 -3 -113t-3 -91q0 -9 4.5 -18 t13.5 -9q5 0 23 13l17 12q4 0 10 -7.5t6 -12.5q0 -1 -49 -38q-36 -27 -56.5 -44t-45.5 -54t-25 -73q0 -32 19.5 -54.5t41.5 -22.5t41 11t30 22t14 11t8.5 -6.5t5.5 -9.5q0 -4 -15.5 -21t-49 -35t-69.5 -18q-34 0 -65 30t-31 66q0 76 127 175q5 5 0 10q-11 11 -16 36 q-2 8 -8 4q-2 -2 -3 -2q-74 -46 -124 -46q-47 0 -74 24t-27 64zM108 99q0 -25 17 -45.5t45 -20.5q18 0 40.5 5.5t38 12t15.5 10.5v131q0 8 -3 8q-14 0 -61 -15q-92 -29 -92 -86z" />
<glyph unicode="&#x106;" horiz-adv-x="731" d="M380 729q0 1 4 9l53 86q17 26 37 26q16 0 24.5 -8t8.5 -20q0 -16 -15 -29l-72 -60l-4 -3q-3 -4 -6 -4h-24q-6 0 -6 3zM42 335q0 156 102.5 252t257.5 96q21 0 42.5 -2.5t37.5 -6.5t33.5 -10.5t28 -11.5t24 -13t19 -11.5t15.5 -10.5l9 -7q12 -9 12 1v27q0 10 3.5 13 t14.5 3q23 0 23 -16q0 -5 -2 -86.5t-2 -111.5q0 -9 -4 -11.5t-15 -2.5q-14 0 -18 2.5t-4 10.5q0 1 2 44t2 48q0 8 -28 34.5t-84.5 54t-115.5 27.5q-107 0 -176 -89t-69 -225q0 -126 80 -216.5t194 -90.5q51 0 98 15t70 29.5t24 20.5l13 116q3 15 14 15q1 0 5 -0.5t6 -0.5 q15 -1 15 -11q0 -14 -16 -138q-2 -12 -38 -33t-98.5 -39.5t-120.5 -18.5q-71 0 -133.5 21.5t-112.5 63.5t-79 111.5t-29 157.5z" />
<glyph unicode="&#x107;" horiz-adv-x="412" d="M213 451q0 3 2 7l49 130q10 27 33 27q18 0 28.5 -9.5t10.5 -23.5q0 -11 -8 -22l-82 -107q-5 -7 -10 -7h-16q-7 0 -7 5zM32 177q0 105 64 165t145 60q51 0 93.5 -29.5t42.5 -69.5q0 -13 -11 -22q-18 -14 -32 -14q-16 0 -20 13q-2 7 -7 22l-7.5 22t-8 17.5t-12.5 15 t-18 8.5t-26 4q-59 0 -95.5 -52t-36.5 -115q0 -67 39.5 -116t111.5 -49q31 0 59.5 7.5t44.5 15.5l17 7q10 0 10 -11q0 -5 -18.5 -20.5t-58.5 -32t-84 -16.5q-89 0 -140.5 51.5t-51.5 138.5z" />
<glyph unicode="&#x108;" horiz-adv-x="731" d="M280 730l6 9l79 89q13 14 18 14h24q7 0 18 -14l79 -89q6 -6 6 -9q0 -4 -7 -4h-12q-3 0 -13 6l-80 45q-3 1 -6 0l-80 -45q-10 -6 -13 -6h-12q-7 0 -7 4zM42 335q0 156 102.5 252t257.5 96q21 0 42.5 -2.5t37.5 -6.5t33.5 -10.5t28 -11.5t24 -13t19 -11.5t15.5 -10.5l9 -7 q12 -9 12 1v27q0 10 3.5 13t14.5 3q23 0 23 -16q0 -5 -2 -86.5t-2 -111.5q0 -9 -4 -11.5t-15 -2.5q-14 0 -18 2.5t-4 10.5q0 1 2 44t2 48q0 8 -28 34.5t-84.5 54t-115.5 27.5q-107 0 -176 -89t-69 -225q0 -126 80 -216.5t194 -90.5q51 0 98 15t70 29.5t24 20.5l13 116 q3 15 14 15q1 0 5 -0.5t6 -0.5q15 -1 15 -11q0 -14 -16 -138q-2 -12 -38 -33t-98.5 -39.5t-120.5 -18.5q-71 0 -133.5 21.5t-112.5 63.5t-79 111.5t-29 157.5z" />
<glyph unicode="&#x109;" horiz-adv-x="412" d="M117 459q0 3 5 10l79 119q7 10 9.5 12t10.5 2h21q8 0 10 -2t9 -12l79 -119q5 -7 5 -10t-9 -3h-12q-1 0 -10 7l-81 70h-4l-81 -70q-7 -7 -10 -7h-12q-9 0 -9 3zM32 177q0 105 64 165t145 60q51 0 93.5 -29.5t42.5 -69.5q0 -13 -11 -22q-18 -14 -32 -14q-16 0 -20 13 q-2 7 -7 22l-7.5 22t-8 17.5t-12.5 15t-18 8.5t-26 4q-59 0 -95.5 -52t-36.5 -115q0 -67 39.5 -116t111.5 -49q31 0 59.5 7.5t44.5 15.5l17 7q10 0 10 -11q0 -5 -18.5 -20.5t-58.5 -32t-84 -16.5q-89 0 -140.5 51.5t-51.5 138.5z" />
<glyph unicode="&#x10a;" horiz-adv-x="731" d="M341 783q0 26 20.5 42t42.5 16q19 0 32 -10.5t13 -32.5q0 -26 -20 -42.5t-44 -16.5q-18 0 -31 11.5t-13 32.5zM42 335q0 156 102.5 252t257.5 96q21 0 42.5 -2.5t37.5 -6.5t33.5 -10.5t28 -11.5t24 -13t19 -11.5t15.5 -10.5l9 -7q12 -9 12 1v27q0 10 3.5 13t14.5 3 q23 0 23 -16q0 -5 -2 -86.5t-2 -111.5q0 -9 -4 -11.5t-15 -2.5q-14 0 -18 2.5t-4 10.5q0 1 2 44t2 48q0 8 -28 34.5t-84.5 54t-115.5 27.5q-107 0 -176 -89t-69 -225q0 -126 80 -216.5t194 -90.5q51 0 98 15t70 29.5t24 20.5l13 116q3 15 14 15q1 0 5 -0.5t6 -0.5 q15 -1 15 -11q0 -14 -16 -138q-2 -12 -38 -33t-98.5 -39.5t-120.5 -18.5q-71 0 -133.5 21.5t-112.5 63.5t-79 111.5t-29 157.5z" />
<glyph unicode="&#x10b;" horiz-adv-x="412" d="M177 533q0 26 20.5 42t42.5 16q19 0 32 -10.5t13 -32.5q0 -26 -20 -42.5t-44 -16.5q-18 0 -31 11.5t-13 32.5zM32 177q0 105 64 165t145 60q51 0 93.5 -29.5t42.5 -69.5q0 -13 -11 -22q-18 -14 -32 -14q-16 0 -20 13q-2 7 -7 22l-7.5 22t-8 17.5t-12.5 15t-18 8.5t-26 4 q-59 0 -95.5 -52t-36.5 -115q0 -67 39.5 -116t111.5 -49q31 0 59.5 7.5t44.5 15.5l17 7q10 0 10 -11q0 -5 -18.5 -20.5t-58.5 -32t-84 -16.5q-89 0 -140.5 51.5t-51.5 138.5z" />
<glyph unicode="&#x10c;" horiz-adv-x="731" d="M280 838q0 4 7 4h12q3 0 13 -6l80 -45q3 -1 6 0l80 45q10 6 13 6h12q7 0 7 -4l-6 -9l-79 -89q-13 -14 -18 -14h-24q-7 0 -18 14l-79 89q-6 6 -6 9zM42 335q0 156 102.5 252t257.5 96q21 0 42.5 -2.5t37.5 -6.5t33.5 -10.5t28 -11.5t24 -13t19 -11.5t15.5 -10.5l9 -7 q12 -9 12 1v27q0 10 3.5 13t14.5 3q23 0 23 -16q0 -5 -2 -86.5t-2 -111.5q0 -9 -4 -11.5t-15 -2.5q-14 0 -18 2.5t-4 10.5q0 1 2 44t2 48q0 8 -28 34.5t-84.5 54t-115.5 27.5q-107 0 -176 -89t-69 -225q0 -126 80 -216.5t194 -90.5q51 0 98 15t70 29.5t24 20.5l13 116 q3 15 14 15q1 0 5 -0.5t6 -0.5q15 -1 15 -11q0 -14 -16 -138q-2 -12 -38 -33t-98.5 -39.5t-120.5 -18.5q-71 0 -133.5 21.5t-112.5 63.5t-79 111.5t-29 157.5z" />
<glyph unicode="&#x10d;" horiz-adv-x="412" d="M117 599q0 3 9 3h12q1 0 10 -7l81 -70h4l81 70q7 7 10 7h12q9 0 9 -3t-5 -10l-79 -119q-7 -10 -9.5 -12t-10.5 -2h-21q-8 0 -10 2t-9 12l-79 119q-5 7 -5 10zM32 177q0 105 64 165t145 60q51 0 93.5 -29.5t42.5 -69.5q0 -13 -11 -22q-18 -14 -32 -14q-16 0 -20 13 q-2 7 -7 22l-7.5 22t-8 17.5t-12.5 15t-18 8.5t-26 4q-59 0 -95.5 -52t-36.5 -115q0 -67 39.5 -116t111.5 -49q31 0 59.5 7.5t44.5 15.5l17 7q10 0 10 -11q0 -5 -18.5 -20.5t-58.5 -32t-84 -16.5q-89 0 -140.5 51.5t-51.5 138.5z" />
<glyph unicode="&#x10e;" horiz-adv-x="758" d="M227 838q0 4 7 4h12q3 0 13 -6l80 -45q3 -1 6 0l80 45q10 6 13 6h12q7 0 7 -4l-6 -9l-79 -89q-13 -14 -18 -14h-24q-7 0 -18 14l-79 89q-6 6 -6 9zM32 10q0 12 4.5 15t15.5 3h64q4 0 8 220.5t4 314.5q0 75 -2 75l-69 -2q-8 0 -11 2.5t-3 12.5q0 19 14 19h12t27.5 -0.5 t31.5 -0.5q41 0 114.5 6t89.5 6q167 0 275.5 -94t108.5 -252q0 -161 -104 -251.5t-254 -90.5q-30 0 -92 2t-93 2q-16 0 -70 -2t-57 -2q-9 0 -11.5 3.5t-2.5 13.5zM216 86q0 -57 1 -58q7 -3 55 -3q69 0 124 14t89.5 34t59.5 52t37 58.5t18.5 63t7.5 55.5t1 46q0 72 -35.5 140 t-105.5 114.5t-157 46.5q-63 0 -88 -6q-6 -2 -6 -143q-1 -137 -1 -414z" />
<glyph unicode="&#x10f;" horiz-adv-x="499" d="M455 491q0 3 2.5 27.5t5.5 60.5t5 54q3 36 38 36q15 0 25 -8.5t10 -23.5q0 -7 -3 -14l-51 -124q-7 -14 -11 -14h-15q-6 0 -6 6zM27 181q0 86 59 143.5t147 57.5q16 0 32 -2.5t28 -6t21.5 -7.5l15 -6.5t6.5 -2.5q3 0 3 14q0 62 -3.5 165.5t-7.5 103.5q-3 0 -33 -4.5 t-34 -4.5q-7 0 -4 18q2 14 5 15q2 1 4 1q27 3 60.5 7.5t54 7.5t27.5 3q5 0 5 -16q0 -7 -1.5 -65t-3 -169.5t-1.5 -248.5q0 -43 2 -115q1 -32 5 -42t17 -10q1 0 8 1t15.5 2.5t12.5 1.5q10 2 10 -6q0 -25 -9 -26q-118 -16 -123 -16q-8 0 -8 12q0 1 0.5 17.5t0.5 18.5 q0 8 -11 1q-63 -39 -121 -39q-76 0 -127.5 47.5t-51.5 149.5zM106 188q0 -73 36.5 -117t112.5 -44q22 0 53 10t31 20v250q0 6 -12.5 17t-35.5 21.5t-46 10.5q-62 0 -100.5 -49.5t-38.5 -118.5z" />
<glyph unicode="&#x110;" horiz-adv-x="758" d="M32 10q0 12 4.5 15t15.5 3h64q4 0 10 295q0 5 -8 5h-76q-5 0 -5 16q0 14 5 14h77q5 0 6 1t1 6q2 148 2 198q0 75 -2 75l-69 -2q-8 0 -11 2.5t-3 12.5q0 19 14 19h12t27.5 -0.5t31.5 -0.5q41 0 114.5 6t89.5 6q167 0 275.5 -94t108.5 -252q0 -161 -104 -251.5t-254 -90.5 q-30 0 -92 2t-93 2q-16 0 -70 -2t-57 -2q-9 0 -11.5 3.5t-2.5 13.5zM216 86q0 -57 1 -58q7 -3 55 -3q69 0 124 14t89.5 34t59.5 52t37 58.5t18.5 63t7.5 55.5t1 46q0 72 -35.5 140t-105.5 114.5t-157 46.5q-63 0 -88 -6q-6 -2 -6 -143q0 -22 -0.5 -67t-0.5 -68q0 -5 1 -6 t7 -1h209q5 0 5 -15t-5 -15h-208q-9 0 -9 -7v-235z" />
<glyph unicode="&#x111;" horiz-adv-x="499" d="M27 181q0 86 59 143.5t147 57.5q16 0 32 -2.5t28 -6t21.5 -7.5l15 -6.5t6.5 -2.5q3 0 3 14q0 22 -2 110q0 9 -10 9h-147q-6 0 -6 16q0 14 6 14h146q8 0 9 1t1 8q-4 111 -8 111q-3 0 -33 -4.5t-34 -4.5q-7 0 -4 18q2 14 5 15q2 1 4 1q27 3 60.5 7.5t54 7.5t27.5 3 q5 0 5 -16q0 -21 -3 -138q0 -7 1 -8t8 -1h52q6 0 6 -15t-6 -15h-52q-7 0 -8.5 -1t-1.5 -8q-2 -148 -2 -297q0 -43 2 -115q1 -32 5 -42t17 -10q1 0 8 1t15.5 2.5t12.5 1.5q10 2 10 -6q0 -25 -9 -26q-118 -16 -123 -16q-8 0 -8 12q0 1 0.5 17.5t0.5 18.5q0 8 -11 1 q-63 -39 -121 -39q-76 0 -127.5 47.5t-51.5 149.5zM106 188q0 -73 36.5 -117t112.5 -44q22 0 53 10t31 20v250q0 6 -12.5 17t-35.5 21.5t-46 10.5q-62 0 -100.5 -49.5t-38.5 -118.5z" />
<glyph unicode="&#x112;" horiz-adv-x="605" d="M211 788v23q0 11 10 11h191q9 0 9 -10v-25q0 -5 -0.5 -7t-2 -3t-6.5 -1h-191q-7 0 -8.5 2t-1.5 10zM37 15q0 10 4 12.5t16 2.5h61q4 0 4 72v96q0 31 -0.5 72t-1 78t-1 69.5t-1 53t-0.5 21.5q0 32 -1.5 65.5t-3.5 54.5t-4 21h-47q-10 0 -13.5 3t-3.5 15q0 17 13 17l44 -2 q44 -1 65 -1q29 0 130 1.5t122 1.5q47 0 53.5 1t7.5 9q1 7 2 9t4 4t10 2q12 0 16 -2.5t4 -11.5q0 -2 -2 -44t-2 -88q0 -7 -4 -9t-15 -2q-18 0 -18 15q0 1 1.5 35t1.5 42q0 7 -267 7q-6 0 -6 -125q0 -42 2 -142q0 -9 1.5 -11t7.5 -2h167q52 0 52 13v52q0 10 20 10q17 0 17 -9 q0 -1 -1 -30t-1 -50t1 -51t1 -34q0 -9 -16 -9q-21 0 -21 10v50q0 15 -52 15h-163h-3q-6 0 -8 -1.5t-2 -10.5q6 -273 11 -273q47 0 120.5 0.5t128.5 1.5t57 1q5 0 6.5 3t2.5 15v2q1 13 3 89q0 9 17 9q20 0 20 -10q0 -28 -1.5 -78t-1.5 -62q0 -14 -20 -14q-11 0 -185 1.5 t-190 1.5t-63.5 -1.5t-58.5 -1.5q-10 0 -13 4t-3 17z" />
<glyph unicode="&#x113;" horiz-adv-x="424" d="M123 518v23q0 7 1 9t7 2h193q9 0 9 -10v-25q0 -5 -0.5 -7t-2 -3t-6.5 -1h-193q-8 0 -8 12zM28 185q0 91 58 152.5t148 61.5q72 0 112 -47t40 -115q0 -15 -57 -15q-5 0 -110 2.5t-113 2.5q-3 -7 -3 -33q0 -74 43 -118t100 -44q23 0 45 6.5t36.5 16.5t25.5 19.5t17.5 16 t7.5 6.5q2 0 11 -7.5t9 -9.5t-8 -12.5t-24 -25t-36 -28t-49 -23t-58 -9.5q-92 0 -143.5 56t-51.5 147zM108 255q0 -5 9 -5q57 0 157 4q37 1 37 4q0 61 -28.5 87t-60.5 26q-45 0 -78 -37.5t-36 -78.5z" />
<glyph unicode="&#x114;" horiz-adv-x="605" d="M210 832q0 9 1 9h22q1 0 2 -6t5 -15t11 -18t24 -15t41 -6q23 0 40 6t24.5 15t11 18t5 15t2.5 6h22q1 0 1 -9q0 -46 -27 -76t-79 -30t-79 30t-27 76zM37 15q0 10 4 12.5t16 2.5h61q4 0 4 72v96q0 31 -0.5 72t-1 78t-1 69.5t-1 53t-0.5 21.5q0 32 -1.5 65.5t-3.5 54.5 t-4 21h-47q-10 0 -13.5 3t-3.5 15q0 17 13 17l44 -2q44 -1 65 -1q29 0 130 1.5t122 1.5q47 0 53.5 1t7.5 9q1 7 2 9t4 4t10 2q12 0 16 -2.5t4 -11.5q0 -2 -2 -44t-2 -88q0 -7 -4 -9t-15 -2q-18 0 -18 15q0 1 1.5 35t1.5 42q0 7 -267 7q-6 0 -6 -125q0 -42 2 -142 q0 -9 1.5 -11t7.5 -2h167q52 0 52 13v52q0 10 20 10q17 0 17 -9q0 -1 -1 -30t-1 -50t1 -51t1 -34q0 -9 -16 -9q-21 0 -21 10v50q0 15 -52 15h-163h-3q-6 0 -8 -1.5t-2 -10.5q6 -273 11 -273q47 0 120.5 0.5t128.5 1.5t57 1q5 0 6.5 3t2.5 15v2q1 13 3 89q0 9 17 9 q20 0 20 -10q0 -28 -1.5 -78t-1.5 -62q0 -14 -20 -14q-11 0 -185 1.5t-190 1.5t-63.5 -1.5t-58.5 -1.5q-10 0 -13 4t-3 17z" />
<glyph unicode="&#x115;" horiz-adv-x="424" d="M122 579q0 10 2 10h21q1 0 2 -5.5t3.5 -14.5t5.5 -15q22 -40 72 -40t72 40q3 6 5.5 15l4 14.5t3.5 5.5h19q2 0 2 -9q0 -49 -27 -86.5t-79 -37.5t-79 37t-27 86zM28 185q0 91 58 152.5t148 61.5q72 0 112 -47t40 -115q0 -15 -57 -15q-5 0 -110 2.5t-113 2.5q-3 -7 -3 -33 q0 -74 43 -118t100 -44q23 0 45 6.5t36.5 16.5t25.5 19.5t17.5 16t7.5 6.5q2 0 11 -7.5t9 -9.5t-8 -12.5t-24 -25t-36 -28t-49 -23t-58 -9.5q-92 0 -143.5 56t-51.5 147zM108 255q0 -5 9 -5q57 0 157 4q37 1 37 4q0 61 -28.5 87t-60.5 26q-45 0 -78 -37.5t-36 -78.5z" />
<glyph unicode="&#x116;" horiz-adv-x="605" d="M262 783q0 26 20.5 42t42.5 16q19 0 32 -10.5t13 -32.5q0 -26 -20 -42.5t-44 -16.5q-18 0 -31 11.5t-13 32.5zM37 15q0 10 4 12.5t16 2.5h61q4 0 4 72v96q0 31 -0.5 72t-1 78t-1 69.5t-1 53t-0.5 21.5q0 32 -1.5 65.5t-3.5 54.5t-4 21h-47q-10 0 -13.5 3t-3.5 15 q0 17 13 17l44 -2q44 -1 65 -1q29 0 130 1.5t122 1.5q47 0 53.5 1t7.5 9q1 7 2 9t4 4t10 2q12 0 16 -2.5t4 -11.5q0 -2 -2 -44t-2 -88q0 -7 -4 -9t-15 -2q-18 0 -18 15q0 1 1.5 35t1.5 42q0 7 -267 7q-6 0 -6 -125q0 -42 2 -142q0 -9 1.5 -11t7.5 -2h167q52 0 52 13v52 q0 10 20 10q17 0 17 -9q0 -1 -1 -30t-1 -50t1 -51t1 -34q0 -9 -16 -9q-21 0 -21 10v50q0 15 -52 15h-163h-3q-6 0 -8 -1.5t-2 -10.5q6 -273 11 -273q47 0 120.5 0.5t128.5 1.5t57 1q5 0 6.5 3t2.5 15v2q1 13 3 89q0 9 17 9q20 0 20 -10q0 -28 -1.5 -78t-1.5 -62 q0 -14 -20 -14q-11 0 -185 1.5t-190 1.5t-63.5 -1.5t-58.5 -1.5q-10 0 -13 4t-3 17z" />
<glyph unicode="&#x117;" horiz-adv-x="424" d="M174 533q0 26 20.5 42t42.5 16q19 0 32 -10.5t13 -32.5q0 -26 -20 -42.5t-44 -16.5q-18 0 -31 11.5t-13 32.5zM28 185q0 91 58 152.5t148 61.5q72 0 112 -47t40 -115q0 -15 -57 -15q-5 0 -110 2.5t-113 2.5q-3 -7 -3 -33q0 -74 43 -118t100 -44q23 0 45 6.5t36.5 16.5 t25.5 19.5t17.5 16t7.5 6.5q2 0 11 -7.5t9 -9.5t-8 -12.5t-24 -25t-36 -28t-49 -23t-58 -9.5q-92 0 -143.5 56t-51.5 147zM108 255q0 -5 9 -5q57 0 157 4q37 1 37 4q0 61 -28.5 87t-60.5 26q-45 0 -78 -37.5t-36 -78.5z" />
<glyph unicode="&#x118;" horiz-adv-x="605" d="M37 15q0 10 4 12.5t16 2.5h61q4 0 4 72v96q0 31 -0.5 72t-1 78t-1 69.5t-1 53t-0.5 21.5q0 32 -1.5 65.5t-3.5 54.5t-4 21h-47q-10 0 -13.5 3t-3.5 15q0 17 13 17l44 -2q44 -1 65 -1q29 0 130 1.5t122 1.5q47 0 53.5 1t7.5 9q1 7 2 9t4 4t10 2q12 0 16 -2.5t4 -11.5 q0 -2 -2 -44t-2 -88q0 -7 -4 -9t-15 -2q-18 0 -18 15q0 1 1.5 35t1.5 42q0 7 -267 7q-6 0 -6 -125q0 -42 2 -142q0 -9 1.5 -11t7.5 -2h167q52 0 52 13v52q0 10 20 10q17 0 17 -9q0 -1 -1 -30t-1 -50t1 -51t1 -34q0 -9 -16 -9q-21 0 -21 10v50q0 15 -52 15h-163h-3 q-6 0 -8 -1.5t-2 -10.5q6 -273 11 -273q47 0 120.5 0.5t128.5 1.5t57 1q5 0 6.5 3t2.5 15v2q1 13 3 89q0 9 17 9q20 0 20 -10q0 -28 -1.5 -78t-1.5 -62q0 -14 -20 -14h-69q-11 0 -19 -8q-75 -81 -75 -153q0 -32 19.5 -54.5t41.5 -22.5t41 11t30 22t14 11t8.5 -6.5t5.5 -9.5 q0 -4 -15.5 -21t-49 -35t-69.5 -18q-34 0 -65 30t-31 66q0 33 17 65.5t33 49.5t57 57l12 12q3 4 1.5 4.5t-6.5 0.5q-206 2 -256 2q-16 0 -63.5 -1.5t-58.5 -1.5q-10 0 -13 4t-3 17z" />
<glyph unicode="&#x119;" horiz-adv-x="424" d="M28 185q0 91 58 152.5t148 61.5q72 0 112 -47t40 -115q0 -15 -57 -15q-5 0 -110 2.5t-113 2.5q-3 -7 -3 -33q0 -74 43 -118t100 -44q23 0 45 6.5t36.5 16.5t25.5 19.5t17.5 16t7.5 6.5q2 0 11 -7.5t9 -9.5t-6 -9.5t-19 -20.5t-28 -25q-44 -36 -81 -88t-37 -104 q0 -32 19.5 -54.5t41.5 -22.5t41 11t30 22t14 11t8.5 -6.5t5.5 -9.5q0 -4 -15.5 -21t-49 -35t-69.5 -18q-34 0 -65 30t-31 66q0 16 2 30t8.5 27.5l11 22.5t18 24l19.5 21.5t25 25.5l27 27l3.5 3.5t-5.5 0.5q-21 -6 -43 -6q-92 0 -143.5 56t-51.5 147zM108 255q0 -5 9 -5 q57 0 157 4q37 1 37 4q0 61 -28.5 87t-60.5 26q-45 0 -78 -37.5t-36 -78.5z" />
<glyph unicode="&#x11a;" horiz-adv-x="605" d="M201 838q0 4 7 4h12q3 0 13 -6l80 -45q3 -1 6 0l80 45q10 6 13 6h12q7 0 7 -4l-6 -9l-79 -89q-13 -14 -18 -14h-24q-7 0 -18 14l-79 89q-6 6 -6 9zM37 15q0 10 4 12.5t16 2.5h61q4 0 4 72v96q0 31 -0.5 72t-1 78t-1 69.5t-1 53t-0.5 21.5q0 32 -1.5 65.5t-3.5 54.5t-4 21 h-47q-10 0 -13.5 3t-3.5 15q0 17 13 17l44 -2q44 -1 65 -1q29 0 130 1.5t122 1.5q47 0 53.5 1t7.5 9q1 7 2 9t4 4t10 2q12 0 16 -2.5t4 -11.5q0 -2 -2 -44t-2 -88q0 -7 -4 -9t-15 -2q-18 0 -18 15q0 1 1.5 35t1.5 42q0 7 -267 7q-6 0 -6 -125q0 -42 2 -142q0 -9 1.5 -11 t7.5 -2h167q52 0 52 13v52q0 10 20 10q17 0 17 -9q0 -1 -1 -30t-1 -50t1 -51t1 -34q0 -9 -16 -9q-21 0 -21 10v50q0 15 -52 15h-163h-3q-6 0 -8 -1.5t-2 -10.5q6 -273 11 -273q47 0 120.5 0.5t128.5 1.5t57 1q5 0 6.5 3t2.5 15v2q1 13 3 89q0 9 17 9q20 0 20 -10 q0 -28 -1.5 -78t-1.5 -62q0 -14 -20 -14q-11 0 -185 1.5t-190 1.5t-63.5 -1.5t-58.5 -1.5q-10 0 -13 4t-3 17z" />
<glyph unicode="&#x11b;" horiz-adv-x="424" d="M114 599q0 3 9 3h12q1 0 10 -7l81 -70h4l81 70q7 7 10 7h12q9 0 9 -3t-5 -10l-79 -119q-7 -10 -9.5 -12t-10.5 -2h-21q-7 0 -9.5 2t-9.5 12l-79 119q-5 7 -5 10zM28 185q0 91 58 152.5t148 61.5q72 0 112 -47t40 -115q0 -15 -57 -15q-5 0 -110 2.5t-113 2.5q-3 -7 -3 -33 q0 -74 43 -118t100 -44q23 0 45 6.5t36.5 16.5t25.5 19.5t17.5 16t7.5 6.5q2 0 11 -7.5t9 -9.5t-8 -12.5t-24 -25t-36 -28t-49 -23t-58 -9.5q-92 0 -143.5 56t-51.5 147zM108 255q0 -5 9 -5q57 0 157 4q37 1 37 4q0 61 -28.5 87t-60.5 26q-45 0 -78 -37.5t-36 -78.5z" />
<glyph unicode="&#x11c;" horiz-adv-x="764" d="M289 730l6 9l79 89q13 14 18 14h24q7 0 18 -14l79 -89q6 -6 6 -9q0 -4 -7 -4h-12q-3 0 -13 6l-80 45q-3 1 -6 0l-80 -45q-10 -6 -13 -6h-12q-7 0 -7 4zM42 335q0 162 104 253.5t262 91.5q117 0 203 -60q12 -9 12 1v25q0 10 3.5 13t14.5 3q12 0 17 -3t5 -13 q0 -2 -1.5 -78.5t-1.5 -106.5q0 -9 -4 -12t-15 -3q-14 0 -18 2.5t-4 10.5q0 1 2 39t2 43q0 8 -25 32t-79 49t-115 25q-108 0 -181 -90t-73 -224q0 -129 78.5 -223.5t195.5 -94.5q32 0 60 5t45.5 11.5t30 14.5t18.5 13.5t6 8.5q3 26 3 94q0 55 -7 55h-87q-11 0 -11 15 q0 21 10 21q14 0 64.5 -1.5t69.5 -1.5q28 0 57 1.5t33 1.5q11 0 11 -17q0 -19 -11 -19h-31q-10 0 -10 -55q0 -12 -0.5 -42t-0.5 -47q0 -12 -40 -34t-108 -41t-130 -19q-71 0 -133.5 21t-112.5 63t-79 112t-29 160z" />
<glyph unicode="&#x11d;" horiz-adv-x="425" d="M91 459q0 3 5 10l79 119q7 10 9.5 12t10.5 2h21q8 0 10 -2t9 -12l79 -119q5 -7 5 -10t-9 -3h-12q-1 0 -10 7l-81 70h-4l-81 -70q-7 -7 -10 -7h-12q-9 0 -9 3zM12 -173q0 44 37.5 72.5t85.5 41.5q2 1 6 2l6 3h-14h-36q-33 0 -43 21q-9 23 -9 49q0 31 20 35q104 26 104 28 q0 1 -9 3q-129 37 -129 164q0 65 54.5 108.5t124.5 43.5q34 0 63.5 -13t44.5 -25l16 -13q1 0 13 4.5t29.5 9t30.5 5.5q5 0 8.5 -11t3.5 -20t-6 -9q-55 -6 -55 -12q0 -1 3 -10.5t6 -26t3 -34.5q0 -61 -29.5 -97t-87.5 -58q-27 -11 -173 -52q-2 0 -2 -6q0 -5 2.5 -11.5 t5.5 -11t4 -4.5q18 -1 58 -2.5t64.5 -3t61 -5.5t59.5 -12.5t45.5 -21.5t33.5 -33.5t11 -48.5q0 -77 -62 -123t-161 -46q-71 0 -129.5 31.5t-58.5 88.5zM63 -166q0 -44 42.5 -69.5t93.5 -25.5q65 0 113 27.5t48 85.5q0 37 -53.5 57t-117.5 20q-42 0 -84 -26t-42 -69zM101 250 q0 -64 40.5 -108t65.5 -44q32 0 63.5 42t31.5 104q0 58 -26 90.5t-71 32.5q-42 0 -73 -34.5t-31 -82.5z" />
<glyph unicode="&#x11e;" horiz-adv-x="764" d="M298 832q0 9 1 9h22q1 0 2 -6t5 -15t11 -18t24 -15t41 -6q23 0 40 6t24.5 15t11 18t5 15t2.5 6h22q1 0 1 -9q0 -46 -27 -76t-79 -30t-79 30t-27 76zM42 335q0 162 104 253.5t262 91.5q117 0 203 -60q12 -9 12 1v25q0 10 3.5 13t14.5 3q12 0 17 -3t5 -13q0 -2 -1.5 -78.5 t-1.5 -106.5q0 -9 -4 -12t-15 -3q-14 0 -18 2.5t-4 10.5q0 1 2 39t2 43q0 8 -25 32t-79 49t-115 25q-108 0 -181 -90t-73 -224q0 -129 78.5 -223.5t195.5 -94.5q32 0 60 5t45.5 11.5t30 14.5t18.5 13.5t6 8.5q3 26 3 94q0 55 -7 55h-87q-11 0 -11 15q0 21 10 21 q14 0 64.5 -1.5t69.5 -1.5q28 0 57 1.5t33 1.5q11 0 11 -17q0 -19 -11 -19h-31q-10 0 -10 -55q0 -12 -0.5 -42t-0.5 -47q0 -12 -40 -34t-108 -41t-130 -19q-71 0 -133.5 21t-112.5 63t-79 112t-29 160z" />
<glyph unicode="&#x11f;" horiz-adv-x="425" d="M99 579q0 10 2 10h21q1 0 2 -5.5t3.5 -14.5t5.5 -15q22 -40 72 -40t72 40q3 6 5.5 15l4 14.5t3.5 5.5h19q2 0 2 -9q0 -49 -27 -86.5t-79 -37.5t-79 37t-27 86zM12 -173q0 44 37.5 72.5t85.5 41.5q2 1 6 2l6 3h-14h-36q-33 0 -43 21q-9 23 -9 49q0 31 20 35q104 26 104 28 q0 1 -9 3q-129 37 -129 164q0 65 54.5 108.5t124.5 43.5q34 0 63.5 -13t44.5 -25l16 -13q1 0 13 4.5t29.5 9t30.5 5.5q5 0 8.5 -11t3.5 -20t-6 -9q-55 -6 -55 -12q0 -1 3 -10.5t6 -26t3 -34.5q0 -61 -29.5 -97t-87.5 -58q-27 -11 -173 -52q-2 0 -2 -6q0 -5 2.5 -11.5 t5.5 -11t4 -4.5q18 -1 58 -2.5t64.5 -3t61 -5.5t59.5 -12.5t45.5 -21.5t33.5 -33.5t11 -48.5q0 -77 -62 -123t-161 -46q-71 0 -129.5 31.5t-58.5 88.5zM63 -166q0 -44 42.5 -69.5t93.5 -25.5q65 0 113 27.5t48 85.5q0 37 -53.5 57t-117.5 20q-42 0 -84 -26t-42 -69zM101 250 q0 -64 40.5 -108t65.5 -44q32 0 63.5 42t31.5 104q0 58 -26 90.5t-71 32.5q-42 0 -73 -34.5t-31 -82.5z" />
<glyph unicode="&#x120;" horiz-adv-x="764" d="M350 783q0 26 20.5 42t42.5 16q19 0 32 -10.5t13 -32.5q0 -26 -20 -42.5t-44 -16.5q-18 0 -31 11.5t-13 32.5zM42 335q0 162 104 253.5t262 91.5q117 0 203 -60q12 -9 12 1v25q0 10 3.5 13t14.5 3q12 0 17 -3t5 -13q0 -2 -1.5 -78.5t-1.5 -106.5q0 -9 -4 -12t-15 -3 q-14 0 -18 2.5t-4 10.5q0 1 2 39t2 43q0 8 -25 32t-79 49t-115 25q-108 0 -181 -90t-73 -224q0 -129 78.5 -223.5t195.5 -94.5q32 0 60 5t45.5 11.5t30 14.5t18.5 13.5t6 8.5q3 26 3 94q0 55 -7 55h-87q-11 0 -11 15q0 21 10 21q14 0 64.5 -1.5t69.5 -1.5q28 0 57 1.5 t33 1.5q11 0 11 -17q0 -19 -11 -19h-31q-10 0 -10 -55q0 -12 -0.5 -42t-0.5 -47q0 -12 -40 -34t-108 -41t-130 -19q-71 0 -133.5 21t-112.5 63t-79 112t-29 160z" />
<glyph unicode="&#x121;" horiz-adv-x="425" d="M151 533q0 26 20.5 42t42.5 16q19 0 32 -10.5t13 -32.5q0 -26 -20 -42.5t-44 -16.5q-18 0 -31 11.5t-13 32.5zM12 -173q0 44 37.5 72.5t85.5 41.5q2 1 6 2l6 3h-14h-36q-33 0 -43 21q-9 23 -9 49q0 31 20 35q104 26 104 28q0 1 -9 3q-129 37 -129 164q0 65 54.5 108.5 t124.5 43.5q34 0 63.5 -13t44.5 -25l16 -13q1 0 13 4.5t29.5 9t30.5 5.5q5 0 8.5 -11t3.5 -20t-6 -9q-55 -6 -55 -12q0 -1 3 -10.5t6 -26t3 -34.5q0 -61 -29.5 -97t-87.5 -58q-27 -11 -173 -52q-2 0 -2 -6q0 -5 2.5 -11.5t5.5 -11t4 -4.5q18 -1 58 -2.5t64.5 -3t61 -5.5 t59.5 -12.5t45.5 -21.5t33.5 -33.5t11 -48.5q0 -77 -62 -123t-161 -46q-71 0 -129.5 31.5t-58.5 88.5zM63 -166q0 -44 42.5 -69.5t93.5 -25.5q65 0 113 27.5t48 85.5q0 37 -53.5 57t-117.5 20q-42 0 -84 -26t-42 -69zM101 250q0 -64 40.5 -108t65.5 -44q32 0 63.5 42 t31.5 104q0 58 -26 90.5t-71 32.5q-42 0 -73 -34.5t-31 -82.5z" />
<glyph unicode="&#x122;" horiz-adv-x="764" d="M358 -225q0 1 15 11.5t30 25.5t15 28q0 16 -13.5 28.5t-27 21t-13.5 13.5q0 13 19.5 26t27.5 13q13 0 39.5 -20t26.5 -36q0 -32 -25 -64.5t-49.5 -49.5t-31.5 -17q-2 0 -7.5 8t-5.5 12zM42 335q0 162 104 253.5t262 91.5q117 0 203 -60q12 -9 12 1v25q0 10 3.5 13t14.5 3 q12 0 17 -3t5 -13q0 -2 -1.5 -78.5t-1.5 -106.5q0 -9 -4 -12t-15 -3q-14 0 -18 2.5t-4 10.5q0 1 2 39t2 43q0 8 -25 32t-79 49t-115 25q-108 0 -181 -90t-73 -224q0 -129 78.5 -223.5t195.5 -94.5q32 0 60 5t45.5 11.5t30 14.5t18.5 13.5t6 8.5q3 26 3 94q0 55 -7 55h-87 q-11 0 -11 15q0 21 10 21q14 0 64.5 -1.5t69.5 -1.5q28 0 57 1.5t33 1.5q11 0 11 -17q0 -19 -11 -19h-31q-10 0 -10 -55q0 -12 -0.5 -42t-0.5 -47q0 -12 -40 -34t-108 -41t-130 -19q-71 0 -133.5 21t-112.5 63t-79 112t-29 160z" />
<glyph unicode="&#x123;" horiz-adv-x="425" d="M145 502q0 32 25 64.5t49.5 49.5t31.5 17q2 0 7.5 -8t5.5 -12q0 -1 -15 -11.5t-30 -25.5t-15 -28q0 -16 13.5 -28.5t27 -21t13.5 -13.5q0 -13 -19.5 -26t-27.5 -13q-13 0 -39.5 20t-26.5 36zM12 -173q0 44 37.5 72.5t85.5 41.5q2 1 6 2l6 3h-14h-36q-33 0 -43 21 q-9 23 -9 49q0 31 20 35q104 26 104 28q0 1 -9 3q-129 37 -129 164q0 65 54.5 108.5t124.5 43.5q34 0 63.5 -13t44.5 -25l16 -13q1 0 13 4.5t29.5 9t30.5 5.5q5 0 8.5 -11t3.5 -20t-6 -9q-55 -6 -55 -12q0 -1 3 -10.5t6 -26t3 -34.5q0 -61 -29.5 -97t-87.5 -58 q-27 -11 -173 -52q-2 0 -2 -6q0 -5 2.5 -11.5t5.5 -11t4 -4.5q18 -1 58 -2.5t64.5 -3t61 -5.5t59.5 -12.5t45.5 -21.5t33.5 -33.5t11 -48.5q0 -77 -62 -123t-161 -46q-71 0 -129.5 31.5t-58.5 88.5zM63 -166q0 -44 42.5 -69.5t93.5 -25.5q65 0 113 27.5t48 85.5 q0 37 -53.5 57t-117.5 20q-42 0 -84 -26t-42 -69zM101 250q0 -64 40.5 -108t65.5 -44q32 0 63.5 42t31.5 104q0 58 -26 90.5t-71 32.5q-42 0 -73 -34.5t-31 -82.5z" />
<glyph unicode="&#x124;" horiz-adv-x="791" d="M287 730l6 9l79 89q13 14 18 14h24q7 0 18 -14l79 -89q6 -6 6 -9q0 -4 -7 -4h-12q-3 0 -13 6l-80 45q-3 1 -6 0l-80 -45q-10 -6 -13 -6h-12q-7 0 -7 4zM37 15q0 10 3 12.5t15 2.5h58q6 0 6 255v102q0 249 -5 249h-44q-11 0 -15.5 3t-4.5 15t4.5 15t15.5 3q5 0 37 -1.5 t56 -1.5t61.5 1.5t46.5 1.5q10 0 12.5 -4t2.5 -17q0 -10 -3.5 -12.5t-15.5 -2.5h-55q-5 0 -5 -131q0 -27 0.5 -73t0.5 -59q0 -11 1.5 -13t10.5 -2h365q9 0 10.5 1.5t1.5 10.5v122q0 144 -8 144h-57q-10 0 -13.5 3.5t-3.5 14.5q0 12 2.5 15t13.5 3q4 0 41.5 -1.5t65.5 -1.5 q25 0 60.5 1.5t36.5 1.5q10 0 12.5 -4t2.5 -17q0 -10 -3.5 -12.5t-15.5 -2.5h-44q-3 0 -3 -239q0 -367 4 -367h53q9 0 11 -3t2 -13q0 -12 -2 -16t-11 -4q-11 0 -45 1.5t-50 1.5t-59 -1.5t-54 -1.5q-10 0 -12.5 4t-2.5 17q0 10 3.5 12.5t15.5 2.5h55q5 0 5 162v124 q0 9 -1 10.5t-5 1.5h-374q-7 0 -8 -2t-1 -12q0 -284 9 -284h66q8 0 10 -3t2 -13q0 -9 -0.5 -12.5t-3 -5.5t-8.5 -2q-11 0 -53.5 1.5t-58.5 1.5t-62.5 -1.5t-57.5 -1.5q-10 0 -12 3.5t-2 17.5z" />
<glyph unicode="&#x125;" horiz-adv-x="503" d="M14 730l6 9l79 89q13 14 18 14h24q7 0 18 -14l79 -89q6 -6 6 -9q0 -4 -7 -4h-12q-3 0 -13 6l-80 45q-3 1 -6 0l-80 -45q-10 -6 -13 -6h-12q-7 0 -7 4zM7 641q0 18 7 19q128 18 147 18q8 0 8 -14q0 -1 -2 -50.5t-4 -124t-2 -135.5q0 -8 0.5 -8.5t6.5 2.5q73 40 134 40 q33 0 57 -12t37.5 -30t21.5 -47t10 -55.5t2 -63.5v-85q0 -67 3 -67h34q14 0 14 -16q0 -17 -14 -17q-8 0 -33 1t-41 1q-12 0 -42 -1t-46 -1q-10 0 -12 3.5t-2 13.5q0 16 12 16h48q5 0 5 184q0 57 -23.5 93t-69.5 36t-88 -21q-14 -7 -14 -12q1 -182 1 -192q0 -88 4 -88h46 q9 0 11 -3.5t2 -12.5q0 -17 -13 -17q-8 0 -39 1t-47 1q-12 0 -42 -1t-46 -1q-10 0 -12 3.5t-2 13.5q0 16 15 16h43q4 0 4 184q0 263 -8 407q0 7 -1 10t-1.5 3.5t-3.5 0.5q-1 0 -28.5 -3.5t-30.5 -3.5q-6 0 -6 15z" />
<glyph unicode="&#x126;" horiz-adv-x="791" d="M37 15q0 10 3 12.5t15 2.5h58q6 0 6 255v190q0 10 -10 10h-56q-6 0 -6 16q0 14 6 14h57q6 0 7 1t1 8q-2 112 -4 112h-44q-11 0 -15.5 3t-4.5 15t4.5 15t15.5 3q5 0 37 -1.5t56 -1.5t61.5 1.5t46.5 1.5q10 0 12.5 -4t2.5 -17q0 -10 -3.5 -12.5t-15.5 -2.5h-55 q-5 0 -5 -112q0 -6 1.5 -7.5t8.5 -1.5h368q9 0 10.5 1.5t1.5 10.5q-2 109 -8 109h-57q-10 0 -13.5 3.5t-3.5 14.5q0 12 2.5 15t13.5 3q4 0 41.5 -1.5t65.5 -1.5q25 0 60.5 1.5t36.5 1.5q10 0 12.5 -4t2.5 -17q0 -10 -3.5 -12.5t-15.5 -2.5h-44q-3 0 -3 -109q0 -9 1.5 -10.5 t10.5 -1.5h53q6 0 6 -15t-6 -15h-53q-8 0 -10 -1.5t-2 -9.5v-77q0 -367 4 -367h53q9 0 11 -3t2 -13q0 -12 -2 -16t-11 -4q-11 0 -45 1.5t-50 1.5t-59 -1.5t-54 -1.5q-10 0 -12.5 4t-2.5 17q0 10 3.5 12.5t15.5 2.5h55q5 0 5 162v124q0 9 -1 10.5t-5 1.5h-374q-7 0 -8 -2 t-1 -12q0 -284 9 -284h66q8 0 10 -3t2 -13q0 -9 -0.5 -12.5t-3 -5.5t-8.5 -2q-11 0 -53.5 1.5t-58.5 1.5t-62.5 -1.5t-57.5 -1.5q-10 0 -12 3.5t-2 17.5zM207 475q0 -22 0.5 -57t0.5 -45q0 -11 1.5 -13t10.5 -2h365q9 0 10.5 1.5t1.5 10.5v104q0 8 -1.5 9.5t-10.5 1.5h-368 q-10 0 -10 -10z" />
<glyph unicode="&#x127;" horiz-adv-x="503" d="M7 641q0 18 7 19q128 18 147 18q8 0 8 -14q0 -2 -1 -21t-2 -52.5l-2 -66.5q0 -7 1.5 -8t7.5 -1h138q6 0 6 -15t-6 -15h-138q-4 0 -5.5 -0.5t-3 -2.5t-1.5 -7q-2 -78 -2 -121q0 -8 0.5 -8.5t6.5 2.5q73 40 134 40q33 0 57 -12t37.5 -30t21.5 -47t10 -55.5t2 -63.5v-85 q0 -67 3 -67h34q14 0 14 -16q0 -17 -14 -17q-8 0 -33 1t-41 1q-12 0 -42 -1t-46 -1q-10 0 -12 3.5t-2 13.5q0 16 12 16h48q5 0 5 184q0 57 -23.5 93t-69.5 36t-88 -21q-14 -7 -14 -12q1 -182 1 -192q0 -88 4 -88h46q9 0 11 -3.5t2 -12.5q0 -17 -13 -17q-8 0 -39 1t-47 1 q-12 0 -42 -1t-46 -1q-10 0 -12 3.5t-2 13.5q0 16 15 16h43q4 0 4 184q0 132 -3 263q0 10 -8 10h-60q-6 0 -6 16q0 14 6 14h60q7 0 7 9l-2.5 57.5t-1.5 37.5q0 7 -1 10t-1.5 3.5t-3.5 0.5q-1 0 -28.5 -3.5t-30.5 -3.5q-6 0 -6 15z" />
<glyph unicode="&#x128;" horiz-adv-x="333" d="M60 748q0 8 8 27q11 28 27.5 42.5t31.5 14.5q18 0 47.5 -19t40.5 -19q24 0 34 33q2 7 3.5 8t7.5 1q13 0 13 -4q0 -10 -7 -29q-23 -60 -63 -60q-19 0 -46.5 18.5t-41.5 18.5q-22 0 -32 -29q-1 -5 -1.5 -5.5t-3 -1.5t-8.5 -1q-10 0 -10 5zM27 15q0 10 4 12.5t17 2.5h66 q9 0 9 364v98q0 31 -1.5 65.5t-3.5 56.5t-3 22h-66q-10 0 -14 3t-4 15t3.5 15t14.5 3q3 0 47 -1.5t78 -1.5q26 0 68 1.5t50 1.5q9 0 11.5 -4t2.5 -17q0 -10 -3 -12.5t-15 -2.5h-65q-9 0 -9 -155v-135q0 -316 9 -316h69q9 0 11.5 -3.5t2.5 -12.5q0 -12 -2.5 -16t-11.5 -4 q-4 0 -48.5 1.5t-71.5 1.5q-29 0 -74.5 -1.5t-53.5 -1.5q-10 0 -13.5 4t-3.5 17z" />
<glyph unicode="&#x129;" horiz-adv-x="249" d="M7 498q0 8 8 27q11 28 27.5 42.5t31.5 14.5q18 0 47.5 -19t40.5 -19q24 0 34 33q2 7 3 8t8 1q13 0 13 -4q0 -10 -7 -29q-23 -60 -63 -60q-19 0 -46.5 18.5t-41.5 18.5q-22 0 -32 -29q-1 -5 -1.5 -5.5t-3 -1.5t-8.5 -1q-10 0 -10 5zM20 354q0 4 5 17q4 10 19 10 q24 1 51.5 2t43.5 2t18 1q7 0 8.5 -2t1.5 -7v-170q0 -179 5 -179h43q8 0 10 -3t2 -13q0 -17 -12 -17q-9 0 -41 1t-45 1t-48 -1t-44 -1q-8 0 -10 3.5t-2 13.5q0 9 2.5 12.5t12.5 3.5h50q3 0 3 97q0 117 -4 214q0 7 -2 10t-3.5 3h-6.5q-1 0 -23.5 -1t-24.5 -1q-9 0 -9 4z" />
<glyph unicode="&#x12a;" horiz-adv-x="333" d="M63 788v23q0 11 10 11h191q9 0 9 -10v-25q0 -5 -0.5 -7t-2 -3t-6.5 -1h-191q-7 0 -8.5 2t-1.5 10zM27 15q0 10 4 12.5t17 2.5h66q9 0 9 364v98q0 31 -1.5 65.5t-3.5 56.5t-3 22h-66q-10 0 -14 3t-4 15t3.5 15t14.5 3q3 0 47 -1.5t78 -1.5q26 0 68 1.5t50 1.5q9 0 11.5 -4 t2.5 -17q0 -10 -3 -12.5t-15 -2.5h-65q-9 0 -9 -155v-135q0 -316 9 -316h69q9 0 11.5 -3.5t2.5 -12.5q0 -12 -2.5 -16t-11.5 -4q-4 0 -48.5 1.5t-71.5 1.5q-29 0 -74.5 -1.5t-53.5 -1.5q-10 0 -13.5 4t-3.5 17z" />
<glyph unicode="&#x12b;" horiz-adv-x="249" d="M10 518v23q0 7 1 9t7 2h193q9 0 9 -10v-25q0 -5 -0.5 -7t-2 -3t-6.5 -1h-193q-8 0 -8 12zM20 354q0 4 5 17q4 10 19 10q24 1 51.5 2t43.5 2t18 1q7 0 8.5 -2t1.5 -7v-170q0 -179 5 -179h43q8 0 10 -3t2 -13q0 -17 -12 -17q-9 0 -41 1t-45 1t-48 -1t-44 -1q-8 0 -10 3.5 t-2 13.5q0 9 2.5 12.5t12.5 3.5h50q3 0 3 97q0 117 -4 214q0 7 -2 10t-3.5 3h-6.5q-1 0 -23.5 -1t-24.5 -1q-9 0 -9 4z" />
<glyph unicode="&#x12c;" horiz-adv-x="333" d="M62 832q0 9 1 9h22q1 0 2 -6t5 -15t11 -18t24 -15t41 -6q23 0 40 6t24.5 15t11 18t5 15t2.5 6h22q1 0 1 -9q0 -46 -27 -76t-79 -30t-79 30t-27 76zM27 15q0 10 4 12.5t17 2.5h66q9 0 9 364v98q0 31 -1.5 65.5t-3.5 56.5t-3 22h-66q-10 0 -14 3t-4 15t3.5 15t14.5 3 q3 0 47 -1.5t78 -1.5q26 0 68 1.5t50 1.5q9 0 11.5 -4t2.5 -17q0 -10 -3 -12.5t-15 -2.5h-65q-9 0 -9 -155v-135q0 -316 9 -316h69q9 0 11.5 -3.5t2.5 -12.5q0 -12 -2.5 -16t-11.5 -4q-4 0 -48.5 1.5t-71.5 1.5q-29 0 -74.5 -1.5t-53.5 -1.5q-10 0 -13.5 4t-3.5 17z" />
<glyph unicode="&#x12d;" horiz-adv-x="249" d="M9 579q0 10 2 10h21q1 0 2 -5.5t3.5 -14.5t5.5 -15q22 -40 72 -40t72 40q3 6 5.5 15l4 14.5t3.5 5.5h19q2 0 2 -9q0 -49 -27 -86.5t-79 -37.5t-79 37t-27 86zM20 354q0 4 5 17q4 10 19 10q24 1 51.5 2t43.5 2t18 1q7 0 8.5 -2t1.5 -7v-170q0 -179 5 -179h43q8 0 10 -3 t2 -13q0 -17 -12 -17q-9 0 -41 1t-45 1t-48 -1t-44 -1q-8 0 -10 3.5t-2 13.5q0 9 2.5 12.5t12.5 3.5h50q3 0 3 97q0 117 -4 214q0 7 -2 10t-3.5 3h-6.5q-1 0 -23.5 -1t-24.5 -1q-9 0 -9 4z" />
<glyph unicode="&#x12e;" horiz-adv-x="333" d="M27 15q0 10 4 12.5t17 2.5h66q9 0 9 364v98q0 31 -1.5 65.5t-3.5 56.5t-3 22h-66q-10 0 -14 3t-4 15t3.5 15t14.5 3q3 0 47 -1.5t78 -1.5q26 0 68 1.5t50 1.5q9 0 11.5 -4t2.5 -17q0 -10 -3 -12.5t-15 -2.5h-65q-9 0 -9 -155v-135q0 -316 9 -316h69q9 0 11.5 -3.5 t2.5 -12.5q0 -12 -2.5 -16t-11.5 -4q-8 0 -74 2q-10 0 -14 -4q-81 -85 -81 -159q0 -32 19.5 -54.5t41.5 -22.5t41 11t30 22t14 11t8.5 -6.5t5.5 -9.5q0 -4 -15.5 -21t-49 -35t-69.5 -18q-34 0 -65 30t-31 66q0 12 1.5 23.5t6.5 23.5t7.5 19.5t12.5 20.5t13.5 18.5t18 20 t18 18.5t21.5 21.5l21 20.5q1 5 -1 5q-29 0 -74.5 -1.5t-53.5 -1.5q-10 0 -13.5 4t-3.5 17z" />
<glyph unicode="&#x12f;" horiz-adv-x="249" d="M20 354q0 4 5 17q4 10 19 10q24 1 51.5 2t43.5 2t18 1q7 0 8.5 -2t1.5 -7v-170q0 -179 5 -179h43q8 0 10 -3t2 -13q0 -17 -12 -17q-19 0 -65 2q-6 0 -10 -7q-45 -73 -45 -157q0 -78 58 -78q18 0 31 6.5t20 12.5t9 6q3 0 8.5 -6.5t5.5 -9.5q0 -5 -12.5 -17t-42 -24.5 t-64.5 -12.5q-31 0 -54.5 27t-23.5 61q0 66 81 193q4 6 -4 6q-50 -2 -70 -2q-8 0 -10 3.5t-2 13.5q0 9 2.5 12.5t12.5 3.5h50q3 0 3 97q0 117 -4 214q0 7 -2 10t-3.5 3h-6.5q-1 0 -23.5 -1t-24.5 -1q-9 0 -9 4zM74 553q0 26 20.5 42t42.5 16q19 0 32 -10.5t13 -32.5 q0 -26 -20 -42.5t-44 -16.5q-18 0 -31 11.5t-13 32.5z" />
<glyph unicode="&#x130;" horiz-adv-x="333" d="M114 783q0 26 20.5 42t42.5 16q19 0 32 -10.5t13 -32.5q0 -26 -20 -42.5t-44 -16.5q-18 0 -31 11.5t-13 32.5zM27 15q0 10 4 12.5t17 2.5h66q9 0 9 364v98q0 31 -1.5 65.5t-3.5 56.5t-3 22h-66q-10 0 -14 3t-4 15t3.5 15t14.5 3q3 0 47 -1.5t78 -1.5q26 0 68 1.5t50 1.5 q9 0 11.5 -4t2.5 -17q0 -10 -3 -12.5t-15 -2.5h-65q-9 0 -9 -155v-135q0 -316 9 -316h69q9 0 11.5 -3.5t2.5 -12.5q0 -12 -2.5 -16t-11.5 -4q-4 0 -48.5 1.5t-71.5 1.5q-29 0 -74.5 -1.5t-53.5 -1.5q-10 0 -13.5 4t-3.5 17z" />
<glyph unicode="&#x131;" horiz-adv-x="249" d="M20 354q0 4 5 17q4 10 19 10q24 1 51.5 2t43.5 2t18 1q7 0 8.5 -2t1.5 -7v-170q0 -179 5 -179h43q8 0 10 -3t2 -13q0 -17 -12 -17q-9 0 -41 1t-45 1t-48 -1t-44 -1q-8 0 -10 3.5t-2 13.5q0 9 2.5 12.5t12.5 3.5h50q3 0 3 97q0 117 -4 214q0 7 -2 10t-3.5 3h-6.5 q-1 0 -23.5 -1t-24.5 -1q-9 0 -9 4z" />
<glyph unicode="&#x132;" horiz-adv-x="666" d="M300 -188q0 24 29 45.5t41 21.5q9 0 25.5 -10.5t26.5 -10.5q24 0 30.5 31t6.5 106v497q0 144 -9 144h-66q-11 0 -15.5 3t-4.5 15t4.5 15t15.5 3q4 0 50.5 -1.5t75.5 -1.5q24 0 61 1.5t43 1.5q10 0 12.5 -4t2.5 -17q0 -10 -3.5 -12.5t-15.5 -2.5h-51q-5 0 -5 -266v-240 q0 -84 -17 -154t-70 -126q-19 -20 -32 -31.5t-35 -22.5t-44 -11q-20 0 -38 7.5t-18 19.5zM27 15q0 10 4 12.5t17 2.5h66q9 0 9 364v98q0 31 -1.5 65.5t-3.5 56.5t-3 22h-66q-10 0 -14 3t-4 15t3.5 15t14.5 3q3 0 47 -1.5t78 -1.5q26 0 68 1.5t50 1.5q9 0 11.5 -4t2.5 -17 q0 -10 -3 -12.5t-15 -2.5h-65q-9 0 -9 -155v-135q0 -316 9 -316h69q9 0 11.5 -3.5t2.5 -12.5q0 -12 -2.5 -16t-11.5 -4q-4 0 -48.5 1.5t-71.5 1.5q-29 0 -74.5 -1.5t-53.5 -1.5q-10 0 -13.5 4t-3.5 17z" />
<glyph unicode="&#x133;" horiz-adv-x="541" d="M251 -255q0 17 15.5 36.5t26.5 19.5q12 0 33 -2t24 -2q35 0 35 30q0 9 -2.5 56.5t-4.5 145t-2 229.5q0 49 -2 76q-1 8 -2 9.5t-4 1.5t-34 -1.5t-36 -1.5q-7 0 -7 4q0 7 3 18t8 11q25 1 59 2.5l55.5 2.5t22.5 1q10 0 10 -22v-4q0 -40 2.5 -149.5t2.5 -178.5 q0 -90 -11 -146t-44 -99q-14 -18 -58.5 -39t-67.5 -21q-22 0 -22 23zM326 580q0 26 20.5 42t42.5 16q19 0 32 -10.5t13 -32.5q0 -26 -20 -42.5t-44 -16.5q-18 0 -31 11.5t-13 32.5zM20 354q0 4 5 17q4 10 19 10q24 1 51.5 2t43.5 2t18 1q7 0 8.5 -2t1.5 -7v-170 q0 -179 5 -179h43q8 0 10 -3t2 -13q0 -17 -12 -17q-9 0 -41 1t-45 1t-48 -1t-44 -1q-8 0 -10 3.5t-2 13.5q0 9 2.5 12.5t12.5 3.5h50q3 0 3 97q0 117 -4 214q0 7 -2 10t-3.5 3h-6.5q-1 0 -23.5 -1t-24.5 -1q-9 0 -9 4zM74 553q0 26 20.5 42t42.5 16q19 0 32 -10.5t13 -32.5 q0 -26 -20 -42.5t-44 -16.5q-18 0 -31 11.5t-13 32.5z" />
<glyph unicode="&#x134;" horiz-adv-x="333" d="M52 730l6 9l79 89q13 14 18 14h24q7 0 18 -14l79 -89q6 -6 6 -9q0 -4 -7 -4h-12q-3 0 -13 6l-80 45q-3 1 -6 0l-80 -45q-10 -6 -13 -6h-12q-7 0 -7 4zM-33 -188q0 24 29 45.5t41 21.5q9 0 25.5 -10.5t26.5 -10.5q24 0 30.5 31t6.5 106v497q0 144 -9 144h-66 q-11 0 -15.5 3t-4.5 15t4.5 15t15.5 3q4 0 50.5 -1.5t75.5 -1.5q23 0 61 1.5t43 1.5q10 0 12.5 -4t2.5 -17q0 -10 -3.5 -12.5t-15.5 -2.5h-51q-5 0 -5 -266v-240q0 -84 -17 -154t-70 -126q-19 -20 -32 -31.5t-35 -22.5t-44 -11q-20 0 -38 7.5t-18 19.5z" />
<glyph unicode="&#x135;" horiz-adv-x="292" d="M23 459q0 3 5 10l79 119q7 10 9.5 12t10.5 2h21q8 0 10 -2t9 -12l79 -119q5 -7 5 -10t-9 -3h-12q-1 0 -10 7l-81 70h-4l-81 -70q-7 -7 -10 -7h-12q-9 0 -9 3zM2 -255q0 17 15.5 36.5t26.5 19.5q12 0 33 -2t24 -2q35 0 35 30q0 9 -2 56.5t-4.5 145t-2.5 229.5q0 49 -2 76 q-1 8 -2 9.5t-4 1.5t-34 -1.5t-36 -1.5q-7 0 -7 4q0 7 3 18t8 11q25 1 59 2.5l55.5 2.5t22.5 1q10 0 10 -22v-4q0 -40 2.5 -149.5t2.5 -178.5q0 -90 -11 -146t-44 -99q-14 -18 -58.5 -39t-67.5 -21q-22 0 -22 23z" />
<glyph unicode="&#x136;" horiz-adv-x="650" d="M278 -225q0 1 15 11.5t30 25.5t15 28q0 16 -13.5 28.5t-27 21t-13.5 13.5q0 13 19.5 26t27.5 13q13 0 39.5 -20t26.5 -36q0 -32 -25 -64.5t-49.5 -49.5t-31.5 -17q-2 0 -7.5 8t-5.5 12zM37 15q0 10 4 12.5t17 2.5h53q7 0 7 167v290q0 144 -6 144h-46q-11 0 -15.5 3 t-4.5 15t4.5 15t15.5 3q5 0 43 -1.5t62 -1.5q16 0 56.5 1.5t51.5 1.5q10 0 12.5 -4t2.5 -17q0 -10 -3.5 -12.5t-15.5 -2.5h-55q-5 0 -8.5 -54.5t-3.5 -100.5v-125q0 -8 0.5 -11t2.5 -4.5t7 -1.5h22q9 0 54.5 56l106.5 137l66 88q12 16 -4 16h-40q-11 0 -15.5 3t-4.5 15 t4.5 15t15.5 3q5 0 35.5 -1.5t52.5 -1.5q21 0 50 1.5t33 1.5q10 0 12 -3.5t2 -17.5q0 -10 -3 -12.5t-15 -2.5h-48q-2 0 -218 -257l-2 -2q-4 -7 -1 -10q4 -3 6 -6l269 -310q14 -16 29 -16h16q8 0 10 -3t2 -13q0 -9 -0.5 -12.5t-3 -5.5t-8.5 -2q-11 0 -48.5 1.5t-53.5 1.5 t-54 -1.5t-49 -1.5q-10 0 -12 3.5t-2 17.5q0 10 3.5 12.5t14.5 2.5h33q5 0 7.5 0.5t2 3t-1.5 4t-5 5.5l-217 257q-6 7 -20 7h-19q-9 0 -10.5 -1.5t-1.5 -9.5q0 -266 9 -266h72q9 0 11.5 -3.5t2.5 -12.5q0 -12 -2 -16t-11 -4q-11 0 -58 1.5t-63 1.5t-61 -1.5t-56 -1.5 q-10 0 -12.5 4t-2.5 17z" />
<glyph unicode="&#x137;" horiz-adv-x="449" d="M170 -225q0 1 15 11.5t30 25.5t15 28q0 16 -13.5 28.5t-27 21t-13.5 13.5q0 13 19.5 26t27.5 13q13 0 39.5 -20t26.5 -36q0 -32 -25 -64.5t-49.5 -49.5t-31.5 -17q-2 0 -7.5 8t-5.5 12zM6 649v11q0 13 12 14q127 10 137 10q6 0 7 -2.5t1 -10.5v-3l-11 -446q0 -7 2 -8.5 t11 -1.5h22q12 0 27 21q48 63 78 113q3 5 3 7.5t-2 3t-8 0.5h-24q-9 0 -11 3.5t-2 12.5q0 17 14 17q3 0 25 -1t37 -1q14 0 35 1t27 1q12 0 12 -17q0 -16 -13 -16h-32q-6 0 -108 -122q-6 -8 -6.5 -10t3.5 -6q2 -2 3 -4l151 -175q10 -12 20 -12h12q10 0 12 -3t2 -13t-2 -13.5 t-12 -3.5q-6 0 -30.5 1t-38.5 1t-39.5 -1t-31.5 -1q-9 0 -11 3.5t-2 13.5q0 16 13 16h13q5 0 6.5 1t0.5 3t-4 6l-110 136q-9 11 -12 13.5t-10 2.5h-12q-8 0 -8 -13v-84q0 -65 2 -65h32q9 0 11 -4t2 -15q0 -14 -13 -14q-8 0 -31.5 1t-39.5 1q-19 0 -50 -1t-34 -1 q-9 0 -11 3.5t-2 13.5q0 6 0.5 9t3 5t8.5 2h44q6 0 7 2t1 13v193q0 406 -8 406q-1 0 -26.5 -1.5t-30.5 -1.5q-7 0 -9 1.5t-2 8.5z" />
<glyph unicode="&#x138;" horiz-adv-x="449" d="M8 347q0 12 4 20q3 8 7 9q2 1 7 1q96 6 110 7q6 0 9.5 -0.5t4.5 -2.5t1.5 -4t0.5 -7v-148q0 -7 2 -8.5t11 -1.5h22q12 0 27 21q48 63 78 113q3 5 3 7.5t-2 3t-8 0.5h-24q-9 0 -11 3.5t-2 12.5q0 17 14 17q3 0 25 -1t37 -1q14 0 35 1t27 1q12 0 12 -17q0 -16 -13 -16h-32 q-6 0 -108 -122q-6 -8 -6.5 -10t3.5 -6q2 -2 3 -4l151 -175q10 -12 20 -12h12q10 0 12 -3t2 -13t-2 -13.5t-12 -3.5q-6 0 -30.5 1t-38.5 1t-39.5 -1t-31.5 -1q-9 0 -11 3.5t-2 13.5q0 16 13 16h13q5 0 6.5 1t0.5 3t-4 6l-110 136q-9 11 -12 13.5t-10 2.5h-12q-8 0 -8 -13 v-84q0 -65 2 -65h32q9 0 11 -4t2 -15q0 -14 -13 -14q-8 0 -31.5 1t-39.5 1q-19 0 -50 -1t-34 -1q-9 0 -11 3.5t-2 13.5q0 6 0.5 9t3 5t8.5 2h45q6 0 6.5 1.5t0.5 13.5v119q0 115 -4 174q-1 10 -1.5 10.5t-7.5 0.5q-1 0 -28 -2t-29 -2q-4 0 -4 4z" />
<glyph unicode="&#x139;" horiz-adv-x="592" d="M157 729q0 1 4 9l53 86q17 26 37 26q16 0 24.5 -8t8.5 -20q0 -16 -15 -29l-72 -60l-3 -3q-4 -4 -7 -4h-24q-6 0 -6 3zM37 15q0 10 4 12.5t16 2.5h60q8 0 8 289v231q0 86 -5 86h-59q-11 0 -14 3.5t-3 14.5q0 12 4 15t16 3q6 0 51 -1.5t62 -1.5q16 0 62.5 1.5t57.5 1.5 q12 0 15 -3t3 -15q0 -10 -3.5 -14t-15.5 -4h-70q-8 0 -8 -212v-277q0 -113 6 -113q226 0 292 6q15 1 17 5q1 4 3 15l12 86q2 11 14 9q23 -2 23 -12q0 -4 -4.5 -31l-9.5 -60t-7 -44q-1 -9 -5.5 -11.5t-19.5 -2.5q-11 0 -179.5 1.5t-184.5 1.5t-63.5 -1.5t-58.5 -1.5 q-10 0 -13 4t-3 17z" />
<glyph unicode="&#x13a;" horiz-adv-x="257" d="M101 729q0 1 4 9l53 86q17 26 37 26q16 0 24.5 -8t8.5 -20q0 -16 -15 -29l-72 -60l-3 -3q-4 -4 -7 -4h-24q-6 0 -6 3zM16 644q0 8 3 19q2 8 9 9h3q120 9 124 9q10 0 10 -18q1 -160 3.5 -332t2.5 -267q0 -36 5 -36h43q8 0 10 -3t2 -13q0 -7 -0.5 -10t-3 -5t-8.5 -2 q-8 0 -37.5 1t-45.5 1q-12 0 -46 -1t-50 -1q-13 0 -13 17q0 16 12 16h51q5 0 5 82q0 395 -11 517q-1 8 -3 12t-3 4h-5q-3 0 -26.5 -2t-25.5 -2q-5 0 -5 5z" />
<glyph unicode="&#x13b;" horiz-adv-x="592" d="M274 -225q0 1 15 11.5t30 25.5t15 28q0 16 -13.5 28.5t-27 21t-13.5 13.5q0 13 19.5 26t27.5 13q13 0 39.5 -20t26.5 -36q0 -32 -25 -64.5t-49.5 -49.5t-31.5 -17q-2 0 -7.5 8t-5.5 12zM37 15q0 10 4 12.5t16 2.5h60q8 0 8 289v231q0 86 -5 86h-59q-11 0 -14 3.5t-3 14.5 q0 12 4 15t16 3q6 0 51 -1.5t62 -1.5q16 0 62.5 1.5t57.5 1.5q12 0 15 -3t3 -15q0 -10 -3.5 -14t-15.5 -4h-70q-8 0 -8 -212v-277q0 -113 6 -113q226 0 292 6q15 1 17 5q1 4 3 15l12 86q2 11 14 9q23 -2 23 -12q0 -4 -4.5 -31l-9.5 -60t-7 -44q-1 -9 -5.5 -11.5t-19.5 -2.5 q-11 0 -179.5 1.5t-184.5 1.5t-63.5 -1.5t-58.5 -1.5q-10 0 -13 4t-3 17z" />
<glyph unicode="&#x13c;" horiz-adv-x="257" d="M79 -225q0 1 15 11.5t30 25.5t15 28q0 16 -13.5 28.5t-27 21t-13.5 13.5q0 13 19.5 26t27.5 13q13 0 39.5 -20t26.5 -36q0 -32 -25 -64.5t-49.5 -49.5t-31.5 -17q-2 0 -7.5 8t-5.5 12zM16 644q0 8 3 19q2 8 9 9h3q120 9 124 9q10 0 10 -18q1 -160 3.5 -332t2.5 -267 q0 -36 5 -36h43q8 0 10 -3t2 -13q0 -7 -0.5 -10t-3 -5t-8.5 -2q-8 0 -37.5 1t-45.5 1q-12 0 -46 -1t-50 -1q-13 0 -13 17q0 16 12 16h51q5 0 5 82q0 395 -11 517q-1 8 -3 12t-3 4h-5q-3 0 -26.5 -2t-25.5 -2q-5 0 -5 5z" />
<glyph unicode="&#x13d;" horiz-adv-x="592" d="M342 491q0 3 2.5 27.5t5.5 60.5t5 54q3 36 38 36q15 0 25 -8.5t10 -23.5q0 -7 -3 -14l-51 -124q-7 -14 -11 -14h-15q-6 0 -6 6zM37 15q0 10 4 12.5t16 2.5h60q8 0 8 289v231q0 86 -5 86h-59q-11 0 -14 3.5t-3 14.5q0 12 4 15t16 3q6 0 51 -1.5t62 -1.5q16 0 62.5 1.5 t57.5 1.5q12 0 15 -3t3 -15q0 -10 -3.5 -14t-15.5 -4h-70q-8 0 -8 -212v-277q0 -113 6 -113q226 0 292 6q15 1 17 5q1 4 3 15l12 86q2 11 14 9q23 -2 23 -12q0 -4 -4.5 -31l-9.5 -60t-7 -44q-1 -9 -5.5 -11.5t-19.5 -2.5q-11 0 -179.5 1.5t-184.5 1.5t-63.5 -1.5t-58.5 -1.5 q-10 0 -13 4t-3 17z" />
<glyph unicode="&#x13e;" horiz-adv-x="257" d="M207 491q0 3 2.5 27.5t5.5 60.5t5 54q3 36 38 36q15 0 25 -8.5t10 -23.5q0 -7 -3 -14l-51 -124q-7 -14 -11 -14h-15q-6 0 -6 6zM16 644q0 8 3 19q2 8 9 9h3q120 9 124 9q10 0 10 -18q1 -160 3.5 -332t2.5 -267q0 -36 5 -36h43q8 0 10 -3t2 -13q0 -7 -0.5 -10t-3 -5 t-8.5 -2q-8 0 -37.5 1t-45.5 1q-12 0 -46 -1t-50 -1q-13 0 -13 17q0 16 12 16h51q5 0 5 82q0 395 -11 517q-1 8 -3 12t-3 4h-5q-3 0 -26.5 -2t-25.5 -2q-5 0 -5 5z" />
<glyph unicode="&#x13f;" horiz-adv-x="592" d="M37 15q0 10 4 12.5t16 2.5h60q8 0 8 289v231q0 86 -5 86h-59q-11 0 -14 3.5t-3 14.5q0 12 4 15t16 3q6 0 51 -1.5t62 -1.5q16 0 62.5 1.5t57.5 1.5q12 0 15 -3t3 -15q0 -10 -3.5 -14t-15.5 -4h-70q-8 0 -8 -212v-277q0 -113 6 -113q226 0 292 6q15 1 17 5q1 4 3 15l12 86 q2 11 14 9q23 -2 23 -12q0 -4 -4.5 -31l-9.5 -60t-7 -44q-1 -9 -5.5 -11.5t-19.5 -2.5q-11 0 -179.5 1.5t-184.5 1.5t-63.5 -1.5t-58.5 -1.5q-10 0 -13 4t-3 17zM414 333q0 26 20.5 42t42.5 16q19 0 32 -10.5t13 -32.5q0 -26 -20 -42.5t-44 -16.5q-18 0 -31 11.5t-13 32.5z " />
<glyph unicode="&#x140;" horiz-adv-x="404" d="M279 333q0 26 20.5 42t42.5 16q19 0 32 -10.5t13 -32.5q0 -26 -20 -42.5t-44 -16.5q-18 0 -31 11.5t-13 32.5zM16 644q0 8 3 19q2 8 9 9h3q120 9 124 9q10 0 10 -18q1 -160 3.5 -332t2.5 -267q0 -36 5 -36h43q8 0 10 -3t2 -13q0 -7 -0.5 -10t-3 -5t-8.5 -2q-8 0 -37.5 1 t-45.5 1q-12 0 -46 -1t-50 -1q-13 0 -13 17q0 16 12 16h51q5 0 5 82q0 395 -11 517q-1 8 -3 12t-3 4h-5q-3 0 -26.5 -2t-25.5 -2q-5 0 -5 5z" />
<glyph unicode="&#x141;" horiz-adv-x="592" d="M37 15q0 10 4 12.5t16 2.5h60q6 0 8 185q0 9 -9 5q-73 -35 -75 -35q-4 0 -4 15v5q0 11 4 13l78 36q6 2 6 14v282q0 86 -5 86h-59q-11 0 -14 3.5t-3 14.5q0 12 4 15t16 3q6 0 51 -1.5t62 -1.5q16 0 62.5 1.5t57.5 1.5q12 0 15 -3t3 -15q0 -10 -3.5 -14t-15.5 -4h-70 q-8 0 -8 -212v-113q0 -6 1 -7.5t7 0.5l94 43.5l124 58t52 23.5q3 0 3 -16q0 -15 -2 -16l-269 -125q-1 -1 -3.5 -2t-3 -1.5l-2 -2t-1.5 -3.5v-6v-110q0 -113 6 -113q226 0 292 6q15 1 17 5q1 4 3 15l12 86q2 11 14 9q23 -2 23 -12q0 -4 -4.5 -31l-9.5 -60t-7 -44 q-1 -9 -5.5 -11.5t-19.5 -2.5q-11 0 -179.5 1.5t-184.5 1.5t-63.5 -1.5t-58.5 -1.5q-10 0 -13 4t-3 17z" />
<glyph unicode="&#x142;" horiz-adv-x="257" d="M16 644q0 8 3 19q2 8 9 9h3q120 9 124 9q10 0 10 -18q0 -130 2 -272q0 -7 5 -4q6 3 20 11l24 14l9 5q5 0 5 -17v-10q0 -4 -2 -6l-54 -31q-6 -3 -6 -9q3 -144 3 -280q0 -36 5 -36h43q8 0 10 -3t2 -13q0 -7 -0.5 -10t-3 -5t-8.5 -2q-8 0 -37.5 1t-45.5 1q-12 0 -46 -1 t-50 -1q-13 0 -13 17q0 16 12 16h51q5 0 5 82q0 8 -2 192q0 4 -4 2l-19 -11t-25 -15t-13 -7q-6 -1 -6 9v10q0 11 2 13t59 34q6 4 6 11q-4 221 -9 279q-1 8 -3 12t-3 4h-5q-3 0 -26.5 -2t-25.5 -2q-5 0 -5 5z" />
<glyph unicode="&#x143;" horiz-adv-x="814" d="M406 729q0 1 4 9l53 86q17 26 37 26q16 0 24.5 -8t8.5 -20q0 -16 -15 -29l-72 -60l-4 -3q-3 -4 -6 -4h-24q-6 0 -6 3zM37 15q0 10 3.5 12.5t15.5 2.5h46q6 0 8 66q1 21 1 33q8 259 8 507h-65q-9 0 -11.5 3.5t-2.5 12.5q0 12 2.5 16t11.5 4q6 0 53.5 -1.5t58.5 -1.5 q13 0 33.5 1.5t21.5 1.5q11 0 22 -14l406 -499q12 -14 14.5 -12t2.5 18v42q0 49 -1 187t-1 189q0 53 -1 53h-93q-8 0 -10 3t-2 13q0 9 0.5 12.5t3 5.5t8.5 2q2 0 20 -1t43.5 -1.5t44.5 -0.5q23 0 52 1.5t33 1.5q10 0 12 -3.5t2 -17.5q0 -10 -3.5 -12.5t-16.5 -2.5h-45 q-4 0 -4 -56q0 -68 -3.5 -209.5l-6.5 -253t-3 -113.5q0 -25 -13 -25q-5 0 -20 17l-492 598q-11 12 -12 11q-2 -1 -2 -11q-1 -40 -1 -122q0 -54 -0.5 -175.5t-0.5 -167.5q0 -99 4 -99h86q8 0 10 -3t2 -13q0 -9 -0.5 -12.5t-3 -5.5t-8.5 -2q-9 0 -46 1.5t-62 1.5 q-26 0 -53.5 -1.5t-30.5 -1.5q-10 0 -12.5 4t-2.5 17z" />
<glyph unicode="&#x144;" horiz-adv-x="514" d="M254 451q0 3 2 7l49 130q10 27 33 27q18 0 28.5 -9.5t10.5 -23.5q0 -11 -8 -22l-82 -107q-5 -7 -10 -7h-16q-7 0 -7 5zM20 348q0 4 6 19q2 7 4 8t12 2q6 0 50.5 3t60.5 4q9 1 11 -1.5t2 -9.5v-3v-34q0 -8 6 -3q3 2 5 3q2 2 18 12.5t23.5 14.5t23 11t31 10t33.5 3 q43 0 71 -13.5t41.5 -40.5t18.5 -56t5 -70q0 -33 -2.5 -100t-2.5 -70q0 -7 1 -8t7 -1h30q10 0 13.5 -3t3.5 -13q0 -17 -15 -17q-8 0 -33.5 1t-41.5 1q-12 0 -41.5 -1t-45.5 -1q-11 0 -13 3t-2 13q0 17 16 17h43q6 0 6 184q0 60 -20.5 93.5t-72.5 33.5q-32 0 -88 -28 q-16 -9 -16 -20q0 -41 -0.5 -123.5t-0.5 -123.5q0 -12 1.5 -14t8.5 -2h38q10 0 12 -3.5t2 -12.5q0 -17 -13 -17q-8 0 -38 1t-46 1q-12 0 -43.5 -1t-47.5 -1q-9 0 -11 3.5t-2 13.5q0 16 13 16h45q8 0 8 209q0 68 -2 99q0 6 -1.5 8.5t-3 2.5h-3.5h-3t-27.5 -2t-28.5 -2 q-5 0 -5 5z" />
<glyph unicode="&#x145;" horiz-adv-x="814" d="M356 -225q0 1 15 11.5t30 25.5t15 28q0 16 -13.5 28.5t-27 21t-13.5 13.5q0 13 19.5 26t27.5 13q13 0 39.5 -20t26.5 -36q0 -32 -25 -64.5t-49.5 -49.5t-31.5 -17q-2 0 -7.5 8t-5.5 12zM37 15q0 10 3.5 12.5t15.5 2.5h46q6 0 8 66q1 21 1 33q8 259 8 507h-65 q-9 0 -11.5 3.5t-2.5 12.5q0 12 2.5 16t11.5 4q6 0 53.5 -1.5t58.5 -1.5q13 0 33.5 1.5t21.5 1.5q11 0 22 -14l406 -499q12 -14 14.5 -12t2.5 18v42q0 49 -1 187t-1 189q0 53 -1 53h-93q-8 0 -10 3t-2 13q0 9 0.5 12.5t3 5.5t8.5 2q2 0 20 -1t43.5 -1.5t44.5 -0.5 q23 0 52 1.5t33 1.5q10 0 12 -3.5t2 -17.5q0 -10 -3.5 -12.5t-16.5 -2.5h-45q-4 0 -4 -56q0 -68 -3.5 -209.5l-6.5 -253t-3 -113.5q0 -25 -13 -25q-5 0 -20 17l-492 598q-11 12 -12 11q-2 -1 -2 -11q-1 -40 -1 -122q0 -54 -0.5 -175.5t-0.5 -167.5q0 -99 4 -99h86q8 0 10 -3 t2 -13q0 -9 -0.5 -12.5t-3 -5.5t-8.5 -2q-9 0 -46 1.5t-62 1.5q-26 0 -53.5 -1.5t-30.5 -1.5q-10 0 -12.5 4t-2.5 17z" />
<glyph unicode="&#x146;" horiz-adv-x="514" d="M206 -225q0 1 15 11.5t30 25.5t15 28q0 16 -13.5 28.5t-27 21t-13.5 13.5q0 13 19.5 26t27.5 13q13 0 39.5 -20t26.5 -36q0 -32 -25 -64.5t-49.5 -49.5t-31.5 -17q-2 0 -7.5 8t-5.5 12zM20 348q0 4 6 19q2 7 4 8t12 2q6 0 50.5 3t60.5 4q9 1 11 -1.5t2 -9.5v-3v-34 q0 -8 6 -3q3 2 5 3q2 2 18 12.5t23.5 14.5t23 11t31 10t33.5 3q43 0 71 -13.5t41.5 -40.5t18.5 -56t5 -70q0 -33 -2.5 -100t-2.5 -70q0 -7 1 -8t7 -1h30q10 0 13.5 -3t3.5 -13q0 -17 -15 -17q-8 0 -33.5 1t-41.5 1q-12 0 -41.5 -1t-45.5 -1q-11 0 -13 3t-2 13q0 17 16 17h43 q6 0 6 184q0 60 -20.5 93.5t-72.5 33.5q-32 0 -88 -28q-16 -9 -16 -20q0 -41 -0.5 -123.5t-0.5 -123.5q0 -12 1.5 -14t8.5 -2h38q10 0 12 -3.5t2 -12.5q0 -17 -13 -17q-8 0 -38 1t-46 1q-12 0 -43.5 -1t-47.5 -1q-9 0 -11 3.5t-2 13.5q0 16 13 16h45q8 0 8 209q0 68 -2 99 q0 6 -1.5 8.5t-3 2.5h-3.5h-3t-27.5 -2t-28.5 -2q-5 0 -5 5z" />
<glyph unicode="&#x147;" horiz-adv-x="814" d="M306 838q0 4 7 4h12q3 0 13 -6l80 -45q3 -1 6 0l80 45q10 6 13 6h12q7 0 7 -4l-6 -9l-79 -89q-13 -14 -18 -14h-24q-7 0 -18 14l-79 89q-6 6 -6 9zM37 15q0 10 3.5 12.5t15.5 2.5h46q6 0 8 66q1 21 1 33q8 259 8 507h-65q-9 0 -11.5 3.5t-2.5 12.5q0 12 2.5 16t11.5 4 q6 0 53.5 -1.5t58.5 -1.5q13 0 33.5 1.5t21.5 1.5q11 0 22 -14l406 -499q12 -14 14.5 -12t2.5 18v42q0 49 -1 187t-1 189q0 53 -1 53h-93q-8 0 -10 3t-2 13q0 9 0.5 12.5t3 5.5t8.5 2q2 0 20 -1t43.5 -1.5t44.5 -0.5q23 0 52 1.5t33 1.5q10 0 12 -3.5t2 -17.5 q0 -10 -3.5 -12.5t-16.5 -2.5h-45q-4 0 -4 -56q0 -68 -3.5 -209.5l-6.5 -253t-3 -113.5q0 -25 -13 -25q-5 0 -20 17l-492 598q-11 12 -12 11q-2 -1 -2 -11q-1 -40 -1 -122q0 -54 -0.5 -175.5t-0.5 -167.5q0 -99 4 -99h86q8 0 10 -3t2 -13q0 -9 -0.5 -12.5t-3 -5.5t-8.5 -2 q-9 0 -46 1.5t-62 1.5q-26 0 -53.5 -1.5t-30.5 -1.5q-10 0 -12.5 4t-2.5 17z" />
<glyph unicode="&#x148;" horiz-adv-x="514" d="M158 599q0 3 9 3h12q1 0 10 -7l81 -70h4l81 70q7 7 10 7h12q9 0 9 -3t-5 -10l-79 -119q-7 -10 -9.5 -12t-10.5 -2h-21q-7 0 -9.5 2t-9.5 12l-79 119q-5 7 -5 10zM20 348q0 4 6 19q2 7 4 8t12 2q6 0 50.5 3t60.5 4q9 1 11 -1.5t2 -9.5v-3v-34q0 -8 6 -3q3 2 5 3 q2 2 18 12.5t23.5 14.5t23 11t31 10t33.5 3q43 0 71 -13.5t41.5 -40.5t18.5 -56t5 -70q0 -33 -2.5 -100t-2.5 -70q0 -7 1 -8t7 -1h30q10 0 13.5 -3t3.5 -13q0 -17 -15 -17q-8 0 -33.5 1t-41.5 1q-12 0 -41.5 -1t-45.5 -1q-11 0 -13 3t-2 13q0 17 16 17h43q6 0 6 184 q0 60 -20.5 93.5t-72.5 33.5q-32 0 -88 -28q-16 -9 -16 -20q0 -41 -0.5 -123.5t-0.5 -123.5q0 -12 1.5 -14t8.5 -2h38q10 0 12 -3.5t2 -12.5q0 -17 -13 -17q-8 0 -38 1t-46 1q-12 0 -43.5 -1t-47.5 -1q-9 0 -11 3.5t-2 13.5q0 16 13 16h45q8 0 8 209q0 68 -2 99 q0 6 -1.5 8.5t-3 2.5h-3.5h-3t-27.5 -2t-28.5 -2q-5 0 -5 5z" />
<glyph unicode="&#x149;" horiz-adv-x="723" d="M229 348q0 4 6 19q2 7 4 8t12 2q6 0 50.5 3t60.5 4q9 1 11 -1.5t2 -9.5v-3v-34q0 -8 6 -3q3 2 5 3q2 2 18 12.5t23.5 14.5t23 11t31 10t33.5 3q43 0 71 -13.5t41.5 -40.5t18.5 -56t5 -70q0 -33 -2.5 -100t-2.5 -70q0 -7 1 -8t7 -1h30q10 0 13.5 -3t3.5 -13q0 -17 -15 -17 q-8 0 -33.5 1t-41.5 1q-12 0 -41.5 -1t-45.5 -1q-6 0 -9 0.5t-4.5 3t-1.5 5v7.5q0 17 16 17h43q6 0 6 184q0 60 -20.5 93.5t-72.5 33.5q-32 0 -88 -28q-16 -9 -16 -20q0 -41 -0.5 -123.5t-0.5 -123.5q0 -12 1.5 -14t8.5 -2h38q10 0 12 -3.5t2 -12.5q0 -17 -13 -17 q-8 0 -38 1t-46 1q-12 0 -43.5 -1t-47.5 -1q-9 0 -11 3.5t-2 13.5q0 16 13 16h45q8 0 8 209q0 68 -2 99q0 6 -1.5 8.5t-3 2.5h-3.5h-3t-27.5 -2t-28.5 -2q-5 0 -5 5zM56 452q0 1 17.5 17.5t35 38t17.5 35.5q0 11 -24 37t-24 41q0 17 18.5 41.5t31.5 24.5q9 0 31.5 -35.5 t22.5 -53.5q0 -33 -25 -74.5t-50.5 -67t-31.5 -25.5q-4 0 -11.5 7.5t-7.5 13.5z" />
<glyph unicode="&#x14a;" horiz-adv-x="814" d="M37 15q0 10 3.5 12.5t15.5 2.5h46q6 0 8 66q1 21 1 33q8 259 8 507h-65q-9 0 -11.5 3.5t-2.5 12.5q0 12 2.5 16t11.5 4q6 0 52.5 -1.5t57.5 -1.5q6 0 30 1.5t27 1.5q11 0 22 -14l406 -499q12 -14 14.5 -12t2.5 18v42q0 49 -1 187t-1 189q0 53 -1 53h-93q-8 0 -10 3t-2 13 q0 9 0.5 12.5t3 5.5t8.5 2q2 0 20 -1t43.5 -1.5t44.5 -0.5q23 0 52 1.5t33 1.5q10 0 12 -3.5t2 -17.5q0 -10 -3.5 -12.5t-16.5 -2.5h-45q-4 0 -4 -56q-1 -77 -6.5 -306.5t-5.5 -246.5q0 -90 -11 -146t-44 -99q-14 -18 -58.5 -39t-67.5 -21q-22 0 -22 23q0 17 15.5 36.5 t26.5 19.5q12 0 33 -2t24 -2q35 0 35 30q0 11 -1 33t-2.5 66.5t-2.5 93.5q-1 28 -13 42l-438 532q-11 12 -12 11q-2 -1 -2 -11q-1 -40 -1 -122q0 -54 -0.5 -175.5t-0.5 -167.5q0 -99 4 -99h86q8 0 10 -3t2 -13q0 -9 -0.5 -12.5t-3 -5.5t-8.5 -2q-9 0 -46 1.5t-62 1.5 q-26 0 -53.5 -1.5t-30.5 -1.5q-10 0 -12.5 4t-2.5 17z" />
<glyph unicode="&#x14b;" horiz-adv-x="514" d="M20 348q0 4 6 19q2 7 4 8t12 2q6 0 50.5 3t60.5 4q9 1 11 -1.5t2 -9.5v-3v-34q0 -8 6 -3q3 2 5 3q2 2 18 12.5t23.5 14.5t23 11t31 10t33.5 3q43 0 71 -13.5t41.5 -40.5t18.5 -56t5 -70v-174q0 -92 -11 -150t-44 -101q-14 -18 -58.5 -39t-67.5 -21q-22 0 -22 23 q0 17 15.5 36.5t26.5 19.5q12 0 33 -2t24 -2q35 0 35 30q0 9 -1 34t-2.5 66t-2.5 83q-2 79 -2 202q0 60 -20.5 93.5t-72.5 33.5q-32 0 -88 -28q-16 -9 -16 -20q0 -41 -0.5 -123.5t-0.5 -123.5q0 -12 1.5 -14t8.5 -2h38q10 0 12 -3.5t2 -12.5q0 -17 -13 -17q-8 0 -38 1t-46 1 q-12 0 -43.5 -1t-47.5 -1q-9 0 -11 3.5t-2 13.5q0 16 13 16h45q8 0 8 209q0 68 -2 99q0 6 -1.5 8.5t-3 2.5h-3.5h-3t-27.5 -2t-28.5 -2q-5 0 -5 5z" />
<glyph unicode="&#x14c;" horiz-adv-x="752" d="M270 788v23q0 11 10 11h191q9 0 9 -10v-25q0 -5 -0.5 -7t-2 -3t-6.5 -1h-191q-7 0 -8.5 2t-1.5 10zM42 318q0 160 100 260t243 100q146 0 235.5 -102t89.5 -252q0 -151 -95 -244.5t-245 -93.5q-130 0 -229 89.5t-99 242.5zM142 345q0 -138 62.5 -231.5t166.5 -93.5 q77 0 133.5 47t82 116.5t25.5 149.5q0 79 -25 148t-80.5 116t-131.5 47q-102 0 -167.5 -90t-65.5 -209z" />
<glyph unicode="&#x14d;" horiz-adv-x="446" d="M125 518v23q0 7 1 9t7 2h193q9 0 9 -10v-25q0 -5 -0.5 -7t-2 -3t-6.5 -1h-193q-8 0 -8 12zM27 183q0 91 58 153.5t150 62.5q82 0 133 -58.5t51 -143.5q0 -95 -53.5 -155t-146.5 -60q-81 0 -136.5 59t-55.5 142zM104 169q0 -61 31 -108t84 -47q122 0 122 190 q0 62 -31 112.5t-87 50.5q-119 0 -119 -198z" />
<glyph unicode="&#x14e;" horiz-adv-x="752" d="M269 832q0 9 1 9h22q1 0 2 -6t5 -15t11 -18t24 -15t41 -6q23 0 40 6t24.5 15t11 18t5 15t2.5 6h22q1 0 1 -9q0 -46 -27 -76t-79 -30t-79 30t-27 76zM42 318q0 160 100 260t243 100q146 0 235.5 -102t89.5 -252q0 -151 -95 -244.5t-245 -93.5q-130 0 -229 89.5t-99 242.5z M142 345q0 -138 62.5 -231.5t166.5 -93.5q77 0 133.5 47t82 116.5t25.5 149.5q0 79 -25 148t-80.5 116t-131.5 47q-102 0 -167.5 -90t-65.5 -209z" />
<glyph unicode="&#x14f;" horiz-adv-x="446" d="M124 579q0 10 2 10h21q1 0 2 -5.5t3.5 -14.5t5.5 -15q22 -40 72 -40t72 40q3 6 5.5 15l4 14.5t3.5 5.5h19q2 0 2 -9q0 -49 -27 -86.5t-79 -37.5t-79 37t-27 86zM27 183q0 91 58 153.5t150 62.5q82 0 133 -58.5t51 -143.5q0 -95 -53.5 -155t-146.5 -60q-81 0 -136.5 59 t-55.5 142zM104 169q0 -61 31 -108t84 -47q122 0 122 190q0 62 -31 112.5t-87 50.5q-119 0 -119 -198z" />
<glyph unicode="&#x150;" horiz-adv-x="752" d="M293 729q0 1 4 9l53 86q17 26 37 26q16 0 24.5 -8t8.5 -20q0 -16 -15 -29l-72 -60l-3 -3q-4 -4 -7 -4h-24q-6 0 -6 3zM413 729q0 1 4 9l53 86q17 26 37 26q16 0 24.5 -8t8.5 -20q0 -16 -15 -29l-72 -60l-3 -3q-4 -4 -7 -4h-24q-6 0 -6 3zM42 318q0 160 100 260t243 100 q146 0 235.5 -102t89.5 -252q0 -151 -95 -244.5t-245 -93.5q-130 0 -229 89.5t-99 242.5zM142 345q0 -138 62.5 -231.5t166.5 -93.5q77 0 133.5 47t82 116.5t25.5 149.5q0 79 -25 148t-80.5 116t-131.5 47q-102 0 -167.5 -90t-65.5 -209z" />
<glyph unicode="&#x151;" horiz-adv-x="446" d="M147 451q0 3 2 7l49 130q10 27 33 27q18 0 28.5 -9.5t10.5 -23.5q0 -11 -8 -22l-82 -107q-5 -7 -10 -7h-16q-7 0 -7 5zM257 451q0 3 2 7l49 130q10 27 33 27q18 0 28.5 -9.5t10.5 -23.5q0 -11 -8 -22l-82 -107q-5 -7 -10 -7h-16q-7 0 -7 5zM27 183q0 91 58 153.5 t150 62.5q82 0 133 -58.5t51 -143.5q0 -95 -53.5 -155t-146.5 -60q-81 0 -136.5 59t-55.5 142zM104 169q0 -61 31 -108t84 -47q122 0 122 190q0 62 -31 112.5t-87 50.5q-119 0 -119 -198z" />
<glyph unicode="&#x152;" horiz-adv-x="996" d="M42 318q0 160 100 260t243 100q57 0 106.5 -6.5t66.5 -6.5q29 0 130 1.5t122 1.5q48 0 54 1t7 9q1 7 2 9t4 4t10 2q12 0 16 -2.5t4 -11.5q0 -2 -2 -44t-2 -88q0 -7 -4 -9t-15 -2q-18 0 -18 15q0 1 1.5 35t1.5 42q0 7 -267 7q-6 0 -6 -125q0 -42 2 -142q0 -9 1.5 -11 t7.5 -2h167q52 0 52 13v52q0 10 20 10q17 0 17 -9q0 -1 -1 -30t-1 -50t1 -51t1 -34q0 -9 -16 -9q-21 0 -21 10v50q0 15 -52 15h-163h-3q-6 0 -8 -1.5t-2 -10.5q6 -273 11 -273q47 0 120.5 0.5t128.5 1.5t57 1q5 0 6.5 3t2.5 15v2q1 13 3 89q0 9 17 9q20 0 20 -10 q0 -28 -1.5 -78t-1.5 -62q0 -14 -20 -14q-11 0 -185 1.5t-190 1.5q-45 0 -100 -5.5t-96 -5.5q-130 0 -229 89.5t-99 242.5zM142 345q0 -108 40 -191t111 -116q40 -19 132 -19q29 0 51 5.5t30 11t8 9.5q0 21 -0.5 75t-0.5 78q0 31 -0.5 72t-1 78t-1 69.5t-1 53t-0.5 21.5v118 q0 34 -131 34q-102 0 -169 -89.5t-67 -209.5z" />
<glyph unicode="&#x153;" horiz-adv-x="733" d="M27 183q0 91 58 153.5t150 62.5q86 0 138 -65q6 -7 9 -7q2 0 12 10q57 62 149 62q72 0 112 -47t40 -115q0 -15 -57 -15q-5 0 -110 2.5t-113 2.5q-3 -7 -3 -33q0 -74 43 -118t100 -44q23 0 45 6.5t36.5 16.5t25.5 19.5t17.5 16t7.5 6.5q2 0 11 -7.5t9 -9.5t-8 -12.5 t-24 -25t-36 -28t-49 -23t-58 -9.5q-97 0 -148 63q-1 2 -3.5 5.5t-3.5 4t-2.5 1t-3.5 -1.5t-5 -6q-48 -66 -147 -66q-81 0 -136.5 59t-55.5 142zM104 169q0 -61 31 -108t84 -47q66 0 93.5 55t27.5 135q0 65 -30 114t-87 49q-119 0 -119 -198zM417 255q0 -5 9 -5q57 0 157 4 q37 1 37 4q0 61 -28.5 87t-60.5 26q-45 0 -78 -37.5t-36 -78.5z" />
<glyph unicode="&#x154;" horiz-adv-x="641" d="M282 729q0 1 4 9l53 86q17 26 37 26q16 0 24.5 -8t8.5 -20q0 -16 -15 -29l-72 -60l-4 -3q-3 -4 -6 -4h-24q-6 0 -6 3zM37 649q0 12 4.5 15t15.5 3q6 0 52.5 -1t63.5 -1q16 0 75 3t70 3q33 0 62 -4t59 -16t51.5 -30.5t35 -50t13.5 -72.5q0 -33 -14.5 -62t-38.5 -49.5 t-43.5 -33t-39.5 -21.5q-1 0 -2 -1q-7 -3 2 -6q30 -10 54 -23t52 -38.5t44.5 -69t18.5 -102.5q1 -22 1.5 -34.5t2 -18.5t3 -7.5t4.5 -1.5h46q9 0 12 -5t3 -20q0 -11 -16 -11l-137 3q-11 0 -11 11v58q0 43 -2 72t-11.5 64t-27 55.5t-50.5 35.5t-79 16q-10 0 -43.5 0.5 t-48.5 0.5q-8 0 -8 -8q0 -54 4 -163t7 -109h58q9 0 11.5 -3.5t2.5 -12.5q0 -12 -2.5 -16t-11.5 -4q-11 0 -51.5 1.5t-56.5 1.5q-18 0 -57 -1.5t-41 -1.5q-10 0 -13.5 4t-3.5 17q0 10 4 12.5t17 2.5h43q4 0 4 126v133q0 342 -10 342l-58 -2q-19 0 -19 20zM210 343q0 -5 13 -5 q20 0 65 -0.5t63 -1.5q8 0 11 1q86 40 86 147q0 70 -54 112.5t-128 42.5q-36 0 -51 -2q-5 0 -5 -51v-243z" />
<glyph unicode="&#x155;" horiz-adv-x="329" d="M163 451q0 3 2 7l49 130q10 27 33 27q18 0 28.5 -9.5t10.5 -23.5q0 -11 -8 -22l-82 -107q-5 -7 -10 -7h-16q-7 0 -7 5zM21 349q0 2 0.5 5.5t2 7.5t1.5 6q1 6 4 7t14 1q14 0 41.5 1t45.5 1.5t21 0.5q9 0 10.5 -1t1.5 -8q0 -8 -0.5 -28.5t-0.5 -29.5v-7l1 -2q2 4 3 7 q17 40 44 63.5t52 23.5q22 0 41 -17t19 -29q0 -10 -14 -27.5t-27 -17.5q-12 0 -31.5 16t-27.5 16q-54 0 -54 -201q0 -109 9 -109h66q13 0 13 -16q0 -17 -13 -17q-8 0 -50.5 1t-58.5 1q-12 0 -42.5 -1t-46.5 -1q-13 0 -13 17q0 6 0.5 9t3 5t8.5 2h44q8 0 8 134q0 186 -8 186 q-3 0 -31 -1t-29 -1q-7 0 -7 3z" />
<glyph unicode="&#x156;" horiz-adv-x="641" d="M304 -225q0 1 15 11.5t30 25.5t15 28q0 16 -13.5 28.5t-27 21t-13.5 13.5q0 13 19.5 26t27.5 13q13 0 39.5 -20t26.5 -36q0 -32 -25 -64.5t-49.5 -49.5t-31.5 -17q-2 0 -7.5 8t-5.5 12zM37 649q0 12 4.5 15t15.5 3q6 0 52.5 -1t63.5 -1q16 0 75 3t70 3q33 0 62 -4t59 -16 t51.5 -30.5t35 -50t13.5 -72.5q0 -33 -14.5 -62t-38.5 -49.5t-43.5 -33t-39.5 -21.5q-1 0 -2 -1q-7 -3 2 -6q30 -10 54 -23t52 -38.5t44.5 -69t18.5 -102.5q1 -22 1.5 -34.5t2 -18.5t3 -7.5t4.5 -1.5h46q9 0 12 -5t3 -20q0 -11 -16 -11l-137 3q-11 0 -11 11v58q0 43 -2 72 t-11.5 64t-27 55.5t-50.5 35.5t-79 16q-10 0 -43.5 0.5t-48.5 0.5q-8 0 -8 -8q0 -54 4 -163t7 -109h58q9 0 11.5 -3.5t2.5 -12.5q0 -12 -2.5 -16t-11.5 -4q-11 0 -51.5 1.5t-56.5 1.5q-18 0 -57 -1.5t-41 -1.5q-10 0 -13.5 4t-3.5 17q0 10 4 12.5t17 2.5h43q4 0 4 126v133 q0 342 -10 342l-58 -2q-19 0 -19 20zM210 343q0 -5 13 -5q20 0 65 -0.5t63 -1.5q8 0 11 1q86 40 86 147q0 70 -54 112.5t-128 42.5q-36 0 -51 -2q-5 0 -5 -51v-243z" />
<glyph unicode="&#x157;" horiz-adv-x="329" d="M86 -225q0 1 15 11.5t30 25.5t15 28q0 16 -13.5 28.5t-27 21t-13.5 13.5q0 13 19.5 26t27.5 13q13 0 39.5 -20t26.5 -36q0 -32 -25 -64.5t-49.5 -49.5t-31.5 -17q-2 0 -7.5 8t-5.5 12zM21 349q0 2 0.5 5.5t2 7.5t1.5 6q1 6 4 7t14 1q14 0 41.5 1t45.5 1.5t21 0.5 q9 0 10.5 -1t1.5 -8q0 -8 -0.5 -28.5t-0.5 -29.5v-7l1 -2q2 4 3 7q17 40 44 63.5t52 23.5q22 0 41 -17t19 -29q0 -10 -14 -27.5t-27 -17.5q-12 0 -31.5 16t-27.5 16q-54 0 -54 -201q0 -109 9 -109h66q13 0 13 -16q0 -17 -13 -17q-8 0 -50.5 1t-58.5 1q-12 0 -42.5 -1 t-46.5 -1q-13 0 -13 17q0 6 0.5 9t3 5t8.5 2h44q8 0 8 134q0 186 -8 186q-3 0 -31 -1t-29 -1q-7 0 -7 3z" />
<glyph unicode="&#x158;" horiz-adv-x="641" d="M182 838q0 4 7 4h12q3 0 13 -6l80 -45q3 -1 6 0l80 45q10 6 13 6h12q7 0 7 -4l-6 -9l-79 -89q-13 -14 -18 -14h-24q-7 0 -18 14l-79 89q-6 6 -6 9zM37 649q0 12 4.5 15t15.5 3q6 0 52.5 -1t63.5 -1q16 0 75 3t70 3q33 0 62 -4t59 -16t51.5 -30.5t35 -50t13.5 -72.5 q0 -33 -14.5 -62t-38.5 -49.5t-43.5 -33t-39.5 -21.5q-1 0 -2 -1q-7 -3 2 -6q30 -10 54 -23t52 -38.5t44.5 -69t18.5 -102.5q1 -22 1.5 -34.5t2 -18.5t3 -7.5t4.5 -1.5h46q9 0 12 -5t3 -20q0 -11 -16 -11l-137 3q-11 0 -11 11v58q0 43 -2 72t-11.5 64t-27 55.5t-50.5 35.5 t-79 16q-10 0 -43.5 0.5t-48.5 0.5q-8 0 -8 -8q0 -54 4 -163t7 -109h58q9 0 11.5 -3.5t2.5 -12.5q0 -12 -2.5 -16t-11.5 -4q-11 0 -51.5 1.5t-56.5 1.5q-18 0 -57 -1.5t-41 -1.5q-10 0 -13.5 4t-3.5 17q0 10 4 12.5t17 2.5h43q4 0 4 126v133q0 342 -10 342l-58 -2 q-19 0 -19 20zM210 343q0 -5 13 -5q20 0 65 -0.5t63 -1.5q8 0 11 1q86 40 86 147q0 70 -54 112.5t-128 42.5q-36 0 -51 -2q-5 0 -5 -51v-243z" />
<glyph unicode="&#x159;" horiz-adv-x="329" d="M67 599q0 3 9 3h12q1 0 10 -7l81 -70h4l81 70q7 7 10 7h12q9 0 9 -3t-5 -10l-79 -119q-7 -10 -9.5 -12t-10.5 -2h-21q-8 0 -10 2t-9 12l-79 119q-5 7 -5 10zM21 349q0 2 0.5 5.5t2 7.5t1.5 6q1 6 4 7t14 1q14 0 41.5 1t45.5 1.5t21 0.5q9 0 10.5 -1t1.5 -8 q0 -8 -0.5 -28.5t-0.5 -29.5v-7l1 -2q2 4 3 7q17 40 44 63.5t52 23.5q22 0 41 -17t19 -29q0 -10 -14 -27.5t-27 -17.5q-12 0 -31.5 16t-27.5 16q-54 0 -54 -201q0 -109 9 -109h66q13 0 13 -16q0 -17 -13 -17q-8 0 -50.5 1t-58.5 1q-12 0 -42.5 -1t-46.5 -1q-13 0 -13 17 q0 6 0.5 9t3 5t8.5 2h44q8 0 8 134q0 186 -8 186q-3 0 -31 -1t-29 -1q-7 0 -7 3z" />
<glyph unicode="&#x15a;" horiz-adv-x="528" d="M254 729q0 1 4 9l53 86q17 26 37 26q16 0 24.5 -8t8.5 -20q0 -16 -15 -29l-72 -60l-4 -3q-3 -4 -6 -4h-24q-6 0 -6 3zM52 488q0 83 66 137.5t151 54.5q74 0 137 -43q9 -7 15 -7q4 0 4 18q1 12 3.5 14.5t14.5 2.5q15 0 18.5 -2.5t3.5 -14.5l-3 -64q-3 -64 -3 -95 q0 -10 -3 -13.5t-15 -3.5q-13 0 -17.5 3.5t-4.5 11.5q0 1 1.5 30t1.5 34q0 20 -51 57.5t-100 37.5q-56 0 -93 -36t-37 -90q0 -42 26.5 -72t65.5 -45l85.5 -33.5t85.5 -38t65.5 -59t26.5 -94.5q0 -90 -68.5 -143t-158.5 -53q-51 0 -99.5 9t-74.5 20.5t-27 19.5l-3.5 48.5 l-4.5 63t-2 34.5q0 4 0.5 6t1.5 4.5t4.5 3.5t8.5 1h5q18 0 19 -17l6 -94q1 -19 64.5 -39.5t110.5 -20.5q53 0 91.5 34t38.5 84q0 35 -19.5 61.5t-51 43t-69.5 31.5t-76 32t-69.5 39t-51 58t-19.5 84z" />
<glyph unicode="&#x15b;" horiz-adv-x="337" d="M151 451q0 3 2 7l49 130q10 27 33 27q18 0 28.5 -9.5t10.5 -23.5q0 -11 -8 -22l-82 -107q-5 -7 -10 -7h-16q-7 0 -7 5zM32 50q0 13 13 27.5t20 14.5q3 0 6 -4t7 -12t8 -13q40 -49 91 -49q27 0 45 16t18 46q0 31 -22 49.5t-65 36.5q-29 13 -42.5 20t-35 22t-31 33.5 t-9.5 42.5q0 50 45 83t102 33q52 0 79.5 -23t27.5 -49q0 -8 -16.5 -14t-28.5 -6q-9 0 -15 16t-19.5 32.5t-40.5 16.5q-28 0 -49 -16.5t-21 -50.5q0 -15 5 -25.5t21 -21.5t22 -14l32 -16q33 -15 46 -22t36.5 -23t33.5 -34t10 -40q0 -54 -42.5 -87.5t-101.5 -33.5 q-47 0 -88 19.5t-41 45.5z" />
<glyph unicode="&#x15c;" horiz-adv-x="528" d="M154 730l6 9l79 89q13 14 18 14h24q7 0 18 -14l79 -89q6 -6 6 -9q0 -4 -7 -4h-12q-3 0 -13 6l-80 45q-3 1 -6 0l-80 -45q-10 -6 -13 -6h-12q-7 0 -7 4zM52 488q0 83 66 137.5t151 54.5q74 0 137 -43q9 -7 15 -7q4 0 4 18q1 12 3.5 14.5t14.5 2.5q15 0 18.5 -2.5 t3.5 -14.5l-3 -64q-3 -64 -3 -95q0 -10 -3 -13.5t-15 -3.5q-13 0 -17.5 3.5t-4.5 11.5q0 1 1.5 30t1.5 34q0 20 -51 57.5t-100 37.5q-56 0 -93 -36t-37 -90q0 -42 26.5 -72t65.5 -45l85.5 -33.5t85.5 -38t65.5 -59t26.5 -94.5q0 -90 -68.5 -143t-158.5 -53q-51 0 -99.5 9 t-74.5 20.5t-27 19.5l-3.5 48.5l-4.5 63t-2 34.5q0 4 0.5 6t1.5 4.5t4.5 3.5t8.5 1h5q18 0 19 -17l6 -94q1 -19 64.5 -39.5t110.5 -20.5q53 0 91.5 34t38.5 84q0 35 -19.5 61.5t-51 43t-69.5 31.5t-76 32t-69.5 39t-51 58t-19.5 84z" />
<glyph unicode="&#x15d;" horiz-adv-x="337" d="M55 459q0 3 5 10l79 119q7 10 9.5 12t10.5 2h21q8 0 10 -2t9 -12l79 -119q5 -7 5 -10t-9 -3h-12q-1 0 -10 7l-81 70h-4l-81 -70q-7 -7 -10 -7h-12q-9 0 -9 3zM32 50q0 13 13 27.5t20 14.5q3 0 6 -4t7 -12t8 -13q40 -49 91 -49q27 0 45 16t18 46q0 31 -22 49.5t-65 36.5 q-29 13 -42.5 20t-35 22t-31 33.5t-9.5 42.5q0 50 45 83t102 33q52 0 79.5 -23t27.5 -49q0 -8 -16.5 -14t-28.5 -6q-9 0 -15 16t-19.5 32.5t-40.5 16.5q-28 0 -49 -16.5t-21 -50.5q0 -15 5 -25.5t21 -21.5t22 -14l32 -16q33 -15 46 -22t36.5 -23t33.5 -34t10 -40 q0 -54 -42.5 -87.5t-101.5 -33.5q-47 0 -88 19.5t-41 45.5z" />
<glyph unicode="&#x15e;" horiz-adv-x="528" d="M52 488q0 83 66 137.5t151 54.5q74 0 137 -43q9 -7 15 -7q4 0 4 18q1 12 3.5 14.5t14.5 2.5q15 0 18.5 -2.5t3.5 -14.5l-3 -64q-3 -64 -3 -95q0 -10 -3 -13.5t-15 -3.5q-13 0 -17.5 3.5t-4.5 11.5q0 1 1.5 30t1.5 34q0 20 -51 57.5t-100 37.5q-56 0 -93 -36t-37 -90 q0 -42 26.5 -72t65.5 -45l85.5 -33.5t85.5 -38t65.5 -59t26.5 -94.5q0 -86 -63 -138.5t-149 -57.5l-18 -48q-1 -3 1 -3q1 0 6 1q12 3 26 3q41 0 64.5 -22t23.5 -49q0 -36 -30.5 -65.5t-78.5 -29.5q-54 0 -83 26q-3 3 -3 9q0 10 10 10q2 0 10.5 -4t22 -7.5t28.5 -3.5 q34 0 48.5 12.5t14.5 40.5q0 42 -52 42q-11 0 -23.5 -4.5t-13.5 -4.5q-2 0 -6.5 3t-4.5 5q0 3 34 89q-49 1 -95.5 10.5t-71 20.5t-25.5 18l-3.5 48.5l-4.5 63t-2 34.5q0 4 0.5 6t1.5 4.5t4.5 3.5t8.5 1h5q18 0 19 -17l6 -94q1 -19 64.5 -39.5t110.5 -20.5q53 0 91.5 34 t38.5 84q0 35 -19.5 61.5t-51 43t-69.5 31.5t-76 32t-69.5 39t-51 58t-19.5 84z" />
<glyph unicode="&#x15f;" horiz-adv-x="337" d="M32 50q0 13 13 27.5t20 14.5q3 0 6 -4t7 -12t8 -13q40 -49 91 -49q27 0 45 16t18 46q0 31 -22 49.5t-65 36.5q-29 13 -42.5 20t-35 22t-31 33.5t-9.5 42.5q0 50 45 83t102 33q52 0 79.5 -23t27.5 -49q0 -8 -16.5 -14t-28.5 -6q-9 0 -15 16t-19.5 32.5t-40.5 16.5 q-28 0 -49 -16.5t-21 -50.5q0 -15 5 -25.5t21 -21.5t22 -14l32 -16q33 -15 46 -22t36.5 -23t33.5 -34t10 -40q0 -49 -35.5 -81.5t-87.5 -38.5l-19 -52q-1 -3 1 -3q1 0 6 1q12 3 26 3q41 0 64.5 -22t23.5 -49q0 -36 -30.5 -65.5t-78.5 -29.5q-54 0 -83 26q-3 3 -3 9 q0 10 10 10q2 0 10.5 -4t22 -7.5t28.5 -3.5q34 0 48.5 12.5t14.5 40.5q0 42 -52 42q-11 0 -23.5 -4.5t-13.5 -4.5q-2 0 -6.5 3t-4.5 5q0 3 35 92q-46 1 -86 20.5t-40 44.5z" />
<glyph unicode="&#x160;" horiz-adv-x="528" d="M154 838q0 4 7 4h12q3 0 13 -6l80 -45q3 -1 6 0l80 45q10 6 13 6h12q7 0 7 -4l-6 -9l-79 -89q-13 -14 -18 -14h-24q-7 0 -18 14l-79 89q-6 6 -6 9zM52 488q0 83 66 137.5t151 54.5q74 0 137 -43q9 -7 15 -7q4 0 4 18q1 12 3.5 14.5t14.5 2.5q15 0 18.5 -2.5t3.5 -14.5 l-3 -64q-3 -64 -3 -95q0 -10 -3 -13.5t-15 -3.5q-13 0 -17.5 3.5t-4.5 11.5q0 1 1.5 30t1.5 34q0 20 -51 57.5t-100 37.5q-56 0 -93 -36t-37 -90q0 -42 26.5 -72t65.5 -45l85.5 -33.5t85.5 -38t65.5 -59t26.5 -94.5q0 -90 -68.5 -143t-158.5 -53q-51 0 -99.5 9t-74.5 20.5 t-27 19.5l-3.5 48.5l-4.5 63t-2 34.5q0 4 0.5 6t1.5 4.5t4.5 3.5t8.5 1h5q18 0 19 -17l6 -94q1 -19 64.5 -39.5t110.5 -20.5q53 0 91.5 34t38.5 84q0 35 -19.5 61.5t-51 43t-69.5 31.5t-76 32t-69.5 39t-51 58t-19.5 84z" />
<glyph unicode="&#x161;" horiz-adv-x="337" d="M55 599q0 3 9 3h12q1 0 10 -7l81 -70h4l81 70q7 7 10 7h12q9 0 9 -3t-5 -10l-79 -119q-7 -10 -9.5 -12t-10.5 -2h-21q-8 0 -10 2t-9 12l-79 119q-5 7 -5 10zM32 50q0 13 13 27.5t20 14.5q3 0 6 -4t7 -12t8 -13q40 -49 91 -49q27 0 45 16t18 46q0 31 -22 49.5t-65 36.5 q-29 13 -42.5 20t-35 22t-31 33.5t-9.5 42.5q0 50 45 83t102 33q52 0 79.5 -23t27.5 -49q0 -8 -16.5 -14t-28.5 -6q-9 0 -15 16t-19.5 32.5t-40.5 16.5q-28 0 -49 -16.5t-21 -50.5q0 -15 5 -25.5t21 -21.5t22 -14l32 -16q33 -15 46 -22t36.5 -23t33.5 -34t10 -40 q0 -54 -42.5 -87.5t-101.5 -33.5q-47 0 -88 19.5t-41 45.5z" />
<glyph unicode="&#x162;" horiz-adv-x="690" d="M18 542q0 1 3 22.5t7 53.5t6 54q1 11 4 14.5t15 3.5q16 0 16 -9v-10q0 -5 105 -5h357q106 0 106 8q1 10 4.5 13t11.5 3q12 0 16 -2t4 -12q0 -2 -2 -45.5t-2 -89.5q0 -7 -3.5 -8.5t-15.5 -1.5q-18 0 -18 14q0 2 1.5 38t1.5 42q0 7 -110 7h-115q-5 0 -8 -155v-29 q-1 -28 -2 -72.5t-2 -94.5t-1.5 -102t-0.5 -87q0 -62 2 -62h71q9 0 11.5 -3.5t2.5 -12.5q0 -12 -2.5 -16t-11.5 -4t-108 3l-23 -63q-1 -3 1 -3q1 0 6 1q12 3 26 3q41 0 64.5 -22t23.5 -49q0 -36 -30.5 -65.5t-78.5 -29.5q-54 0 -83 26q-3 3 -3 9q0 10 10 10q2 0 10.5 -4 t22 -7.5t28.5 -3.5q34 0 48.5 12.5t14.5 40.5q0 42 -52 42q-11 0 -23.5 -4.5t-13.5 -4.5q-2 0 -6.5 3t-4.5 5q0 7 40 104q-102 -3 -112 -3t-12.5 4t-2.5 17q0 10 3.5 12.5t15.5 2.5h62q6 0 9.5 194.5t3.5 320.5q0 87 -6 87h-142q-92 0 -94 -10l-8 -77q-1 -9 -3.5 -11.5 t-11.5 -2.5q-22 0 -22 11z" />
<glyph unicode="&#x163;" horiz-adv-x="289" d="M31 344q0 5 5 10l91 127q6 9 13 9q11 0 11 -12q0 -1 -1.5 -21.5t-3 -44t-1.5 -30.5q0 -5 1 -6t7 -1h103q7 0 7 -6q0 -1 -3 -16q-5 -18 -16 -18h-95q-4 0 -4 -43v-192q0 -19 2 -30t12.5 -20t30.5 -9q23 0 52 8t30 8q5 0 5 -15q0 -6 -5 -10q-15 -11 -49 -25t-60 -18 l-20 -55q-1 -3 1 -3q1 0 6 1q12 3 26 3q41 0 64.5 -22t23.5 -49q0 -36 -30.5 -65.5t-78.5 -29.5q-54 0 -83 26q-3 3 -3 9q0 10 10 10q2 0 10.5 -4t22 -7.5t28.5 -3.5q34 0 48.5 12.5t14.5 40.5q0 42 -52 42q-11 0 -23.5 -4.5t-13.5 -4.5q-2 0 -6.5 3t-4.5 5q0 6 36 95 q-35 3 -50.5 24t-15.5 47q0 41 1 124.5t1 92.5q0 58 -11 58h-25q-8 0 -8 10z" />
<glyph unicode="&#x164;" horiz-adv-x="690" d="M230 842q0 4 8 4h12q4 0 12 -6l80 -45q3 -1 6 0l80 45q12 6 14 6h12q6 0 6 -4l-6 -9l-78 -89q-13 -14 -18 -14h-24q-8 0 -18 14l-80 89q-6 6 -6 9zM18 542q0 1 3 22.5t7 53.5t6 54q1 11 4 14.5t15 3.5q16 0 16 -9v-10q0 -5 105 -5h357q106 0 106 8q1 10 4.5 13t11.5 3 q12 0 16 -2t4 -12q0 -2 -2 -45.5t-2 -89.5q0 -7 -3.5 -8.5t-15.5 -1.5q-18 0 -18 14q0 2 1.5 38t1.5 42q0 7 -110 7h-115q-5 0 -8 -155v-29q-1 -28 -2 -72.5t-2 -94.5t-1.5 -102t-0.5 -87q0 -62 2 -62h71q9 0 11.5 -3.5t2.5 -12.5q0 -12 -2.5 -16t-11.5 -4q-11 0 -57.5 1.5 t-62.5 1.5t-64 -1.5t-59 -1.5q-10 0 -12.5 4t-2.5 17q0 10 3.5 12.5t15.5 2.5h62q6 0 9.5 194.5t3.5 320.5q0 87 -6 87h-142q-92 0 -94 -10l-8 -77q-1 -9 -3.5 -11.5t-11.5 -2.5q-22 0 -22 11z" />
<glyph unicode="&#x165;" horiz-adv-x="289" d="M186 491q0 3 2.5 27.5t5.5 60.5t5 54q3 36 38 36q15 0 25 -8.5t10 -23.5q0 -7 -3 -14l-51 -124q-7 -14 -11 -14h-15q-6 0 -6 6zM31 344q0 5 5 10l91 127q6 9 13 9q11 0 11 -12q0 -1 -1.5 -21.5t-3 -44t-1.5 -30.5q0 -5 1 -6t7 -1h103q7 0 7 -6q0 -1 -3 -16 q-5 -18 -16 -18h-95q-4 0 -4 -43v-192q0 -19 2 -30t12.5 -20t30.5 -9q23 0 52 8t30 8q5 0 5 -15q0 -6 -5 -10q-18 -13 -59 -28.5t-65 -15.5q-39 0 -57 21.5t-18 49.5q0 41 1 124.5t1 92.5q0 58 -11 58h-25q-8 0 -8 10z" />
<glyph unicode="&#x166;" horiz-adv-x="690" d="M18 542q0 1 3 22.5t7 53.5t6 54q1 11 4 14.5t15 3.5q16 0 16 -9v-10q0 -5 105 -5h357q106 0 106 8q1 10 4.5 13t11.5 3q12 0 16 -2t4 -12q0 -2 -2 -45.5t-2 -89.5q0 -7 -3.5 -8.5t-15.5 -1.5q-18 0 -18 14q0 2 1.5 38t1.5 42q0 7 -110 7h-115q-5 0 -8 -155v-13 q-1 -12 -1.5 -37t-0.5 -51q0 -13 2 -15.5t14 -2.5h146q6 0 6 -15t-6 -15h-146q-13 0 -15 -2t-2 -14q0 -27 -1 -74.5t-1.5 -83.5t-0.5 -62q0 -62 2 -62h71q9 0 11.5 -3.5t2.5 -12.5q0 -12 -2.5 -16t-11.5 -4q-11 0 -57.5 1.5t-62.5 1.5t-64 -1.5t-59 -1.5q-10 0 -12.5 4 t-2.5 17q0 10 3.5 12.5t15.5 2.5h62q7 0 11 282q0 12 -2 14t-15 2h-143q-6 0 -6 16q0 14 6 14h143q14 0 16 2t2 16q1 72 1 169q0 87 -6 87h-142q-92 0 -94 -10l-8 -77q-1 -9 -3.5 -11.5t-11.5 -2.5q-22 0 -22 11z" />
<glyph unicode="&#x167;" horiz-adv-x="289" d="M31 344q0 5 5 10l91 127q6 9 13 9q11 0 11 -12q0 -1 -1.5 -21.5t-3 -44t-1.5 -30.5q0 -5 1 -6t7 -1h103q7 0 7 -6q0 -1 -3 -16q-5 -18 -16 -18h-95q-4 0 -4 -43v-67q0 -5 1 -6t6 -1h101q5 0 5 -15t-5 -15h-101q-5 0 -6 -1t-1 -6v-81q0 -19 2 -30t12.5 -20t30.5 -9 q23 0 52 8t30 8q5 0 5 -15q0 -6 -5 -10q-18 -13 -59 -28.5t-65 -15.5q-39 0 -57 21.5t-18 49.5q0 17 0.5 60t0.5 65q0 4 -5 4h-32q-5 0 -5 16q0 14 5 14h33q4 0 4.5 0.5t0.5 4.5v53q0 58 -11 58h-25q-8 0 -8 10z" />
<glyph unicode="&#x168;" horiz-adv-x="755" d="M276 748q0 8 8 27q11 28 27.5 42.5t31.5 14.5q18 0 47.5 -19t40.5 -19q24 0 34 33q2 7 3.5 8t7.5 1q13 0 13 -4q0 -10 -7 -29q-23 -60 -63 -60q-19 0 -46.5 18.5t-41.5 18.5q-22 0 -32 -29q-1 -5 -1.5 -5.5t-3 -1.5t-8.5 -1q-10 0 -10 5zM37 649q0 12 3.5 15t14.5 3 q6 0 42 -1.5t53 -1.5q16 0 60.5 1.5t55.5 1.5q10 0 12.5 -4t2.5 -17q0 -10 -3.5 -12.5t-15.5 -2.5h-65q-5 0 -9 -167t-4 -236q0 -96 47 -143.5t151 -47.5q92 0 170 53q16 11 19 21q5 16 5 136v305q0 79 -6 79h-50q-11 0 -15.5 3t-4.5 15t4.5 15t15.5 3q6 0 46 -1.5t57 -1.5 t46 1.5t32 1.5q10 0 13.5 -4t3.5 -17q0 -10 -4 -12.5t-17 -2.5h-23q-4 0 -5.5 -41t-3 -134t-2.5 -139q-1 -57 -3 -128t-3 -113t-1 -51q0 -35 -24 -35q-13 0 -33 36.5t-29 36.5t-45 -20q-40 -23 -96.5 -40t-110.5 -17q-59 0 -101 14t-65 35t-36 55t-16.5 64t-3.5 73 q0 11 0.5 157t0.5 191q0 56 -4 56h-38q-10 0 -14 3t-4 15z" />
<glyph unicode="&#x169;" horiz-adv-x="510" d="M132 498q0 8 8 27q11 28 27.5 42.5t31.5 14.5q18 0 47.5 -19t40.5 -19q24 0 34 33q2 7 3.5 8t7.5 1q13 0 13 -4q0 -10 -7 -29q-23 -60 -63 -60q-19 0 -46.5 18.5t-41.5 18.5q-22 0 -32 -29q-1 -5 -1.5 -5.5t-3 -1.5t-8.5 -1q-10 0 -10 5zM11 357q0 7 4 17q3 8 14 9h4 q88 4 114 4q6 0 6 -9v-272q0 -64 108 -64q28 0 58 4t30 9v118q0 183 -8 183q-5 0 -27 -1t-23 -1q-8 0 -8 3q0 12 2 18q1 9 13 9q22 1 50.5 2t46 2t19.5 1q4 0 6 -0.5t3 -2t1 -2v-4.5q-1 -239 -1 -301q0 -37 3 -46.5t13 -9.5q1 0 21.5 3t22.5 3q6 0 6 -13q0 -12 -1.5 -14.5 t-11.5 -3.5q-116 -17 -119 -17t-4.5 25.5t-2.5 25.5l-10 -4q-10 -5 -26.5 -12t-36 -14t-43.5 -11.5t-45 -4.5q-66 0 -89 37.5t-23 98.5v157q0 74 -9 74q-1 0 -24 -0.5t-25 -0.5q-8 0 -8 5z" />
<glyph unicode="&#x16a;" horiz-adv-x="755" d="M279 788v23q0 11 10 11h191q9 0 9 -10v-25q0 -5 -0.5 -7t-2 -3t-6.5 -1h-191q-7 0 -8.5 2t-1.5 10zM37 649q0 12 3.5 15t14.5 3q6 0 42 -1.5t53 -1.5q16 0 60.5 1.5t55.5 1.5q10 0 12.5 -4t2.5 -17q0 -10 -3.5 -12.5t-15.5 -2.5h-65q-5 0 -9 -167t-4 -236 q0 -96 47 -143.5t151 -47.5q92 0 170 53q16 11 19 21q5 16 5 136v305q0 79 -6 79h-50q-11 0 -15.5 3t-4.5 15t4.5 15t15.5 3q6 0 46 -1.5t57 -1.5t46 1.5t32 1.5q10 0 13.5 -4t3.5 -17q0 -10 -4 -12.5t-17 -2.5h-23q-4 0 -5.5 -41t-3 -134t-2.5 -139q-1 -57 -3 -128t-3 -113 t-1 -51q0 -35 -24 -35q-13 0 -33 36.5t-29 36.5t-45 -20q-40 -23 -96.5 -40t-110.5 -17q-59 0 -101 14t-65 35t-36 55t-16.5 64t-3.5 73q0 11 0.5 157t0.5 191q0 56 -4 56h-38q-10 0 -14 3t-4 15z" />
<glyph unicode="&#x16b;" horiz-adv-x="510" d="M135 518v23q0 7 1 9t7 2h193q9 0 9 -10v-25q0 -5 -0.5 -7t-2 -3t-6.5 -1h-193q-8 0 -8 12zM11 357q0 7 4 17q3 8 14 9h4q88 4 114 4q6 0 6 -9v-272q0 -64 108 -64q28 0 58 4t30 9v118q0 183 -8 183q-5 0 -27 -1t-23 -1q-8 0 -8 3q0 12 2 18q1 9 13 9q22 1 50.5 2t46 2 t19.5 1q4 0 6 -0.5t3 -2t1 -2v-4.5q-1 -239 -1 -301q0 -37 3 -46.5t13 -9.5q1 0 21.5 3t22.5 3q6 0 6 -13q0 -12 -1.5 -14.5t-11.5 -3.5q-116 -17 -119 -17t-4.5 25.5t-2.5 25.5l-10 -4q-10 -5 -26.5 -12t-36 -14t-43.5 -11.5t-45 -4.5q-66 0 -89 37.5t-23 98.5v157 q0 74 -9 74q-1 0 -24 -0.5t-25 -0.5q-8 0 -8 5z" />
<glyph unicode="&#x16c;" horiz-adv-x="755" d="M278 832q0 9 1 9h22q1 0 2 -6t5 -15t11 -18t24 -15t41 -6q23 0 40 6t24.5 15t11 18t5 15t2.5 6h22q1 0 1 -9q0 -46 -27 -76t-79 -30t-79 30t-27 76zM37 649q0 12 3.5 15t14.5 3q6 0 42 -1.5t53 -1.5q16 0 60.5 1.5t55.5 1.5q10 0 12.5 -4t2.5 -17q0 -10 -3.5 -12.5 t-15.5 -2.5h-65q-5 0 -9 -167t-4 -236q0 -96 47 -143.5t151 -47.5q92 0 170 53q16 11 19 21q5 16 5 136v305q0 79 -6 79h-50q-11 0 -15.5 3t-4.5 15t4.5 15t15.5 3q6 0 46 -1.5t57 -1.5t46 1.5t32 1.5q10 0 13.5 -4t3.5 -17q0 -10 -4 -12.5t-17 -2.5h-23q-4 0 -5.5 -41 t-3 -134t-2.5 -139q-1 -57 -3 -128t-3 -113t-1 -51q0 -35 -24 -35q-13 0 -33 36.5t-29 36.5t-45 -20q-40 -23 -96.5 -40t-110.5 -17q-59 0 -101 14t-65 35t-36 55t-16.5 64t-3.5 73q0 11 0.5 157t0.5 191q0 56 -4 56h-38q-10 0 -14 3t-4 15z" />
<glyph unicode="&#x16d;" horiz-adv-x="510" d="M134 579q0 10 2 10h21q1 0 2 -5.5t3.5 -14.5t5.5 -15q22 -40 72 -40t72 40q3 6 5.5 15l4 14.5t3.5 5.5h19q2 0 2 -9q0 -49 -27 -86.5t-79 -37.5t-79 37t-27 86zM11 357q0 7 4 17q3 8 14 9h4q88 4 114 4q6 0 6 -9v-272q0 -64 108 -64q28 0 58 4t30 9v118q0 183 -8 183 q-5 0 -27 -1t-23 -1q-8 0 -8 3q0 12 2 18q1 9 13 9q22 1 50.5 2t46 2t19.5 1q4 0 6 -0.5t3 -2t1 -2v-4.5q-1 -239 -1 -301q0 -37 3 -46.5t13 -9.5q1 0 21.5 3t22.5 3q6 0 6 -13q0 -12 -1.5 -14.5t-11.5 -3.5q-116 -17 -119 -17t-4.5 25.5t-2.5 25.5l-10 -4q-10 -5 -26.5 -12 t-36 -14t-43.5 -11.5t-45 -4.5q-66 0 -89 37.5t-23 98.5v157q0 74 -9 74q-1 0 -24 -0.5t-25 -0.5q-8 0 -8 5z" />
<glyph unicode="&#x16e;" horiz-adv-x="755" d="M310 785q0 31 21.5 52.5t52.5 21.5t52.5 -21.5t21.5 -52.5t-21.5 -52.5t-52.5 -21.5t-52.5 21.5t-21.5 52.5zM344 785q0 -17 12 -28.5t28 -11.5t28 11.5t12 28.5t-12 28.5t-28 11.5t-28 -11.5t-12 -28.5zM37 649q0 12 3.5 15t14.5 3q6 0 42 -1.5t53 -1.5q16 0 60.5 1.5 t55.5 1.5q10 0 12.5 -4t2.5 -17q0 -10 -3.5 -12.5t-15.5 -2.5h-65q-5 0 -9 -167t-4 -236q0 -96 47 -143.5t151 -47.5q92 0 170 53q16 11 19 21q5 16 5 136v305q0 79 -6 79h-50q-11 0 -15.5 3t-4.5 15t4.5 15t15.5 3q6 0 46 -1.5t57 -1.5t46 1.5t32 1.5q10 0 13.5 -4t3.5 -17 q0 -10 -4 -12.5t-17 -2.5h-23q-4 0 -5.5 -41t-3 -134t-2.5 -139q-1 -57 -3 -128t-3 -113t-1 -51q0 -35 -24 -35q-13 0 -33 36.5t-29 36.5t-45 -20q-40 -23 -96.5 -40t-110.5 -17q-59 0 -101 14t-65 35t-36 55t-16.5 64t-3.5 73q0 11 0.5 157t0.5 191q0 56 -4 56h-38 q-10 0 -14 3t-4 15z" />
<glyph unicode="&#x16f;" horiz-adv-x="510" d="M166 535q0 31 21.5 52.5t52.5 21.5t52.5 -21.5t21.5 -52.5t-21.5 -52.5t-52.5 -21.5t-52.5 21.5t-21.5 52.5zM200 535q0 -17 12 -28.5t28 -11.5t28 11.5t12 28.5t-12 28.5t-28 11.5t-28 -11.5t-12 -28.5zM11 357q0 7 4 17q3 8 14 9h4q88 4 114 4q6 0 6 -9v-272 q0 -64 108 -64q28 0 58 4t30 9v118q0 183 -8 183q-5 0 -27 -1t-23 -1q-8 0 -8 3q0 12 2 18q1 9 13 9q22 1 50.5 2t46 2t19.5 1q4 0 6 -0.5t3 -2t1 -2v-4.5q-1 -239 -1 -301q0 -37 3 -46.5t13 -9.5q1 0 21.5 3t22.5 3q6 0 6 -13q0 -12 -1.5 -14.5t-11.5 -3.5 q-116 -17 -119 -17t-4.5 25.5t-2.5 25.5l-10 -4q-10 -5 -26.5 -12t-36 -14t-43.5 -11.5t-45 -4.5q-66 0 -89 37.5t-23 98.5v157q0 74 -9 74q-1 0 -24 -0.5t-25 -0.5q-8 0 -8 5z" />
<glyph unicode="&#x170;" horiz-adv-x="755" d="M302 729q0 1 4 9l53 86q17 26 37 26q16 0 24.5 -8t8.5 -20q0 -16 -15 -29l-72 -60l-4 -3q-3 -4 -6 -4h-24q-6 0 -6 3zM422 729q0 1 4 9l53 86q17 26 37 26q16 0 24.5 -8t8.5 -20q0 -16 -15 -29l-72 -60l-4 -3q-3 -4 -6 -4h-24q-6 0 -6 3zM37 649q0 12 3.5 15t14.5 3 q6 0 42 -1.5t53 -1.5q16 0 60.5 1.5t55.5 1.5q10 0 12.5 -4t2.5 -17q0 -10 -3.5 -12.5t-15.5 -2.5h-65q-5 0 -9 -167t-4 -236q0 -96 47 -143.5t151 -47.5q92 0 170 53q16 11 19 21q5 16 5 136v305q0 79 -6 79h-50q-11 0 -15.5 3t-4.5 15t4.5 15t15.5 3q6 0 46 -1.5t57 -1.5 t46 1.5t32 1.5q10 0 13.5 -4t3.5 -17q0 -10 -4 -12.5t-17 -2.5h-23q-4 0 -5.5 -41t-3 -134t-2.5 -139q-1 -57 -3 -128t-3 -113t-1 -51q0 -35 -24 -35q-13 0 -33 36.5t-29 36.5t-45 -20q-40 -23 -96.5 -40t-110.5 -17q-59 0 -101 14t-65 35t-36 55t-16.5 64t-3.5 73 q0 11 0.5 157t0.5 191q0 56 -4 56h-38q-10 0 -14 3t-4 15z" />
</font>
</defs>
</svg>
